<svg xmlns="http://www.w3.org/2000/svg" width="41.93" height="11.326" viewBox="0 0 41.93 11.326">
  <path id="パス_61" data-name="パス 61" d="M1.232,0H6.86V-1.064H4.8V-9.982h-.98a5.912,5.912,0,0,1-2.128.728v.826h1.82v7.364H1.232ZM10.3,0h1.54L13.37-6.188c.168-.812.35-1.554.518-2.338h.056c.168.784.322,1.526.5,2.338L16,0h1.554l2.128-10.276H18.438l-1.078,5.6q-.294,1.638-.588,3.318H16.7c-.238-1.12-.476-2.226-.728-3.318l-1.428-5.6h-1.19l-1.414,5.6c-.252,1.106-.5,2.212-.742,3.318h-.056c-.2-1.106-.406-2.212-.6-3.318l-1.078-5.6H8.134ZM24.416.182A4.525,4.525,0,0,0,26.936-.6l-.462-.84a3.277,3.277,0,0,1-1.9.6A2.519,2.519,0,0,1,22.05-3.5h5.124a4.973,4.973,0,0,0,.056-.728c0-2.17-1.092-3.57-3.024-3.57-1.764,0-3.43,1.54-3.43,4A3.633,3.633,0,0,0,24.416.182Zm-2.38-4.606A2.335,2.335,0,0,1,24.22-6.776c1.19,0,1.89.826,1.89,2.352ZM32.172.182A4.525,4.525,0,0,0,34.692-.6l-.462-.84a3.277,3.277,0,0,1-1.9.6,2.519,2.519,0,0,1-2.52-2.66H34.93a4.974,4.974,0,0,0,.056-.728c0-2.17-1.092-3.57-3.024-3.57-1.764,0-3.43,1.54-3.43,4A3.633,3.633,0,0,0,32.172.182Zm-2.38-4.606a2.335,2.335,0,0,1,2.184-2.352c1.19,0,1.89.826,1.89,2.352ZM36.862,0h1.26V-2L39.55-3.668,41.776,0h1.386l-2.87-4.536L42.826-7.6H41.4L38.164-3.584h-.042v-7.56h-1.26Z" transform="translate(-1.232 11.144)" fill="#fff"/>
</svg>
