<svg xmlns="http://www.w3.org/2000/svg" width="73.934" height="11.326" viewBox="0 0 73.934 11.326">
  <path id="パス_63" data-name="パス 63" d="M3.7.182c1.82,0,3.29-1.064,3.29-2.842a2.614,2.614,0,0,0-2.17-2.548v-.056A2.454,2.454,0,0,0,6.636-7.63c0-1.624-1.26-2.534-2.982-2.534A4.062,4.062,0,0,0,.784-8.918l.686.8A3.011,3.011,0,0,1,3.6-9.128,1.552,1.552,0,0,1,5.334-7.546c0,1.05-.728,1.876-2.842,1.876v.98c2.366,0,3.192.784,3.192,1.974A1.869,1.869,0,0,1,3.6-.882,3.393,3.393,0,0,1,1.05-2.058l-.644.84A4.248,4.248,0,0,0,3.7.182Zm13.818-5.11a4.2,4.2,0,0,0,3.15,1.5,4.181,4.181,0,0,0,3.654-2.45l-.994-.532a3.088,3.088,0,0,1-2.646,1.848A3.232,3.232,0,0,1,18.3-5.712a4.2,4.2,0,0,0-3.15-1.5,4.181,4.181,0,0,0-3.654,2.45l.994.532a3.088,3.088,0,0,1,2.646-1.848A3.209,3.209,0,0,1,17.514-4.928ZM29.652-3.78,31.99-7.21c.294-.49.574-.924.826-1.4h.056c-.028.532-.07,1.386-.07,1.9V-3.78ZM32.8,0h1.2V-2.758h1.358V-3.78H34.006v-6.2H32.592L28.322-3.6v.84H32.8Zm8.68,0h1.54l1.526-6.188c.168-.812.35-1.554.518-2.338h.056c.168.784.322,1.526.5,2.338L47.18,0h1.554l2.128-10.276H49.616l-1.078,5.6q-.294,1.638-.588,3.318h-.07c-.238-1.12-.476-2.226-.728-3.318l-1.428-5.6h-1.19l-1.414,5.6c-.252,1.106-.5,2.212-.742,3.318h-.056c-.2-1.106-.406-2.212-.6-3.318l-1.078-5.6h-1.33ZM55.594.182A4.525,4.525,0,0,0,58.114-.6l-.462-.84a3.277,3.277,0,0,1-1.9.6,2.519,2.519,0,0,1-2.52-2.66h5.124a4.974,4.974,0,0,0,.056-.728c0-2.17-1.092-3.57-3.024-3.57-1.764,0-3.43,1.54-3.43,4A3.633,3.633,0,0,0,55.594.182Zm-2.38-4.606A2.335,2.335,0,0,1,55.4-6.776c1.19,0,1.89.826,1.89,2.352ZM63.35.182A4.525,4.525,0,0,0,65.87-.6l-.462-.84a3.277,3.277,0,0,1-1.9.6,2.519,2.519,0,0,1-2.52-2.66h5.124a4.974,4.974,0,0,0,.056-.728c0-2.17-1.092-3.57-3.024-3.57-1.764,0-3.43,1.54-3.43,4A3.633,3.633,0,0,0,63.35.182ZM60.97-4.424a2.335,2.335,0,0,1,2.184-2.352c1.19,0,1.89.826,1.89,2.352ZM68.04,0H69.3V-2l1.428-1.666L72.954,0H74.34L71.47-4.536,74-7.6H72.576L69.342-3.584H69.3v-7.56H68.04Z" transform="translate(-0.406 11.144)" fill="#fff"/>
</svg>
