<svg xmlns="http://www.w3.org/2000/svg" width="560.01" height="81.986" viewBox="0 0 560.01 81.986">
  <g id="グループ_200" data-name="グループ 200" transform="translate(-420 -1380)">
    <path id="パス_52" data-name="パス 52" d="M1.408,0H16.16V-2.528h-6.5c-1.184,0-2.624.128-3.84.224,5.5-5.216,9.184-9.984,9.184-14.656,0-4.192-2.624-6.944-6.816-6.944-2.976,0-4.992,1.376-6.912,3.456l1.7,1.664A6.569,6.569,0,0,1,7.84-21.5c2.912,0,4.32,1.952,4.32,4.64,0,4.032-3.392,8.7-10.752,15.136ZM23.264-21.952V-19.1c.736-.032,2.336-.1,3.52-.1H42.112V-4.1H26.4a33.789,33.789,0,0,1-3.552-.192v2.912c.864-.064,2.3-.128,3.616-.128H42.112c-.032.768-.032,1.44-.064,1.792h2.88c-.032-.512-.128-1.952-.128-3.1V-19.328c0-.768.064-1.76.1-2.5-.64.032-1.6.064-2.368.064H26.752A32.292,32.292,0,0,1,23.264-21.952Zm29.76,8.1v3.136c.992-.1,2.688-.16,4.448-.16H75.04c1.44,0,2.784.128,3.424.16v-3.136c-.7.064-1.856.16-3.456.16H57.472C55.68-13.7,53.984-13.792,53.024-13.856Zm52.736-7.552-1.632-1.248a8.762,8.762,0,0,1-2.4.256H89.376c-.96,0-2.784-.128-3.232-.192v2.912c.352-.032,2.112-.16,3.232-.16h12.48a28.159,28.159,0,0,1-5.312,8.9A36.592,36.592,0,0,1,83.36-1.44L85.408.7A40.567,40.567,0,0,0,97.888-8.64a73.884,73.884,0,0,1,8.8,9.5l2.24-1.92a88.768,88.768,0,0,0-9.344-9.568A40.5,40.5,0,0,0,104.96-20,9.18,9.18,0,0,1,105.76-21.408Zm20.416-3.552-2.976-.32a33.435,33.435,0,0,1-.832,6.976c-1.92.16-3.808.32-4.864.352a28.179,28.179,0,0,1-2.848,0l.256,2.784c.832-.128,2.144-.288,2.88-.384.832-.1,2.368-.288,4.064-.448-1.088,4.288-3.488,11.584-6.752,15.968L117.728.992c3.36-5.408,5.536-12.64,6.72-17.248,1.408-.128,2.688-.224,3.456-.224,2.016,0,3.392.544,3.392,3.488,0,3.456-.512,7.616-1.536,9.792a2.643,2.643,0,0,1-2.784,1.632,15.571,15.571,0,0,1-3.936-.64l.416,2.656a17.4,17.4,0,0,0,3.776.48c2.08,0,3.648-.544,4.672-2.688,1.344-2.656,1.856-7.744,1.856-11.552,0-4.32-2.336-5.408-5.184-5.408-.768,0-2.112.1-3.616.224.352-1.76.64-3.648.832-4.576C125.92-23.68,126.048-24.384,126.176-24.96Zm11.008,3.392-2.336,1.056c2.272,2.656,4.768,8.288,5.7,11.584l2.5-1.184C141.952-13.088,139.168-18.976,137.184-21.568Zm17.7-3.52-.64,2.432c2.432.672,9.376,2.08,12.416,2.5l.608-2.464A87.407,87.407,0,0,1,154.88-25.088Zm-.7,5.824-2.688-.352a114.263,114.263,0,0,1-1.632,12.992l2.368.576a5.054,5.054,0,0,1,.96-1.6,12.543,12.543,0,0,1,9.92-4.288c3.264,0,5.632,1.824,5.632,4.384,0,4.384-4.928,7.3-15.04,6.048l.768,2.624c11.9.992,16.96-2.88,16.96-8.608,0-3.744-3.264-6.688-8.16-6.688a15.36,15.36,0,0,0-10.432,3.9C153.184-12.32,153.728-17.088,154.176-19.264Zm35.136-6.3h-2.848a16.875,16.875,0,0,1,.16,2.272c0,.576-.032,1.984-.032,3.648-.9.064-1.728.1-2.464.1a29.611,29.611,0,0,1-4.1-.256l.064,2.432a35.151,35.151,0,0,0,4.1.16c.672,0,1.472-.032,2.368-.1-.032,1.408-.032,2.912-.032,4.192V-11.3c-3.68,1.568-7.008,4.352-7.008,7.008,0,2.848,4.16,5.312,6.656,5.312,1.728,0,2.816-.96,2.816-3.936,0-1.376-.064-4.224-.128-6.944A20.962,20.962,0,0,1,195.84-11.1c3.04,0,5.5,1.472,5.5,4.192,0,2.944-2.56,4.448-5.376,4.992a16.365,16.365,0,0,1-3.744.224L193.12.9a24.266,24.266,0,0,0,3.968-.448c4.384-1.056,6.816-3.52,6.816-7.392,0-3.84-3.36-6.368-8.032-6.368a24.2,24.2,0,0,0-7.04,1.184v-1.12c0-1.28.032-2.816.064-4.32a58.746,58.746,0,0,0,6.72-1.12l-.064-2.5a43.036,43.036,0,0,1-6.592,1.28c.032-1.44.1-2.688.128-3.456A20.53,20.53,0,0,1,189.312-25.568Zm9.92,3.552L198.08-20.1a40.591,40.591,0,0,1,7.168,4.8l1.312-2.048A58.166,58.166,0,0,0,199.232-22.016Zm-17.216,17.6c0-1.44,1.952-3.3,4.576-4.512.032,2.336.1,4.512.1,5.664,0,1.056-.448,1.568-1.184,1.568C184.256-1.7,182.016-2.944,182.016-4.416Zm52.96-17.376h-6.144v3.328c0,1.92.672,2.4,3.04,2.4h4.288c1.7,0,2.3-.576,2.528-2.72a5.759,5.759,0,0,1-1.76-.672c-.1,1.5-.256,1.7-1.024,1.7H232.1c-1.056,0-1.248-.128-1.248-.736v-1.632h6.24v-5.408h-8.864v1.664h6.752Zm-10.3,0H218.4v3.328c0,1.92.608,2.4,2.976,2.4h3.968c1.632,0,2.24-.544,2.464-2.624a4.489,4.489,0,0,1-1.76-.672c-.1,1.408-.256,1.6-1.024,1.6h-3.456c-1.024,0-1.184-.128-1.184-.7v-1.664h6.3v-5.408h-8.864v1.664h6.848Zm.512,10.272h5.248v3.04h-5.248ZM238.5-8.48H232.7v-3.04h4.8v-1.824h-4.8v-2.3h-2.272v2.3h-5.248v-2.3h-2.208v2.3H218.24v1.824h4.736v3.04h-5.76v1.856H238.5Zm-.48,6.112a39.169,39.169,0,0,0-6.464-3.84l-1.7,1.056a30.929,30.929,0,0,1,5.856,3.808Zm-13.984-3.9a21.133,21.133,0,0,1-5.952,3.36,11.469,11.469,0,0,1,1.76,1.5,27.5,27.5,0,0,0,6.3-4.128ZM216.608-20.7a21.96,21.96,0,0,0-4.9-5.312L209.888-24.8a21.909,21.909,0,0,1,4.736,5.44Zm-.736,6.464h-6.144V-12h3.936v8.256a47.385,47.385,0,0,1-4.32,3.68l1.248,2.208c1.536-1.408,2.976-2.752,4.32-4.16,1.984,2.528,4.9,3.68,9.12,3.84,3.616.128,10.528.064,14.144-.1a8.042,8.042,0,0,1,.768-2.24c-3.9.256-11.36.352-14.976.192-3.744-.16-6.592-1.248-8.1-3.648Zm47.168-8.928-2.528.736c.224.8.48,1.6.736,2.336,2.08,11.9-.608,19.584-8,19.584-3.264,0-6.24-1.5-6.24-6.048,0-6.56,4.9-12.16,6.912-13.664a13.274,13.274,0,0,1,1.7-.576l-.768-2.24a48.211,48.211,0,0,1-10.08,1.6,15.516,15.516,0,0,1-1.728,0l.192,2.688c.64-.128,1.184-.192,1.792-.288,1.152-.128,3.808-.448,5.408-.7-2.816,3.168-5.92,7.776-5.92,13.728,0,5.312,3.648,8.128,8.672,8.128,8.864,0,11.3-7.712,10.624-15.808a25.654,25.654,0,0,0,4.32,6.368l1.7-2.272C265.088-13.824,263.712-19.3,263.04-23.168Zm2.784-1.792-1.6.544a40.374,40.374,0,0,1,2.144,4.576l1.664-.64C267.488-21.792,266.464-23.776,265.824-24.96Zm3.264-1.248-1.568.608a32.36,32.36,0,0,1,2.176,4.48l1.664-.608C270.752-23.072,269.792-25.024,269.088-26.208ZM279.3-22.336l-3.1-.064a14.436,14.436,0,0,1,.224,2.848c0,1.856.064,5.76.352,8.544.864,8.288,3.776,11.3,6.816,11.3,2.144,0,4.1-1.856,6.016-7.3L287.584-9.28c-.832,3.2-2.336,6.528-3.968,6.528-2.272,0-3.84-3.552-4.352-8.9-.224-2.656-.256-5.568-.224-7.584A24.366,24.366,0,0,1,279.3-22.336Zm16.672.9-2.5.864c3.072,3.744,4.992,10.3,5.568,16.1l2.56-1.056C301.12-10.944,298.816-17.728,295.968-21.44ZM322.016-7.648l-2.4-.224a20,20,0,0,0-.48,3.776c0,3.168,2.752,4.7,7.808,4.7A42.541,42.541,0,0,0,333.12.16l.1-2.592a30.8,30.8,0,0,1-6.24.64c-4.576,0-5.408-1.472-5.408-2.976A11.315,11.315,0,0,1,322.016-7.648Zm-3.68-17.536-3.072-.256a12.793,12.793,0,0,1-.1,2.656c-.1.64-.256,1.664-.48,2.784-1.248.1-2.4.16-3.456.16a28.989,28.989,0,0,1-3.84-.224l.1,2.5c1.152.064,2.3.128,3.712.128.9,0,1.888-.032,2.944-.1-.256,1.152-.544,2.368-.832,3.424C312.128-9.6,309.856-3.1,307.936.192l2.816.96A98.072,98.072,0,0,0,315.744-13.5c.384-1.408.736-2.88,1.024-4.288a61.451,61.451,0,0,0,6.656-1.088v-2.528a47.377,47.377,0,0,1-6.144,1.152c.192-.864.352-1.7.48-2.368C317.888-23.264,318.144-24.48,318.336-25.184Zm3.008,9.76v2.368a52.585,52.585,0,0,1,5.952-.32,40.459,40.459,0,0,1,5.376.384l.064-2.432a51.219,51.219,0,0,0-5.536-.288C325.152-15.712,323.04-15.584,321.344-15.424ZM353.056-7.2l-2.4-.224a17.949,17.949,0,0,0-.48,3.776c0,3.168,2.752,4.736,7.808,4.736a42.151,42.151,0,0,0,6.176-.48l.1-2.592a30.8,30.8,0,0,1-6.24.64c-4.576,0-5.408-1.472-5.408-2.976A11.315,11.315,0,0,1,353.056-7.2Zm-3.68-17.5L346.3-24.96a12.557,12.557,0,0,1-.1,2.624c-.1.64-.256,1.664-.48,2.784-1.248.1-2.4.16-3.456.16a28.989,28.989,0,0,1-3.84-.224l.1,2.5c1.152.064,2.3.128,3.712.128.9,0,1.888-.032,2.944-.1-.256,1.152-.544,2.368-.832,3.424C343.168-9.152,340.9-2.656,338.976.64l2.816.96a96.834,96.834,0,0,0,4.992-14.656c.384-1.408.7-2.88,1.024-4.288a61.449,61.449,0,0,0,6.656-1.088v-2.5a53.471,53.471,0,0,1-6.144,1.12c.16-.864.352-1.664.48-2.368C348.928-22.816,349.184-24.032,349.376-24.7Zm3.008,9.728v2.4a52.593,52.593,0,0,1,5.952-.352,40.459,40.459,0,0,1,5.376.384l.064-2.432a51.22,51.22,0,0,0-5.536-.288C356.192-15.264,354.08-15.136,352.384-14.976Zm7.936-8.768-1.7.736a36.57,36.57,0,0,1,2.592,4.448l1.728-.768A35.682,35.682,0,0,0,360.32-23.744Zm3.52-1.312-1.664.736a34.028,34.028,0,0,1,2.656,4.448l1.728-.768A41.16,41.16,0,0,0,363.84-25.056Zm28.672.1h-2.976a19.24,19.24,0,0,1,.288,1.92c.064.8.16,2.944.192,4.96-1.344.064-2.72.1-4.032.1a35.881,35.881,0,0,1-5.152-.352v2.56c1.376.1,3.648.192,5.184.192,1.312,0,2.688-.032,4.064-.1v.992c0,6.144-.192,9.76-3.616,12.768a10.493,10.493,0,0,1-3.1,1.984L385.7,1.888c6.784-4,6.784-9.216,6.784-16.576v-1.12c1.92-.128,3.712-.32,5.184-.544v-2.624a37.893,37.893,0,0,1-5.216.736c-.032-1.984-.064-4.128-.032-4.832A16.487,16.487,0,0,1,392.512-24.96Zm-16.192.48-2.976-.288a13.286,13.286,0,0,1-.16,2.144,86.436,86.436,0,0,0-1.216,12.768,35.653,35.653,0,0,0,1.7,10.144L375.84.032c-.032-.32-.064-.768-.1-1.088a4.83,4.83,0,0,1,.16-1.44c.352-1.568,1.312-4.832,2.08-7.072l-1.376-.832c-.608,1.6-1.28,3.552-1.728,4.9-1.216-5.248-.128-12.256.9-16.9C375.936-23.008,376.16-23.872,376.32-24.48ZM408.352-3.36c0-1.472,1.664-2.656,4.7-2.656a14.192,14.192,0,0,1,3.1.32c0,.832.032,1.6.032,2.144,0,2.208-1.568,2.784-3.392,2.784C409.632-.768,408.352-1.888,408.352-3.36ZM418.5-25.408h-2.72a17.563,17.563,0,0,1,.128,1.92v2.272h-1.472a58.142,58.142,0,0,1-8.192-.7l.032,2.368c2.016.224,5.952.544,8.192.544h1.408v4.48h-1.728a59.2,59.2,0,0,1-8.064-.608l.032,2.4c2.3.256,5.824.448,8,.448h1.824c.032,1.376.1,2.912.128,4.352a18.327,18.327,0,0,0-2.688-.192c-4.608,0-7.392,1.984-7.392,4.9,0,3.072,2.5,4.7,7.1,4.7,4.16,0,5.632-2.272,5.632-4.48,0-.512-.032-1.184-.064-1.984A23.592,23.592,0,0,1,426.4-.16l1.472-2.272a25.465,25.465,0,0,0-9.344-4.992c-.064-1.536-.16-3.264-.224-4.928,3.04-.1,5.856-.352,8.864-.736l.032-2.4a79.628,79.628,0,0,1-8.928.864V-19.1c3.072-.16,6.112-.448,8.64-.736l.032-2.336a79.565,79.565,0,0,1-8.672.864c0-.832.032-1.536.032-1.952A16.014,16.014,0,0,1,418.5-25.408Zm33.728.064h-2.912c.032.256.16,1.184.192,2.016.032.448.064,1.216.064,2.112-4.768.064-10.784.256-14.336.32l.064,2.464c4-.288,9.44-.512,14.3-.544.032,1.12.032,2.272.032,3.232a6.407,6.407,0,0,0-2.144-.352,5.585,5.585,0,0,0-5.632,5.568A5.094,5.094,0,0,0,447.1-5.184a4.507,4.507,0,0,0,2.784-.864c-1.28,2.912-4.224,4.7-8.48,5.664l2.144,2.112c7.456-2.24,9.568-7.04,9.568-11.36a7.776,7.776,0,0,0-1.024-4.1c-.032-1.472-.064-3.456-.064-5.28h.448c4.672,0,7.584.064,9.376.16l.032-2.368c-1.536,0-5.472-.032-9.376-.032h-.48c0-.864.032-1.6.032-2.08C452.1-23.744,452.16-24.992,452.224-25.344ZM444.256-10.56a3.261,3.261,0,0,1,3.232-3.392,2.869,2.869,0,0,1,2.848,2.016c.288,3.04-.928,4.544-2.816,4.544A3.082,3.082,0,0,1,444.256-10.56Zm22.912,2.752A4.882,4.882,0,0,0,462.3-2.944a4.889,4.889,0,0,0,4.864,4.9,4.876,4.876,0,0,0,4.9-4.9A4.869,4.869,0,0,0,467.168-7.808Zm0,8.128a3.25,3.25,0,0,1-3.232-3.264,3.265,3.265,0,0,1,3.232-3.232,3.25,3.25,0,0,1,3.264,3.232A3.237,3.237,0,0,1,467.168.32Z" transform="translate(463.72 1459.842)"/>
    <path id="パス_111" data-name="パス 111" d="M22.83-9.6V-23.07h5.79v-2.22H20.37V-9.6ZM52.68-23.82a20.939,20.939,0,0,1,3.12,4.74l1.77-.99a23.478,23.478,0,0,0-3.15-4.65Zm3.48-1.62a21.986,21.986,0,0,1,3.09,4.65l1.74-.99a22.386,22.386,0,0,0-3.15-4.56Zm-3.12,5.16a3.392,3.392,0,0,1-1.29.15l-7.11.12a4.229,4.229,0,0,0-1.11.09,27.1,27.1,0,0,0,1.32-2.61,4.481,4.481,0,0,1,.66-1.17l-2.94-.69a12.7,12.7,0,0,1-1.8,4.26,22.848,22.848,0,0,1-7.59,8.37,5.508,5.508,0,0,1,2.04,1.83,29.617,29.617,0,0,0,7.11-7.74l9.81-.15a26.468,26.468,0,0,1-5.13,9.78A25.48,25.48,0,0,1,36.51-.63a5.711,5.711,0,0,1,1.8,2.16A29.516,29.516,0,0,0,48.81-6a30.577,30.577,0,0,0,5.85-10.77A2.854,2.854,0,0,1,55.17-18ZM68.1-23.01a14.979,14.979,0,0,1,.09,2.37c0,6.15-.39,9.99-1.32,12.63a14.421,14.421,0,0,1-4.95,6.87A7.267,7.267,0,0,1,64.08.87a18.657,18.657,0,0,0,5.16-7.56c1.11-3.03,1.35-5.22,1.59-13.53a15.586,15.586,0,0,1,.18-2.64Zm7.56-.24a12.756,12.756,0,0,1,.15,2.46v.66L75.63-3.15a7,7,0,0,1-.21,2.37L76.83.78a5.55,5.55,0,0,1,.72-.33c.3-.12.6-.24.96-.36a20.62,20.62,0,0,0,4.23-2.16,17.231,17.231,0,0,0,6.18-7.86A9.92,9.92,0,0,1,86.94-12a14.66,14.66,0,0,1-3.39,5.85,13.214,13.214,0,0,1-5.28,3.48l.15-17.43a17.3,17.3,0,0,1,.21-3.12ZM93.84-9.99a32.774,32.774,0,0,1,4.17-.15h16.8a35.049,35.049,0,0,1,4.08.15v-2.97a24.548,24.548,0,0,1-4.05.18H97.98a32.726,32.726,0,0,1-4.14-.18Zm32.22-11.19a21.012,21.012,0,0,1-3.72-.21v2.85a28.573,28.573,0,0,1,3.66-.18h14.82c-1.65,6.45-4.53,10.74-9.36,13.95a23.426,23.426,0,0,1-6.72,3.15,7.247,7.247,0,0,1,1.8,2.49,28.116,28.116,0,0,0,9.48-5.76c3.63-3.36,5.94-7.35,7.5-13.08l.18-.63a3.592,3.592,0,0,0,.99.15,3.418,3.418,0,0,0,3.42-3.42,3.418,3.418,0,0,0-3.42-3.42,3.418,3.418,0,0,0-3.42,3.42,4.924,4.924,0,0,0,.06.69Zm18.63-2.79a2.126,2.126,0,0,1,2.1,2.1,2.126,2.126,0,0,1-2.1,2.1,2.126,2.126,0,0,1-2.1-2.1A2.126,2.126,0,0,1,144.69-23.97Zm23.49,9.99v1.74h-3c-1.59,0-2.37-.03-3.21-.09a26.311,26.311,0,0,1,.12,2.85v4.86a9.135,9.135,0,0,1-1.5-.12V-2.7a8.958,8.958,0,0,1,1.5-.15v1.62a33.827,33.827,0,0,1-.12,3.42h2.25a29.2,29.2,0,0,1-.12-3.42V-2.85h10.32V-.84c0,.63-.21.78-1.11.78a25.994,25.994,0,0,1-3.3-.21,8.85,8.85,0,0,1,.39,1.98c1.05.06,2.04.09,2.73.09,2.67,0,3.3-.45,3.3-2.37V-2.85a16.111,16.111,0,0,1,1.86.15V-4.77a9.168,9.168,0,0,1-1.86.15V-9.36c.03-1.5.03-1.5.03-2.04.03-.24.03-.51.12-.99a24.352,24.352,0,0,1-2.91.15H170.1v-1.74h5.43a15.771,15.771,0,0,1,2.67.15v-2.04a15.169,15.169,0,0,1-2.64.15h-2.34v-1.92h1.44a16.7,16.7,0,0,1,2.34.12v-1.92a16.426,16.426,0,0,1-2.34.12h-1.44v-1.77h2.04a14.634,14.634,0,0,1,2.43.15v-2.01a12.98,12.98,0,0,1-2.43.15h-2.04a11.323,11.323,0,0,1,.18-2.25h-2.28a7.547,7.547,0,0,1,.18,2.25h-4.29a9.611,9.611,0,0,1,.18-2.25h-2.28a10.15,10.15,0,0,1,.18,2.25H163.5a10.779,10.779,0,0,1-2.49-.18v2.04a13.99,13.99,0,0,1,2.43-.15h1.65v1.77h-1.05a16.16,16.16,0,0,1-2.34-.12v1.92a16.427,16.427,0,0,1,2.34-.12h1.05v1.92h-1.71a16.836,16.836,0,0,1-2.7-.15v2.04a16.387,16.387,0,0,1,2.7-.15Zm0,9.36H164.1V-6.81h4.08Zm1.92,0V-6.81h4.32v2.19Zm-1.92-3.84H164.1v-2.07h4.08Zm1.92,0v-2.07h4.32v2.07Zm-3.09-7.26v-1.92h4.29v1.92Zm0-3.6v-1.77h4.29v1.77Zm-14.97-2.64a15.854,15.854,0,0,1,2.25-.12h3.18a16.687,16.687,0,0,1,2.25.12v-2.22a12.243,12.243,0,0,1-2.25.15h-3.18a12.243,12.243,0,0,1-2.25-.15Zm-.96,4.2a16.78,16.78,0,0,1,2.31-.12h4.77a12.645,12.645,0,0,1,2.13.12v-2.25a14.7,14.7,0,0,1-2.31.12h-4.59a12.157,12.157,0,0,1-2.31-.15Zm1.08,4.17a12.9,12.9,0,0,1,2.01-.12h3.6a13.77,13.77,0,0,1,1.98.12v-2.1a16.868,16.868,0,0,1-1.98.09h-3.6a17.09,17.09,0,0,1-2.01-.09Zm0,4.14a18.183,18.183,0,0,1,2.01-.09h3.57a11.954,11.954,0,0,1,2.01.12v-2.19a11.342,11.342,0,0,1-1.98.12h-3.6a11.508,11.508,0,0,1-2.01-.12Zm1.92,11.7V.6h3.78V1.65h2.04a16.7,16.7,0,0,1-.12-2.34V-4.92a17.249,17.249,0,0,1,.09-2.46,10.379,10.379,0,0,1-1.92.12h-3.93a15.368,15.368,0,0,1-2.07-.12,16.709,16.709,0,0,1,.15,2.64V-.69a19.973,19.973,0,0,1-.18,2.94Zm-.06-7.71h3.87v4.2h-3.87Zm41.94-4.92c.48-.75.69-1.11,1.23-2.07l-2.37-.45a14.788,14.788,0,0,1-1.23,2.52h-4.05a32.326,32.326,0,0,1-3.3-.12,32.141,32.141,0,0,1,.12,3.36V-.87a21.227,21.227,0,0,1-.18,3.21h2.43V1.02h14.37V2.34h2.43a17.083,17.083,0,0,1-.18-3.21v-6.3a29.385,29.385,0,0,1,.12-3.33,31.309,31.309,0,0,1-3.27.12Zm-7.35,1.92h14.37v2.64H188.61Zm0,4.56h14.37v3H188.61Zm4.2-18.27v7.35c0,.69-.15.81-1.05.81a17.5,17.5,0,0,1-3.03-.27,7.753,7.753,0,0,1,.51,2.07c.81.06,1.8.12,2.49.12a4.563,4.563,0,0,0,2.49-.45c.54-.36.72-.87.72-2.04v-6.75a22.8,22.8,0,0,1,.12-2.94,22.211,22.211,0,0,1-2.94.12h-6.24a22.118,22.118,0,0,1-3.12-.18v2.34a14.754,14.754,0,0,1,2.82-.18Zm-3.06,3.21a24.71,24.71,0,0,0-4.23-2.7l-1.44,1.32a17.9,17.9,0,0,1,4.17,2.85Zm16.05-3.21v7.38c0,.78-.06.81-1.23.81a17.968,17.968,0,0,1-3.03-.3,6.05,6.05,0,0,1,.45,2.16c1.2.09,2.1.12,2.94.12a4.087,4.087,0,0,0,2.34-.42c.57-.39.69-.75.69-2.1V-21.3a24.28,24.28,0,0,1,.12-2.97,19.032,19.032,0,0,1-2.82.12h-6.18a22,22,0,0,1-3.15-.18v2.34a14.754,14.754,0,0,1,2.82-.18Zm-3.3,3.27a29.121,29.121,0,0,0-4.41-2.73l-1.38,1.35a21.685,21.685,0,0,1,4.35,2.85Zm-11.1.63a33.831,33.831,0,0,1-8.7,3.75l.81,2.16c.42-.21.63-.3,1.17-.54a58.753,58.753,0,0,0,6.87-3.39Zm13.02.03a27.836,27.836,0,0,1-8.28,3.18l.78,2.22c.45-.24.69-.33,1.32-.6a49.538,49.538,0,0,0,6.3-2.79Zm14.4,5.04V.27h-5.79V2.49h8.25V-13.2Zm33.12-10.5a10.868,10.868,0,0,1,.48,1.92,65.734,65.734,0,0,0,2.13,8.31,17.765,17.765,0,0,0-3.96,2.49,6.708,6.708,0,0,0-2.67,5.07,5.137,5.137,0,0,0,2.52,4.65c1.8,1.02,4.17,1.44,8.04,1.44a56.9,56.9,0,0,0,6.84-.42,15.6,15.6,0,0,1,2.28-.18l-.27-2.97a30.994,30.994,0,0,1-8.82,1.08,22.976,22.976,0,0,1-5.01-.45c-1.92-.51-2.88-1.53-2.88-3.09a4.393,4.393,0,0,1,1.56-3.21,19.327,19.327,0,0,1,5.55-3.09,71.8,71.8,0,0,1,9.3-2.94l-1.02-2.7a10.969,10.969,0,0,1-1.98.81c-5.28,1.8-5.28,1.8-7.11,2.55a49.853,49.853,0,0,1-2.19-9.78ZM296.58-9.6V-23.07h5.79v-2.22h-8.25V-9.6Zm26.01-1.77v.33l.09,8.97v.72a15.813,15.813,0,0,1-.15,2.64h2.91c-.09-.9-.12-1.65-.15-3.42l-.18-14.16h3.57c1.47,0,2.52.03,3.27.09v-2.61a18.6,18.6,0,0,1-3.3.18l-3.57.03-.06-2.73v-.78a13.355,13.355,0,0,1,.12-1.83h-2.82a18.183,18.183,0,0,1,.12,2.67l.03,2.64-10.62.06a15.769,15.769,0,0,1-3.6-.24v2.7a27.506,27.506,0,0,1,3.54-.15l9.24-.03a31.213,31.213,0,0,1-4.23,5.31,33.791,33.791,0,0,1-9.96,6.99,6.205,6.205,0,0,1,1.8,2.16,49.9,49.9,0,0,0,4.8-3,37.078,37.078,0,0,0,6.75-6.21,20.388,20.388,0,0,0,2.55-3.81c-.12,1.26-.15,2.4-.15,3.27Zm17.64-8.13a33.309,33.309,0,0,1,7.32,5.94l1.83-2.25a41.507,41.507,0,0,0-7.38-5.7ZM340.68.09a16.212,16.212,0,0,1,1.86-.48,30.62,30.62,0,0,0,11.25-4.5c4.02-2.73,6.81-6.21,9.27-11.55a7.627,7.627,0,0,1-2.22-2.07c-2.46,6.45-6.42,10.8-12.15,13.35a27.342,27.342,0,0,1-8.79,2.25Zm32.76-20.31a26.868,26.868,0,0,1,3.42-.15h9.81a25.741,25.741,0,0,1,3.42.15v-2.7a17.8,17.8,0,0,1-3.45.21h-9.75a16.751,16.751,0,0,1-3.45-.21Zm-2.58,7.02a29.148,29.148,0,0,1,3.78-.15h15.15c-1.38,3.63-2.67,5.7-4.89,7.65a19.5,19.5,0,0,1-8.7,4.38,7.609,7.609,0,0,1,1.59,2.46,27.039,27.039,0,0,0,7.35-3.63,20.308,20.308,0,0,0,7.23-10.05,7.329,7.329,0,0,1,.84-1.89l-1.29-1.5a6.552,6.552,0,0,1-2.37.24H374.67a21.939,21.939,0,0,1-3.81-.21Zm50.4-10.77a24.692,24.692,0,0,1-5.67,5.67,42.964,42.964,0,0,1-15.63,7.77,7.448,7.448,0,0,1,1.41,2.4,46.819,46.819,0,0,0,11.34-5.13v10.8a19.879,19.879,0,0,1-.18,3.51h3.06a24.769,24.769,0,0,1-.15-3.54V-14.94a50.211,50.211,0,0,0,7.2-6.27,11.023,11.023,0,0,1,1.08-1.02Zm12.12,4.47a33.309,33.309,0,0,1,7.32,5.94l1.83-2.25a41.507,41.507,0,0,0-7.38-5.7ZM433.83.09a16.212,16.212,0,0,1,1.86-.48,30.62,30.62,0,0,0,11.25-4.5c4.02-2.73,6.81-6.21,9.27-11.55a7.627,7.627,0,0,1-2.22-2.07c-2.46,6.45-6.42,10.8-12.15,13.35a27.342,27.342,0,0,1-8.79,2.25Zm44.85-14.07v1.74h-3c-1.59,0-2.37-.03-3.21-.09a26.311,26.311,0,0,1,.12,2.85v4.86a9.134,9.134,0,0,1-1.5-.12V-2.7a8.957,8.957,0,0,1,1.5-.15v1.62a33.827,33.827,0,0,1-.12,3.42h2.25a29.194,29.194,0,0,1-.12-3.42V-2.85h10.32V-.84c0,.63-.21.78-1.11.78a25.994,25.994,0,0,1-3.3-.21,8.848,8.848,0,0,1,.39,1.98c1.05.06,2.04.09,2.73.09,2.67,0,3.3-.45,3.3-2.37V-2.85a16.11,16.11,0,0,1,1.86.15V-4.77a9.168,9.168,0,0,1-1.86.15V-9.36c.03-1.5.03-1.5.03-2.04.03-.24.03-.51.12-.99a24.352,24.352,0,0,1-2.91.15H480.6v-1.74h5.43a15.771,15.771,0,0,1,2.67.15v-2.04a15.169,15.169,0,0,1-2.64.15h-2.34v-1.92h1.44a16.7,16.7,0,0,1,2.34.12v-1.92a16.427,16.427,0,0,1-2.34.12h-1.44v-1.77h2.04a14.634,14.634,0,0,1,2.43.15v-2.01a12.98,12.98,0,0,1-2.43.15h-2.04a11.325,11.325,0,0,1,.18-2.25h-2.28a7.548,7.548,0,0,1,.18,2.25h-4.29a9.609,9.609,0,0,1,.18-2.25h-2.28a10.148,10.148,0,0,1,.18,2.25H474a10.779,10.779,0,0,1-2.49-.18v2.04a13.991,13.991,0,0,1,2.43-.15h1.65v1.77h-1.05a16.16,16.16,0,0,1-2.34-.12v1.92a16.427,16.427,0,0,1,2.34-.12h1.05v1.92h-1.71a16.836,16.836,0,0,1-2.7-.15v2.04a16.387,16.387,0,0,1,2.7-.15Zm0,9.36H474.6V-6.81h4.08Zm1.92,0V-6.81h4.32v2.19Zm-1.92-3.84H474.6v-2.07h4.08Zm1.92,0v-2.07h4.32v2.07Zm-3.09-7.26v-1.92h4.29v1.92Zm0-3.6v-1.77h4.29v1.77Zm-14.97-2.64a15.854,15.854,0,0,1,2.25-.12h3.18a16.687,16.687,0,0,1,2.25.12v-2.22a12.243,12.243,0,0,1-2.25.15h-3.18a12.243,12.243,0,0,1-2.25-.15Zm-.96,4.2a16.78,16.78,0,0,1,2.31-.12h4.77a12.645,12.645,0,0,1,2.13.12v-2.25a14.7,14.7,0,0,1-2.31.12h-4.59a12.157,12.157,0,0,1-2.31-.15Zm1.08,4.17a12.9,12.9,0,0,1,2.01-.12h3.6a13.77,13.77,0,0,1,1.98.12v-2.1a16.868,16.868,0,0,1-1.98.09h-3.6a17.09,17.09,0,0,1-2.01-.09Zm0,4.14a18.183,18.183,0,0,1,2.01-.09h3.57a11.954,11.954,0,0,1,2.01.12v-2.19a11.342,11.342,0,0,1-1.98.12h-3.6a11.509,11.509,0,0,1-2.01-.12Zm1.92,11.7V.6h3.78V1.65h2.04a16.7,16.7,0,0,1-.12-2.34V-4.92a17.252,17.252,0,0,1,.09-2.46,10.379,10.379,0,0,1-1.92.12h-3.93a15.368,15.368,0,0,1-2.07-.12,16.711,16.711,0,0,1,.15,2.64V-.69a19.976,19.976,0,0,1-.18,2.94Zm-.06-7.71h3.87v4.2h-3.87Zm41.94-4.92c.48-.75.69-1.11,1.23-2.07l-2.37-.45a14.786,14.786,0,0,1-1.23,2.52h-4.05a32.326,32.326,0,0,1-3.3-.12,32.141,32.141,0,0,1,.12,3.36V-.87a21.222,21.222,0,0,1-.18,3.21h2.43V1.02h14.37V2.34h2.43a17.079,17.079,0,0,1-.18-3.21v-6.3a29.392,29.392,0,0,1,.12-3.33,31.308,31.308,0,0,1-3.27.12Zm-7.35,1.92h14.37v2.64H499.11Zm0,4.56h14.37v3H499.11Zm4.2-18.27v7.35c0,.69-.15.81-1.05.81a17.5,17.5,0,0,1-3.03-.27,7.753,7.753,0,0,1,.51,2.07c.81.06,1.8.12,2.49.12a4.563,4.563,0,0,0,2.49-.45c.54-.36.72-.87.72-2.04v-6.75a22.806,22.806,0,0,1,.12-2.94,22.211,22.211,0,0,1-2.94.12h-6.24a22.117,22.117,0,0,1-3.12-.18v2.34a14.754,14.754,0,0,1,2.82-.18Zm-3.06,3.21a24.711,24.711,0,0,0-4.23-2.7l-1.44,1.32a17.905,17.905,0,0,1,4.17,2.85Zm16.05-3.21v7.38c0,.78-.06.81-1.23.81a17.969,17.969,0,0,1-3.03-.3,6.049,6.049,0,0,1,.45,2.16c1.2.09,2.1.12,2.94.12a4.087,4.087,0,0,0,2.34-.42c.57-.39.69-.75.69-2.1V-21.3a24.274,24.274,0,0,1,.12-2.97,19.033,19.033,0,0,1-2.82.12h-6.18a22,22,0,0,1-3.15-.18v2.34a14.754,14.754,0,0,1,2.82-.18ZM513-18.9a29.121,29.121,0,0,0-4.41-2.73l-1.38,1.35a21.685,21.685,0,0,1,4.35,2.85Zm-11.1.63a33.83,33.83,0,0,1-8.7,3.75l.81,2.16c.42-.21.63-.3,1.17-.54a58.754,58.754,0,0,0,6.87-3.39Zm13.02.03a27.836,27.836,0,0,1-8.28,3.18l.78,2.22c.45-.24.69-.33,1.32-.6a49.535,49.535,0,0,0,6.3-2.79Zm14.4,5.04V.27h-5.79V2.49h8.25V-13.2ZM567.51-1.98A5.884,5.884,0,0,1,568.8.45a19.836,19.836,0,0,0,5.01-1.56,11.07,11.07,0,0,0,6.57-10.38c0-6.33-4.53-10.53-11.34-10.53a12.819,12.819,0,0,0-9.87,4.05,12.487,12.487,0,0,0-3.21,8.4c0,4.38,2.22,7.59,5.25,7.59,2.25,0,4.05-1.8,5.76-5.73a43.606,43.606,0,0,0,3-12,7.918,7.918,0,0,1,3.36.81,7.747,7.747,0,0,1,4.44,7.29,8.811,8.811,0,0,1-4.74,8.01A16.405,16.405,0,0,1,567.51-1.98Zm-.12-17.67a40.967,40.967,0,0,1-2.67,10.8c-1.23,2.82-2.37,4.2-3.54,4.2-1.56,0-2.76-2.16-2.76-4.89a10.238,10.238,0,0,1,4.68-8.7A8.485,8.485,0,0,1,567.39-19.65Z" transform="translate(399.63 1406.34)"/>
  </g>
</svg>
