<svg xmlns="http://www.w3.org/2000/svg" width="75.627" height="52.77" viewBox="0 0 75.627 52.77">
  <path id="パス_96" data-name="パス 96" d="M6-5.508a.9.9,0,0,1,.7.311.913.913,0,0,1,.24.627.921.921,0,0,1-.311.7A.9.9,0,0,1,6-3.621a.913.913,0,0,1-.7-.316.922.922,0,0,1-.246-.633.9.9,0,0,1,.316-.7A.921.921,0,0,1,6-5.508Zm12.293-.363a11.91,11.91,0,0,0,.8,1.98A9.292,9.292,0,0,0,21.557-.914,8.337,8.337,0,0,0,23.3.094a1.118,1.118,0,0,0-.352.363Q22.857.6,22.811.6a.457.457,0,0,1-.152-.064A9.691,9.691,0,0,1,21.135-.48a9.736,9.736,0,0,1-1.682-1.84A9.991,9.991,0,0,1,17.93-5.5a9.025,9.025,0,0,1-.709,2.309A7.587,7.587,0,0,1,15.539-.9a9.579,9.579,0,0,1-2.2,1.477.484.484,0,0,1-.152.059q-.059,0-.164-.141A1.171,1.171,0,0,0,12.662.2a7.458,7.458,0,0,0,4.043-3.633,8.368,8.368,0,0,0,.7-2.437H14.619L13-5.848a.073.073,0,0,1-.082-.082v-.422A.073.073,0,0,1,13-6.434l1.623.023h2.854q.088-.779.105-2.016.006-.264.006-.416a5.657,5.657,0,0,0-.064-.926,4.594,4.594,0,0,1,.686.07q.146.018.146.117a.74.74,0,0,1-.07.217,3.026,3.026,0,0,0-.1.926q-.018,1.09-.117,2.027h3.264l1.617-.023a.073.073,0,0,1,.082.082v.422a.073.073,0,0,1-.082.082l-1.617-.023ZM29.748-2.654H26.438l-1.588.023a.073.073,0,0,1-.082-.082v-.4a.073.073,0,0,1,.082-.082l1.588.023h3.311a6.2,6.2,0,0,0-.082-1.248q.3.064.563.146a11.239,11.239,0,0,0,1.74-1.189H28.523l-1.559.023q-.088,0-.088-.082v-.375q0-.082.088-.082l1.559.023h3.393a1.331,1.331,0,0,0,.316-.023A.386.386,0,0,1,32.35-6q.088,0,.287.217a.571.571,0,0,1,.193.322.129.129,0,0,1-.105.135,1.524,1.524,0,0,0-.492.287,14.124,14.124,0,0,1-1.9,1.184,2.749,2.749,0,0,0-.023.469v.217h3.264l1.582-.023q.088,0,.088.082v.4q0,.082-.088.082l-1.582-.023H30.311v1.406l.012,1.031a.8.8,0,0,1-.3.709,2.119,2.119,0,0,1-1,.182q-.369,0-.609-.012a.5.5,0,0,1-.182-.029Q28.207.615,28.178.48a1.878,1.878,0,0,0-.205-.434A9.588,9.588,0,0,0,29.2.123a.665.665,0,0,0,.428-.105.486.486,0,0,0,.123-.375Zm2.174-5.027a10.216,10.216,0,0,0,.861-1.559,2.275,2.275,0,0,0,.135-.527,2.815,2.815,0,0,1,.551.217q.117.064.117.141a.163.163,0,0,1-.07.123.7.7,0,0,0-.229.275q-.3.586-.791,1.33h.563l1.682-.023q.094,0,.094.07l-.023.568v.48l.023,1.26q0,.082-.094.082h-.4a.073.073,0,0,1-.082-.082V-7.2H25.775v1.875a.073.073,0,0,1-.082.082h-.41a.073.073,0,0,1-.082-.082l.023-1.26V-7L25.2-7.635q0-.07.082-.07l1.682.023ZM26.9-9.639a9.455,9.455,0,0,1,.938,1.359.127.127,0,0,1,.029.064q0,.041-.123.117l-.17.082a.481.481,0,0,1-.164.064q-.035,0-.064-.064A7.4,7.4,0,0,0,26.42-9.41a.086.086,0,0,1-.023-.047q0-.029.135-.094l.17-.088a.355.355,0,0,1,.129-.041A.1.1,0,0,1,26.9-9.639Zm2.344,0a.145.145,0,0,1-.023-.059q0-.041.117-.094l.182-.07a.315.315,0,0,1,.105-.035q.035,0,.076.059a7.688,7.688,0,0,1,.779,1.412.135.135,0,0,1,.018.053q0,.035-.152.105l-.164.07a.572.572,0,0,1-.158.053q-.047,0-.07-.076A6.667,6.667,0,0,0,29.244-9.639Zm10.1,3.785q-.047,1.078-.111,1.617h1.646l.967-.023q.1,0,.1.094-.006.041-.035,1.131a15.743,15.743,0,0,1-.193,2.256,1.943,1.943,0,0,1-.41,1A1.041,1.041,0,0,1,40.523.5Q40.1.5,39.744.469a.54.54,0,0,1-.187-.047A.363.363,0,0,1,39.521.24a.986.986,0,0,0-.146-.41,5.786,5.786,0,0,0,1.143.135.544.544,0,0,0,.51-.346,2.916,2.916,0,0,0,.182-.7,17.171,17.171,0,0,0,.158-2.678h-2.2a7.446,7.446,0,0,1-.7,2.355A7.435,7.435,0,0,1,37.2.322q-.094.1-.129.1T36.938.311A1.067,1.067,0,0,0,36.6.07,5.894,5.894,0,0,0,38.35-2.461,12.206,12.206,0,0,0,38.8-5.854h-.064l-1.365.023a.073.073,0,0,1-.082-.082l.023-1.025V-8.121l-.023-1.025a.073.073,0,0,1,.082-.082l1.365.023H40.43l1.383-.023a.073.073,0,0,1,.082.082l-.023,1.025v1.184l.023,1.025a.073.073,0,0,1-.082.082L40.43-5.854Zm-1.5-2.871v2.4h3.5v-2.4Zm6.5,8.666A9.5,9.5,0,0,0,45.457,0a.756.756,0,0,0,.527-.129.69.69,0,0,0,.123-.48v-7.67a8.008,8.008,0,0,0-.082-1.383q.293.018.633.064.146.018.146.094a1.033,1.033,0,0,1-.088.229,4.307,4.307,0,0,0-.059.984v6.17L46.682-.5a.989.989,0,0,1-.322.867,1.048,1.048,0,0,1-.439.164,5.985,5.985,0,0,1-.838.041h-.293q-.146,0-.176-.035a.712.712,0,0,1-.053-.17A1.356,1.356,0,0,0,44.344-.059Zm-.791-8.736q.287.018.592.059.123.018.123.094a1.177,1.177,0,0,1-.059.17,7.941,7.941,0,0,0-.047,1.236V-4l.023,1.523q0,.082-.094.082h-.4a.073.073,0,0,1-.082-.082L43.635-4V-7.225A9.725,9.725,0,0,0,43.553-8.795ZM57.3-6.322h-1.57L54.275-6.3a.073.073,0,0,1-.082-.082v-.387a.073.073,0,0,1,.082-.082l1.453.023H57.3V-8.373a7.727,7.727,0,0,0-.082-1.371q.328.018.633.064.135.018.135.094a.774.774,0,0,1-.076.217,4.458,4.458,0,0,0-.059.984v1.559l1.33-.023q.088,0,.088.082v.387q0,.082-.088.082l-1.33-.023V-1.9L57.861-.17a.955.955,0,0,1-.3.756,2.553,2.553,0,0,1-1.289.2q-.17,0-.369-.006A.321.321,0,0,1,55.723.75a.4.4,0,0,1-.059-.164.954.954,0,0,0-.2-.4q.551.047,1.318.047a.547.547,0,0,0,.41-.117A.538.538,0,0,0,57.3-.264ZM52.98-7.178A11.693,11.693,0,0,1,52.125-3.3a17.716,17.716,0,0,1,1.418,2.027.127.127,0,0,1,.029.064q0,.029-.1.111L53.268-.9a.157.157,0,0,1-.082.041q-.035,0-.076-.064a17.928,17.928,0,0,0-1.225-1.869A8.732,8.732,0,0,1,49.2.322.384.384,0,0,1,49.049.4Q49,.4,48.908.287a1.229,1.229,0,0,0-.322-.264,8.144,8.144,0,0,0,2.918-3.3A22.081,22.081,0,0,0,49.652-5.3a.149.149,0,0,1-.047-.082.128.128,0,0,1,.047-.076l.182-.17a.232.232,0,0,1,.105-.064.081.081,0,0,1,.053.029,25.452,25.452,0,0,1,1.74,1.887,10.232,10.232,0,0,0,.691-3.4H50.361l-1.488.023a.073.073,0,0,1-.082-.082V-7.6a.073.073,0,0,1,.082-.082l1.488.023h.855v-.885a5.874,5.874,0,0,0-.088-1.26,5.652,5.652,0,0,1,.627.059q.129.018.129.094a.819.819,0,0,1-.07.217,3.783,3.783,0,0,0-.059.891v.885h.768l1.488-.023a.073.073,0,0,1,.082.082v.363a.073.073,0,0,1-.082.082l-.129-.006Q53.5-7.172,52.98-7.178Zm1.8,2.221A8.613,8.613,0,0,1,56.232-2.83a.138.138,0,0,1,.018.059q0,.029-.082.082l-.217.135a.423.423,0,0,1-.141.07q-.029,0-.059-.064a8.753,8.753,0,0,0-1.395-2.109.08.08,0,0,1-.035-.059q0-.035.094-.105l.182-.123A.213.213,0,0,1,54.7-5,.114.114,0,0,1,54.779-4.957ZM66.217-4.1v.838a9.121,9.121,0,0,0,2.414,2.021A13.519,13.519,0,0,0,71.4-.117a1.675,1.675,0,0,0-.264.34Q71.057.369,71,.369a.735.735,0,0,1-.152-.041,10.254,10.254,0,0,1-4.67-3.012L66.24.732a.078.078,0,0,1-.088.088h-.416a.078.078,0,0,1-.088-.088l.064-3.381a10.592,10.592,0,0,1-4.5,2.994.5.5,0,0,1-.152.047Q61,.393,60.914.24A1.023,1.023,0,0,0,60.65-.07,10.266,10.266,0,0,0,65.689-3.3v-.8H62.771v1.318l.023.844q0,.082-.07.082H62.3a.073.073,0,0,1-.082-.082l.023-.867v-.814l-.023-.891a.073.073,0,0,1,.082-.082l1.729.023h1.658v-.9H62.713l-1.623.023a.073.073,0,0,1-.082-.082v-.363a.073.073,0,0,1,.082-.082l1.623.023h2.977V-6A4.919,4.919,0,0,0,65.6-7.02q.322.018.6.059.146.023.146.094a.541.541,0,0,1-.07.205,2.1,2.1,0,0,0-.059.639v.07h3.129l1.617-.023q.088,0,.088.082v.363q0,.082-.088.082l-1.617-.023H66.217v.9h1.893l1.729-.023a.073.073,0,0,1,.082.082l-.023.65V-3.7l.012.873a.8.8,0,0,1-.264.7,2.059,2.059,0,0,1-1.055.182A.374.374,0,0,1,68.4-1.98a.411.411,0,0,1-.07-.164,1.083,1.083,0,0,0-.17-.363,4.327,4.327,0,0,0,.721.064q.492,0,.492-.457V-4.1Zm-3.7-4.553h2.074l1.26-.023q.088,0,.088.082v.352q0,.082-.088.082l-1.26-.023h-.7a5.767,5.767,0,0,1,.563,1.236.135.135,0,0,1,.012.047q0,.047-.129.094l-.217.076a.45.45,0,0,1-.135.035q-.047,0-.07-.076a5.74,5.74,0,0,0-.6-1.412H62.268a7.99,7.99,0,0,1-1.119,1.43q-.094.105-.129.105t-.146-.094a.7.7,0,0,0-.322-.17A7.414,7.414,0,0,0,62.244-9.34a1.911,1.911,0,0,0,.164-.609,4.9,4.9,0,0,1,.58.164q.105.047.105.123t-.105.146a.68.68,0,0,0-.182.275Q62.619-8.848,62.52-8.654Zm4.67,0h2.578l1.4-.023q.088,0,.088.082v.352q0,.082-.088.082l-1.4-.023H68.66a7.562,7.562,0,0,1,.627,1.271.105.105,0,0,1,.018.053q0,.041-.123.094l-.217.07a.533.533,0,0,1-.129.035q-.047,0-.076-.088a6.16,6.16,0,0,0-.674-1.436H66.938a10.123,10.123,0,0,1-.674.938q-.088.111-.123.111a.5.5,0,0,1-.164-.076,1.215,1.215,0,0,0-.328-.123,6.03,6.03,0,0,0,1.3-2.1,2.491,2.491,0,0,0,.082-.492,3.508,3.508,0,0,1,.557.141q.105.041.105.111a.277.277,0,0,1-.094.158,1.154,1.154,0,0,0-.158.3Q67.348-9,67.189-8.654Zm11.42-.322V-.9h1.74v.639H75.984V-.9h1.857v-7.26a8.329,8.329,0,0,1-1.887.9l-.141-.7a9.164,9.164,0,0,0,2.162-1.02ZM6,15.492a.9.9,0,0,1,.7.311.945.945,0,0,1-.07,1.33A.9.9,0,0,1,6,17.379a.957.957,0,0,1-.949-.949.9.9,0,0,1,.316-.7A.921.921,0,0,1,6,15.492Zm12.293-.363a11.91,11.91,0,0,0,.8,1.98,9.292,9.292,0,0,0,2.461,2.977,8.337,8.337,0,0,0,1.74,1.008,1.118,1.118,0,0,0-.352.363q-.088.146-.135.146a.457.457,0,0,1-.152-.064,9.016,9.016,0,0,1-3.205-2.859A9.991,9.991,0,0,1,17.93,15.5a9.025,9.025,0,0,1-.709,2.309A7.587,7.587,0,0,1,15.539,20.1a9.579,9.579,0,0,1-2.2,1.477.484.484,0,0,1-.152.059q-.059,0-.164-.141a1.171,1.171,0,0,0-.357-.293,7.458,7.458,0,0,0,4.043-3.633,8.368,8.368,0,0,0,.7-2.437H14.619L13,15.152a.073.073,0,0,1-.082-.082v-.422A.073.073,0,0,1,13,14.566l1.623.023h2.854q.088-.779.105-2.016.006-.264.006-.416a5.657,5.657,0,0,0-.064-.926,4.594,4.594,0,0,1,.686.07q.146.018.146.117a.74.74,0,0,1-.07.217,3.026,3.026,0,0,0-.1.926q-.018,1.09-.117,2.027h3.264l1.617-.023a.073.073,0,0,1,.082.082v.422a.073.073,0,0,1-.082.082l-1.617-.023Zm11.455,3.217H26.438l-1.588.023a.073.073,0,0,1-.082-.082v-.4a.073.073,0,0,1,.082-.082l1.588.023h3.311a6.2,6.2,0,0,0-.082-1.248q.3.064.563.146a11.239,11.239,0,0,0,1.74-1.189H28.523l-1.559.023q-.088,0-.088-.082v-.375q0-.082.088-.082l1.559.023h3.393a1.331,1.331,0,0,0,.316-.023A.386.386,0,0,1,32.35,15q.088,0,.287.217a.571.571,0,0,1,.193.322.129.129,0,0,1-.105.135,1.524,1.524,0,0,0-.492.287,14.124,14.124,0,0,1-1.9,1.184,2.749,2.749,0,0,0-.023.469v.217h3.264l1.582-.023q.088,0,.088.082v.4q0,.082-.088.082l-1.582-.023H30.311v1.406l.012,1.031a.8.8,0,0,1-.3.709,2.119,2.119,0,0,1-1,.182q-.369,0-.609-.012a.5.5,0,0,1-.182-.029q-.029-.018-.059-.152a1.878,1.878,0,0,0-.205-.434,9.588,9.588,0,0,0,1.225.076.665.665,0,0,0,.428-.105.486.486,0,0,0,.123-.375Zm2.174-5.027a10.216,10.216,0,0,0,.861-1.559,2.275,2.275,0,0,0,.135-.527,2.815,2.815,0,0,1,.551.217q.117.064.117.141a.163.163,0,0,1-.07.123.7.7,0,0,0-.229.275q-.3.586-.791,1.33h.563l1.682-.023q.094,0,.094.07l-.023.568v.48l.023,1.26q0,.082-.094.082h-.4a.073.073,0,0,1-.082-.082V13.8H25.775v1.875a.073.073,0,0,1-.082.082h-.41a.073.073,0,0,1-.082-.082l.023-1.26V14l-.023-.639q0-.07.082-.07l1.682.023ZM26.9,11.361a9.455,9.455,0,0,1,.938,1.359.127.127,0,0,1,.029.064q0,.041-.123.117l-.17.082a.481.481,0,0,1-.164.064q-.035,0-.064-.064a7.4,7.4,0,0,0-.926-1.395.086.086,0,0,1-.023-.047q0-.029.135-.094l.17-.088a.355.355,0,0,1,.129-.041A.1.1,0,0,1,26.9,11.361Zm2.344,0a.145.145,0,0,1-.023-.059q0-.041.117-.094l.182-.07a.315.315,0,0,1,.105-.035q.035,0,.076.059a7.688,7.688,0,0,1,.779,1.412.135.135,0,0,1,.018.053q0,.035-.152.105l-.164.07a.572.572,0,0,1-.158.053q-.047,0-.07-.076A6.667,6.667,0,0,0,29.244,11.361Zm10.1,3.785q-.047,1.078-.111,1.617h1.646l.967-.023q.1,0,.1.094-.006.041-.035,1.131a15.743,15.743,0,0,1-.193,2.256,1.943,1.943,0,0,1-.41,1,1.041,1.041,0,0,1-.779.287q-.428,0-.779-.035a.54.54,0,0,1-.187-.047.363.363,0,0,1-.035-.182.986.986,0,0,0-.146-.41,5.786,5.786,0,0,0,1.143.135.544.544,0,0,0,.51-.346,2.916,2.916,0,0,0,.182-.7,17.171,17.171,0,0,0,.158-2.678h-2.2a7.446,7.446,0,0,1-.7,2.355A7.435,7.435,0,0,1,37.2,21.322q-.094.1-.129.1t-.135-.111a1.067,1.067,0,0,0-.334-.24,5.894,5.894,0,0,0,1.746-2.531,12.206,12.206,0,0,0,.451-3.393h-.064l-1.365.023a.073.073,0,0,1-.082-.082l.023-1.025V12.879l-.023-1.025a.073.073,0,0,1,.082-.082l1.365.023H40.43l1.383-.023a.073.073,0,0,1,.082.082l-.023,1.025v1.184l.023,1.025a.073.073,0,0,1-.082.082l-1.383-.023Zm-1.5-2.871v2.4h3.5v-2.4Zm6.5,8.666A9.5,9.5,0,0,0,45.457,21a.756.756,0,0,0,.527-.129.69.69,0,0,0,.123-.48v-7.67a8.008,8.008,0,0,0-.082-1.383q.293.018.633.064.146.018.146.094a1.033,1.033,0,0,1-.088.229,4.307,4.307,0,0,0-.059.984v6.17l.023,1.617a.989.989,0,0,1-.322.867,1.048,1.048,0,0,1-.439.164,5.985,5.985,0,0,1-.838.041h-.293q-.146,0-.176-.035a.712.712,0,0,1-.053-.17A1.356,1.356,0,0,0,44.344,20.941Zm-.791-8.736q.287.018.592.059.123.018.123.094a1.177,1.177,0,0,1-.059.17,7.941,7.941,0,0,0-.047,1.236V17l.023,1.523q0,.082-.094.082h-.4a.073.073,0,0,1-.082-.082L43.635,17V13.775A9.725,9.725,0,0,0,43.553,12.205ZM57.3,14.678h-1.57l-1.453.023a.073.073,0,0,1-.082-.082v-.387a.073.073,0,0,1,.082-.082l1.453.023H57.3V12.627a7.727,7.727,0,0,0-.082-1.371q.328.018.633.064.135.018.135.094a.774.774,0,0,1-.076.217,4.458,4.458,0,0,0-.059.984v1.559l1.33-.023q.088,0,.088.082v.387q0,.082-.088.082l-1.33-.023V19.1l.012,1.729a.955.955,0,0,1-.3.756,2.553,2.553,0,0,1-1.289.2q-.17,0-.369-.006a.321.321,0,0,1-.182-.029.4.4,0,0,1-.059-.164.954.954,0,0,0-.2-.4q.551.047,1.318.047a.547.547,0,0,0,.41-.117.538.538,0,0,0,.105-.375Zm-4.318-.855a11.693,11.693,0,0,1-.855,3.879,17.716,17.716,0,0,1,1.418,2.027.127.127,0,0,1,.029.064q0,.029-.1.111l-.205.193a.157.157,0,0,1-.082.041q-.035,0-.076-.064a17.928,17.928,0,0,0-1.225-1.869A8.732,8.732,0,0,1,49.2,21.322a.384.384,0,0,1-.146.076q-.047,0-.141-.111a1.229,1.229,0,0,0-.322-.264,8.144,8.144,0,0,0,2.918-3.3A22.081,22.081,0,0,0,49.652,15.7a.149.149,0,0,1-.047-.082.128.128,0,0,1,.047-.076l.182-.17a.232.232,0,0,1,.105-.064.081.081,0,0,1,.053.029,25.451,25.451,0,0,1,1.74,1.887,10.232,10.232,0,0,0,.691-3.4H50.361l-1.488.023a.073.073,0,0,1-.082-.082V13.4a.073.073,0,0,1,.082-.082l1.488.023h.855v-.885a5.874,5.874,0,0,0-.088-1.26,5.652,5.652,0,0,1,.627.059q.129.018.129.094a.819.819,0,0,1-.07.217,3.783,3.783,0,0,0-.059.891v.885h.768l1.488-.023a.073.073,0,0,1,.082.082v.363a.073.073,0,0,1-.082.082l-.129-.006Q53.5,13.828,52.98,13.822Zm1.8,2.221a8.613,8.613,0,0,1,1.453,2.127.138.138,0,0,1,.018.059q0,.029-.082.082l-.217.135a.423.423,0,0,1-.141.07q-.029,0-.059-.064a8.753,8.753,0,0,0-1.395-2.109.08.08,0,0,1-.035-.059q0-.035.094-.105l.182-.123A.213.213,0,0,1,54.7,16,.114.114,0,0,1,54.779,16.043Zm11.438.855v.838a9.121,9.121,0,0,0,2.414,2.021A13.519,13.519,0,0,0,71.4,20.883a1.675,1.675,0,0,0-.264.34q-.076.146-.135.146a.735.735,0,0,1-.152-.041,10.254,10.254,0,0,1-4.67-3.012l.064,3.416a.078.078,0,0,1-.088.088h-.416a.078.078,0,0,1-.088-.088l.064-3.381a10.592,10.592,0,0,1-4.5,2.994.5.5,0,0,1-.152.047q-.064,0-.146-.152a1.023,1.023,0,0,0-.264-.311A10.266,10.266,0,0,0,65.689,17.7v-.8H62.771v1.318l.023.844q0,.082-.07.082H62.3a.073.073,0,0,1-.082-.082l.023-.867v-.814l-.023-.891a.073.073,0,0,1,.082-.082l1.729.023h1.658v-.9H62.713l-1.623.023a.073.073,0,0,1-.082-.082v-.363a.073.073,0,0,1,.082-.082l1.623.023h2.977V15a4.919,4.919,0,0,0-.088-1.02q.322.018.6.059.146.023.146.094a.541.541,0,0,1-.07.205,2.1,2.1,0,0,0-.059.639v.07h3.129l1.617-.023q.088,0,.088.082v.363q0,.082-.088.082l-1.617-.023H66.217v.9h1.893l1.729-.023a.073.073,0,0,1,.082.082l-.023.65V17.3l.012.873a.8.8,0,0,1-.264.7,2.059,2.059,0,0,1-1.055.182.374.374,0,0,1-.193-.029.411.411,0,0,1-.07-.164,1.083,1.083,0,0,0-.17-.363,4.327,4.327,0,0,0,.721.064q.492,0,.492-.457V16.9Zm-3.7-4.553h2.074l1.26-.023q.088,0,.088.082v.352q0,.082-.088.082l-1.26-.023h-.7a5.767,5.767,0,0,1,.563,1.236.135.135,0,0,1,.012.047q0,.047-.129.094l-.217.076a.45.45,0,0,1-.135.035q-.047,0-.07-.076a5.74,5.74,0,0,0-.6-1.412H62.268a7.99,7.99,0,0,1-1.119,1.43q-.094.105-.129.105t-.146-.094a.7.7,0,0,0-.322-.17,7.414,7.414,0,0,0,1.693-2.426,1.911,1.911,0,0,0,.164-.609,4.9,4.9,0,0,1,.58.164q.105.047.105.123t-.105.146a.68.68,0,0,0-.182.275Q62.619,12.152,62.52,12.346Zm4.67,0h2.578l1.4-.023q.088,0,.088.082v.352q0,.082-.088.082l-1.4-.023H68.66a7.562,7.562,0,0,1,.627,1.271.105.105,0,0,1,.018.053q0,.041-.123.094l-.217.07a.533.533,0,0,1-.129.035q-.047,0-.076-.088a6.16,6.16,0,0,0-.674-1.436H66.938a10.123,10.123,0,0,1-.674.938q-.088.111-.123.111a.5.5,0,0,1-.164-.076,1.216,1.216,0,0,0-.328-.123,6.03,6.03,0,0,0,1.3-2.1,2.491,2.491,0,0,0,.082-.492,3.508,3.508,0,0,1,.557.141q.105.041.105.111a.277.277,0,0,1-.094.158,1.154,1.154,0,0,0-.158.3Q67.348,12,67.189,12.346Zm8.18,1.91a2.852,2.852,0,0,1,1.084-1.775,2.722,2.722,0,0,1,1.641-.492,2.573,2.573,0,0,1,1.857.662,2.029,2.029,0,0,1,.627,1.547,2.442,2.442,0,0,1-.445,1.43,8.449,8.449,0,0,1-1.5,1.494,9.36,9.36,0,0,0-2.555,2.953H80.59v.662H75.3v-.592a10.4,10.4,0,0,1,2.795-3.475,7.157,7.157,0,0,0,1.383-1.459,1.907,1.907,0,0,0,.275-1.014,1.43,1.43,0,0,0-.533-1.189,1.759,1.759,0,0,0-1.137-.357q-1.576,0-1.934,1.8ZM6,36.492a.9.9,0,0,1,.7.311.945.945,0,0,1-.07,1.33A.9.9,0,0,1,6,38.379a.957.957,0,0,1-.949-.949.9.9,0,0,1,.316-.7A.921.921,0,0,1,6,36.492Zm12.293-.363a11.91,11.91,0,0,0,.8,1.98,9.292,9.292,0,0,0,2.461,2.977,8.337,8.337,0,0,0,1.74,1.008,1.118,1.118,0,0,0-.352.363q-.088.146-.135.146a.457.457,0,0,1-.152-.064,9.016,9.016,0,0,1-3.205-2.859A9.991,9.991,0,0,1,17.93,36.5a9.025,9.025,0,0,1-.709,2.309A7.587,7.587,0,0,1,15.539,41.1a9.579,9.579,0,0,1-2.2,1.477.484.484,0,0,1-.152.059q-.059,0-.164-.141a1.171,1.171,0,0,0-.357-.293,7.458,7.458,0,0,0,4.043-3.633,8.368,8.368,0,0,0,.7-2.437H14.619L13,36.152a.073.073,0,0,1-.082-.082v-.422A.073.073,0,0,1,13,35.566l1.623.023h2.854q.088-.779.105-2.016.006-.264.006-.416a5.657,5.657,0,0,0-.064-.926,4.594,4.594,0,0,1,.686.07q.146.018.146.117a.74.74,0,0,1-.07.217,3.026,3.026,0,0,0-.1.926q-.018,1.09-.117,2.027h3.264l1.617-.023a.073.073,0,0,1,.082.082v.422a.073.073,0,0,1-.082.082l-1.617-.023Zm11.455,3.217H26.438l-1.588.023a.073.073,0,0,1-.082-.082v-.4a.073.073,0,0,1,.082-.082l1.588.023h3.311a6.2,6.2,0,0,0-.082-1.248q.3.064.563.146a11.239,11.239,0,0,0,1.74-1.189H28.523l-1.559.023q-.088,0-.088-.082v-.375q0-.082.088-.082l1.559.023h3.393a1.331,1.331,0,0,0,.316-.023A.386.386,0,0,1,32.35,36q.088,0,.287.217a.571.571,0,0,1,.193.322.129.129,0,0,1-.105.135,1.524,1.524,0,0,0-.492.287,14.124,14.124,0,0,1-1.9,1.184,2.749,2.749,0,0,0-.023.469v.217h3.264l1.582-.023q.088,0,.088.082v.4q0,.082-.088.082l-1.582-.023H30.311v1.406l.012,1.031a.8.8,0,0,1-.3.709,2.119,2.119,0,0,1-1,.182q-.369,0-.609-.012a.5.5,0,0,1-.182-.029q-.029-.018-.059-.152a1.878,1.878,0,0,0-.205-.434,9.588,9.588,0,0,0,1.225.076.665.665,0,0,0,.428-.105.486.486,0,0,0,.123-.375Zm2.174-5.027a10.216,10.216,0,0,0,.861-1.559,2.275,2.275,0,0,0,.135-.527,2.815,2.815,0,0,1,.551.217q.117.064.117.141a.163.163,0,0,1-.07.123.7.7,0,0,0-.229.275q-.3.586-.791,1.33h.563l1.682-.023q.094,0,.094.07l-.023.568v.48l.023,1.26q0,.082-.094.082h-.4a.073.073,0,0,1-.082-.082V34.8H25.775v1.875a.073.073,0,0,1-.082.082h-.41a.073.073,0,0,1-.082-.082l.023-1.26V35l-.023-.639q0-.07.082-.07l1.682.023ZM26.9,32.361a9.455,9.455,0,0,1,.938,1.359.127.127,0,0,1,.029.064q0,.041-.123.117l-.17.082a.481.481,0,0,1-.164.064q-.035,0-.064-.064a7.4,7.4,0,0,0-.926-1.395.086.086,0,0,1-.023-.047q0-.029.135-.094l.17-.088a.355.355,0,0,1,.129-.041A.1.1,0,0,1,26.9,32.361Zm2.344,0a.145.145,0,0,1-.023-.059q0-.041.117-.094l.182-.07a.315.315,0,0,1,.105-.035q.035,0,.076.059a7.688,7.688,0,0,1,.779,1.412.135.135,0,0,1,.018.053q0,.035-.152.105l-.164.07a.572.572,0,0,1-.158.053q-.047,0-.07-.076A6.667,6.667,0,0,0,29.244,32.361Zm10.1,3.785q-.047,1.078-.111,1.617h1.646l.967-.023q.1,0,.1.094-.006.041-.035,1.131a15.743,15.743,0,0,1-.193,2.256,1.943,1.943,0,0,1-.41,1,1.041,1.041,0,0,1-.779.287q-.428,0-.779-.035a.54.54,0,0,1-.187-.047.363.363,0,0,1-.035-.182.986.986,0,0,0-.146-.41,5.786,5.786,0,0,0,1.143.135.544.544,0,0,0,.51-.346,2.916,2.916,0,0,0,.182-.7,17.171,17.171,0,0,0,.158-2.678h-2.2A6.639,6.639,0,0,1,37.2,42.322q-.094.1-.129.1t-.135-.111a1.067,1.067,0,0,0-.334-.24,5.894,5.894,0,0,0,1.746-2.531,12.206,12.206,0,0,0,.451-3.393h-.064l-1.365.023a.073.073,0,0,1-.082-.082l.023-1.025V33.879l-.023-1.025a.073.073,0,0,1,.082-.082l1.365.023H40.43l1.383-.023a.073.073,0,0,1,.082.082l-.023,1.025v1.184l.023,1.025a.073.073,0,0,1-.082.082l-1.383-.023Zm-1.5-2.871v2.4h3.5v-2.4Zm6.5,8.666A9.5,9.5,0,0,0,45.457,42a.756.756,0,0,0,.527-.129.69.69,0,0,0,.123-.48v-7.67a8.008,8.008,0,0,0-.082-1.383q.293.018.633.064.146.018.146.094a1.033,1.033,0,0,1-.088.229,4.307,4.307,0,0,0-.059.984v6.17l.023,1.617a.989.989,0,0,1-.322.867,1.048,1.048,0,0,1-.439.164,5.985,5.985,0,0,1-.838.041h-.293q-.146,0-.176-.035a.712.712,0,0,1-.053-.17A1.356,1.356,0,0,0,44.344,41.941Zm-.791-8.736q.287.018.592.059.123.018.123.094a1.177,1.177,0,0,1-.059.17,7.941,7.941,0,0,0-.047,1.236V38l.023,1.523q0,.082-.094.082h-.4a.073.073,0,0,1-.082-.082L43.635,38V34.775A9.725,9.725,0,0,0,43.553,33.205ZM57.3,35.678h-1.57l-1.453.023a.073.073,0,0,1-.082-.082v-.387a.073.073,0,0,1,.082-.082l1.453.023H57.3V33.627a7.727,7.727,0,0,0-.082-1.371q.328.018.633.064.135.018.135.094a.774.774,0,0,1-.076.217,4.458,4.458,0,0,0-.059.984v1.559l1.33-.023q.088,0,.088.082v.387q0,.082-.088.082l-1.33-.023V40.1l.012,1.729a.955.955,0,0,1-.3.756,2.553,2.553,0,0,1-1.289.2q-.17,0-.369-.006a.321.321,0,0,1-.182-.029.4.4,0,0,1-.059-.164.954.954,0,0,0-.2-.4q.551.047,1.318.047a.547.547,0,0,0,.41-.117.538.538,0,0,0,.105-.375Zm-4.318-.855a11.693,11.693,0,0,1-.855,3.879,17.716,17.716,0,0,1,1.418,2.027.127.127,0,0,1,.029.064q0,.029-.1.111l-.205.193a.157.157,0,0,1-.082.041q-.035,0-.076-.064a17.928,17.928,0,0,0-1.225-1.869A8.732,8.732,0,0,1,49.2,42.322a.384.384,0,0,1-.146.076q-.047,0-.141-.111a1.229,1.229,0,0,0-.322-.264,8.144,8.144,0,0,0,2.918-3.3A22.081,22.081,0,0,0,49.652,36.7a.149.149,0,0,1-.047-.082.128.128,0,0,1,.047-.076l.182-.17a.232.232,0,0,1,.105-.064.081.081,0,0,1,.053.029,25.451,25.451,0,0,1,1.74,1.887,10.232,10.232,0,0,0,.691-3.4H50.361l-1.488.023a.073.073,0,0,1-.082-.082V34.4a.073.073,0,0,1,.082-.082l1.488.023h.855v-.885a5.874,5.874,0,0,0-.088-1.26,5.652,5.652,0,0,1,.627.059q.129.018.129.094a.819.819,0,0,1-.07.217,3.783,3.783,0,0,0-.059.891v.885h.768l1.488-.023a.073.073,0,0,1,.082.082v.363a.073.073,0,0,1-.082.082l-.129-.006Q53.5,34.828,52.98,34.822Zm1.8,2.221a8.613,8.613,0,0,1,1.453,2.127.138.138,0,0,1,.018.059q0,.029-.082.082l-.217.135a.423.423,0,0,1-.141.07q-.029,0-.059-.064a8.753,8.753,0,0,0-1.395-2.109.08.08,0,0,1-.035-.059q0-.035.094-.105l.182-.123A.213.213,0,0,1,54.7,37,.114.114,0,0,1,54.779,37.043Zm11.438.855v.838a9.121,9.121,0,0,0,2.414,2.021A13.519,13.519,0,0,0,71.4,41.883a1.675,1.675,0,0,0-.264.34q-.076.146-.135.146a.735.735,0,0,1-.152-.041,10.254,10.254,0,0,1-4.67-3.012l.064,3.416a.078.078,0,0,1-.088.088h-.416a.078.078,0,0,1-.088-.088l.064-3.381a10.592,10.592,0,0,1-4.5,2.994.5.5,0,0,1-.152.047q-.064,0-.146-.152a1.023,1.023,0,0,0-.264-.311A10.266,10.266,0,0,0,65.689,38.7v-.8H62.771v1.318l.023.844q0,.082-.07.082H62.3a.073.073,0,0,1-.082-.082l.023-.867v-.814l-.023-.891a.073.073,0,0,1,.082-.082l1.729.023h1.658v-.9H62.713l-1.623.023a.073.073,0,0,1-.082-.082v-.363a.073.073,0,0,1,.082-.082l1.623.023h2.977V36a4.919,4.919,0,0,0-.088-1.02q.322.018.6.059.146.023.146.094a.541.541,0,0,1-.07.205,2.1,2.1,0,0,0-.059.639v.07h3.129l1.617-.023q.088,0,.088.082v.363q0,.082-.088.082l-1.617-.023H66.217v.9h1.893l1.729-.023a.073.073,0,0,1,.082.082l-.023.65V38.3l.012.873a.8.8,0,0,1-.264.7,2.059,2.059,0,0,1-1.055.182.374.374,0,0,1-.193-.029.411.411,0,0,1-.07-.164,1.083,1.083,0,0,0-.17-.363,4.327,4.327,0,0,0,.721.064q.492,0,.492-.457V37.9Zm-3.7-4.553h2.074l1.26-.023q.088,0,.088.082v.352q0,.082-.088.082l-1.26-.023h-.7a5.767,5.767,0,0,1,.563,1.236.135.135,0,0,1,.012.047q0,.047-.129.094l-.217.076a.45.45,0,0,1-.135.035q-.047,0-.07-.076a5.74,5.74,0,0,0-.6-1.412H62.268a7.99,7.99,0,0,1-1.119,1.43q-.094.105-.129.105t-.146-.094a.7.7,0,0,0-.322-.17,7.414,7.414,0,0,0,1.693-2.426,1.911,1.911,0,0,0,.164-.609,4.9,4.9,0,0,1,.58.164q.105.047.105.123t-.105.146a.68.68,0,0,0-.182.275Q62.619,33.152,62.52,33.346Zm4.67,0h2.578l1.4-.023q.088,0,.088.082v.352q0,.082-.088.082l-1.4-.023H68.66a7.562,7.562,0,0,1,.627,1.271.105.105,0,0,1,.018.053q0,.041-.123.094l-.217.07a.533.533,0,0,1-.129.035q-.047,0-.076-.088a6.16,6.16,0,0,0-.674-1.436H66.938a10.123,10.123,0,0,1-.674.938q-.088.111-.123.111a.5.5,0,0,1-.164-.076,1.215,1.215,0,0,0-.328-.123,6.03,6.03,0,0,0,1.3-2.1,2.491,2.491,0,0,0,.082-.492,3.508,3.508,0,0,1,.557.141q.105.041.105.111a.277.277,0,0,1-.094.158,1.154,1.154,0,0,0-.158.3Q67.348,33,67.189,33.346Zm8.174,1.313a2.543,2.543,0,0,1,2.578-1.67,2.674,2.674,0,0,1,1.881.65,1.89,1.89,0,0,1,.627,1.447,1.914,1.914,0,0,1-.521,1.389,2.3,2.3,0,0,1-1.219.627v.076a2.53,2.53,0,0,1,1.518.855,2.128,2.128,0,0,1,.451,1.365,2.315,2.315,0,0,1-.85,1.9,2.833,2.833,0,0,1-1.852.6,3.291,3.291,0,0,1-1.8-.445,2.77,2.77,0,0,1-1-1.2l.744-.311a2.114,2.114,0,0,0,.879,1.049,2.387,2.387,0,0,0,1.172.258,1.846,1.846,0,0,0,1.424-.562,1.792,1.792,0,0,0,.451-1.26,1.686,1.686,0,0,0-.65-1.441,2.709,2.709,0,0,0-1.658-.445h-.68V36.85h.609a2.419,2.419,0,0,0,1.682-.51,1.547,1.547,0,0,0,.48-1.2,1.361,1.361,0,0,0-.545-1.154,1.834,1.834,0,0,0-1.148-.346,1.748,1.748,0,0,0-1.834,1.318Z" transform="translate(-5.051 9.949)"/>
</svg>
