<svg xmlns="http://www.w3.org/2000/svg" width="101.971" height="10.342" viewBox="0 0 101.971 10.342">
  <path id="パス_93" data-name="パス 93" d="M6-5.508a.9.9,0,0,1,.7.311.913.913,0,0,1,.24.627.921.921,0,0,1-.311.7A.9.9,0,0,1,6-3.621a.913.913,0,0,1-.7-.316.922.922,0,0,1-.246-.633.9.9,0,0,1,.316-.7A.921.921,0,0,1,6-5.508ZM17.385-6.615q.064-.545.094-1.16.012-.246.012-.451a6.284,6.284,0,0,0-.07-.967,2.835,2.835,0,0,1,.814.158q.129.041.129.141a.365.365,0,0,1-.064.182,2,2,0,0,0-.158.838q-.035.744-.105,1.26h2.109q.463,0,1.453-.023a.244.244,0,0,1,.141.023.219.219,0,0,1,.018.111q0,.275-.023,1.037a17.414,17.414,0,0,1-.457,3.75,2.836,2.836,0,0,1-.4.973,1.193,1.193,0,0,1-.58.393,3.671,3.671,0,0,1-1.26.158A.149.149,0,0,1,18.873-.3a1.2,1.2,0,0,0-.311-.533q.258.018.457.018a2.967,2.967,0,0,0,1.008-.135.733.733,0,0,0,.4-.328,2.97,2.97,0,0,0,.234-.7,18.959,18.959,0,0,0,.422-4.061H17.977a9.523,9.523,0,0,1-1.1,3.387,6.262,6.262,0,0,1-1.137,1.4A8.088,8.088,0,0,1,14.35-.182a.218.218,0,0,1-.111.035.146.146,0,0,1-.105-.047,1.08,1.08,0,0,0-.539-.3,6.5,6.5,0,0,0,2.725-2.414,8.3,8.3,0,0,0,1.008-3.135H15.838q-.867,0-1.646.047-.1,0-.129-.141a3.159,3.159,0,0,1-.035-.527q.844.047,1.8.047ZM27.41-8.93a3.882,3.882,0,0,1,.855.17.141.141,0,0,1,.117.141.218.218,0,0,1-.035.111,3.114,3.114,0,0,0-.129,1.2v1.98q0,.791.035,1.617,0,.17-.146.17h-.445q-.135,0-.135-.129v-.041q.029-1.137.029-1.652V-7.307A6.573,6.573,0,0,0,27.41-8.93ZM28.02-.105a5.452,5.452,0,0,0,2.707-1.576,4.957,4.957,0,0,0,1.014-3.3V-7.248a8.711,8.711,0,0,0-.146-1.887,3.612,3.612,0,0,1,.879.17.151.151,0,0,1,.105.152.257.257,0,0,1-.035.123,4.379,4.379,0,0,0-.129,1.43v2.186A5.527,5.527,0,0,1,31.33-1.4,6.168,6.168,0,0,1,28.752.316a.386.386,0,0,1-.117.023.182.182,0,0,1-.146-.088A1.433,1.433,0,0,0,28.02-.105ZM41.186-6.914l-.252-1.16a4.53,4.53,0,0,0-.4-1.2,3.981,3.981,0,0,1,.5-.029,2.4,2.4,0,0,1,.334.018q.164.023.164.135a.368.368,0,0,1-.006.059,1.927,1.927,0,0,0-.023.293,3.414,3.414,0,0,0,.07.639l.229,1.154,1.523-.275q.809-.135,1.74-.357a.248.248,0,0,1,.059-.012q.047,0,.076.082a3.486,3.486,0,0,1,.094.393.252.252,0,0,1,.006.047q0,.076-.1.088-.75.129-1.764.311l-1.512.275.445,2.115,2.086-.387q.908-.158,1.658-.357a.251.251,0,0,1,.064-.012q.053,0,.076.082a2.385,2.385,0,0,1,.1.387v.035q0,.117-.1.129-.609.1-1.693.3l-2.074.387.369,1.74q.205.908.434,1.887a.144.144,0,0,1,.012.053.1.1,0,0,1-.082.1,4.489,4.489,0,0,1-.445.111.272.272,0,0,1-.053.006q-.088,0-.111-.129Q42.551-.375,42.24-1.9l-.369-1.775-2.057.363q-.885.158-1.729.357A.281.281,0,0,1,38-2.936q-.07,0-.105-.111-.076-.234-.158-.527,1.02-.117,1.957-.287l2.051-.375L41.3-6.357l-1.5.252q-.9.146-1.629.334a.484.484,0,0,1-.064.006q-.064,0-.105-.094t-.158-.562q.914-.088,1.875-.252ZM55.406-1.225h.686q.5,0,1.541-.023.158,0,.158.129v.328q0,.082-.021.1a.253.253,0,0,1-.126.018Q56.52-.7,56.051-.7H51.844q-.8,0-1.441.053h-.041q-.1,0-.117-.158a3.079,3.079,0,0,1-.035-.457q.609.035,1.605.035h2.977l.48-3.48H53.127q-.914,0-1.336.023-.164,0-.176-.117-.041-.363-.041-.5.785.059,1.588.059h1.822a.946.946,0,0,0,.48-.094.172.172,0,0,1,.105-.041.217.217,0,0,1,.123.053,2.172,2.172,0,0,1,.375.346.182.182,0,0,1,.053.123.186.186,0,0,1-.064.129.605.605,0,0,0-.193.4Zm7.811-7.488q.82.07,1.945.07h1.752q1.025,0,1.846-.053h.035q.082,0,.082.123a1.438,1.438,0,0,1,.012.2,1.572,1.572,0,0,1-.012.205q0,.135-.129.135-.908-.035-1.811-.035h-1.8q-1.031,0-1.74.047a.138.138,0,0,1-.146-.141Q63.217-8.6,63.217-8.713ZM62.2-6.229q.879.07,2.1.07h4.189a1.289,1.289,0,0,0,.551-.07.287.287,0,0,1,.146-.041.264.264,0,0,1,.176.064,1.993,1.993,0,0,1,.328.311.3.3,0,0,1,.059.164.158.158,0,0,1-.076.135.8.8,0,0,0-.252.322A10.707,10.707,0,0,1,64.348.2a.327.327,0,0,1-.141.041A.144.144,0,0,1,64.1.188a1.5,1.5,0,0,0-.533-.334,9.842,9.842,0,0,0,5.244-5.437H64.295q-.809,0-1.857.082A.13.13,0,0,1,62.4-5.5q-.1,0-.129-.123Q62.209-6.012,62.2-6.229ZM76.816-9.047a3.078,3.078,0,0,1,.9.357.142.142,0,0,1,.07.123.285.285,0,0,1-.094.188,2.256,2.256,0,0,0-.445.855,58.875,58.875,0,0,1-2.291,5.988q2.977-.2,5.438-.586a12.444,12.444,0,0,0-1.5-2.162q.328-.211.41-.252a.2.2,0,0,1,.1-.035q.059,0,.117.082A17.153,17.153,0,0,1,81.8-.85a.155.155,0,0,1,.023.076.134.134,0,0,1-.07.111,3.943,3.943,0,0,1-.41.229.138.138,0,0,1-.059.018q-.07,0-.123-.111a8.618,8.618,0,0,0-.5-1.043q-2.689.41-5.988.721A3.36,3.36,0,0,0,73.441-.6a.281.281,0,0,1-.164.059.147.147,0,0,1-.146-.094,7.272,7.272,0,0,1-.252-.832,5.839,5.839,0,0,0,.6.029q.328,0,.791-.029a56.187,56.187,0,0,0,2.256-6.023A6.468,6.468,0,0,0,76.816-9.047Zm10.4,5.385V-6.574H86.59l-1.676.023q-.088,0-.088-.082v-.4q0-.082.088-.082l1.676.023h.627V-8.145A9.484,9.484,0,0,0,87.135-9.7a5.052,5.052,0,0,1,.633.07q.135.023.135.082a.712.712,0,0,1-.076.24,5.812,5.812,0,0,0-.059,1.166V-7.09h3.17V-8.145A9.484,9.484,0,0,0,90.855-9.7a4.48,4.48,0,0,1,.633.07q.135.018.135.082a.712.712,0,0,1-.076.24,5.812,5.812,0,0,0-.059,1.166V-7.09h.779l1.682-.023a.073.073,0,0,1,.082.082v.4a.073.073,0,0,1-.082.082l-1.682-.023h-.779v2.912h1.453l1.582-.023q.088,0,.088.082v.387q0,.082-.088.082l-1.582-.023H85.863l-1.588.023a.073.073,0,0,1-.082-.082V-3.6a.073.073,0,0,1,.082-.082l1.588.023Zm.551-2.912v2.912h3.17V-6.574Zm-.217,4.031a2.923,2.923,0,0,1,.533.252q.094.059.094.117t-.135.158a1.613,1.613,0,0,0-.275.287A9.344,9.344,0,0,1,84.844.563a.467.467,0,0,1-.158.059q-.059,0-.146-.117a1.013,1.013,0,0,0-.322-.275,8.7,8.7,0,0,0,2.842-1.98A2.128,2.128,0,0,0,87.551-2.543ZM94.441.146a1.233,1.233,0,0,0-.311.346Q94.049.639,94,.639a.342.342,0,0,1-.135-.064,10.866,10.866,0,0,1-3.3-2.736.113.113,0,0,1-.023-.053q0-.035.123-.1l.205-.135a.241.241,0,0,1,.088-.035.1.1,0,0,1,.064.035A9.932,9.932,0,0,0,92.584-.926,8.911,8.911,0,0,0,94.441.146Zm8.947-7.324h.873l1.623-.023a.073.073,0,0,1,.082.082L105.943-5.6V-3.65l.012,1.787a.847.847,0,0,1-.252.709,2.189,2.189,0,0,1-1.154.205.321.321,0,0,1-.182-.029.3.3,0,0,1-.07-.152.879.879,0,0,0-.176-.369q.369.035.861.035a.409.409,0,0,0,.457-.469v-1.26h-2.473v.65L102.99-1.1q0,.088-.082.088h-.387q-.082,0-.082-.088l.023-1.447v-.65h-2.256v.756l.023,1.465a.073.073,0,0,1-.082.082h-.387q-.07,0-.07-.082l.023-1.441v-3.24l-.023-1.465q0-.082.07-.082l1.635.023H102.7a9.8,9.8,0,0,0-1.488-1.02q-.047-.029-.047-.059t.094-.123L101.4-8.5q.07-.07.105-.07a.114.114,0,0,1,.059.023,12.6,12.6,0,0,1,1.348.955A13.647,13.647,0,0,0,104.754-9H101.18l-1.57.023q-.088,0-.088-.082V-9.41q0-.094.088-.094l1.57.023h3.539a.794.794,0,0,0,.275-.035.4.4,0,0,1,.146-.047q.082,0,.287.205t.193.311q0,.094-.146.146a1.42,1.42,0,0,0-.369.252,18.949,18.949,0,0,1-1.852,1.354A.631.631,0,0,0,103.389-7.178Zm2.051,1.764V-6.732h-2.473v1.318Zm0,.445h-2.473v1.33h2.473Zm-5.232,1.33h2.256v-1.33h-2.256Zm0-1.775h2.256V-6.732h-2.256Zm6.814,5.127a.947.947,0,0,0-.193.445q-.029.146-.064.17a.357.357,0,0,1-.164.029q-2.221.17-4.395.17A7.362,7.362,0,0,1,99.217.105,2.227,2.227,0,0,1,98.1-1.1q-.586.633-1.225,1.213a.988.988,0,0,0-.24.264q-.047.094-.117.094a.19.19,0,0,1-.135-.082,2.611,2.611,0,0,1-.322-.492,4.176,4.176,0,0,0,.744-.469,9.784,9.784,0,0,0,1.043-1.02V-4.682h-.914l-.779.023a.073.073,0,0,1-.082-.082v-.41q0-.07.082-.07l.779.023h.58l.8-.023q.082,0,.082.07l-.023,1.143v2.426a2.451,2.451,0,0,0,.445.779,2.151,2.151,0,0,0,.621.445,6.333,6.333,0,0,0,2.449.334A51.061,51.061,0,0,0,107.021-.287ZM96.545-9.094a.1.1,0,0,1-.029-.053q0-.035.111-.105l.158-.105a.3.3,0,0,1,.105-.053.149.149,0,0,1,.088.047A9.45,9.45,0,0,1,98.3-7.729a.135.135,0,0,1,.018.053q0,.041-.111.129l-.158.117a.359.359,0,0,1-.158.076q-.035,0-.059-.053A9.455,9.455,0,0,0,96.545-9.094Z" transform="translate(-5.051 9.703)"/>
</svg>
