<svg xmlns="http://www.w3.org/2000/svg" width="96.373" height="12.701" viewBox="0 0 96.373 12.701">
  <path id="パス_89" data-name="パス 89" d="M7.342-6.85a13.9,13.9,0,0,0,.937,2.311,10.841,10.841,0,0,0,2.871,3.473A9.726,9.726,0,0,0,13.18.109a1.3,1.3,0,0,0-.41.424q-.1.171-.157.171a.533.533,0,0,1-.178-.075A11.306,11.306,0,0,1,10.657-.561,11.359,11.359,0,0,1,8.7-2.707,11.656,11.656,0,0,1,6.918-6.419a10.529,10.529,0,0,1-.827,2.693A8.852,8.852,0,0,1,4.129-1.053,11.175,11.175,0,0,1,1.559.67a.565.565,0,0,1-.178.068q-.068,0-.191-.164A1.366,1.366,0,0,0,.772.232,8.7,8.7,0,0,0,5.489-4.006,9.762,9.762,0,0,0,6.3-6.85H3.056l-1.894.027a.085.085,0,0,1-.1-.1V-7.41a.085.085,0,0,1,.1-.1l1.894.027H6.385q.1-.909.123-2.352.007-.308.007-.485a6.6,6.6,0,0,0-.075-1.08,5.36,5.36,0,0,1,.8.082q.171.021.171.137a.864.864,0,0,1-.082.253,3.531,3.531,0,0,0-.116,1.08q-.021,1.271-.137,2.365h3.808l1.887-.027a.085.085,0,0,1,.1.1v.492a.085.085,0,0,1-.1.1L10.883-6.85ZM20.706-3.1H16.844l-1.853.027a.085.085,0,0,1-.1-.1V-3.63a.085.085,0,0,1,.1-.1l1.853.027h3.862a7.23,7.23,0,0,0-.1-1.456q.355.075.656.171A13.113,13.113,0,0,0,23.3-6.371h-4.02l-1.818.027q-.1,0-.1-.1v-.437q0-.1.1-.1l1.818.027h3.958a1.553,1.553,0,0,0,.369-.027A.45.45,0,0,1,23.741-7q.1,0,.335.253a.666.666,0,0,1,.226.376.15.15,0,0,1-.123.157,1.778,1.778,0,0,0-.574.335A16.478,16.478,0,0,1,21.39-4.5a3.208,3.208,0,0,0-.027.547V-3.7H25.17l1.846-.027q.1,0,.1.1v.465q0,.1-.1.1L25.17-3.1H21.362v1.641l.014,1.2a.931.931,0,0,1-.349.827,2.472,2.472,0,0,1-1.162.212q-.431,0-.711-.014a.581.581,0,0,1-.212-.034q-.034-.021-.068-.178a2.191,2.191,0,0,0-.239-.506,11.186,11.186,0,0,0,1.429.089.776.776,0,0,0,.5-.123.567.567,0,0,0,.144-.437Zm2.536-5.865a11.919,11.919,0,0,0,1-1.818A2.654,2.654,0,0,0,24.4-11.4a3.284,3.284,0,0,1,.643.253q.137.075.137.164a.191.191,0,0,1-.082.144.814.814,0,0,0-.267.321q-.355.684-.923,1.552h.656l1.962-.027q.109,0,.109.082l-.027.663v.561l.027,1.47q0,.1-.109.1h-.465a.085.085,0,0,1-.1-.1V-8.4h-9.9v2.188a.085.085,0,0,1-.1.1H15.5a.085.085,0,0,1-.1-.1l.027-1.47v-.479L15.4-8.907q0-.082.1-.082l1.962.027Zm-5.858-2.283a11.031,11.031,0,0,1,1.094,1.586.148.148,0,0,1,.034.075q0,.048-.144.137l-.2.1a.561.561,0,0,1-.191.075q-.041,0-.075-.075a8.639,8.639,0,0,0-1.08-1.627.1.1,0,0,1-.027-.055q0-.034.157-.109l.2-.1a.414.414,0,0,1,.15-.048A.113.113,0,0,1,17.384-11.245Zm2.734,0a.17.17,0,0,1-.027-.068q0-.048.137-.109l.212-.082a.368.368,0,0,1,.123-.041q.041,0,.089.068a8.969,8.969,0,0,1,.909,1.647.157.157,0,0,1,.021.062q0,.041-.178.123l-.191.082a.668.668,0,0,1-.185.062q-.055,0-.082-.089A7.779,7.779,0,0,0,20.118-11.245ZM31.9-6.829q-.055,1.258-.13,1.887h1.921l1.128-.027q.116,0,.116.109-.007.048-.041,1.319a18.367,18.367,0,0,1-.226,2.632A2.267,2.267,0,0,1,34.187.253a1.214,1.214,0,0,1-.909.335q-.5,0-.909-.041a.63.63,0,0,1-.219-.055A.423.423,0,0,1,32.108.28,1.15,1.15,0,0,0,31.938-.2a6.75,6.75,0,0,0,1.333.157.635.635,0,0,0,.595-.4,3.4,3.4,0,0,0,.212-.813,20.033,20.033,0,0,0,.185-3.124H31.7a8.687,8.687,0,0,1-.813,2.748A8.675,8.675,0,0,1,29.4.376q-.109.116-.15.116t-.157-.13a1.245,1.245,0,0,0-.39-.28,6.877,6.877,0,0,0,2.037-2.953,14.24,14.24,0,0,0,.526-3.958h-.075L29.6-6.8a.085.085,0,0,1-.1-.1l.027-1.2V-9.475l-.027-1.2a.085.085,0,0,1,.1-.1l1.593.027h1.976l1.613-.027a.085.085,0,0,1,.1.1l-.027,1.2v1.381l.027,1.2a.085.085,0,0,1-.1.1l-1.613-.027Zm-1.75-3.35v2.8h4.088v-2.8ZM37.734-.068a11.079,11.079,0,0,0,1.3.068.882.882,0,0,0,.615-.15.805.805,0,0,0,.144-.561V-9.659a9.343,9.343,0,0,0-.1-1.613q.342.021.738.075.171.021.171.109a1.2,1.2,0,0,1-.1.267,5.025,5.025,0,0,0-.068,1.148v7.2l.027,1.887A1.154,1.154,0,0,1,40.086.424a1.223,1.223,0,0,1-.513.191A6.983,6.983,0,0,1,38.6.663h-.342q-.171,0-.205-.041a.83.83,0,0,1-.062-.2A1.582,1.582,0,0,0,37.734-.068Zm-.923-10.192q.335.021.69.068.144.021.144.109a1.373,1.373,0,0,1-.068.2,9.265,9.265,0,0,0-.055,1.442v3.78l.027,1.777q0,.1-.109.1h-.465a.085.085,0,0,1-.1-.1l.027-1.777V-8.429A11.345,11.345,0,0,0,36.812-10.261ZM52.849-7.376H51.017l-1.7.027a.085.085,0,0,1-.1-.1V-7.9a.085.085,0,0,1,.1-.1l1.7.027h1.832v-1.8a9.015,9.015,0,0,0-.1-1.6q.383.021.738.075.157.021.157.109a.9.9,0,0,1-.089.253,5.2,5.2,0,0,0-.068,1.148v1.818l1.552-.027q.1,0,.1.1v.451q0,.1-.1.1l-1.552-.027v5.161L53.5-.2a1.114,1.114,0,0,1-.349.882,2.979,2.979,0,0,1-1.5.232q-.2,0-.431-.007A.375.375,0,0,1,51.01.875a.465.465,0,0,1-.068-.191,1.113,1.113,0,0,0-.232-.472q.643.055,1.538.055A.638.638,0,0,0,52.726.13a.628.628,0,0,0,.123-.437Zm-5.038-1a13.642,13.642,0,0,1-1,4.525,20.669,20.669,0,0,1,1.654,2.365.148.148,0,0,1,.034.075q0,.034-.116.13l-.239.226a.183.183,0,0,1-.1.048q-.041,0-.089-.075a20.916,20.916,0,0,0-1.429-2.181A10.187,10.187,0,0,1,43.395.376a.449.449,0,0,1-.171.089q-.055,0-.164-.13a1.433,1.433,0,0,0-.376-.308,9.5,9.5,0,0,0,3.4-3.849,25.761,25.761,0,0,0-2.16-2.365.174.174,0,0,1-.055-.1.149.149,0,0,1,.055-.089l.212-.2a.271.271,0,0,1,.123-.075.094.094,0,0,1,.062.034,29.694,29.694,0,0,1,2.03,2.2,11.937,11.937,0,0,0,.807-3.965H44.755l-1.736.027a.085.085,0,0,1-.1-.1v-.424a.085.085,0,0,1,.1-.1l1.736.027h1V-9.967a6.853,6.853,0,0,0-.1-1.47,6.594,6.594,0,0,1,.731.068q.15.021.15.109a.956.956,0,0,1-.082.253,4.413,4.413,0,0,0-.068,1.039v1.032h.9l1.736-.027a.085.085,0,0,1,.1.1v.424a.085.085,0,0,1-.1.1l-.15-.007Q48.419-8.367,47.811-8.374Zm2.1,2.591A10.049,10.049,0,0,1,51.6-3.3a.161.161,0,0,1,.021.068q0,.034-.1.1l-.253.157a.494.494,0,0,1-.164.082q-.034,0-.068-.075a10.212,10.212,0,0,0-1.627-2.461.093.093,0,0,1-.041-.068q0-.041.109-.123L49.7-5.77a.249.249,0,0,1,.123-.062A.133.133,0,0,1,49.909-5.783Zm13.344,1v.978a10.641,10.641,0,0,0,2.816,2.358A15.772,15.772,0,0,0,69.3-.137a1.954,1.954,0,0,0-.308.4q-.089.171-.157.171a.858.858,0,0,1-.178-.048,11.963,11.963,0,0,1-5.448-3.514L63.28.854a.091.091,0,0,1-.1.1h-.485a.091.091,0,0,1-.1-.1l.075-3.944A12.357,12.357,0,0,1,57.415.4a.579.579,0,0,1-.178.055q-.075,0-.171-.178a1.193,1.193,0,0,0-.308-.362,11.977,11.977,0,0,0,5.879-3.767v-.937h-3.4v1.538l.027.984q0,.1-.082.1h-.492a.085.085,0,0,1-.1-.1l.027-1.012v-.95l-.027-1.039a.085.085,0,0,1,.1-.1l2.017.027h1.935V-6.385H59.165l-1.894.027a.085.085,0,0,1-.1-.1v-.424a.085.085,0,0,1,.1-.1l1.894.027h3.473V-7a5.739,5.739,0,0,0-.1-1.189q.376.021.7.068.171.027.171.109a.631.631,0,0,1-.082.239,2.455,2.455,0,0,0-.068.745v.082H66.9l1.887-.027q.1,0,.1.1v.424q0,.1-.1.1L66.9-6.385h-3.65v1.053h2.208l2.017-.027a.085.085,0,0,1,.1.1l-.027.759v.185L67.56-3.3a.936.936,0,0,1-.308.813,2.4,2.4,0,0,1-1.23.212.437.437,0,0,1-.226-.034.479.479,0,0,1-.082-.191,1.263,1.263,0,0,0-.2-.424,5.048,5.048,0,0,0,.841.075q.574,0,.574-.533v-1.4ZM58.939-10.1h2.42l1.47-.027q.1,0,.1.1v.41q0,.1-.1.1l-1.47-.027h-.813A6.728,6.728,0,0,1,61.2-8.107a.158.158,0,0,1,.014.055q0,.055-.15.109l-.253.089a.525.525,0,0,1-.157.041q-.055,0-.082-.089a6.7,6.7,0,0,0-.7-1.647h-1.23A9.322,9.322,0,0,1,57.34-7.882q-.109.123-.15.123t-.171-.109a.813.813,0,0,0-.376-.2,8.65,8.65,0,0,0,1.976-2.83,2.23,2.23,0,0,0,.191-.711,5.718,5.718,0,0,1,.677.191q.123.055.123.144t-.123.171a.793.793,0,0,0-.212.321Q59.056-10.322,58.939-10.1Zm5.448,0H67.4l1.634-.027q.1,0,.1.1v.41q0,.1-.1.1L67.4-9.55H66.1a8.822,8.822,0,0,1,.731,1.483A.123.123,0,0,1,66.855-8q0,.048-.144.109l-.253.082a.622.622,0,0,1-.15.041q-.055,0-.089-.1a7.187,7.187,0,0,0-.786-1.675h-1.34a11.81,11.81,0,0,1-.786,1.094q-.1.13-.144.13a.582.582,0,0,1-.191-.089,1.418,1.418,0,0,0-.383-.144,7.035,7.035,0,0,0,1.518-2.447,2.906,2.906,0,0,0,.1-.574,4.092,4.092,0,0,1,.649.164q.123.048.123.13a.323.323,0,0,1-.109.185,1.346,1.346,0,0,0-.185.349Q64.572-10.5,64.388-10.1ZM72,.109V.854a.085.085,0,0,1-.1.1h-.424a.085.085,0,0,1-.1-.1l.027-2.03v-.813l-.027-1.2q0-.082.1-.082l1.135.014h.9l1.135-.014q.1,0,.1.082l-.027.984v.848L74.744.6a.085.085,0,0,1-.1.1h-.41a.085.085,0,0,1-.1-.1V.109Zm0-.533h2.14v-2.3H72Zm5.53-6.508V-8.1l-1.415.027a.085.085,0,0,1-.1-.1v-.314a.085.085,0,0,1,.1-.1l1.415.027V-9.6l-1.764.027q-.1,0-.1-.1V-10q0-.1.1-.1l1.764.027v-.239a5.191,5.191,0,0,0-.1-1.258,4.586,4.586,0,0,1,.636.068q.157.021.157.109a.411.411,0,0,1-.068.2,2.567,2.567,0,0,0-.082.9v.226H80.1v-.239a4.855,4.855,0,0,0-.1-1.258,5.066,5.066,0,0,1,.663.068q.137.021.137.109a.411.411,0,0,1-.068.2,2.922,2.922,0,0,0-.068.9v.226h.178l1.853-.027a.085.085,0,0,1,.1.1v.328a.085.085,0,0,1-.1.1L80.835-9.6h-.178v1.053l1.682-.027a.085.085,0,0,1,.1.1v.314a.085.085,0,0,1-.1.1L80.657-8.1v1.169h.485l1.935-.027a.085.085,0,0,1,.1.1v.342a.085.085,0,0,1-.1.1l-1.935-.027h-1.8v1.121h1.039l1.736-.034a.085.085,0,0,1,.1.1l-.027,1.613v1.483q.444-.007.807-.021l.246-.007a.085.085,0,0,1,.1.1v.328a.085.085,0,0,1-.1.1L83.1-1.688q-.41-.014-.916-.021L82.2-.267a1.023,1.023,0,0,1-.28.841,2.8,2.8,0,0,1-1.5.226.356.356,0,0,1-.205-.034A.321.321,0,0,1,80.151.6a1.27,1.27,0,0,0-.226-.431q.513.041,1.066.041A.7.7,0,0,0,81.5.075a.627.627,0,0,0,.1-.41V-1.709H76.692v.984L76.72.841a.085.085,0,0,1-.1.1h-.437q-.082,0-.082-.1l.027-1.524V-1.709q-.4.007-.718.021l-.219.007a.085.085,0,0,1-.1-.1v-.328a.085.085,0,0,1,.1-.1l.28.007q.294.014.656.021V-3.726L76.1-5.271q0-.1.082-.1l1.736.034h.868V-6.453H77.28l-1.935.027a.085.085,0,0,1-.1-.1v-.342a.085.085,0,0,1,.1-.1l1.935.027Zm1.258,3.6h-2.1v1.162h2.1Zm.547,0v1.162h2.27V-3.336Zm-.547-1.538h-2.1v1.107h2.1Zm.547,0v1.107h2.27V-4.874ZM78.08-9.6v1.053H80.1V-9.6Zm0,1.5v1.169H80.1V-8.1Zm-5.435,2.96h.8l1.066-.027q.1,0,.1.1v.417a.085.085,0,0,1-.1.1L73.445-4.58h-.8l-1.06.027q-.1,0-.1-.1v-.417a.091.091,0,0,1,.1-.1Zm0-1.887h.8l1.066-.027a.085.085,0,0,1,.1.1v.424a.085.085,0,0,1-.1.1l-1.066-.027h-.8l-1.06.027q-.1,0-.1-.1v-.424q0-.1.1-.1ZM72.6-10.794h1.039l1.176-.027a.085.085,0,0,1,.1.1v.424a.085.085,0,0,1-.1.1l-1.176-.027H72.6l-1.176.027a.085.085,0,0,1-.1-.1v-.424a.085.085,0,0,1,.1-.1Zm2.577,1.941v.438q0,.1-.082.1l-1.388-.027h-1.4l-1.388.027a.085.085,0,0,1-.1-.1v-.437q0-.082.1-.082l1.388.027h1.4L75.1-8.935A.073.073,0,0,1,75.182-8.853ZM94.609-6.521A7.846,7.846,0,0,0,96.681-4.3a1.029,1.029,0,0,0-.376.28q-.1.13-.137.13t-.157-.116A9.554,9.554,0,0,1,94.37-5.92a8.032,8.032,0,0,1-1.326,2.044q-.1.116-.137.116a.428.428,0,0,1-.171-.1,1.11,1.11,0,0,0-.335-.171,7.476,7.476,0,0,0,1.859-3.288,3.232,3.232,0,0,0,.1-.8,4.014,4.014,0,0,1,.561.171q.171.055.171.15a.248.248,0,0,1-.082.144.937.937,0,0,0-.185.431Q94.685-6.747,94.609-6.521ZM91.4-.239V-2.352H89.865l-1.948.027q-.109,0-.109-.1v-.437q0-.1.109-.1l1.948.027H91.4V-7.082a10.862,10.862,0,0,0-.1-1.736q.314.014.7.068.157.027.157.137a1.063,1.063,0,0,1-.089.28A5.954,5.954,0,0,0,92-7.1v4.17h1.9l1.935-.027a.085.085,0,0,1,.1.1v.438a.085.085,0,0,1-.1.1l-1.935-.027H92V-.239h3.063l1.976-.027q.1,0,.1.1V.28q0,.1-.1.1L95.067.349h-6.31L86.782.376a.085.085,0,0,1-.1-.1V-.171a.085.085,0,0,1,.1-.1l1.976.027Zm-.451-9.81v-.561a4.964,4.964,0,0,0-.1-1.135q.5.027.752.055.144.027.144.116a1.412,1.412,0,0,1-.068.253,1.927,1.927,0,0,0-.089.7v.574h3.391l1.962-.027a.085.085,0,0,1,.1.1v.451a.085.085,0,0,1-.1.1l-1.962-.027H86.8V-7.15a31.744,31.744,0,0,1-.226,4.245A9.858,9.858,0,0,1,85.3.718q-.082.137-.123.137T85.032.745a1.14,1.14,0,0,0-.417-.28,8.57,8.57,0,0,0,1.326-3.623,30.815,30.815,0,0,0,.2-4.047L86.112-9.98a.085.085,0,0,1,.1-.1l2,.027Zm-1.7,3.582A8.348,8.348,0,0,0,90.959-4.4a.9.9,0,0,0-.321.267q-.1.13-.144.13t-.15-.116a9.281,9.281,0,0,1-1.319-1.75A7.854,7.854,0,0,1,87.767-3.9q-.123.137-.171.137a.291.291,0,0,1-.137-.075,1.289,1.289,0,0,0-.369-.212,7.069,7.069,0,0,0,1.825-3.3,3.16,3.16,0,0,0,.109-.786,2.96,2.96,0,0,1,.547.157q.185.068.185.15a.209.209,0,0,1-.055.144,1.057,1.057,0,0,0-.212.431Q89.421-6.986,89.25-6.467Z" transform="translate(-0.772 11.744)" fill="#fff"/>
</svg>
