<svg xmlns="http://www.w3.org/2000/svg" width="245.414" height="25.535" viewBox="0 0 245.414 25.535">
  <path id="パス_84" data-name="パス 84" d="M9.567-22.581H2.445v2.015H9.567ZM7.635-5.383v3.975H4.405V-5.383Zm2.153-2.07H2.279V1.822H4.405V.635H9.788ZM2.307-9.275H9.678v-1.988H2.307Zm7.371-5.742H2.307v1.988H9.678ZM1.12-16.812h9.3v-2.043H1.12ZM19.561-4.389V-6.073h3.2v1.684ZM14.233-6.073H17.38v1.684H14.233ZM17.38-9.441v1.684H14.233V-9.441Zm5.383,0v1.684h-3.2V-9.441ZM16.69-16.149h3.837v1.518H16.69Zm0-3.313h3.837V-18H16.69ZM26.6-4.389H25.137v-6.9H19.561v-1.325h6.984v-2.015h-3.7v-1.518h2.705V-18H22.846v-1.463H26.1v-1.877H22.846v-2.153H20.527v2.153H16.69v-2.153H14.371v2.153H11.279v1.877h3.092V-18H11.8v1.85h2.567v1.518H10.534v2.015H17.38v1.325H12.052v6.9H10.506v2.043h1.546v4.2h2.181v-4.2h8.53V-.607c0,.331-.083.442-.442.469-.359,0-1.574,0-2.761-.055a8.012,8.012,0,0,1,.607,2.015,11.851,11.851,0,0,0,3.892-.331c.856-.331,1.077-.911,1.077-2.07V-2.346H26.6Zm9.662-2.733v4.086H32.176V-7.122Zm-.248-6.6H32.176v-3.506h3.837Zm-3.837,2.181H38.3v-7.868H34.468c.525-1.132,1.049-2.512,1.518-3.782L33.17-23.52a30.594,30.594,0,0,1-.994,4.113H29.885V.966h2.291V-.856h6.377V-9.331H32.176ZM53.93-19.793V-22.14H39.243v2.346h6.1v2.981H40.21V-2.319h2.346v-12.2h2.788V1.794h2.4V-14.521h3.037v9.69c0,.276-.083.359-.359.359-.248.028-1.021.028-1.877,0a8.115,8.115,0,0,1,.663,2.208A7.17,7.17,0,0,0,52.3-2.65c.69-.386.856-1.077.856-2.153V-16.812H47.746v-2.981ZM67.87-3.782c0-1.187,1.3-1.988,3.147-1.988a8.9,8.9,0,0,1,2.567.386v.745c0,1.739-.635,2.788-2.678,2.788C69.14-1.85,67.87-2.485,67.87-3.782Zm8.282-17.971H73.033a13.583,13.583,0,0,1,.166,1.767v3.257c-.773.028-1.518.055-2.291.055a44.944,44.944,0,0,1-4.776-.248l.028,2.595c1.6.11,3.119.193,4.721.193.773,0,1.546-.028,2.319-.055.055,2.153.166,4.527.276,6.46A14.692,14.692,0,0,0,71.238-7.9c-3.7,0-5.88,1.877-5.88,4.417,0,2.65,2.181,4.2,5.908,4.2C75.1.718,76.318-1.463,76.318-4v-.138a26.248,26.248,0,0,1,3.837,3.064L81.646-3.4a18.212,18.212,0,0,0-5.438-3.561c-.083-2.126-.276-4.61-.3-7.371,1.6-.11,3.147-.3,4.583-.525V-17.53a42.7,42.7,0,0,1-4.583.635c.028-1.27.055-2.457.083-3.147C76.014-20.594,76.069-21.2,76.152-21.753ZM62.6-21.5l-3.009-.276c-.028.718-.138,1.6-.221,2.291A84.7,84.7,0,0,0,58.153-7.923,32.31,32.31,0,0,0,59.23.856L61.687.663c-.028-.331-.055-.745-.083-1.021a7.127,7.127,0,0,1,.138-1.27c.3-1.408,1.242-4.224,1.988-6.322l-1.38-1.077c-.442,1.021-1.049,2.4-1.435,3.534a17.958,17.958,0,0,1-.221-2.954,72.98,72.98,0,0,1,1.353-10.932C62.156-19.876,62.432-21.008,62.6-21.5Zm24.955,5.576v-2.733H105.58v2.733H97.823v-1.96H95.228v1.96ZM108.727-5.135V-7.371H97.464a14.694,14.694,0,0,0,.331-2.208h7.84V-11.7H97.823v-2.1h8.254v-1.6H108.2v-5.521H97.933v-2.54h-2.65v2.54H85.041V-15.4h2.346v1.6h7.84v2.1h-7.4v2.126H95.2a10.367,10.367,0,0,1-.414,2.208H84.71v2.236H93.6c-1.463,1.877-4.2,3.616-9.275,4.914A10.151,10.151,0,0,1,85.9,1.822C91.97.083,95.007-2.319,96.5-4.969c2.126,3.81,5.632,5.963,11.015,6.874a9.211,9.211,0,0,1,1.546-2.236c-4.638-.607-7.978-2.181-9.91-4.8ZM124.158-17.64v-5.8h-2.705v5.8h-8.7v2.623h8.558C120.9-10.048,119.106-4.2,111.929-.083a10.853,10.853,0,0,1,1.988,2.07c7.84-4.638,9.717-11.318,10.131-17.005h8.641c-.469,9.027-1.049,12.809-1.988,13.692a1.549,1.549,0,0,1-1.27.414c-.69,0-2.374,0-4.2-.166a6.468,6.468,0,0,1,.911,2.65,32.879,32.879,0,0,0,4.389,0A3.358,3.358,0,0,0,133.075.3c1.215-1.408,1.739-5.494,2.346-16.674.028-.359.055-1.27.055-1.27Zm22.609-2.926a18.391,18.391,0,0,0-4.859-2.761L140.5-21.45a20.006,20.006,0,0,1,4.776,3.009Zm-1.38,7.177a21.278,21.278,0,0,0-4.886-2.595l-1.408,1.932a20.418,20.418,0,0,1,4.8,2.816Zm-1.1,4.472a86.116,86.116,0,0,1-4.638,8.889l2.291,1.518C143.372-1.1,145-4.445,146.27-7.371Zm18.661-3.7a29.874,29.874,0,0,1-3.257,3.175,38.968,38.968,0,0,1-.718-4.251,39.25,39.25,0,0,0,4.914-1.656l-2.015-1.988a50.727,50.727,0,0,1-11.125,3.257v-3.892A70.227,70.227,0,0,0,163.275-21.5l-2.181-2.015a53.693,53.693,0,0,1-10.6,3.313l-2.208-.635v7.481c0,4.113-.3,9.662-3.2,13.748a6.428,6.428,0,0,1,1.988,1.629c3.23-4.527,3.672-10.987,3.672-15.349v-.5a8.533,8.533,0,0,1,.69,1.794l1.38-.248V1.794h2.429V-12.781c.552-.11,1.077-.248,1.629-.386C157.7-6.46,159.245-1.021,162.944,1.9A10.022,10.022,0,0,1,164.711-.3c-2.126-1.463-3.534-3.975-4.472-7.067,1.325-.883,2.954-2.181,4.445-3.34Zm8.889-8.558.138,2.816c.718-.083,1.574-.166,2.291-.221,1.159-.11,5.355-.3,6.543-.386a103.459,103.459,0,0,1-8.53,6.957c-1.408.166-3.313.386-4.8.552l.248,2.623c3.092-.525,6.515-.939,9.248-1.187a6.58,6.58,0,0,0-2.65,4.859c0,4.389,3.837,6.515,10.739,6.211l.58-2.843a22.6,22.6,0,0,1-4.058-.055c-2.512-.331-4.527-1.242-4.527-3.754,0-2.457,2.429-4.527,5.024-4.886a44.064,44.064,0,0,1,7.067-.11l-.028-2.567c-3.7,0-8.5.331-12.478.745,2.07-1.629,5.521-4.5,7.536-6.156.469-.359,1.3-.939,1.767-1.242L184.2-21.808a9.936,9.936,0,0,1-1.684.3c-1.629.166-7.095.414-8.282.414C173.352-21.091,172.606-21.118,171.833-21.174Zm14.079,3.119-1.656.718a22.405,22.405,0,0,1,1.932,3.451l1.739-.773A30.616,30.616,0,0,0,185.912-18.054Zm2.981-1.159-1.656.745a20.9,20.9,0,0,1,2.043,3.4l1.712-.8A24.608,24.608,0,0,0,188.894-19.214Zm10.6-1.574.055,2.871c.58-.083,1.435-.166,2.1-.193,1.353-.083,5.935-.3,7.536-.359-2.264,2.319-9.358,8.2-13.223,11.18l2.07,2.153c3.257-3.147,5.963-5.714,10.518-5.714,3.4,0,5.549,1.739,5.549,4.168,0,3.892-4.8,5.742-12.45,4.8l.745,2.816c9.634.773,14.631-2.236,14.631-7.592,0-3.81-3.2-6.487-7.9-6.487a10.677,10.677,0,0,0-3.368.552c2.319-1.85,5.355-4.306,7.205-5.77a14.449,14.449,0,0,1,1.353-.856L212.772-21.2a8.8,8.8,0,0,1-1.739.276c-1.767.11-8.006.248-9.5.248A18.422,18.422,0,0,1,199.494-20.787Zm27.964.994-3.368-.055a14.123,14.123,0,0,1,.221,2.595c0,1.656.028,4.969.3,7.4.745,7.26,3.313,9.91,6.1,9.91,2.015,0,3.727-1.629,5.466-6.349L234-8.861c-.635,2.512-1.85,5.521-3.23,5.521-1.85,0-2.981-2.926-3.4-7.26a61.808,61.808,0,0,1-.193-6.211A22.6,22.6,0,0,1,227.459-19.793Zm14.134.69-2.733.911c2.788,3.313,4.362,9.441,4.831,14.189l2.843-1.1C246.175-9.579,244.132-15.9,241.593-19.1Z" transform="translate(-1.12 23.52)"/>
</svg>
