<svg xmlns="http://www.w3.org/2000/svg" width="299.852" height="25.508" viewBox="0 0 299.852 25.508">
  <path id="パス_86" data-name="パス 86" d="M9.567-22.582H2.445v2.015H9.567ZM7.635-5.384v3.975H4.405V-5.384Zm2.153-2.07H2.279V1.821H4.405V.634H9.788ZM2.307-9.276H9.678v-1.988H2.307Zm7.371-5.742H2.307v1.988H9.678ZM1.12-16.813h9.3v-2.043H1.12ZM19.561-4.39V-6.074h3.2V-4.39ZM14.233-6.074H17.38V-4.39H14.233ZM17.38-9.442v1.684H14.233V-9.442Zm5.383,0v1.684h-3.2V-9.442ZM16.69-16.15h3.837v1.518H16.69Zm0-3.313h3.837V-18H16.69ZM26.6-4.39H25.137v-6.9H19.561v-1.325h6.984v-2.015h-3.7V-16.15h2.705V-18H22.846v-1.463H26.1V-21.34H22.846v-2.153H20.527v2.153H16.69v-2.153H14.371v2.153H11.279v1.877h3.092V-18H11.8v1.85h2.567v1.518H10.534v2.015H17.38v1.325H12.052v6.9H10.506v2.043h1.546v4.2h2.181v-4.2h8.53V-.608c0,.331-.083.442-.442.469-.359,0-1.574,0-2.761-.055a8.012,8.012,0,0,1,.607,2.015A11.851,11.851,0,0,0,24.06,1.49c.856-.331,1.077-.911,1.077-2.07V-2.347H26.6Zm15.514-7.785c2.07-.745,4.693-1.712,7.15-2.65L48.85-16.7c-2.788.994-5.659,1.96-7.619,2.567ZM47.5-17.724a14.833,14.833,0,0,0-3.672-2.4l-1.27,1.491a17.96,17.96,0,0,1,3.616,2.567Zm-11.291,1.6c-2.705.966-5.411,1.932-7.288,2.54l.966,2.1c1.96-.773,4.362-1.822,6.708-2.788Zm-.773-1.518A13.9,13.9,0,0,0,31.873-20.1L30.6-18.607a15.412,15.412,0,0,1,3.506,2.595ZM47.829-5.356H35.213V-7.565H47.829ZM35.213-1.133V-3.4H47.829v2.264Zm4.969-10.9a3.851,3.851,0,0,0,.138-1.1v-9.027H29.637v2.015h8.337v7.012c0,.276-.083.386-.442.386-.331,0-1.38,0-2.485-.028a8.018,8.018,0,0,1,.663,1.877,10.528,10.528,0,0,0,3.616-.3,1.565,1.565,0,0,0,.58-.414,18.02,18.02,0,0,1-.8,2.1h-6.46V1.9h2.567V.883H47.829V1.9h2.678V-9.525H41.617c.386-.663.773-1.38,1.159-2.1Zm12.45-10.131H41.921v2.015H50.2v6.984c0,.3-.083.386-.442.414-.359,0-1.574,0-2.733-.055a7.922,7.922,0,0,1,.69,2.015,11.566,11.566,0,0,0,3.837-.331c.828-.359,1.077-.911,1.077-2.043Zm9.137-1.325a21.7,21.7,0,0,1-5.6,5.632,14.631,14.631,0,0,1,1.38,1.85,28.547,28.547,0,0,0,6.543-6.6Zm.607,5.714a24.159,24.159,0,0,1-6.487,7.343A19.533,19.533,0,0,1,57.3-8.089,23.29,23.29,0,0,0,60-10.657V1.9h2.4V-13.528a31.835,31.835,0,0,0,2.236-3.451Zm7.26,10.435h6.239A12.342,12.342,0,0,1,72.7-4.059a13.688,13.688,0,0,1-3.119-3.2ZM77.7-9.387l-.442.083H71.349a22.56,22.56,0,0,0,1.353-1.96c1.988-.055,4.086-.138,6.128-.221a18.39,18.39,0,0,1,1.077,1.932l2.126-1.242a28.1,28.1,0,0,0-4.362-5.963l-2.015,1.077c.58.663,1.187,1.38,1.767,2.153-2.153.055-4.279.083-6.294.11a88.746,88.746,0,0,0,7.177-6.791l-2.291-1.27A54.594,54.594,0,0,1,71.321-16.4a20.7,20.7,0,0,0-2.1-1.794c1.215-1.187,2.595-2.761,3.81-4.2L70.8-23.548a32.32,32.32,0,0,1-3.23,4.113c-.552-.386-1.1-.718-1.6-1.049L64.42-18.828A32.307,32.307,0,0,1,69.5-14.715c-.525.469-1.077.939-1.574,1.353-1.6.028-3.037.055-4.251.055l.221,2.319c1.712-.055,3.754-.11,5.963-.166a18.536,18.536,0,0,1-6.543,5.576,9.988,9.988,0,0,1,1.712,1.9A20.686,20.686,0,0,0,67.953-5.8a16.785,16.785,0,0,0,2.761,3.009,24.359,24.359,0,0,1-7.426,2.54A8.118,8.118,0,0,1,64.53,1.932a27.012,27.012,0,0,0,8.2-3.2A23.1,23.1,0,0,0,80.514,1.9,10.245,10.245,0,0,1,82.06-.3,24.18,24.18,0,0,1,74.8-2.734a14.792,14.792,0,0,0,4.472-5.935ZM95.366-22.223l-3.092-.166a11.689,11.689,0,0,1-.028,2.181c-.055.718-.138,1.6-.276,2.595a26.862,26.862,0,0,1-5.88-1.049l-.138,2.54a35.053,35.053,0,0,0,5.742.966c-.193,1.463-.386,3.009-.58,4.472a23.347,23.347,0,0,1-5.659-1.1l-.138,2.65a30.183,30.183,0,0,0,5.521.939c-.11,1.242-.193,2.291-.193,3.009,0,4.583,3.064,6.322,7.067,6.322,5.714,0,9.414-2.705,9.414-6.846,0-2.374-.911-4.306-2.761-6.487l-3.064.635a7.571,7.571,0,0,1,2.926,5.521c0,2.595-2.429,4.389-6.46,4.389-2.954,0-4.417-1.463-4.417-3.975,0-.58.055-1.435.138-2.4h1.049c1.794,0,3.478-.11,5.162-.276l.083-2.595a44.086,44.086,0,0,1-5.659.331h-.386c.166-1.435.359-3.009.552-4.445h.055a53.094,53.094,0,0,0,5.549-.276l.083-2.595a36.882,36.882,0,0,1-5.355.359c.138-1.049.248-1.9.331-2.512C95.062-20.705,95.172-21.368,95.366-22.223Zm40.884,3.23v-2.512H112.26v2.512h6.984c-.221,6.874-.525,14.824-7.9,18.8a7.688,7.688,0,0,1,1.85,2.07c5.3-3.037,7.288-7.978,8.088-13.278h9.8c-.359,6.708-.773,9.607-1.574,10.3a1.564,1.564,0,0,1-1.3.331c-.745,0-2.705,0-4.665-.166a5.981,5.981,0,0,1,.883,2.512,35.038,35.038,0,0,0,4.8.028A3.406,3.406,0,0,0,131.833.469c1.077-1.187,1.546-4.5,2.015-13.168.028-.359.028-1.187.028-1.187H121.619c.166-1.712.221-3.423.276-5.107Zm7.868,5.494a33.452,33.452,0,0,0,7.619-7.536,36.13,36.13,0,0,0,7.95,7.536Zm9,8.309h8.033V-7.427h-8.033v-3.81h6.9v-2.043a34.579,34.579,0,0,0,3.037,1.932,15.053,15.053,0,0,1,1.684-2.264,32.667,32.667,0,0,1-11.815-9.966H150.3A31.428,31.428,0,0,1,139.01-13.307a10.116,10.116,0,0,1,1.629,2.07,32.576,32.576,0,0,0,3.175-2.043v2.043h6.6v3.81h-7.9v2.236h7.9v4H140.28V1.131h23.3V-1.188H153.117Zm37.82-4.831c0-5.77-4.2-10.407-10.821-10.407-6.929,0-12.34,5.3-12.34,11.484,0,4.61,2.512,7.647,5.245,7.647s5.024-3.119,6.681-8.751a54.973,54.973,0,0,0,1.656-7.757,7.34,7.34,0,0,1,6.681,7.7c0,4.445-3.147,7.039-6.681,7.84a17.062,17.062,0,0,1-2.457.386L180.529.717C187.237-.249,190.936-4.224,190.936-10.022Zm-20.373.8a9.228,9.228,0,0,1,7.868-8.53,43.948,43.948,0,0,1-1.518,7.122c-1.27,4.251-2.567,6.046-3.81,6.046C171.916-4.583,170.563-6.046,170.563-9.221Zm46.792-9.469-2.126-1.38a7.034,7.034,0,0,1-1.767.193H200.074a24.758,24.758,0,0,1-2.981-.221v3.092c.69-.055,1.794-.11,2.981-.11h13.554a19.062,19.062,0,0,1-3.451,8.475c-2.264,2.9-5.383,5.245-10.794,6.57L201.758.524a21.273,21.273,0,0,0,10.987-7.481c2.236-2.926,3.506-7.315,4.113-10.131A8.387,8.387,0,0,1,217.355-18.69Zm21.753,1.353h-2.871a18.792,18.792,0,0,1,.193,2.043c.028.552.055,1.215.083,2.015h-7.978a14.692,14.692,0,0,1-2.236-.166v2.733c.718-.055,1.546-.083,2.291-.083h6.763a27.868,27.868,0,0,1-9.993,7.978l1.9,2.181A31.5,31.5,0,0,0,236.6-8.421c.028,2.595.055,5.19.055,6.763,0,.552-.221.856-.718.856a26.248,26.248,0,0,1-3.285-.276l.166,2.512c1.159.083,2.9.166,4.113.166a2.122,2.122,0,0,0,2.346-2.126c-.028-2.705-.11-6.874-.193-10.269h3.7c.58,0,1.38.028,1.932.055v-2.705a13.478,13.478,0,0,1-2.015.166h-3.672c0-.8-.028-1.491-.028-2.015A12.336,12.336,0,0,1,239.108-17.337Zm13.14-2.208c.055.718.055,1.684.055,2.4V-3.59c0,1.1-.055,3.313-.083,3.561h3.009c-.028-.138-.028-.8-.028-1.546h14.3c-.028.773-.028,1.408-.055,1.546h3.009c0-.221-.055-2.595-.055-3.561V-17.144c0-.773,0-1.629.055-2.374-.911.028-1.9.028-2.54.028h-14.99C254.236-19.49,253.353-19.49,252.248-19.546Zm2.926,2.816H269.5V-4.335H255.175Zm23.575,4.086v3.423c.939-.083,2.595-.138,4.113-.138h15.017c1.215,0,2.485.11,3.092.138v-3.423c-.69.055-1.767.166-3.092.166H282.863C281.372-12.479,279.661-12.589,278.75-12.644Z" transform="translate(-1.12 23.576)"/>
</svg>
