<svg xmlns="http://www.w3.org/2000/svg" width="271.446" height="25.425" viewBox="0 0 271.446 25.425">
  <path id="パス_85" data-name="パス 85" d="M6.28-19.38h19.49v-2.457H3.685v7.9C3.685-9.69,3.492-3.7.952.469A10.443,10.443,0,0,1,3.243,1.822C5.893-2.623,6.28-9.386,6.28-13.969ZM17.046-1.491V-9.773h7.426V-12.2H17.046v-5.852H14.451V-12.2H7.522v2.429h6.929v8.282H5.673V.938H26.294V-1.491ZM35.928-19.876H38.5a49.57,49.57,0,0,1-1.518,5.162q-.952.041-1.739.083l.221,2.291c2.319-.193,5.273-.469,8.226-.745.166.552.331,1.077.414,1.518l1.988-.745a23.673,23.673,0,0,0-2.567-5.935l-1.822.635c.414.773.828,1.629,1.215,2.485l-3.7.248c.635-1.491,1.325-3.313,1.9-5h4.555v-2.1H36.011l.248-.745-2.374-.663A31.794,31.794,0,0,1,28.2-12.533a24.129,24.129,0,0,1,1.3,2.705,26.42,26.42,0,0,0,2.181-3.009V1.822h2.346V-17.143a47.655,47.655,0,0,0,1.9-4.61ZM41.864-6.764h3.478V-9H41.864v-3.037h-2.4V-9H35.818v2.236h3.644v4.5c-1.656.248-3.2.469-4.445.635L35.4.69C38.358.22,42.305-.442,46.115-1.1l-.166-2.153c-1.353.221-2.733.442-4.086.635Zm6.653-13.223H46.28V-4.721h2.236Zm2.4-3.037V-1.1c0,.414-.138.525-.5.525s-1.546.028-2.816-.028a10.372,10.372,0,0,1,.8,2.485,9.094,9.094,0,0,0,3.754-.5C52.933.966,53.209.248,53.209-1.1V-23.023ZM59.945-3.258v-6.1H65.08v6.1ZM65.08-16.84v5.245H59.945V-16.84Zm7.812-2.374c.442-1.215.8-2.485,1.132-3.754l-2.485-.58a26.362,26.362,0,0,1-4.113,9.69v-5.217H63.009c.442-1.159.966-2.623,1.435-4l-2.788-.469a32.363,32.363,0,0,1-.966,4.472H57.6V1.1h2.346v-2.1h7.481V-13.665a13.543,13.543,0,0,1,2.015,1.435,27.764,27.764,0,0,0,2.512-4.638h6.515c-.359,10.407-.718,14.576-1.6,15.487a1.237,1.237,0,0,1-1.159.469c-.69,0-2.291-.028-4.058-.166a6.012,6.012,0,0,1,.828,2.485,29.652,29.652,0,0,0,4.168,0,3.079,3.079,0,0,0,2.4-1.3C80.153-1.27,80.484-5.549,80.87-18c.028-.331.028-1.215.028-1.215Zm3.534,12.45a49.563,49.563,0,0,0-4.168-6.156l-2.015,1.132a44.948,44.948,0,0,1,4.03,6.377Zm19.1-15.625-3.037-.3a22.529,22.529,0,0,1-.8,4.721c-.966.083-1.932.11-2.843.11-1.1,0-2.429-.055-3.506-.166l.193,2.567c1.1.055,2.264.083,3.313.083.663,0,1.325-.028,2.015-.055a41.457,41.457,0,0,1-5.8,10.076L87.717-4a49.391,49.391,0,0,0,5.99-11.732,37.055,37.055,0,0,0,4.941-.994l-.083-2.54a26.4,26.4,0,0,1-4.058.939C94.922-19.876,95.308-21.422,95.529-22.389ZM94.038-3.258c0-1.132,1.242-1.96,3.064-1.96a9.611,9.611,0,0,1,2.567.359c.028.359.028.69.028.939,0,1.491-.69,2.65-2.788,2.65C95.032-1.27,94.038-2.071,94.038-3.258Zm7.978-10.573H99.311c.055,1.822.193,4.417.276,6.6a15.827,15.827,0,0,0-2.346-.193c-3.423,0-5.77,1.822-5.77,4.417,0,2.871,2.595,4.251,5.8,4.251,3.644,0,5.052-1.9,5.052-4.251v-.773a21.544,21.544,0,0,1,4.141,3.092l1.463-2.346a17.989,17.989,0,0,0-5.714-3.478c-.083-1.574-.166-3.175-.193-4.086C101.989-11.705,101.961-12.671,102.016-13.831Zm5.19,1.049,1.574-2.291a48.868,48.868,0,0,0-6.625-3.7l-1.408,2.126A35.1,35.1,0,0,1,107.206-12.782Zm23,5.88v5.411h-11.87V-6.9ZM115.819,1.877h2.512V.8H130.2V1.877h2.623v-11.1H115.819Zm2.126-16.508a29.529,29.529,0,0,0,6.211-6.294,31.6,31.6,0,0,0,6.515,6.294Zm4.776-8.806c-2.1,3.451-6.625,7.592-11.346,9.993a9.867,9.867,0,0,1,1.574,2.043,37.608,37.608,0,0,0,4.445-2.816v1.877H131.14V-14.3a35.958,35.958,0,0,0,4.472,2.788A11.4,11.4,0,0,1,137.3-13.8a30.617,30.617,0,0,1-11.953-9.634ZM152.728-8.254a23.016,23.016,0,0,0,3.948-2.761,20.775,20.775,0,0,0,4.086,2.761Zm.414,6.791v-4.61h6.819v4.61Zm-3.892-8.861c-.525-.635-2.678-3.285-3.423-4.086v-.939H148.2l-.193.166a13.45,13.45,0,0,1,1.988,1.712,24.242,24.242,0,0,0,2.429-2.567,21.145,21.145,0,0,0,2.512,3.34,21.712,21.712,0,0,1-6.791,3.892Zm10.214-8.033a17.479,17.479,0,0,1-2.843,4.086,16.52,16.52,0,0,1-2.761-3.7l.248-.386Zm1.629-2.319-.469.11h-5.245a24.407,24.407,0,0,0,1.049-2.291l-2.457-.663a20.285,20.285,0,0,1-4.776,7.288v-1.491h-3.368v-5.77h-2.4v5.77h-3.892v2.374h3.644a29.155,29.155,0,0,1-4.279,9.91,10.75,10.75,0,0,1,1.242,2.291,26.825,26.825,0,0,0,3.285-6.957V1.822h2.4V-11.512c.663.994,1.38,2.1,1.794,2.871l-.166.055a9.43,9.43,0,0,1,1.463,2.07c.635-.221,1.242-.469,1.85-.745v9.11h2.374V.773h6.819v.994h2.485V-7.482c.3.138.607.248.911.359a11.189,11.189,0,0,1,1.6-2.153,18.991,18.991,0,0,1-6.57-3.4,19.912,19.912,0,0,0,4.306-7.26Zm12.7,13.03c2.65-.193,6.046-.442,9.469-.718a11.888,11.888,0,0,1,.718,1.491l1.96-.966a13.842,13.842,0,0,0-1.574-2.733,31.887,31.887,0,0,1,5.521,3.616l1.9-1.6a38.358,38.358,0,0,0-6.073-3.644l-1.574,1.27c-.469-.663-.994-1.3-1.463-1.877l-1.85.8c.442.552.911,1.187,1.325,1.822l-3.892.193c1.877-1.794,3.865-3.975,5.493-5.88l-2.043-.939a41.491,41.491,0,0,1-2.705,3.423c-.525-.414-1.159-.883-1.794-1.325.828-.966,1.822-2.181,2.678-3.313l-.58-.221h11.622v-2.346H180.692v-2.9h-2.65v2.9h-9.966v2.346h9.275c-.469.8-1.077,1.739-1.656,2.54-.276-.166-.5-.3-.745-.442l-1.242,1.435a38.518,38.518,0,0,1,3.892,2.9c-.663.69-1.325,1.353-1.932,1.932l-1.739.083.469-.221-.469-1.932c-2.54,1.049-5.162,2.1-6.9,2.678l1.242,2.1c1.518-.69,3.368-1.546,5.162-2.4Zm-5.852-8.309a26.6,26.6,0,0,1,4.224,3.064l1.794-1.546a22.728,22.728,0,0,0-4.334-2.9Zm18.441,2.788a32.366,32.366,0,0,0,4.417-3.368L188.5-17.668a27.437,27.437,0,0,1-4,3.478Zm-5.687,5.411h-2.65V-5.77H167.221V-3.4h10.821V1.877h2.65V-3.4h11.042V-5.77H180.692Zm37.847-2.264c0-5.77-4.2-10.407-10.821-10.407-6.929,0-12.34,5.3-12.34,11.484,0,4.61,2.512,7.647,5.245,7.647s5.024-3.119,6.681-8.751a54.973,54.973,0,0,0,1.656-7.757,7.34,7.34,0,0,1,6.681,7.7c0,4.445-3.147,7.039-6.681,7.84a17.062,17.062,0,0,1-2.457.386L208.132.717C214.84-.249,218.54-4.224,218.54-10.021Zm-20.373.8a9.228,9.228,0,0,1,7.868-8.53,43.95,43.95,0,0,1-1.518,7.122c-1.27,4.251-2.567,6.046-3.81,6.046C199.519-4.583,198.167-6.046,198.167-9.221Zm39.421,6.846H231.68V-4.721h5.908Zm8.033-7.84H223.9V1.849h2.512v-9.91h16.646v6.984c0,.359-.138.469-.58.469a22.781,22.781,0,0,1-2.595.028V-6.543H229.444V.745h2.236V-.58h7.371a9.264,9.264,0,0,1,.8,2.374,13.76,13.76,0,0,0,4.555-.414c.939-.414,1.215-1.132,1.215-2.429Zm-6.128-3.257H229.72v-2.236h9.772Zm-12.257-4v5.77h14.852v-5.77Zm8.585-3.561V-23.52H233.2v2.485H222.736V-18.8h23.824v-2.236ZM262.709-19.9c.193.552.442,1.27.718,2.126a56.957,56.957,0,0,1-10.794-.359l.055,2.788a72.591,72.591,0,0,0,11.7.083A37.987,37.987,0,0,0,267.4-9.524c-.939-.11-2.9-.276-4.362-.386l-.193,2.291a66.2,66.2,0,0,1,6.957.828l1.38-1.988a13.075,13.075,0,0,1-1.325-1.629,30.757,30.757,0,0,1-2.843-5.135,47.579,47.579,0,0,0,5.383-1.077l-.331-2.761a34.107,34.107,0,0,1-5.963,1.325,30.02,30.02,0,0,1-1.187-4.555l-2.981.359C262.239-21.422,262.515-20.511,262.709-19.9ZM257.464-9.083l-2.733-.607a10.836,10.836,0,0,0-1.38,4.831c0,3.837,3.423,5.852,8.834,5.88a37.7,37.7,0,0,0,7.26-.607l.138-2.761a34.908,34.908,0,0,1-7.233.663c-3.975-.028-6.211-1.1-6.211-3.589A6.986,6.986,0,0,1,257.464-9.083Z" transform="translate(-0.952 23.548)"/>
</svg>
