<svg xmlns="http://www.w3.org/2000/svg" width="263.965" height="25.535" viewBox="0 0 263.965 25.535">
  <path id="パス_83" data-name="パス 83" d="M22.546-23.632c-4.8,1.021-13.14,1.712-20.235,1.988a7.24,7.24,0,0,1,.552,2.181,149.224,149.224,0,0,0,21.477-2.07ZM4.437-13.363H23.126v3.451h2.512v-5.714H21.3c.773-1.1,1.574-2.485,2.291-3.727l-2.678-.718a30.256,30.256,0,0,1-2.208,4.445H13.216l2.319-.58a15.668,15.668,0,0,0-1.38-3.81l-2.291.5a15.74,15.74,0,0,1,1.242,3.892H7.142L8.633-16.1a14.628,14.628,0,0,0-1.767-3.451l-2.236.635A18.685,18.685,0,0,1,6.2-15.626H2.035v5.714h2.4ZM18.461-8.338A13.892,13.892,0,0,1,13.878-4.28,15.268,15.268,0,0,1,9.047-8.338ZM20.586-10.8l-.469.083H5.624v2.374H6.811l-.5.221a18.711,18.711,0,0,0,5.024,5.079A37.507,37.507,0,0,1,1.428-.609,8.094,8.094,0,0,1,2.919,1.71a38.6,38.6,0,0,0,10.9-3.23,33.974,33.974,0,0,0,10.766,3.2A11.117,11.117,0,0,1,26.163-.747a36.38,36.38,0,0,1-9.717-2.291,16.88,16.88,0,0,0,5.88-6.708ZM37.177-22.583H30.055v2.015h7.122Zm-1.932,17.2v3.975h-3.23V-5.385ZM37.4-7.455H29.889V1.82h2.126V.633H37.4ZM29.917-9.277h7.371v-1.988H29.917Zm7.371-5.742H29.917v1.988h7.371ZM28.73-16.813h9.3v-2.043h-9.3ZM47.171-4.391V-6.075h3.2v1.684ZM41.843-6.075H44.99v1.684H41.843ZM44.99-9.443v1.684H41.843V-9.443Zm5.383,0v1.684h-3.2V-9.443ZM44.3-16.151h3.837v1.518H44.3Zm0-3.313h3.837V-18H44.3ZM54.21-4.391H52.747v-6.9H47.171v-1.325h6.984v-2.015h-3.7v-1.518h2.705V-18H50.456v-1.463h3.257v-1.877H50.456v-2.153H48.137v2.153H44.3v-2.153H41.981v2.153H38.889v1.877h3.092V-18H39.413v1.85h2.567v1.518H38.143v2.015H44.99v1.325H39.662v6.9H38.116v2.043h1.546v4.2h2.181v-4.2h8.53V-.609c0,.331-.083.442-.442.469-.359,0-1.574,0-2.761-.055a8.012,8.012,0,0,1,.607,2.015,11.851,11.851,0,0,0,3.892-.331c.856-.331,1.077-.911,1.077-2.07V-2.348H54.21Zm16.2,2.9V-7.842H79V-10.3H70.414V-15.82h9.607v-2.512H70.414v-5.135h-2.65v5.135h-5c.525-1.325,1.021-2.733,1.435-4.141l-2.65-.607c-1.021,3.865-2.761,7.647-5,9.993A16.441,16.441,0,0,1,58.9-11.541a23.834,23.834,0,0,0,2.733-4.279h6.128V-10.3H59.9v2.457h7.868v6.349H56.833V.992H81.346V-1.492Zm37.709-8.53c0-5.77-4.2-10.407-10.821-10.407-6.929,0-12.34,5.3-12.34,11.484,0,4.61,2.512,7.647,5.245,7.647s5.024-3.119,6.681-8.751a54.968,54.968,0,0,0,1.656-7.757,7.34,7.34,0,0,1,6.681,7.7c0,4.445-3.147,7.039-6.681,7.84a17.061,17.061,0,0,1-2.457.386L97.716.716C104.425-.25,108.124-4.225,108.124-10.022Zm-20.373.8a9.228,9.228,0,0,1,7.868-8.53A43.951,43.951,0,0,1,94.1-10.63c-1.27,4.251-2.567,6.046-3.81,6.046C89.1-4.584,87.751-6.047,87.751-9.222Zm31.277-11.07a18.122,18.122,0,0,0-4.721-2.926L112.789-21.4a19.815,19.815,0,0,1,4.665,3.092Zm-1.159,6.984a21.016,21.016,0,0,0-5.052-2.485L111.464-13.8a18.807,18.807,0,0,1,4.941,2.678Zm-3.4,14.8c1.38-2.595,2.954-5.88,4.168-8.779l-2.015-1.546a83.6,83.6,0,0,1-4.445,8.806Zm10.9-20.152h4.362v2.595h-4.362Zm11.456,4.914v-2.319H132.2v-2.595h3.865V-20.9H132.2v-2.595h-2.457V-20.9h-4.362v-2.595h-2.4V-20.9h-3.754v2.236h3.754v2.595h-4.638v2.319h7.95v2.015h-6.957V1.82h2.291V-9.47h4.914v5.052H124.77V-8.145h-1.6v7.26h1.6V-2.541h5.6v1.159h1.6V-8.145h-1.6v3.727H128.5V-9.47h5.135v8.7c0,.331-.11.442-.469.442s-1.574,0-2.843-.055a9.488,9.488,0,0,1,.635,2.153,12.532,12.532,0,0,0,4.03-.331c.828-.359,1.049-1.021,1.049-2.208V-11.734h-7.26v-2.015Zm8.392-5.99h13.72v4.665h-13.72Zm8.116,13.389h9.11v-2.4h-9.11v-3.892h8.309V-22.2H142.686v9.552h8.033V-2.072a8.7,8.7,0,0,1-4.638-4.969,30.863,30.863,0,0,0,.69-3.4l-2.678-.331C143.68-6.9,142.41-2.32,139.291.081a13.494,13.494,0,0,1,1.822,1.739,13.3,13.3,0,0,0,4-5.825c2.705,4.5,6.957,5.549,12.643,5.549h5.935a8.885,8.885,0,0,1,.939-2.512c-1.325.055-5.714.055-6.736.055a23.816,23.816,0,0,1-4.555-.359Zm18.109-12.257h20.207V-20.9H181.61v-2.595h-2.678V-20.9h-9.938v7.785c0,4-.193,9.607-2.429,13.527a11.619,11.619,0,0,1,2.1,1.408c2.4-4.2,2.788-10.6,2.788-14.935Zm13.278,4.859v2.429h-5.963v-2.429Zm2.512,4.417v-4.417h4.224v-2.1h-4.224v-2.1h-2.512v2.1h-5.963v-2.1h-2.429v2.1h-4.086v2.1h4.086v4.417Zm-1.159,3.506A12.723,12.723,0,0,1,182-2.845a11.875,11.875,0,0,1-4-2.981Zm2.153-2.153-.469.083H172.555v2.07h4.224l-1.242.469a14.7,14.7,0,0,0,3.81,3.561,38.489,38.489,0,0,1-7.9,1.518,7.87,7.87,0,0,1,1.077,2.153,36.24,36.24,0,0,0,9.386-2.264A31.241,31.241,0,0,0,190.665,1.9a9.141,9.141,0,0,1,1.491-2.208,36.3,36.3,0,0,1-7.481-1.463,13.314,13.314,0,0,0,5.135-5.355Zm7.4,7.647h11.594V-2.955h-3.975V-20.678h-2.4a11.948,11.948,0,0,1-4.417,1.574v2.015h3.644V-2.955h-4.445Zm21.229.359c3.975,0,6.57-3.534,6.57-10.6,0-7.012-2.595-10.463-6.57-10.463s-6.57,3.423-6.57,10.463C210.292-3.507,212.887.026,216.862.026Zm0-2.512c-2.07,0-3.534-2.208-3.534-8.088,0-5.825,1.463-7.95,3.534-7.95s3.534,2.126,3.534,7.95C220.4-4.695,218.933-2.486,216.862-2.486ZM232.6.026c3.975,0,6.57-3.534,6.57-10.6,0-7.012-2.595-10.463-6.57-10.463s-6.57,3.423-6.57,10.463C226.027-3.507,228.622.026,232.6.026Zm0-2.512c-2.07,0-3.534-2.208-3.534-8.088,0-5.825,1.463-7.95,3.534-7.95s3.534,2.126,3.534,7.95C236.131-4.695,234.668-2.486,232.6-2.486Zm13.61-5.687c2.843,0,4.776-2.374,4.776-6.46s-1.932-6.4-4.776-6.4-4.748,2.319-4.748,6.4S243.364-8.173,246.207-8.173Zm0-1.877c-1.408,0-2.429-1.463-2.429-4.583,0-3.147,1.021-4.527,2.429-4.527,1.436,0,2.457,1.38,2.457,4.527C248.664-11.513,247.643-10.05,246.207-10.05ZM246.842.026h2.015l11.125-21.063h-2.015Zm13.8,0c2.816,0,4.748-2.346,4.748-6.432s-1.932-6.4-4.748-6.4c-2.843,0-4.776,2.319-4.776,6.4S257.8.026,260.645.026Zm0-1.85c-1.435,0-2.429-1.463-2.429-4.583,0-3.147.994-4.527,2.429-4.527,1.408,0,2.429,1.38,2.429,4.527C263.074-3.287,262.053-1.824,260.645-1.824Z" transform="translate(-1.428 23.632)"/>
</svg>
