<svg xmlns="http://www.w3.org/2000/svg" width="244.42" height="25.342" viewBox="0 0 244.42 25.342">
  <path id="パス_70" data-name="パス 70" d="M21-18.22H17.525v-1.6H21Zm0,3.313H17.525v-1.629H21ZM6.345-16.536H9.6v1.629H6.345Zm0-3.285H9.6v1.6H6.345Zm8.972,3.285v1.629H11.81v-1.629Zm0-3.285v1.6H11.81v-1.6Zm8.144-1.767H17.525V-23.52H15.316v1.932H11.81V-23.52H9.6v1.932H3.943v8.447H23.46Zm2.264,9.634H1.983v1.877H25.724ZM17.69-3.368A18.126,18.126,0,0,1,16.255-.856l.525.193H10.513l.69-.248a11.852,11.852,0,0,0-1.3-2.457ZM7.559-7.122H19.954v2.015H7.559ZM18.684-.663c.469-.69.994-1.518,1.463-2.374l-.939-.331h3.4V-8.861H5.047v5.494H8.691L7.5-3.009A14.516,14.516,0,0,1,8.719-.663H1.624V1.325H26.083V-.663ZM40.079-6.211v1.794h-5.77V-6.211Zm8.53,1.794H42.591V-6.211h6.018ZM42.591-.856V-2.733h6.018V-.856ZM34.309-2.733h5.77V-.856h-5.77ZM31.88,1.822h2.429V1.077h14.3v.663h2.54V-8.116H31.88ZM36.048-13.14H46.842v1.96H36.048ZM33.7-9.441H49.327v-5.438H33.7Zm.083-8.613v1.822H49.106v-1.822Zm8.889-3.727v-1.712H40.051v1.712H29.92v5.521h2.429V-19.6H50.514v3.34h2.54v-5.521Zm25.259-.607-3.037-.3a22.53,22.53,0,0,1-.8,4.721c-.966.083-1.932.11-2.843.11-1.1,0-2.429-.055-3.506-.166l.193,2.567c1.1.055,2.264.083,3.313.083.663,0,1.325-.028,2.015-.055a41.457,41.457,0,0,1-5.8,10.076L60.12-4a49.391,49.391,0,0,0,5.99-11.732,37.055,37.055,0,0,0,4.941-.994l-.083-2.54a26.4,26.4,0,0,1-4.058.939C67.325-19.876,67.712-21.422,67.933-22.388ZM66.442-3.257c0-1.132,1.242-1.96,3.064-1.96a9.611,9.611,0,0,1,2.567.359c.028.359.028.69.028.939,0,1.491-.69,2.65-2.788,2.65C67.436-1.27,66.442-2.07,66.442-3.257ZM74.42-13.83H71.715c.055,1.822.193,4.417.276,6.6a15.827,15.827,0,0,0-2.346-.193c-3.423,0-5.77,1.822-5.77,4.417,0,2.871,2.595,4.251,5.8,4.251,3.644,0,5.052-1.9,5.052-4.251v-.773A21.544,21.544,0,0,1,78.865-.69l1.463-2.346a17.989,17.989,0,0,0-5.714-3.478c-.083-1.574-.166-3.175-.193-4.086C74.392-11.7,74.365-12.671,74.42-13.83Zm5.19,1.049,1.574-2.291a48.868,48.868,0,0,0-6.625-3.7L73.15-16.646A35.1,35.1,0,0,1,79.61-12.781Zm17.53-9.441H93.91a17.558,17.558,0,0,1,.193,2.374q0,1.408-.083,2.65H89.576c-1.077,0-2.319-.083-3.368-.166v2.871c1.049-.083,2.346-.11,3.368-.11h4.2c-.69,5-2.374,8.337-5.052,10.849a14.731,14.731,0,0,1-3.175,2.319l2.54,2.07c4.748-3.34,7.481-7.564,8.5-15.238h7.067c0,2.981-.359,9.22-1.3,11.153a1.459,1.459,0,0,1-1.574.939,31.605,31.605,0,0,1-4-.331l.331,2.9c1.408.11,3.009.193,4.5.193a3.078,3.078,0,0,0,3.2-1.877c1.215-2.705,1.574-10.6,1.656-13.389.028-.331.11-.939.193-1.408l-1.932-.939a12.551,12.551,0,0,1-1.9.166H96.863c.055-.856.11-1.767.138-2.705C97.029-20.566,97.084-21.588,97.139-22.223Zm35.059.745h-3.285a21.343,21.343,0,0,1,.166,2.54v4.748c0,4.831-.359,6.984-2.291,9.193a12.876,12.876,0,0,1-6.625,3.589l2.291,2.4a15.077,15.077,0,0,0,6.6-4.03c2.043-2.319,3.037-4.665,3.037-10.987v-4.914C132.088-19.931,132.143-20.759,132.2-21.477Zm-12.809.221h-3.175a17.831,17.831,0,0,1,.11,2.043v9.248c0,.8-.083,1.767-.11,2.236h3.175c-.055-.552-.11-1.518-.11-2.236v-9.248C119.279-19.986,119.334-20.677,119.39-21.256Zm29.152,1.325c.083.386.276,1.38.552,2.761-2.512.386-4.8.718-5.825.828-.856.083-1.629.138-2.4.193l.58,3.037c.883-.221,1.546-.359,2.374-.5.966-.166,3.257-.552,5.8-.966.3,1.6.635,3.368.966,5.079-2.981.469-5.8.911-7.15,1.1-.773.11-1.932.248-2.623.276l.635,2.954c.607-.166,1.435-.331,2.567-.525,1.3-.248,4.086-.718,7.095-1.215.469,2.567.883,4.638.994,5.328.166.828.248,1.712.386,2.705l3.175-.58c-.276-.828-.525-1.794-.718-2.595-.166-.745-.552-2.816-1.049-5.3,2.567-.414,5-.8,6.432-1.021,1.049-.166,2.043-.359,2.678-.414l-.58-2.9c-.635.193-1.546.386-2.595.607-1.325.248-3.782.663-6.46,1.1-.331-1.712-.663-3.478-.966-5.052,2.485-.386,4.8-.745,6.018-.939.773-.11,1.712-.248,2.208-.3l-.525-2.9c-.552.166-1.408.359-2.264.525-1.077.221-3.423.607-5.935,1.021-.276-1.435-.469-2.485-.525-2.816-.138-.607-.221-1.463-.3-1.988l-3.092.5A15.725,15.725,0,0,1,148.541-19.931Zm37.709,6.46-2.1-1.021a5.593,5.593,0,0,1-1.656.221h-7.84a23.883,23.883,0,0,1-2.429-.138v2.871c.745-.028,1.629-.083,2.457-.083h8.2c-.083,1.546-.8,6.294-1.187,8.641h-9.552a22.429,22.429,0,0,1-2.485-.138V-.276c.939-.028,1.574-.055,2.485-.055h14.879c.663,0,1.822.028,2.346.055V-3.092c-.635.055-1.767.11-2.4.11h-2.319c.386-2.567,1.159-7.73,1.38-9.5C186.085-12.754,186.168-13.168,186.25-13.472Zm13.306-7.674V-18.3c.773-.055,1.767-.083,2.65-.083h10.711c.939,0,2.043.028,2.733.083v-2.843a26.373,26.373,0,0,1-2.705.138H202.207A25.254,25.254,0,0,1,199.556-21.146Zm18.275,7.592-1.96-1.215a5.477,5.477,0,0,1-1.767.248H199.97c-.8,0-1.85-.083-2.926-.193v2.871c1.049-.083,2.264-.11,2.926-.11h14.051a13.012,13.012,0,0,1-3.064,5.521A18.572,18.572,0,0,1,201.3-1.463l2.153,2.485a20.4,20.4,0,0,0,9.883-5.88,19.532,19.532,0,0,0,4.058-7.73A4.848,4.848,0,0,1,217.831-13.554Zm17.005-7.454-3.451-.718a17.424,17.424,0,0,1-.607,2.871c-.773,2.788-3.4,11.042-4.941,14.99-.414.028-.8.028-1.132.055-.828.055-1.9.055-2.761.055l.5,3.2c.828-.11,1.739-.248,2.429-.331,3.589-.331,12.423-1.3,16.812-1.822.58,1.27,1.077,2.485,1.436,3.451L246.044-.58a80.91,80.91,0,0,0-6.073-11.346l-2.678,1.159a37.162,37.162,0,0,1,3.147,5.383c-2.954.386-7.619.911-11.374,1.242,1.38-3.644,3.892-11.456,4.721-14.079C234.2-19.434,234.533-20.263,234.836-21.008Z" transform="translate(-1.624 23.52)"/>
</svg>
