<svg xmlns="http://www.w3.org/2000/svg" width="162.288" height="26.096" viewBox="0 0 162.288 26.096">
  <path id="パス_56" data-name="パス 56" d="M21.588-22.624l-1.792.756A33.421,33.421,0,0,1,22.008-18l1.848-.784A40.576,40.576,0,0,0,21.588-22.624Zm3.164-1.2-1.792.756a28.1,28.1,0,0,1,2.3,3.864l1.82-.812A33.1,33.1,0,0,0,24.752-23.828ZM14.476-21.112l-3.248-1.064a13.118,13.118,0,0,1-1.036,2.52A23.949,23.949,0,0,1,1.4-10.388l2.464,1.82A29.009,29.009,0,0,0,10.948-15.4h8.764a21.026,21.026,0,0,1-4.256,8.26A22.41,22.41,0,0,1,4.228-.168l2.6,2.352a25.455,25.455,0,0,0,11.2-7.756,27.712,27.712,0,0,0,4.928-9.52,9.583,9.583,0,0,1,.784-1.708l-2.3-1.4a7.476,7.476,0,0,1-2.1.28H12.6c.168-.252.28-.476.42-.728C13.328-19.208,13.916-20.272,14.476-21.112ZM42.42-.616,44.268.924a8.7,8.7,0,0,1,1.064-.7A29.461,29.461,0,0,0,54.88-7.5L53.172-9.912a19.7,19.7,0,0,1-7.616,6.44V-18.956a16.864,16.864,0,0,1,.14-2.24H42.448a20.522,20.522,0,0,1,.168,2.24V-2.38A8.076,8.076,0,0,1,42.42-.616ZM29.512-.868,32.2.924a15.731,15.731,0,0,0,4.984-7.84c.756-2.8.868-8.764.868-11.956a20.958,20.958,0,0,1,.14-2.24H34.944a8.726,8.726,0,0,1,.224,2.268c0,3.22,0,8.68-.812,11.172A12.961,12.961,0,0,1,29.512-.868Zm29.2-11.62v3.472c.952-.084,2.632-.14,4.172-.14H78.12c1.232,0,2.52.112,3.136.14v-3.472c-.7.056-1.792.168-3.136.168H62.888C61.376-12.32,59.64-12.432,58.716-12.488ZM104.86-20.3a1.769,1.769,0,0,1,1.736-1.764A1.793,1.793,0,0,1,108.36-20.3a1.769,1.769,0,0,1-1.764,1.736A1.745,1.745,0,0,1,104.86-20.3Zm-1.484,0a3.476,3.476,0,0,0,.084.756,9.506,9.506,0,0,1-1.2.056H88.676c-.924,0-2.24-.112-3.024-.2v3.136c.728-.056,1.848-.112,3.024-.112h13.776a20.289,20.289,0,0,1-3.5,8.6C96.628-5.152,93.464-2.744,88-1.4l2.408,2.632a21.777,21.777,0,0,0,11.116-7.588c2.268-3,3.556-7.42,4.2-10.276.028-.168.084-.364.112-.532a3.475,3.475,0,0,0,.756.084,3.227,3.227,0,0,0,3.248-3.22,3.245,3.245,0,0,0-3.248-3.22A3.22,3.22,0,0,0,103.376-20.3Zm16.632-2.268h-7.224v2.044h7.224Zm-1.96,17.444v4.032h-3.276V-5.124Zm2.184-2.1h-7.616V2.184h2.156V.98h5.46Zm-7.588-1.848h7.476v-2.016h-7.476ZM120.12-14.9h-7.476v2.016h7.476Zm-8.68-1.82h9.436v-2.072H111.44Zm18.7,12.6V-5.824h3.248v1.708Zm-5.4-1.708h3.192v1.708H124.74Zm3.192-3.416v1.708H124.74V-9.24Zm5.46,0v1.708h-3.248V-9.24Zm-6.16-6.8h3.892v1.54h-3.892Zm0-3.36h3.892v1.484h-3.892ZM137.284-4.116H135.8v-7h-5.656V-12.46h7.084V-14.5h-3.752v-1.54h2.744V-17.92h-2.744V-19.4h3.3v-1.9h-3.3v-2.184h-2.352v2.184h-3.892v-2.184H124.88v2.184h-3.136v1.9h3.136v1.484h-2.6v1.876h2.6v1.54h-3.892v2.044h6.944v1.344h-5.4v7H120.96v2.072h1.568V2.212h2.212V-2.044h8.652V-.28c0,.336-.084.448-.448.476-.364,0-1.6,0-2.8-.056a8.127,8.127,0,0,1,.616,2.044,12.02,12.02,0,0,0,3.948-.336c.868-.336,1.092-.924,1.092-2.1V-2.044h1.484Zm15.736-7.9c2.1-.756,4.76-1.736,7.252-2.688l-.42-1.9c-2.828,1.008-5.74,1.988-7.728,2.6Zm5.46-5.628a15.045,15.045,0,0,0-3.724-2.436l-1.288,1.512a18.217,18.217,0,0,1,3.668,2.6Zm-11.452,1.624c-2.744.98-5.488,1.96-7.392,2.576l.98,2.128c1.988-.784,4.424-1.848,6.8-2.828Zm-.784-1.54a14.1,14.1,0,0,0-3.612-2.492l-1.288,1.512A15.632,15.632,0,0,1,144.9-15.9ZM158.816-5.1h-12.8v-2.24h12.8ZM146.02-.812v-2.3h12.8v2.3Zm5.04-11.06a3.906,3.906,0,0,0,.14-1.12v-9.156H140.364V-20.1h8.456v7.112c0,.28-.084.392-.448.392-.336,0-1.4,0-2.52-.028a8.132,8.132,0,0,1,.672,1.9,10.678,10.678,0,0,0,3.668-.308,1.588,1.588,0,0,0,.588-.42,18.278,18.278,0,0,1-.812,2.128h-6.552V2.268h2.6V1.232h12.8V2.268h2.716V-9.324h-9.016c.392-.672.784-1.4,1.176-2.128Zm12.628-10.276H152.824V-20.1h8.4v7.084c0,.308-.084.392-.448.42-.364,0-1.6,0-2.772-.056a8.035,8.035,0,0,1,.7,2.044,11.731,11.731,0,0,0,3.892-.336c.84-.364,1.092-.924,1.092-2.072Z" transform="translate(-1.4 23.828)" fill="#fff"/>
</svg>
