<svg xmlns="http://www.w3.org/2000/svg" width="93.12" height="14.64" viewBox="0 0 93.12 14.64">
  <path id="パス_55" data-name="パス 55" d="M4.24-13.36A18.1,18.1,0,0,1,.576-7.024a11.473,11.473,0,0,1,.688,1.152A15.624,15.624,0,0,0,2.672-7.7V1.2H3.808V-9.552a26.671,26.671,0,0,0,1.536-3.472Zm6.384,8.288v-3.92h3.12v3.92Zm-4.192,0v-3.92H9.456v3.92ZM10.624-10.1v-3.12H9.456v3.12H5.3v7.152H6.432V-3.952H9.456V1.2h1.168V-3.952h3.12v.912h1.168V-10.1Zm11.5-1.68v1.328H18.672v-1.328ZM18.672-8.16V-9.568h3.456V-8.16Zm4.592.912V-12.7H17.488V1.232h1.184v-8.48ZM25.84-5.12v1.472H22.08V-5.12ZM22.08-1.2V-2.752h3.76V-1.2Zm4.864.944V-6.048H21.008V.544H22.08v-.8Zm-1.12-7.888V-9.568h3.584v1.424Zm3.584-3.632v1.328H25.824v-1.328Zm1.2-.928h-5.92v5.472h4.72V-.368c0,.288-.1.384-.368.384C28.752.032,27.776.048,26.8,0a4.382,4.382,0,0,1,.416,1.216A9.107,9.107,0,0,0,29.9,1.008c.528-.208.7-.608.7-1.36Zm6.32.256-1.264.528a53.623,53.623,0,0,0,2.32,4.928c-1.712,1.2-2.768,2.5-2.768,4.144,0,2.4,2.176,3.3,5.184,3.3a31.5,31.5,0,0,0,5.056-.4V-1.376a23.807,23.807,0,0,1-5.12.544c-2.528,0-3.792-.832-3.792-2.16,0-1.216.9-2.272,2.384-3.232A53.153,53.153,0,0,1,43.792-8.88c.464-.24.864-.448,1.232-.672l-.7-1.136a8.739,8.739,0,0,1-1.136.752c-.88.48-2.608,1.328-4.112,2.24A34.456,34.456,0,0,1,36.928-12.448ZM61.552-7.6H56.88V-9.152h4.672Zm0,2.416H56.88V-6.752h4.672Zm0,2.464H56.88V-4.3h4.672Zm-5.776-7.36v8.288h6.9V-10.08H59.344c.144-.464.3-.992.448-1.52h3.424v-1.024h-8.08V-11.6H58.5c-.1.5-.208,1.04-.32,1.52Zm-1.136-2.5H49.36v1.088h5.28Zm.608,9.632c-.512.192-1.04.384-1.536.576v-5.3H55.1v-1.12H48.88v1.12h1.248v1.52A9.008,9.008,0,0,1,48.512-.352a6.975,6.975,0,0,1,.816.7C50.96-1.584,51.2-4.24,51.2-6.128V-7.664h1.44v5.68c-.3.1-.576.192-.816.272l.448,1.04c.96-.416,2.08-.88,3.184-1.376Zm2.08,1.456A9.6,9.6,0,0,1,53.952.48a9.434,9.434,0,0,1,.8.8A11.62,11.62,0,0,0,58.368-.88Zm2.48.656a18.719,18.719,0,0,1,2.8,2.1l.928-.688a17.189,17.189,0,0,0-2.832-2Zm6.384-4.8c.1-.7.192-1.456.288-2.176h3.472V-12.56H65.024v1.1h3.84v2.544H65.5c-.144,1.552-.432,3.632-.688,4.9l1.12.144.1-.672H68.96c-.208,2.992-.464,4.176-.784,4.528a.645.645,0,0,1-.544.176A16.217,16.217,0,0,1,65.9.08a2.449,2.449,0,0,1,.32,1.1,12.364,12.364,0,0,0,1.9,0A1.487,1.487,0,0,0,69.184.736c.464-.512.736-2,.976-5.856.016-.144.032-.512.032-.512Zm12.1,1.184A20.068,20.068,0,0,1,76.144-2.7,10.785,10.785,0,0,1,75.2-4.9h4.112V-5.968h-6.64V-7.312H78v-.9H72.672V-9.536H78v-.9H72.672v-1.312h5.952v-1.04H71.536v6.816H70.224V-4.9h1.344v4.56c-.5.08-.96.16-1.36.208l.24,1.136c1.472-.272,3.44-.64,5.328-.992l-.048-1.04c-1.024.176-2.08.352-3.04.512V-4.9H74.16c.784,2.864,2.24,5.088,4.576,6.128A4.863,4.863,0,0,1,79.52.224a6.335,6.335,0,0,1-2.912-2.256,23.434,23.434,0,0,0,2.656-1.856ZM85.856-1.68A1.169,1.169,0,0,1,87.136-2.7,2.182,2.182,0,0,1,89.28-.528a8.215,8.215,0,0,1-1.3.1C86.736-.432,85.856-.912,85.856-1.68ZM83.808-11.792l.048,1.328c.336-.048.7-.08,1.056-.1.848-.048,4.048-.192,4.9-.224-.816.72-2.816,2.4-3.712,3.136-.928.784-2.976,2.5-4.3,3.584l.912.944c2.032-2.064,3.456-3.2,6.128-3.2,2.08,0,3.584,1.184,3.584,2.752a2.81,2.81,0,0,1-2,2.736,3.1,3.1,0,0,0-3.264-2.832,2.247,2.247,0,0,0-2.464,2.08c0,1.328,1.328,2.272,3.5,2.272,3.392,0,5.5-1.664,5.5-4.24,0-2.16-1.9-3.76-4.56-3.76a6.77,6.77,0,0,0-2.224.336c1.248-1.04,3.424-2.9,4.224-3.5.288-.24.608-.448.9-.656l-.736-.928a3.773,3.773,0,0,1-.864.128c-.848.08-4.656.208-5.488.208A9.54,9.54,0,0,1,83.808-11.792Z" transform="translate(-0.576 13.36)" fill="#fff"/>
</svg>
