<svg xmlns="http://www.w3.org/2000/svg" width="110.884" height="34.732" viewBox="0 0 110.884 34.732">
  <path id="パス_21" data-name="パス 21" d="M11.59-27.322a25.905,25.905,0,0,0-6.574-4.066L3.382-29.374a25.684,25.684,0,0,1,6.46,4.218Zm-1.558,9.728a30.427,30.427,0,0,0-6.954-3.458L1.52-18.886a27.946,27.946,0,0,1,6.916,3.724ZM5.016,2.394C6.954-1.14,9.2-5.814,10.868-9.8L8.74-11.476A107.541,107.541,0,0,1,2.546.646ZM20.1-25.384h6.726v4.256H20.1Zm16.074,6.8v-2.546h-6.65v-4.256H35.15v-2.47H29.526v-3.914h-2.7v3.914H20.1v-3.914H17.48v3.914H12.046v2.47H17.48v4.256H10.754v2.546H22.078v3.192H12.35V2.85H14.9V-12.882h7.448v7.714H19.3V-10.83H17.4V-.722h1.9V-3H27.74v1.748H29.6V-10.83H27.74v5.662H24.548v-7.714h7.79V-.152c0,.456-.152.608-.684.646-.532,0-2.318,0-4.256-.076a10.246,10.246,0,0,1,.76,2.394c2.7,0,4.446,0,5.51-.38,1.026-.418,1.292-1.178,1.292-2.584V-15.39H24.814v-3.192Zm11.1-8.626h20.14v7.448H47.272ZM58.634-8.588h12.73V-11.21H58.634v-5.852h11.7V-29.944H44.5v12.882H55.784v15.39a11.961,11.961,0,0,1-7.068-7.486,43.758,43.758,0,0,0,.95-4.75l-3-.342c-.532,5.434-2.356,11.818-6.84,15.276a11.636,11.636,0,0,1,1.976,1.9,18.908,18.908,0,0,0,5.814-8.55c3.61,6.574,9.424,8.018,17.48,8.018h8.36A9.9,9.9,0,0,1,74.48-.342c-1.6.038-8.056.038-9.234.038a32.726,32.726,0,0,1-6.612-.57ZM111.72-25.46v-2.584H97.546v-3.724H94.658v3.724H80.712v10.868c0,5.472-.266,13.148-3.382,18.544a10.924,10.924,0,0,1,2.318,1.6c3.268-5.738,3.724-14.288,3.724-20.14V-25.46Zm-9.12,6.574v3.99H93.4v-3.99Zm2.736,6.27v-6.27h6.118V-21.2h-6.118V-24.51H102.6V-21.2H93.4V-24.51h-2.7V-21.2H84.664v2.318h6.042v6.27ZM104.728-7.9a17.464,17.464,0,0,1-6.422,4.826A17.021,17.021,0,0,1,92.15-7.9Zm2.356-2.432-.494.114H85.12V-7.9h5.852l-1.52.57A19.12,19.12,0,0,0,95.418-1.9,51.547,51.547,0,0,1,83.714.532a9.764,9.764,0,0,1,1.178,2.356A51.469,51.469,0,0,0,98.268-.38a43.346,43.346,0,0,0,12.5,3.344A8.377,8.377,0,0,1,112.4.57a48.322,48.322,0,0,1-11.172-2.394,18.77,18.77,0,0,0,7.638-7.562Z" transform="translate(-1.52 31.768)"/>
</svg>
