<svg xmlns="http://www.w3.org/2000/svg" width="58.107" height="82.078" viewBox="0 0 58.107 82.078">
  <path id="パス_66" data-name="パス 66" d="M6-5.508a.9.9,0,0,1,.7.311.913.913,0,0,1,.24.627.921.921,0,0,1-.311.7A.9.9,0,0,1,6-3.621a.913.913,0,0,1-.7-.316.922.922,0,0,1-.246-.633.9.9,0,0,1,.316-.7A.921.921,0,0,1,6-5.508ZM18.188-7.031v1.98H19.1l1.471-.023q.088,0,.088.082v.352q0,.082-.088.082L19.1-4.582h-.914v2.326h1.453l1.629-.023q.088,0,.088.082v.375q0,.082-.088.082l-1.629-.023H16.354l-1.635.023a.073.073,0,0,1-.082-.082V-2.2a.073.073,0,0,1,.082-.082l1.635.023h1.295V-4.582h-.756L15.4-4.559a.073.073,0,0,1-.082-.082v-.352a.073.073,0,0,1,.082-.082l1.488.023h.756v-1.98H16.57l-1.611.023a.073.073,0,0,1-.082-.082v-.352a.073.073,0,0,1,.082-.082L16.57-7.5h2.912l1.6-.023a.073.073,0,0,1,.082.082v.352a.073.073,0,0,1-.082.082l-1.6-.023ZM19.57-4.113A6.725,6.725,0,0,1,20.6-2.865a.159.159,0,0,1,.023.053q0,.035-.094.1l-.135.1a.373.373,0,0,1-.135.076q-.029,0-.064-.064a6.593,6.593,0,0,0-1-1.26.1.1,0,0,1-.035-.059q0-.029.105-.1l.117-.082a.37.37,0,0,1,.105-.059Q19.518-4.16,19.57-4.113ZM13.9.047V.768a.073.073,0,0,1-.082.082H13.4a.073.073,0,0,1-.082-.082l.023-4.418V-6.07l-.023-3.158a.073.073,0,0,1,.082-.082l1.693.023h5.795l1.693-.023a.073.073,0,0,1,.082.082L22.641-6.4V-3.65L22.664.768a.073.073,0,0,1-.082.082H22.16a.073.073,0,0,1-.082-.082V.047Zm0-.492h8.174V-8.771H13.9ZM30.281-4.787q.34-.879.656-1.992l-1.189.023a.073.073,0,0,1-.082-.082V-7.2a.073.073,0,0,1,.082-.082l1.3.023h.035q.234-.855.381-1.605H30.9l-1.559.023q-.088,0-.088-.082v-.363q0-.082.088-.082l1.559.023h2.543L35-9.369q.088,0,.088.082v.363q0,.082-.088.082l-1.559-.023H32q-.146.75-.381,1.605h.961l1.307-.023a.073.073,0,0,1,.082.082l-.023.9v1.512l1.365-.023q.088,0,.088.082v.363q0,.082-.088.082l-1.629-.023H30.568l-1.635.023a.073.073,0,0,1-.082-.082v-.363a.073.073,0,0,1,.082-.082Zm.574,0H33.41V-6.779H31.488Q31.242-5.906,30.855-4.787ZM25.869.094V.732a.073.073,0,0,1-.082.082h-.375A.073.073,0,0,1,25.33.732l.023-1.752v-.709l-.023-1.02a.073.073,0,0,1,.082-.082l1.043.023H27.4l1.061-.023a.073.073,0,0,1,.082.082l-.023.832v.75L28.547.516A.073.073,0,0,1,28.465.6H28.1A.073.073,0,0,1,28.02.516V.094Zm0-.445h2.15v-2.01h-2.15ZM30.322.17V.721A.073.073,0,0,1,30.24.8h-.41a.073.073,0,0,1-.082-.082l.023-1.857V-1.9l-.023-1.107a.073.073,0,0,1,.082-.082l1.395.023h1.734l1.383-.023a.073.073,0,0,1,.082.082l-.023.973v.891L34.424.686a.073.073,0,0,1-.082.082h-.41A.073.073,0,0,1,33.85.686V.17Zm0-.469H33.85V-2.6H30.322ZM26.5-4.43h.861l.984-.023a.078.078,0,0,1,.088.088v.357q0,.082-.088.082l-.984-.023H26.5l-.984.023a.073.073,0,0,1-.082-.082v-.357q0-.088.082-.088Zm0-1.594h.861l.984-.023q.088,0,.088.082V-5.6q0,.082-.088.082l-.984-.023H26.5l-.984.023A.073.073,0,0,1,25.43-5.6v-.363a.073.073,0,0,1,.082-.082Zm-.012-3.287h.984l1.055-.023a.073.073,0,0,1,.082.082v.357q0,.088-.082.088L27.469-8.83h-.984l-1.043.023a.078.078,0,0,1-.088-.088v-.357q0-.082.088-.082Zm-.363,1.652h1.418l1.26-.023a.073.073,0,0,1,.082.082v.363a.073.073,0,0,1-.082.082l-1.26-.012H26.121l-1.26.012a.073.073,0,0,1-.082-.082V-7.6a.073.073,0,0,1,.082-.082ZM6,12.492a.9.9,0,0,1,.7.311.945.945,0,0,1-.07,1.33A.9.9,0,0,1,6,14.379a.957.957,0,0,1-.949-.949.9.9,0,0,1,.316-.7A.921.921,0,0,1,6,12.492Zm12.217,2.625A6.1,6.1,0,0,0,20.5,17.209a9.684,9.684,0,0,0,2.824.99,1.085,1.085,0,0,0-.287.357q-.088.17-.164.17a.64.64,0,0,1-.135-.023,9.1,9.1,0,0,1-2.971-1.289A6.236,6.236,0,0,1,17.783,15.3a4.107,4.107,0,0,1-.527,1.066,6.593,6.593,0,0,1-3.885,2.344.72.72,0,0,1-.141.023q-.07,0-.158-.158a1.086,1.086,0,0,0-.281-.311,6.442,6.442,0,0,0,4.043-2.244,4.431,4.431,0,0,0,.457-.9H14.584l-1.623.023a.073.073,0,0,1-.082-.082v-.387a.073.073,0,0,1,.082-.082l1.453.023V12.92l-.023-1.02a.073.073,0,0,1,.082-.082l1.705.023h1.488a7.576,7.576,0,0,0-.07-1.318q.346.018.574.047.158.023.158.111,0,.012-.064.188a5.169,5.169,0,0,0-.07.973H19.74l1.693-.023a.073.073,0,0,1,.082.082l-.023,1.02v1.693l1.488-.023a.073.073,0,0,1,.082.082v.387a.073.073,0,0,1-.082.082l-1.623-.023Zm-.779-.5a8.894,8.894,0,0,0,.193-1.33q.035-.937.035-.949H14.953v2.279Zm3.5,0V12.334h-2.76a14.2,14.2,0,0,1-.205,2.279ZM16.148,9.387a6.422,6.422,0,0,0-.082-1.307,4.942,4.942,0,0,1,.592.059q.117.018.117.105a.361.361,0,0,1-.047.146,3.679,3.679,0,0,0-.07,1h2.6a6.511,6.511,0,0,0-.082-1.318,2.988,2.988,0,0,1,.6.07q.117.018.117.094a.4.4,0,0,1-.047.158,3.373,3.373,0,0,0-.07.973v.023h1.717l1.582-.023q.088,0,.088.082v.41q0,.082-.088.082l-1.582-.023H19.775v.035l.023.973a.073.073,0,0,1-.082.082h-.4a.073.073,0,0,1-.082-.082l.023-.973V9.914h-2.6v.047l.023.973q0,.082-.088.082H16.2q-.076,0-.076-.082l.023-.973V9.914h-1.7l-1.588.023a.073.073,0,0,1-.082-.082v-.41a.073.073,0,0,1,.082-.082l1.588.023Zm14.133,3.826q.34-.879.656-1.992l-1.189.023a.073.073,0,0,1-.082-.082V10.8a.073.073,0,0,1,.082-.082l1.3.023h.035q.234-.855.381-1.605H30.9l-1.559.023q-.088,0-.088-.082V8.713q0-.082.088-.082l1.559.023h2.543L35,8.631q.088,0,.088.082v.363q0,.082-.088.082l-1.559-.023H32q-.146.75-.381,1.605h.961l1.307-.023a.073.073,0,0,1,.082.082l-.023.9v1.512l1.365-.023q.088,0,.088.082v.363q0,.082-.088.082l-1.629-.023H30.568l-1.635.023a.073.073,0,0,1-.082-.082v-.363a.073.073,0,0,1,.082-.082Zm.574,0H33.41V11.221H31.488Q31.242,12.094,30.855,13.213Zm-4.986,4.881v.639a.073.073,0,0,1-.082.082h-.375a.073.073,0,0,1-.082-.082l.023-1.752v-.709l-.023-1.02a.073.073,0,0,1,.082-.082l1.043.023H27.4l1.061-.023a.073.073,0,0,1,.082.082l-.023.832v.75l.023,1.682a.073.073,0,0,1-.082.082H28.1a.073.073,0,0,1-.082-.082v-.422Zm0-.445h2.15v-2.01h-2.15Zm4.453.521v.551a.073.073,0,0,1-.082.082h-.41a.073.073,0,0,1-.082-.082l.023-1.857V16.1l-.023-1.107a.073.073,0,0,1,.082-.082l1.395.023h1.734l1.383-.023a.073.073,0,0,1,.082.082l-.023.973v.891l.023,1.834a.073.073,0,0,1-.082.082h-.41a.073.073,0,0,1-.082-.082V18.17Zm0-.469H33.85V15.4H30.322ZM26.5,13.57h.861l.984-.023a.078.078,0,0,1,.088.088v.357q0,.082-.088.082l-.984-.023H26.5l-.984.023a.073.073,0,0,1-.082-.082v-.357q0-.088.082-.088Zm0-1.594h.861l.984-.023q.088,0,.088.082V12.4q0,.082-.088.082l-.984-.023H26.5l-.984.023a.073.073,0,0,1-.082-.082v-.363a.073.073,0,0,1,.082-.082Zm-.012-3.287h.984l1.055-.023a.073.073,0,0,1,.082.082v.357q0,.088-.082.088L27.469,9.17h-.984l-1.043.023a.078.078,0,0,1-.088-.088V8.748q0-.082.088-.082Zm-.363,1.652h1.418l1.26-.023a.073.073,0,0,1,.082.082v.363a.073.073,0,0,1-.082.082l-1.26-.012H26.121l-1.26.012a.073.073,0,0,1-.082-.082V10.4a.073.073,0,0,1,.082-.082ZM6,30.492a.9.9,0,0,1,.7.311.945.945,0,0,1-.07,1.33A.9.9,0,0,1,6,32.379a.957.957,0,0,1-.949-.949.9.9,0,0,1,.316-.7A.921.921,0,0,1,6,30.492Zm13.072,2.5a3.963,3.963,0,0,1-1.213,2.578,6.094,6.094,0,0,1-2.5,1.166.547.547,0,0,1-.123.029q-.059,0-.164-.158a1.058,1.058,0,0,0-.275-.293,5.68,5.68,0,0,0,2.766-1.2,3.224,3.224,0,0,0,.926-2.121l-1.33.023a.073.073,0,0,1-.082-.082l.023-1.477V28.225l-.023-1.477a.073.073,0,0,1,.082-.082l1.5.023h2.109l1.482-.023q.088,0,.088.082l-.023,1.477v3.229l.023,1.477q0,.082-.088.082l-1.482-.023h-.082V35.52a.953.953,0,0,0,.047.369.258.258,0,0,0,.205.123,5.488,5.488,0,0,0,.85.047,1.656,1.656,0,0,0,.908-.182.784.784,0,0,0,.3-.521,5.023,5.023,0,0,0,.076-.832,1.958,1.958,0,0,0,.352.229q.141.082.141.158a.827.827,0,0,1-.012.105,3.4,3.4,0,0,1-.182.879.935.935,0,0,1-.3.393,2.183,2.183,0,0,1-1.283.287,6.375,6.375,0,0,1-1.213-.082q-.439-.111-.439-.721V32.988Zm-1.43-.469h4.137V30.984H17.643Zm0-2h4.137v-1.43H17.643Zm0-1.9h4.137V27.182H17.643Zm-3.229,5.162V30.721h-.275l-1.084.023a.073.073,0,0,1-.082-.082v-.375a.073.073,0,0,1,.082-.082l1.084.023h.275V27.48h-.363l-1.172.023q-.088,0-.088-.094v-.375q0-.082.088-.082l1.172.023h1.236l1.178-.023a.073.073,0,0,1,.082.082v.375q0,.094-.082.094l-1.178-.023h-.334v2.748h.229l1.078-.023a.073.073,0,0,1,.082.082v.375a.073.073,0,0,1-.082.082l-1.078-.023h-.229v2.83a13.989,13.989,0,0,0,1.582-.814,2.019,2.019,0,0,0-.023.346q.006.07.006.1a.247.247,0,0,1-.146.205,21.236,21.236,0,0,1-2.76,1.295,3.5,3.5,0,0,0-.457.205.212.212,0,0,1-.123.07q-.059,0-.105-.094a3.364,3.364,0,0,1-.205-.545,7.375,7.375,0,0,0,1.1-.311q.117-.041.322-.123Zm16.4-3.381-1.307.164q-.926.123-1.658.24a.16.16,0,0,1-.035.006q-.059,0-.07-.088L27.7,30.3a.16.16,0,0,1-.006-.035q0-.047.088-.047.281,0,1.67-.182l1.295-.17q-.123-.838-.205-2.074a10.048,10.048,0,0,0-.129-1.4,3.633,3.633,0,0,1,.645.047q.146.018.146.105,0,.018-.064.229a1.953,1.953,0,0,0-.035.457q0,.205.012.527.1,1.377.193,2.039l2.027-.252q1.119-.141,1.682-.234a.172.172,0,0,1,.041-.006q.041,0,.053.076l.041.4v.041q0,.029-.076.041-.029.006-.492.064-.574.064-1.207.141l-1.992.252a12.644,12.644,0,0,0,1.008,3.48,5.85,5.85,0,0,0,1.131,1.705,1.4,1.4,0,0,0,.9.5q.457,0,.6-2.039a1.536,1.536,0,0,0,.346.252q.158.076.158.17a1.115,1.115,0,0,1-.012.117q-.223,2.139-1.066,2.139a2,2,0,0,1-1.395-.785A6.807,6.807,0,0,1,31.9,34.084,14.359,14.359,0,0,1,30.814,30.4Zm-3.826-1.189V34.9l.023,1.869q0,.082-.094.082h-.434a.073.073,0,0,1-.082-.082l.023-1.869V31.8q0-.855.035-1.74a14.155,14.155,0,0,1-1.477,1.822q-.088.1-.135.1t-.117-.1a.887.887,0,0,0-.275-.287A12.806,12.806,0,0,0,27.41,27a2.835,2.835,0,0,0,.176-.791,3.742,3.742,0,0,1,.586.229q.111.053.111.117a.206.206,0,0,1-.082.158.9.9,0,0,0-.252.445A14.452,14.452,0,0,1,26.988,29.209Zm5.807-2.344a8.127,8.127,0,0,1,1.359,1.324.1.1,0,0,1,.029.059q0,.041-.105.135l-.152.129a.392.392,0,0,1-.152.094q-.023,0-.053-.035A6.327,6.327,0,0,0,32.4,27.217q-.041-.035-.041-.059t.117-.135l.158-.117a.2.2,0,0,1,.105-.064A.114.114,0,0,1,32.795,26.865Zm6.281,2.016H38.6L37,28.9a.073.073,0,0,1-.082-.082V28.4A.073.073,0,0,1,37,28.318l1.6.023h3.07v-.9a5.942,5.942,0,0,0-.094-1.295q.439.023.656.059.135.023.135.1a.819.819,0,0,1-.07.217,3.5,3.5,0,0,0-.064.92v.9H45.48l1.611-.023a.073.073,0,0,1,.082.082v.422a.073.073,0,0,1-.082.082l-1.611-.023h-.645a10.038,10.038,0,0,1-2.426,4.547,14.406,14.406,0,0,0,4.934,2.678,1.546,1.546,0,0,0-.3.4q-.094.152-.146.152a.511.511,0,0,1-.146-.047,15.61,15.61,0,0,1-4.764-2.783,14.7,14.7,0,0,1-4.717,2.725.814.814,0,0,1-.158.041q-.064,0-.141-.129a.871.871,0,0,0-.322-.346,14.125,14.125,0,0,0,4.91-2.7A9.147,9.147,0,0,1,40.1,31.424,13.194,13.194,0,0,1,39.076,28.881Zm.574,0a11.727,11.727,0,0,0,.961,2.35,8.061,8.061,0,0,0,1.365,1.8,7.955,7.955,0,0,0,1.477-2.057,11.24,11.24,0,0,0,.768-2.1ZM6,48.492a.9.9,0,0,1,.7.311.945.945,0,0,1-.07,1.33A.9.9,0,0,1,6,50.379a.957.957,0,0,1-.949-.949.9.9,0,0,1,.316-.7A.921.921,0,0,1,6,48.492Zm9.141,5.1v.791q0,.082-.07.082h-.434a.073.073,0,0,1-.082-.082l.023-4.061V48l-.023-2.988a.073.073,0,0,1,.082-.082l1.67.023h3.381l1.67-.023a.073.073,0,0,1,.082.082l-.023,2.713v2.6l.023,4.049a.073.073,0,0,1-.082.082h-.422q-.07,0-.07-.082V53.59Zm0-4.687h5.725V45.48H15.141Zm0,.5v3.668h5.725V49.406ZM29.6,46.693V45.551a8.741,8.741,0,0,0-.082-1.424,4.322,4.322,0,0,1,.656.07q.135.023.135.082a.382.382,0,0,1-.029.135l-.047.117a5.177,5.177,0,0,0-.059,1.008v1.154h3.182l1.629-.023q.088,0,.088.082v.41q0,.082-.088.082l-1.629-.023H30.463a12.647,12.647,0,0,0,5.074,5.039,1.213,1.213,0,0,0-.264.322q-.064.141-.117.141a.477.477,0,0,1-.158-.07,13.058,13.058,0,0,1-4.857-5.18q.035,4.365.035,4.383h.914l1.512-.029q.082,0,.082.088v.381q0,.088-.082.088l-1.512-.023h-.914q.035,2.057.035,2.361a.073.073,0,0,1-.082.082h-.48a.073.073,0,0,1-.082-.082q0-.035.006-.369.023-1.043.029-1.992h-.8l-1.5.023a.078.078,0,0,1-.088-.088v-.381a.078.078,0,0,1,.088-.088l1.5.029h.814l.023-4.3a12.825,12.825,0,0,1-4.57,5.162.384.384,0,0,1-.146.076q-.053,0-.129-.135a.924.924,0,0,0-.275-.3,11.65,11.65,0,0,0,2.836-2.35A13.282,13.282,0,0,0,29.3,47.221H26.672l-1.617.023q-.088,0-.088-.082v-.41q0-.082.088-.082l1.617.023Zm12.047,3.059H39.715l-1.729.023a.073.073,0,0,1-.082-.082l.023-1.02V47.432L37.9,46.4q0-.07.082-.07l1.729.023h2.021v-.814a9.074,9.074,0,0,0-.1-1.395,5.437,5.437,0,0,1,.65.07q.158.023.158.111a1.214,1.214,0,0,1-.088.229,4.03,4.03,0,0,0-.059.926v.873h2.115l1.729-.023q.082,0,.082.07L46.2,47.432v1.242l.023,1.02a.073.073,0,0,1-.082.082l-1.729-.023h-2.2a6.514,6.514,0,0,1-.264,1.365,4.748,4.748,0,0,1-.557,1.178A11.968,11.968,0,0,0,47.3,54a1.139,1.139,0,0,0-.275.375q-.082.188-.182.188a1,1,0,0,1-.105-.012,11.857,11.857,0,0,1-5.678-1.811A7,7,0,0,1,37.4,54.7a.787.787,0,0,1-.141.029q-.07,0-.158-.164a.955.955,0,0,0-.287-.322,7.009,7.009,0,0,0,3.826-1.834,7.228,7.228,0,0,1-1.488-1.828.113.113,0,0,1-.023-.053q0-.029.129-.1l.205-.123a.344.344,0,0,1,.105-.041q.029,0,.053.041a5.973,5.973,0,0,0,1.342,1.658,3.779,3.779,0,0,0,.434-.914A6.343,6.343,0,0,0,41.648,49.752Zm.035-.492q.053-.8.053-2.414H38.479V49.26Zm.615-2.414v.8q0,.99-.035,1.611H45.65V46.846ZM5.988,63.311a.887.887,0,1,1-.592.229A.853.853,0,0,1,5.988,63.311Zm-3.234,3.24a.863.863,0,0,1,.668.3.852.852,0,0,1,.229.592.836.836,0,0,1-.293.656.881.881,0,0,1-.6.229.888.888,0,0,1,0-1.775Zm6.486,0a.84.84,0,0,1,.656.3.865.865,0,0,1,.223.592.843.843,0,0,1-.287.656.852.852,0,0,1-.592.229.871.871,0,0,1-.668-.293.881.881,0,0,1,.064-1.248A.869.869,0,0,1,9.24,66.551Zm-3.252,3.24a.846.846,0,0,1,.662.3.874.874,0,0,1,.229.6.836.836,0,0,1-.293.656.873.873,0,0,1-.6.223.855.855,0,0,1-.656-.287.839.839,0,0,1-.229-.592.865.865,0,0,1,.293-.662A.841.841,0,0,1,5.988,69.791Zm.363-2.35,4.523,4.512-.357.357L5.988,67.8l-4.5,4.512-.357-.357,4.5-4.512L1.154,62.965l.363-.363,4.471,4.477L10.465,62.6l.363.363Zm11.484,1.688V67.9l-1.635.023q-.082,0-.082-.094v-.316a.073.073,0,0,1,.082-.082l1.635.023V67.33a4.275,4.275,0,0,0-.07-.838,4.425,4.425,0,0,1,.551.07q.129.023.129.1a.3.3,0,0,1-.059.164.909.909,0,0,0-.059.41v.217h1.916v-.07a4.162,4.162,0,0,0-.07-.879q.182.012.563.059.129.023.129.111a.456.456,0,0,1-.059.164.793.793,0,0,0-.059.352v.264h.135l1.629-.023a.073.073,0,0,1,.082.082v.316q0,.094-.082.094L20.883,67.9h-.135v1.23h.574l1.693-.023a.073.073,0,0,1,.082.082v.3q0,.094-.082.094l-1.693-.023H17.467l-1.693.023q-.088,0-.088-.094v-.3q0-.082.088-.082l1.693.023Zm.492-1.23v1.23h1.916V67.9Zm-.1-4.84H16.775l-1.008.023A.073.073,0,0,1,15.686,63v-.322q0-.088.082-.088l1.008.023h.914l.984-.023a.073.073,0,0,1,.082.082l-.023.686v.375l.023.7a.073.073,0,0,1-.082.082l-.984-.023H16.348v.527a1.008,1.008,0,0,0,.105.592,2.5,2.5,0,0,0,.973.094,2.089,2.089,0,0,0,1.043-.135A1.223,1.223,0,0,0,18.6,64.9a.814.814,0,0,0,.311.205q.129.041.129.135a1.091,1.091,0,0,1-.012.129.981.981,0,0,1-.275.586,2.831,2.831,0,0,1-1.383.193,2.686,2.686,0,0,1-1.289-.17.543.543,0,0,1-.2-.27,2.179,2.179,0,0,1-.053-.568V64.57l-.029-.457q0-.082.094-.082l.879.023h1.453Zm3.938,0H20.689l-1,.023q-.094,0-.094-.082v-.322q0-.088.094-.088l1,.023h.938l.984-.023a.073.073,0,0,1,.082.082l-.023.686v.375l.023.7a.073.073,0,0,1-.082.082l-.984-.023H20.232v.539q0,.475.123.58a2.992,2.992,0,0,0,1.078.094,2.165,2.165,0,0,0,1.008-.123,1.191,1.191,0,0,0,.135-.68,1.3,1.3,0,0,0,.322.205q.152.064.152.135a1.291,1.291,0,0,1-.293.715,3.211,3.211,0,0,1-1.477.193,2.789,2.789,0,0,1-1.312-.17.567.567,0,0,1-.187-.27,2.179,2.179,0,0,1-.053-.568V64.57l-.023-.457a.073.073,0,0,1,.082-.082l.9.023h1.477Zm1.447,8.689a.956.956,0,0,0-.193.41.333.333,0,0,1-.059.176.58.58,0,0,1-.164.035q-2.537.158-4.277.158a7.491,7.491,0,0,1-3-.41A2.287,2.287,0,0,1,14.807,70.9a15.265,15.265,0,0,1-1.295,1.213,1.019,1.019,0,0,0-.264.252q-.059.105-.135.105-.053,0-.129-.094a2.647,2.647,0,0,1-.3-.469,4.417,4.417,0,0,0,.738-.457,8.562,8.562,0,0,0,1.131-1.043V67.318h-.973l-.814.023a.073.073,0,0,1-.082-.082v-.4a.073.073,0,0,1,.082-.082l.814.023h.586l.855-.023a.073.073,0,0,1,.082.082l-.023,1.131v2.449a2.014,2.014,0,0,0,1.078,1.236A6.407,6.407,0,0,0,18.609,72Q20.953,72,23.613,71.748Zm-5.514-2a1.465,1.465,0,0,1,.369.24.188.188,0,0,1,.088.135v.023q-.018.064-.158.105a.667.667,0,0,0-.17.1q-.146.1-.164.117a8.936,8.936,0,0,1-1.635.861.511.511,0,0,1-.146.047q-.053,0-.152-.129a.642.642,0,0,0-.252-.217,7.684,7.684,0,0,0,1.752-.838A1.7,1.7,0,0,0,18.1,69.744Zm-4.418-7.131a10.679,10.679,0,0,1,1.33,1.658.078.078,0,0,1,.018.047q0,.035-.111.123l-.158.117a.392.392,0,0,1-.152.094q-.035,0-.076-.053a8.581,8.581,0,0,0-1.283-1.682.086.086,0,0,1-.023-.047q0-.047.123-.123l.141-.094a.411.411,0,0,1,.129-.076A.1.1,0,0,1,13.682,62.613Zm9.275,8.426a.928.928,0,0,0-.217.275q-.082.164-.141.164a.454.454,0,0,1-.135-.041,9.987,9.987,0,0,1-2.285-1.324q-.041-.035-.041-.059t.094-.117l.123-.111q.076-.076.111-.076a.133.133,0,0,1,.076.041A8.193,8.193,0,0,0,22.957,71.039Zm9.182-4.33a9.908,9.908,0,0,0,.779,2.625,6.983,6.983,0,0,0,1.646,2.273,6.719,6.719,0,0,0,.814.609,1.4,1.4,0,0,0-.334.328q-.076.117-.117.117a.384.384,0,0,1-.135-.07,8.686,8.686,0,0,1-3.182-5.883H29.906a14.886,14.886,0,0,1-.252,2.314,7.8,7.8,0,0,1-1.74,3.58q-.082.105-.117.105t-.135-.105a.873.873,0,0,0-.352-.229,6.949,6.949,0,0,0,1.84-3.592,13.293,13.293,0,0,0,.205-2.074q.023-.568.023-2.2l-.023-1.535a.073.073,0,0,1,.082-.082l1.477.023h2.092l1.471-.023q.088,0,.088.082l-.023,1.2V66.07l.023,1.248a.078.078,0,0,1-.088.088h-.393q-.082,0-.082-.088v-.609Zm1.863-.5V63.41H29.93v1.137q0,1.166-.012,1.658Zm-7.488,2.2q-.48.205-1,.393a1.289,1.289,0,0,0-.445.24.232.232,0,0,1-.158.082q-.059,0-.105-.094a5.6,5.6,0,0,1-.217-.551,7,7,0,0,0,1.043-.287l.879-.328V65.139h-.539l-1.213.023a.078.078,0,0,1-.088-.088v-.381a.078.078,0,0,1,.088-.088l1.213.029h.539v-1.1a7.38,7.38,0,0,0-.088-1.377,4.329,4.329,0,0,1,.633.07q.123.018.123.082a.715.715,0,0,1-.07.229,5.115,5.115,0,0,0-.047.984v1.107h.2l1.213-.029a.078.078,0,0,1,.088.088v.381a.078.078,0,0,1-.088.088l-1.213-.023h-.2v2.479q.949-.41,1.594-.768-.012.146-.012.258v.117a.541.541,0,0,1,.006.076q0,.123-.187.223-.48.24-1.4.65v1.834l.012,1.617a1.071,1.071,0,0,1-.287.879,1.846,1.846,0,0,1-1.014.193h-.246a.292.292,0,0,1-.182-.035.556.556,0,0,1-.059-.158,1.68,1.68,0,0,0-.205-.41,8.145,8.145,0,0,0,.938.047.512.512,0,0,0,.375-.105.67.67,0,0,0,.117-.457Zm18.58-4.945H38.531l-1.6.023a.073.073,0,0,1-.082-.082v-.422a.073.073,0,0,1,.082-.082l1.6.023h6.943l1.594-.023q.088,0,.088.082V63.4q0,.082-.088.082l-1.389-.023v5.83l.023,2.2a1,1,0,0,1-.311.85,2.55,2.55,0,0,1-1.289.205q-.3,0-.7-.012a.305.305,0,0,1-.176-.029.436.436,0,0,1-.064-.164,1.245,1.245,0,0,0-.205-.428q.586.053,1.43.053a1.126,1.126,0,0,0,.568-.094.439.439,0,0,0,.141-.381Zm-6.076,5.9v.973a.073.073,0,0,1-.082.082h-.41a.073.073,0,0,1-.082-.082l.023-2.221V66.973l-.023-1.488a.073.073,0,0,1,.082-.082l1.283.023H41.3l1.283-.023a.073.073,0,0,1,.082.082l-.023,1.225v1.16l.023,2.115a.073.073,0,0,1-.082.082h-.41q-.094,0-.094-.082v-.627Zm0-.516h3.064V65.953H39.018ZM55.2,64.418a14.24,14.24,0,0,0,2.3-1.02,2.485,2.485,0,0,0,.639-.48,4.571,4.571,0,0,1,.422.357.2.2,0,0,1,.07.135q0,.088-.146.105a3.3,3.3,0,0,0-.527.229,23.6,23.6,0,0,1-2.76,1.178v.908a.73.73,0,0,0,.07.387.44.44,0,0,0,.252.146,6.039,6.039,0,0,0,1.248.082,2.914,2.914,0,0,0,1.576-.252,1.889,1.889,0,0,0,.3-1.166,2.072,2.072,0,0,0,.352.24q.152.082.152.164a.853.853,0,0,1-.012.1,2.545,2.545,0,0,1-.158.727,1.113,1.113,0,0,1-.27.346,3.643,3.643,0,0,1-1.957.322A6.645,6.645,0,0,1,55.1,66.8a.578.578,0,0,1-.34-.252,1.1,1.1,0,0,1-.094-.516V63.457a7.556,7.556,0,0,0-.07-1.236q.246.012.6.059.146.023.146.1a.763.763,0,0,1-.07.211,3.219,3.219,0,0,0-.064.867Zm.023,5.156A12.737,12.737,0,0,0,57.674,68.5a2.175,2.175,0,0,0,.621-.48,3.53,3.53,0,0,1,.422.334.248.248,0,0,1,.082.158q0,.088-.146.105a2.716,2.716,0,0,0-.539.229,17.182,17.182,0,0,1-2.889,1.236V71.3a.585.585,0,0,0,.334.6,4.392,4.392,0,0,0,1.359.123,4.59,4.59,0,0,0,.9-.088,1.363,1.363,0,0,0,.551-.187.842.842,0,0,0,.264-.457,4.692,4.692,0,0,0,.082-.744,2.637,2.637,0,0,0,.369.24q.152.076.152.141a.867.867,0,0,1-.018.123,2.363,2.363,0,0,1-.193.738,1.3,1.3,0,0,1-.287.357,3.137,3.137,0,0,1-1.834.369,5.38,5.38,0,0,1-1.775-.182.889.889,0,0,1-.445-.9v-2.7a7.26,7.26,0,0,0-.07-1.225q.223.012.609.059.135.023.135.1a.774.774,0,0,1-.076.217,3.314,3.314,0,0,0-.059.861Zm-5.484-4.74a16.031,16.031,0,0,0,.949-1.916,3.428,3.428,0,0,0,.229-.82,2.975,2.975,0,0,1,.539.17q.158.07.158.146t-.123.176a1.009,1.009,0,0,0-.2.3,19.877,19.877,0,0,1-.984,1.881q1.559-.17,2.648-.346a6.731,6.731,0,0,0-.656-.855q-.029-.023-.029-.041,0-.035.111-.111l.141-.088a.234.234,0,0,1,.094-.035.1.1,0,0,1,.064.035,8.436,8.436,0,0,1,1.348,1.887.138.138,0,0,1,.018.059q0,.041-.105.111l-.17.105a.3.3,0,0,1-.135.064q-.041,0-.076-.076t-.34-.65q-1.447.27-3.656.551a1.347,1.347,0,0,0-.533.146.228.228,0,0,1-.117.047q-.059,0-.105-.129a3.518,3.518,0,0,1-.146-.562A8.38,8.38,0,0,0,49.74,64.834Zm3.135,5.2H50.139v1.078l.023,1.5q0,.088-.082.088h-.387q-.082,0-.082-.088l.023-1.471v-3.41l-.023-1.5a.073.073,0,0,1,.082-.082l1.2.023h1.236l1.213-.023q.07,0,.07.082l-.023,1.559v2.3l.012,1.57a.846.846,0,0,1-.24.721,2.378,2.378,0,0,1-1.2.193.34.34,0,0,1-.182-.029.581.581,0,0,1-.07-.164,1.174,1.174,0,0,0-.176-.369q.434.035.756.035a.718.718,0,0,0,.475-.117.538.538,0,0,0,.111-.387Zm0-.457V68.3H50.139v1.271Zm0-1.729V66.639H50.139v1.207Z" transform="translate(-1.131 9.369)"/>
</svg>
