<svg xmlns="http://www.w3.org/2000/svg" width="54.558" height="12.694" viewBox="0 0 54.558 12.694">
  <path id="パス_87" data-name="パス 87" d="M5.011-4.006A10.479,10.479,0,0,1,1.244-1.613a.858.858,0,0,1-.178.048Q1-1.565.909-1.709a1.124,1.124,0,0,0-.321-.335A10.275,10.275,0,0,0,4.245-4.006H2.8L.95-3.979q-.082,0-.082-.1v-.41q0-.1.082-.1L2.8-4.553H4.074V-9.215H3.486l-1.935.027a.085.085,0,0,1-.1-.1v-.424a.085.085,0,0,1,.1-.1l1.935.027h.588v-.1a11.068,11.068,0,0,0-.082-1.709q.253.014.711.068.157.027.157.109a.67.67,0,0,1-.068.239A5.057,5.057,0,0,0,4.7-9.871v.1H9.174v-.1a10.227,10.227,0,0,0-.089-1.709q.273.014.718.068.157.021.157.109a.816.816,0,0,1-.089.253A6.094,6.094,0,0,0,9.8-9.871v.1h.772L12.5-9.8q.1,0,.1.1v.424q0,.1-.1.1l-1.928-.027H9.8v4.662h1.415L13.05-4.58a.085.085,0,0,1,.1.1v.41a.085.085,0,0,1-.1.1l-1.832-.027h-1.6a8.48,8.48,0,0,0,3.91,1.8,1.151,1.151,0,0,0-.321.376q-.089.171-.157.171a.671.671,0,0,1-.164-.041,10.42,10.42,0,0,1-2.44-1.025A7.272,7.272,0,0,1,8.907-4.006ZM4.7-9.215v1.176H9.174V-9.215Zm0,1.7V-6.33H9.174V-7.52Zm0,1.709v1.258H9.174V-5.811Zm1.962,5.7V-1.538H5.448L3.63-1.511q-.1,0-.1-.1v-.41q0-.1.1-.1l1.818.027H6.665v-.178a7.789,7.789,0,0,0-.082-1.224q.287.021.677.075.144.021.144.109s-.018.071-.055.2a2.718,2.718,0,0,0-.082.813v.205H8.524l1.839-.027a.085.085,0,0,1,.1.1v.41a.085.085,0,0,1-.1.1L8.524-1.538H7.267V-.109h3.021L12.25-.137a.085.085,0,0,1,.1.1V.4a.085.085,0,0,1-.1.1L10.288.465H3.7L1.736.492a.085.085,0,0,1-.1-.1V-.041a.085.085,0,0,1,.1-.1L3.7-.109ZM20.692-9.857v-.588a4.862,4.862,0,0,0-.082-1.08q.437.027.643.062.13.021.13.109a1.374,1.374,0,0,1-.068.2,2.352,2.352,0,0,0-.062.711v.588h.116l1.176-.027a.085.085,0,0,1,.1.1v.342a.085.085,0,0,1-.1.1L21.4-9.379a5.65,5.65,0,0,0,1.442,1.271.746.746,0,0,0-.253.253q-.068.123-.109.123a.367.367,0,0,1-.144-.082,5.13,5.13,0,0,1-1.135-1.3q.021,1.23.048,2.276.007.171.014.547.007.144.007.171,0,.1-.109.1h-.362q-.1,0-.1-.1,0-.034.007-.39.027-1.23.055-2.563A6.63,6.63,0,0,1,19-6.733q-.116.1-.164.1t-.15-.116a.829.829,0,0,0-.294-.226,7.406,7.406,0,0,0,2.133-2.406h-.267l-1.176.027q-.1,0-.1-.1v-.342q0-.1.1-.1l1.176.027ZM16.427-1.511v1.3a.091.091,0,0,1-.1.1h-.4q-.1,0-.1-.1l.027-2.673V-5.25a8.558,8.558,0,0,1-.841,1.265q-.1.116-.144.116t-.123-.1a1.327,1.327,0,0,0-.308-.294A9.923,9.923,0,0,0,16.618-9.9h-.362L15-9.871a.085.085,0,0,1-.1-.1v-.424q0-.109.1-.109l1.258.027h1.135l1.278-.027q.1,0,.1.109v.424a.085.085,0,0,1-.1.1L17.391-9.9h-.164a15.591,15.591,0,0,1-.93,3.685h1.169l.9-.027a.085.085,0,0,1,.1.1L18.43-4.607V-3.5l.027,2.522a.085.085,0,0,1-.1.1h-.41a.085.085,0,0,1-.1-.1v-.533Zm0-.52h1.429v-3.65H16.427Zm8.5-7.123q.014,1.2.041,2.29.014.738.014.745a.085.085,0,0,1-.1.1h-.369q-.082,0-.082-.1,0-.034.007-.41.027-1.278.048-2.529a7.3,7.3,0,0,1-1.873,2.3.366.366,0,0,1-.157.1q-.048,0-.15-.123a.829.829,0,0,0-.294-.226,6.968,6.968,0,0,0,2.242-2.365l-1.237.027a.085.085,0,0,1-.1-.1v-.342a.085.085,0,0,1,.1-.1l1.319.027h.109v-.588a5.706,5.706,0,0,0-.082-1.107q.41.027.643.062.13.021.13.109a.271.271,0,0,1-.034.116l-.055.109a3,3,0,0,0-.055.738v.561h.67L27-9.885a.085.085,0,0,1,.1.1v.342a.085.085,0,0,1-.1.1l-1.333-.027H25.19A8.1,8.1,0,0,0,27.556-7.2a.964.964,0,0,0-.321.355q-.075.116-.116.116a.339.339,0,0,1-.15-.089A8.591,8.591,0,0,1,24.924-9.153Zm-1.709,6.2h1.511l.991-.027q.1,0,.1.1v.41q0,.109-.1.109l-.991-.027H23.215V-.417a16.21,16.21,0,0,0,3.418.267q.472,0,.868-.034a1.5,1.5,0,0,0-.144.438.389.389,0,0,1-.068.205.359.359,0,0,1-.2.034q-.67,0-1.654-.027A8.65,8.65,0,0,1,21.8-.342,3.2,3.2,0,0,1,20.5-1.8,5.9,5.9,0,0,1,18.648.745q-.109.1-.157.1T18.313.731A.909.909,0,0,0,17.951.52a5.755,5.755,0,0,0,1.784-2.03,4.936,4.936,0,0,0,.554-1.777,3.922,3.922,0,0,0,.041-.52q0-.13-.014-.267a4.637,4.637,0,0,1,.6.1q.171.041.171.13a.6.6,0,0,1-.1.212,1.04,1.04,0,0,0-.1.321,6.136,6.136,0,0,1-.185.909A3.172,3.172,0,0,0,22.6-.6V-4.888H21.062L19.1-4.86a.085.085,0,0,1-.1-.1V-5.38a.085.085,0,0,1,.1-.1l1.962.027h5.106a.528.528,0,0,0,.226-.055.271.271,0,0,1,.123-.027q.082,0,.294.2.226.226.226.321a.141.141,0,0,1-.082.137,1.451,1.451,0,0,0-.321.321,8.368,8.368,0,0,1-.786.868q-.109.109-.15.109a.518.518,0,0,1-.185-.1,1.249,1.249,0,0,0-.383-.137,5.7,5.7,0,0,0,1.025-1.08H23.215ZM30,.109V.854a.085.085,0,0,1-.1.1h-.424a.085.085,0,0,1-.1-.1l.027-2.03v-.813l-.027-1.2q0-.082.1-.082l1.135.014h.9l1.135-.014q.1,0,.1.082l-.027.984v.848L32.744.6a.085.085,0,0,1-.1.1h-.41a.085.085,0,0,1-.1-.1V.109Zm0-.533h2.14v-2.3H30Zm5.53-6.508V-8.1l-1.415.027a.085.085,0,0,1-.1-.1v-.314a.085.085,0,0,1,.1-.1l1.415.027V-9.6l-1.764.027q-.1,0-.1-.1V-10q0-.1.1-.1l1.764.027v-.239a5.191,5.191,0,0,0-.1-1.258,4.585,4.585,0,0,1,.636.068q.157.021.157.109a.411.411,0,0,1-.068.2,2.567,2.567,0,0,0-.082.9v.226H38.1v-.239a4.855,4.855,0,0,0-.1-1.258,5.066,5.066,0,0,1,.663.068q.137.021.137.109a.411.411,0,0,1-.068.2,2.921,2.921,0,0,0-.068.9v.226h.178l1.853-.027a.085.085,0,0,1,.1.1v.328a.085.085,0,0,1-.1.1L38.835-9.6h-.178v1.053l1.682-.027a.085.085,0,0,1,.1.1v.314a.085.085,0,0,1-.1.1L38.657-8.1v1.169h.485l1.935-.027a.085.085,0,0,1,.1.1v.342a.085.085,0,0,1-.1.1l-1.935-.027h-1.8v1.121h1.039l1.736-.034a.085.085,0,0,1,.1.1l-.027,1.613v1.483q.444-.007.807-.021l.246-.007a.085.085,0,0,1,.1.1v.328a.085.085,0,0,1-.1.1L41.1-1.688q-.41-.014-.916-.021L40.2-.267a1.023,1.023,0,0,1-.28.841,2.8,2.8,0,0,1-1.5.226.356.356,0,0,1-.205-.034A.321.321,0,0,1,38.151.6a1.27,1.27,0,0,0-.226-.431q.513.041,1.066.041A.7.7,0,0,0,39.5.075a.627.627,0,0,0,.1-.41V-1.709H34.692v.984L34.72.841a.085.085,0,0,1-.1.1h-.437q-.082,0-.082-.1l.027-1.524V-1.709q-.4.007-.718.021l-.219.007a.085.085,0,0,1-.1-.1v-.328a.085.085,0,0,1,.1-.1l.28.007q.294.014.656.021V-3.726L34.1-5.271q0-.1.082-.1l1.736.034h.868V-6.453H35.28l-1.935.027a.085.085,0,0,1-.1-.1v-.342a.085.085,0,0,1,.1-.1l1.935.027Zm1.258,3.6h-2.1v1.162h2.1Zm.547,0v1.162h2.27V-3.336Zm-.547-1.538h-2.1v1.107h2.1Zm.547,0v1.107h2.27V-4.874ZM36.08-9.6v1.053H38.1V-9.6Zm0,1.5v1.169H38.1V-8.1Zm-5.435,2.96h.8l1.066-.027q.1,0,.1.1v.417a.085.085,0,0,1-.1.1L31.445-4.58h-.8l-1.06.027q-.1,0-.1-.1v-.417a.091.091,0,0,1,.1-.1Zm0-1.887h.8l1.066-.027a.085.085,0,0,1,.1.1v.424a.085.085,0,0,1-.1.1l-1.066-.027h-.8l-1.06.027q-.1,0-.1-.1v-.424q0-.1.1-.1ZM30.6-10.794h1.039l1.176-.027a.085.085,0,0,1,.1.1v.424a.085.085,0,0,1-.1.1l-1.176-.027H30.6l-1.176.027a.085.085,0,0,1-.1-.1v-.424a.085.085,0,0,1,.1-.1Zm2.577,1.941v.438q0,.1-.082.1l-1.388-.027h-1.4l-1.388.027a.085.085,0,0,1-.1-.1v-.437q0-.082.1-.082l1.388.027h1.4L33.1-8.935A.073.073,0,0,1,33.182-8.853ZM52.609-6.521A7.846,7.846,0,0,0,54.681-4.3a1.029,1.029,0,0,0-.376.28q-.1.13-.137.13t-.157-.116A9.554,9.554,0,0,1,52.37-5.92a8.032,8.032,0,0,1-1.326,2.044q-.1.116-.137.116a.428.428,0,0,1-.171-.1,1.11,1.11,0,0,0-.335-.171,7.476,7.476,0,0,0,1.859-3.288,3.232,3.232,0,0,0,.1-.8,4.014,4.014,0,0,1,.561.171q.171.055.171.15a.248.248,0,0,1-.082.144.937.937,0,0,0-.185.431Q52.685-6.747,52.609-6.521ZM49.4-.239V-2.352H47.865l-1.948.027q-.109,0-.109-.1v-.437q0-.1.109-.1l1.948.027H49.4V-7.082a10.862,10.862,0,0,0-.1-1.736q.314.014.7.068.157.027.157.137a1.063,1.063,0,0,1-.089.28A5.954,5.954,0,0,0,50-7.1v4.17h1.9l1.935-.027a.085.085,0,0,1,.1.1v.438a.085.085,0,0,1-.1.1l-1.935-.027H50V-.239h3.063l1.976-.027q.1,0,.1.1V.28q0,.1-.1.1L53.067.349h-6.31L44.782.376a.085.085,0,0,1-.1-.1V-.171a.085.085,0,0,1,.1-.1l1.976.027Zm-.451-9.81v-.561a4.964,4.964,0,0,0-.1-1.135q.5.027.752.055.144.027.144.116a1.412,1.412,0,0,1-.068.253,1.927,1.927,0,0,0-.089.7v.574h3.391l1.962-.027a.085.085,0,0,1,.1.1v.451a.085.085,0,0,1-.1.1l-1.962-.027H44.8V-7.15a31.744,31.744,0,0,1-.226,4.245A9.858,9.858,0,0,1,43.3.718q-.082.137-.123.137T43.032.745a1.14,1.14,0,0,0-.417-.28,8.57,8.57,0,0,0,1.326-3.623,30.815,30.815,0,0,0,.2-4.047L44.112-9.98a.085.085,0,0,1,.1-.1l2,.027Zm-1.7,3.582A8.348,8.348,0,0,0,48.959-4.4a.9.9,0,0,0-.321.267q-.1.13-.144.13t-.15-.116a9.28,9.28,0,0,1-1.319-1.75A7.854,7.854,0,0,1,45.767-3.9q-.123.137-.171.137a.291.291,0,0,1-.137-.075,1.289,1.289,0,0,0-.369-.212,7.07,7.07,0,0,0,1.825-3.3,3.16,3.16,0,0,0,.109-.786,2.96,2.96,0,0,1,.547.157q.185.068.185.15a.209.209,0,0,1-.055.144,1.057,1.057,0,0,0-.212.431Q47.421-6.986,47.25-6.467Z" transform="translate(-0.588 11.744)" fill="#fff"/>
</svg>
