<svg xmlns="http://www.w3.org/2000/svg" width="63.627" height="94.881" viewBox="0 0 63.627 94.881">
  <path id="パス_91" data-name="パス 91" d="M6-5.508a.9.9,0,0,1,.7.311.913.913,0,0,1,.24.627.921.921,0,0,1-.311.7A.9.9,0,0,1,6-3.621a.913.913,0,0,1-.7-.316.922.922,0,0,1-.246-.633.9.9,0,0,1,.316-.7A.921.921,0,0,1,6-5.508ZM16.295-3.434a8.982,8.982,0,0,1-3.229,2.051.735.735,0,0,1-.152.041q-.059,0-.135-.123a.964.964,0,0,0-.275-.287,8.807,8.807,0,0,0,3.135-1.682H14.4l-1.588.023q-.07,0-.07-.082v-.352q0-.082.07-.082L14.4-3.9h1.09v-4h-.5l-1.658.023a.073.073,0,0,1-.082-.082V-8.32A.073.073,0,0,1,13.33-8.4l1.658.023h.5v-.082a9.487,9.487,0,0,0-.07-1.465q.217.012.609.059.135.023.135.094a.574.574,0,0,1-.059.205,4.334,4.334,0,0,0-.076,1.107v.082h3.832v-.082a8.766,8.766,0,0,0-.076-1.465q.234.012.615.059.135.018.135.094a.7.7,0,0,1-.076.217,5.224,5.224,0,0,0-.059,1.1v.082h.662L22.717-8.4q.088,0,.088.082v.363q0,.082-.088.082L21.064-7.9H20.4v4h1.213l1.57-.023a.073.073,0,0,1,.082.082v.352a.073.073,0,0,1-.082.082l-1.57-.023H20.244A7.269,7.269,0,0,0,23.6-1.887a.986.986,0,0,0-.275.322q-.076.146-.135.146a.575.575,0,0,1-.141-.035,8.931,8.931,0,0,1-2.092-.879,6.233,6.233,0,0,1-1.318-1.1ZM16.031-7.9v1.008h3.832V-7.9Zm0,1.453v1.02h3.832v-1.02Zm0,1.465V-3.9h3.832V-4.98ZM17.713-.094V-1.318H16.67l-1.559.023q-.088,0-.088-.082v-.352q0-.082.088-.082l1.559.023h1.043v-.152a6.676,6.676,0,0,0-.07-1.049q.246.018.58.064.123.018.123.094s-.016.061-.047.17a2.33,2.33,0,0,0-.07.7v.176h1.078l1.576-.023a.073.073,0,0,1,.082.082v.352a.073.073,0,0,1-.082.082l-1.576-.023H18.229V-.094h2.59L22.5-.117a.073.073,0,0,1,.082.082V.34A.073.073,0,0,1,22.5.422L20.818.4H15.17L13.488.422A.073.073,0,0,1,13.406.34V-.035a.073.073,0,0,1,.082-.082l1.682.023ZM29.736-8.449v-.5a4.168,4.168,0,0,0-.07-.926q.375.023.551.053.111.018.111.094a1.177,1.177,0,0,1-.059.17,2.016,2.016,0,0,0-.053.609v.5h.1l1.008-.023a.073.073,0,0,1,.082.082V-8.1a.073.073,0,0,1-.082.082l-.984-.023a4.843,4.843,0,0,0,1.236,1.09.64.64,0,0,0-.217.217q-.059.105-.094.105a.314.314,0,0,1-.123-.07,4.4,4.4,0,0,1-.973-1.113q.018,1.055.041,1.951.006.146.012.469.006.123.006.146,0,.082-.094.082h-.311q-.088,0-.088-.082,0-.029.006-.334.023-1.055.047-2.2a5.683,5.683,0,0,1-1.5,2q-.1.088-.141.088t-.129-.1a.71.71,0,0,0-.252-.193A6.348,6.348,0,0,0,29.6-8.039h-.229l-1.008.023q-.088,0-.088-.082v-.293q0-.082.088-.082l1.008.023ZM26.08-1.295V-.182a.078.078,0,0,1-.088.088h-.346q-.082,0-.082-.088l.023-2.291V-4.5a7.335,7.335,0,0,1-.721,1.084q-.082.1-.123.1T24.639-3.4a1.137,1.137,0,0,0-.264-.252,8.505,8.505,0,0,0,1.869-4.828h-.311l-1.078.023a.073.073,0,0,1-.082-.082v-.363q0-.094.082-.094l1.078.023h.973L28-9q.082,0,.082.094v.363A.073.073,0,0,1,28-8.461l-1.1-.023h-.141a13.364,13.364,0,0,1-.8,3.158h1l.768-.023a.073.073,0,0,1,.082.082L27.8-3.949V-3L27.82-.838a.073.073,0,0,1-.082.082h-.352A.073.073,0,0,1,27.3-.838v-.457Zm0-.445H27.3V-4.869H26.08Zm7.283-6.105q.012,1.031.035,1.963.012.633.012.639a.073.073,0,0,1-.082.082h-.316q-.07,0-.07-.082,0-.029.006-.352.023-1.1.041-2.168a6.256,6.256,0,0,1-1.605,1.969.313.313,0,0,1-.135.082q-.041,0-.129-.105a.71.71,0,0,0-.252-.193,5.973,5.973,0,0,0,1.922-2.027l-1.061.023a.073.073,0,0,1-.082-.082v-.293a.073.073,0,0,1,.082-.082l1.131.023h.094v-.5a4.891,4.891,0,0,0-.07-.949q.352.023.551.053.111.018.111.094a.232.232,0,0,1-.029.1l-.047.094a2.572,2.572,0,0,0-.047.633v.48H34l1.143-.023a.073.073,0,0,1,.082.082V-8.1a.073.073,0,0,1-.082.082L34-8.039h-.4A6.938,6.938,0,0,0,35.619-6.17a.827.827,0,0,0-.275.3q-.064.1-.1.1a.291.291,0,0,1-.129-.076A7.364,7.364,0,0,1,33.363-7.846ZM31.9-2.531h1.295l.85-.023q.088,0,.088.082v.352q0,.094-.088.094l-.85-.023H31.9V-.357a13.9,13.9,0,0,0,2.93.229q.4,0,.744-.029a1.282,1.282,0,0,0-.123.375.333.333,0,0,1-.059.176.308.308,0,0,1-.17.029Q34.646.422,33.8.4a7.414,7.414,0,0,1-3.117-.691,2.747,2.747,0,0,1-1.113-1.254A5.06,5.06,0,0,1,27.984.639q-.094.088-.135.088T27.7.627a.779.779,0,0,0-.311-.182,4.933,4.933,0,0,0,1.529-1.74,4.231,4.231,0,0,0,.475-1.523,3.362,3.362,0,0,0,.035-.445q0-.111-.012-.229a3.975,3.975,0,0,1,.516.082q.146.035.146.111a.518.518,0,0,1-.088.182.892.892,0,0,0-.082.275,5.259,5.259,0,0,1-.158.779A2.719,2.719,0,0,0,31.371-.516V-4.189H30.053l-1.682.023a.073.073,0,0,1-.082-.082v-.363a.073.073,0,0,1,.082-.082l1.682.023H34.43a.453.453,0,0,0,.193-.047.233.233,0,0,1,.105-.023q.07,0,.252.17.193.193.193.275a.121.121,0,0,1-.07.117,1.244,1.244,0,0,0-.275.275,7.173,7.173,0,0,1-.674.744q-.094.094-.129.094a.444.444,0,0,1-.158-.082,1.07,1.07,0,0,0-.328-.117,4.885,4.885,0,0,0,.879-.926H31.9ZM37.717.094V.732a.073.073,0,0,1-.082.082h-.363a.073.073,0,0,1-.082-.082l.023-1.74v-.7l-.023-1.031q0-.07.082-.07l.973.012h.768l.973-.012q.082,0,.082.07l-.023.844v.727L40.066.516A.073.073,0,0,1,39.984.6h-.352a.073.073,0,0,1-.082-.082V.094Zm0-.457h1.834V-2.338H37.717Zm4.74-5.578v-1l-1.213.023A.073.073,0,0,1,41.162-7v-.27a.073.073,0,0,1,.082-.082l1.213.023v-.9l-1.512.023q-.088,0-.088-.082v-.281q0-.082.088-.082l1.512.023v-.205a4.449,4.449,0,0,0-.082-1.078,3.93,3.93,0,0,1,.545.059q.135.018.135.094a.352.352,0,0,1-.059.17,2.2,2.2,0,0,0-.07.768v.193h1.729v-.205a4.162,4.162,0,0,0-.088-1.078,4.343,4.343,0,0,1,.568.059q.117.018.117.094a.352.352,0,0,1-.059.17,2.5,2.5,0,0,0-.059.768v.193h.152l1.588-.023a.073.073,0,0,1,.082.082v.281a.073.073,0,0,1-.082.082l-1.588-.023h-.152v.9l1.441-.023a.073.073,0,0,1,.082.082V-7a.073.073,0,0,1-.082.082l-1.441-.023v1h.416l1.658-.023a.073.073,0,0,1,.082.082v.293a.073.073,0,0,1-.082.082l-1.658-.023H44v.961h.891L46.383-4.6a.073.073,0,0,1,.082.082l-.023,1.383v1.271q.381-.006.691-.018l.211-.006a.073.073,0,0,1,.082.082v.281a.073.073,0,0,1-.082.082l-.117-.006q-.352-.012-.785-.018l.012,1.236a.877.877,0,0,1-.24.721A2.4,2.4,0,0,1,44.93.686a.305.305,0,0,1-.176-.029A.275.275,0,0,1,44.7.516a1.088,1.088,0,0,0-.193-.369q.439.035.914.035a.6.6,0,0,0,.439-.117.537.537,0,0,0,.088-.352V-1.465H41.736v.844L41.76.721A.073.073,0,0,1,41.678.8H41.3q-.07,0-.07-.082l.023-1.307v-.879q-.34.006-.615.018l-.187.006a.073.073,0,0,1-.082-.082V-1.8a.073.073,0,0,1,.082-.082l.24.006q.252.012.563.018v-1.33l-.023-1.324q0-.082.07-.082l1.488.029h.744v-.961H42.24l-1.658.023A.073.073,0,0,1,40.5-5.59v-.293a.073.073,0,0,1,.082-.082l1.658.023Zm1.078,3.082h-1.8v1h1.8Zm.469,0v1h1.945v-1Zm-.469-1.318h-1.8v.949h1.8Zm.469,0v.949h1.945v-.949ZM42.926-8.232v.9h1.729v-.9Zm0,1.289v1h1.729v-1ZM38.268-4.406h.686l.914-.023q.082,0,.082.088v.357a.073.073,0,0,1-.082.082l-.914-.023h-.686l-.908.023q-.088,0-.088-.082v-.357a.078.078,0,0,1,.088-.088Zm0-1.617h.686l.914-.023a.073.073,0,0,1,.082.082V-5.6a.073.073,0,0,1-.082.082l-.914-.023h-.686l-.908.023q-.088,0-.088-.082v-.363q0-.082.088-.082Zm-.035-3.229h.891l1.008-.023a.073.073,0,0,1,.082.082v.363a.073.073,0,0,1-.082.082l-1.008-.023h-.891l-1.008.023a.073.073,0,0,1-.082-.082v-.363a.073.073,0,0,1,.082-.082Zm2.209,1.664v.375q0,.082-.07.082l-1.189-.023h-1.2l-1.189.023a.073.073,0,0,1-.082-.082v-.375q0-.07.082-.07l1.189.023h1.2l1.189-.023A.062.062,0,0,1,40.441-7.588Zm16.652,2a6.725,6.725,0,0,0,1.775,1.9.882.882,0,0,0-.322.24q-.082.111-.117.111t-.135-.1a8.189,8.189,0,0,1-1.406-1.641,6.885,6.885,0,0,1-1.137,1.752q-.082.1-.117.1a.367.367,0,0,1-.146-.088.952.952,0,0,0-.287-.146,6.408,6.408,0,0,0,1.594-2.818,2.771,2.771,0,0,0,.082-.686,3.44,3.44,0,0,1,.48.146q.146.047.146.129a.212.212,0,0,1-.07.123.8.8,0,0,0-.158.369Q57.158-5.783,57.094-5.59ZM54.346-.205V-2.016H53.027l-1.67.023q-.094,0-.094-.082v-.375q0-.082.094-.082l1.67.023h1.318V-6.07a9.31,9.31,0,0,0-.082-1.488q.27.012.6.059.135.023.135.117a.911.911,0,0,1-.076.24,5.1,5.1,0,0,0-.059,1.061v3.574H56.49l1.658-.023a.073.073,0,0,1,.082.082v.375a.073.073,0,0,1-.082.082L56.49-2.016H54.861V-.205h2.625L59.18-.229q.088,0,.088.082V.24q0,.082-.088.082L57.486.3H52.078L50.385.322A.073.073,0,0,1,50.3.24V-.146a.073.073,0,0,1,.082-.082l1.693.023Zm-.387-8.408v-.48a4.255,4.255,0,0,0-.082-.973q.428.023.645.047.123.023.123.1a1.21,1.21,0,0,1-.059.217,1.651,1.651,0,0,0-.076.6v.492h2.906L59.1-8.637a.073.073,0,0,1,.082.082v.387a.073.073,0,0,1-.082.082l-1.682-.023H50.4v1.98A27.21,27.21,0,0,1,50.2-2.49,8.45,8.45,0,0,1,49.113.615q-.07.117-.105.117T48.885.639A.977.977,0,0,0,48.527.4a7.346,7.346,0,0,0,1.137-3.105,26.413,26.413,0,0,0,.17-3.469l-.023-2.379a.073.073,0,0,1,.082-.082l1.717.023ZM52.5-5.543a7.155,7.155,0,0,0,1.465,1.775.769.769,0,0,0-.275.229q-.082.111-.123.111t-.129-.1a7.955,7.955,0,0,1-1.131-1.5A6.732,6.732,0,0,1,51.229-3.34q-.105.117-.146.117a.25.25,0,0,1-.117-.064,1.1,1.1,0,0,0-.316-.182A6.06,6.06,0,0,0,52.213-6.3a2.708,2.708,0,0,0,.094-.674,2.537,2.537,0,0,1,.469.135q.158.059.158.129a.179.179,0,0,1-.047.123.906.906,0,0,0-.182.369Q52.646-5.988,52.5-5.543ZM66.609-8.977V-.9h1.74v.639H63.984V-.9h1.857v-7.26a8.329,8.329,0,0,1-1.887.9l-.141-.7a9.164,9.164,0,0,0,2.162-1.02ZM6,15.492a.9.9,0,0,1,.7.311.945.945,0,0,1-.07,1.33A.9.9,0,0,1,6,17.379a.957.957,0,0,1-.949-.949.9.9,0,0,1,.316-.7A.921.921,0,0,1,6,15.492Zm10.295,2.074a8.982,8.982,0,0,1-3.229,2.051.735.735,0,0,1-.152.041q-.059,0-.135-.123a.964.964,0,0,0-.275-.287,8.807,8.807,0,0,0,3.135-1.682H14.4l-1.588.023q-.07,0-.07-.082v-.352q0-.082.07-.082L14.4,17.1h1.09v-4h-.5l-1.658.023a.073.073,0,0,1-.082-.082V12.68a.073.073,0,0,1,.082-.082l1.658.023h.5v-.082a9.487,9.487,0,0,0-.07-1.465q.217.012.609.059.135.023.135.094a.574.574,0,0,1-.059.205,4.334,4.334,0,0,0-.076,1.107v.082h3.832v-.082a8.766,8.766,0,0,0-.076-1.465q.234.012.615.059.135.018.135.094a.7.7,0,0,1-.076.217,5.224,5.224,0,0,0-.059,1.1v.082h.662l1.652-.023q.088,0,.088.082v.363q0,.082-.088.082L21.064,13.1H20.4v4h1.213l1.57-.023a.073.073,0,0,1,.082.082v.352a.073.073,0,0,1-.082.082l-1.57-.023H20.244A7.269,7.269,0,0,0,23.6,19.113a.986.986,0,0,0-.275.322q-.076.146-.135.146a.575.575,0,0,1-.141-.035,8.931,8.931,0,0,1-2.092-.879,6.233,6.233,0,0,1-1.318-1.1ZM16.031,13.1v1.008h3.832V13.1Zm0,1.453v1.02h3.832v-1.02Zm0,1.465V17.1h3.832V16.02Zm1.682,4.887V19.682H16.67l-1.559.023q-.088,0-.088-.082v-.352q0-.082.088-.082l1.559.023h1.043v-.152a6.676,6.676,0,0,0-.07-1.049q.246.018.58.064.123.018.123.094s-.016.061-.047.17a2.33,2.33,0,0,0-.07.7v.176h1.078l1.576-.023a.073.073,0,0,1,.082.082v.352a.073.073,0,0,1-.082.082l-1.576-.023H18.229v1.225h2.59l1.682-.023a.073.073,0,0,1,.082.082v.375a.073.073,0,0,1-.082.082L20.818,21.4H15.17l-1.682.023a.073.073,0,0,1-.082-.082v-.375a.073.073,0,0,1,.082-.082l1.682.023Zm12.023-8.355v-.5a4.168,4.168,0,0,0-.07-.926q.375.023.551.053.111.018.111.094a1.177,1.177,0,0,1-.059.17,2.016,2.016,0,0,0-.053.609v.5h.1l1.008-.023a.073.073,0,0,1,.082.082V12.9a.073.073,0,0,1-.082.082l-.984-.023a4.843,4.843,0,0,0,1.236,1.09.64.64,0,0,0-.217.217q-.059.105-.094.105a.314.314,0,0,1-.123-.07,4.4,4.4,0,0,1-.973-1.113q.018,1.055.041,1.951.006.146.012.469.006.123.006.146,0,.082-.094.082h-.311q-.088,0-.088-.082,0-.029.006-.334.023-1.055.047-2.2a5.683,5.683,0,0,1-1.5,2q-.1.088-.141.088t-.129-.1a.71.71,0,0,0-.252-.193A6.348,6.348,0,0,0,29.6,12.961h-.229l-1.008.023q-.088,0-.088-.082v-.293q0-.082.088-.082l1.008.023ZM26.08,19.705v1.113a.078.078,0,0,1-.088.088h-.346q-.082,0-.082-.088l.023-2.291V16.5a7.335,7.335,0,0,1-.721,1.084q-.082.1-.123.1t-.105-.088a1.137,1.137,0,0,0-.264-.252,8.505,8.505,0,0,0,1.869-4.828h-.311l-1.078.023a.073.073,0,0,1-.082-.082v-.363q0-.094.082-.094l1.078.023h.973L28,12q.082,0,.082.094v.363a.073.073,0,0,1-.082.082l-1.1-.023h-.141a13.364,13.364,0,0,1-.8,3.158h1l.768-.023a.073.073,0,0,1,.082.082L27.8,17.051V18l.023,2.162a.073.073,0,0,1-.082.082h-.352a.073.073,0,0,1-.082-.082v-.457Zm0-.445H27.3V16.131H26.08Zm7.283-6.105q.012,1.031.035,1.963.012.633.012.639a.073.073,0,0,1-.082.082h-.316q-.07,0-.07-.082,0-.029.006-.352.023-1.1.041-2.168a6.256,6.256,0,0,1-1.605,1.969.313.313,0,0,1-.135.082q-.041,0-.129-.105a.71.71,0,0,0-.252-.193,5.973,5.973,0,0,0,1.922-2.027l-1.061.023a.073.073,0,0,1-.082-.082v-.293a.073.073,0,0,1,.082-.082l1.131.023h.094v-.5a4.891,4.891,0,0,0-.07-.949q.352.023.551.053.111.018.111.094a.232.232,0,0,1-.029.1l-.047.094a2.572,2.572,0,0,0-.047.633v.48H34l1.143-.023a.073.073,0,0,1,.082.082V12.9a.073.073,0,0,1-.082.082L34,12.961h-.4a6.938,6.938,0,0,0,2.027,1.869.827.827,0,0,0-.275.3q-.064.1-.1.1a.291.291,0,0,1-.129-.076A7.364,7.364,0,0,1,33.363,13.154ZM31.9,18.469h1.295l.85-.023q.088,0,.088.082v.352q0,.094-.088.094l-.85-.023H31.9v1.693a13.9,13.9,0,0,0,2.93.229q.4,0,.744-.029a1.282,1.282,0,0,0-.123.375.333.333,0,0,1-.059.176.308.308,0,0,1-.17.029q-.574,0-1.418-.023a7.414,7.414,0,0,1-3.117-.691,2.747,2.747,0,0,1-1.113-1.254,5.06,5.06,0,0,1-1.588,2.186q-.094.088-.135.088t-.152-.1a.779.779,0,0,0-.311-.182,4.933,4.933,0,0,0,1.529-1.74,4.231,4.231,0,0,0,.475-1.523,3.362,3.362,0,0,0,.035-.445q0-.111-.012-.229a3.975,3.975,0,0,1,.516.082q.146.035.146.111a.518.518,0,0,1-.088.182.892.892,0,0,0-.082.275,5.259,5.259,0,0,1-.158.779,2.719,2.719,0,0,0,1.623,1.547V16.811H30.053l-1.682.023a.073.073,0,0,1-.082-.082v-.363a.073.073,0,0,1,.082-.082l1.682.023H34.43a.453.453,0,0,0,.193-.047.233.233,0,0,1,.105-.023q.07,0,.252.17.193.193.193.275a.121.121,0,0,1-.07.117,1.244,1.244,0,0,0-.275.275,7.173,7.173,0,0,1-.674.744q-.094.094-.129.094a.444.444,0,0,1-.158-.082,1.07,1.07,0,0,0-.328-.117,4.885,4.885,0,0,0,.879-.926H31.9Zm5.818,2.625v.639a.073.073,0,0,1-.082.082h-.363a.073.073,0,0,1-.082-.082l.023-1.74v-.7l-.023-1.031q0-.07.082-.07l.973.012h.768l.973-.012q.082,0,.082.07l-.023.844v.727l.023,1.682a.073.073,0,0,1-.082.082h-.352a.073.073,0,0,1-.082-.082v-.422Zm0-.457h1.834V18.662H37.717Zm4.74-5.578v-1l-1.213.023A.073.073,0,0,1,41.162,14v-.27a.073.073,0,0,1,.082-.082l1.213.023v-.9l-1.512.023q-.088,0-.088-.082v-.281q0-.082.088-.082l1.512.023v-.205a4.449,4.449,0,0,0-.082-1.078,3.93,3.93,0,0,1,.545.059q.135.018.135.094a.352.352,0,0,1-.059.17,2.2,2.2,0,0,0-.07.768v.193h1.729v-.205a4.162,4.162,0,0,0-.088-1.078,4.343,4.343,0,0,1,.568.059q.117.018.117.094a.352.352,0,0,1-.059.17,2.5,2.5,0,0,0-.059.768v.193h.152l1.588-.023a.073.073,0,0,1,.082.082v.281a.073.073,0,0,1-.082.082l-1.588-.023h-.152v.9l1.441-.023a.073.073,0,0,1,.082.082V14a.073.073,0,0,1-.082.082l-1.441-.023v1h.416l1.658-.023a.073.073,0,0,1,.082.082v.293a.073.073,0,0,1-.082.082l-1.658-.023H44v.961h.891l1.488-.029a.073.073,0,0,1,.082.082l-.023,1.383v1.271q.381-.006.691-.018l.211-.006a.073.073,0,0,1,.082.082v.281a.073.073,0,0,1-.082.082l-.117-.006q-.352-.012-.785-.018l.012,1.236a.877.877,0,0,1-.24.721,2.4,2.4,0,0,1-1.283.193.305.305,0,0,1-.176-.029.275.275,0,0,1-.053-.141,1.088,1.088,0,0,0-.193-.369q.439.035.914.035a.6.6,0,0,0,.439-.117.537.537,0,0,0,.088-.352V19.535H41.736v.844l.023,1.342a.073.073,0,0,1-.082.082H41.3q-.07,0-.07-.082l.023-1.307v-.879q-.34.006-.615.018l-.187.006a.073.073,0,0,1-.082-.082V19.2a.073.073,0,0,1,.082-.082l.24.006q.252.012.563.018v-1.33l-.023-1.324q0-.082.07-.082l1.488.029h.744v-.961H42.24l-1.658.023a.073.073,0,0,1-.082-.082v-.293a.073.073,0,0,1,.082-.082l1.658.023Zm1.078,3.082h-1.8v1h1.8Zm.469,0v1h1.945v-1Zm-.469-1.318h-1.8v.949h1.8Zm.469,0v.949h1.945v-.949Zm-1.078-4.055v.9h1.729v-.9Zm0,1.289v1h1.729v-1Zm-4.658,2.537h.686l.914-.023q.082,0,.082.088v.357a.073.073,0,0,1-.082.082l-.914-.023h-.686l-.908.023q-.088,0-.088-.082v-.357a.078.078,0,0,1,.088-.088Zm0-1.617h.686l.914-.023a.073.073,0,0,1,.082.082V15.4a.073.073,0,0,1-.082.082l-.914-.023h-.686l-.908.023q-.088,0-.088-.082v-.363q0-.082.088-.082Zm-.035-3.229h.891l1.008-.023a.073.073,0,0,1,.082.082v.363a.073.073,0,0,1-.082.082l-1.008-.023h-.891l-1.008.023a.073.073,0,0,1-.082-.082v-.363a.073.073,0,0,1,.082-.082Zm2.209,1.664v.375q0,.082-.07.082l-1.189-.023h-1.2l-1.189.023a.073.073,0,0,1-.082-.082v-.375q0-.07.082-.07l1.189.023h1.2l1.189-.023A.062.062,0,0,1,40.441,13.412Zm16.652,2a6.725,6.725,0,0,0,1.775,1.9.882.882,0,0,0-.322.24q-.082.111-.117.111t-.135-.1a8.189,8.189,0,0,1-1.406-1.641,6.885,6.885,0,0,1-1.137,1.752q-.082.1-.117.1a.367.367,0,0,1-.146-.088.952.952,0,0,0-.287-.146,6.408,6.408,0,0,0,1.594-2.818,2.771,2.771,0,0,0,.082-.686,3.44,3.44,0,0,1,.48.146q.146.047.146.129a.212.212,0,0,1-.07.123.8.8,0,0,0-.158.369Q57.158,15.217,57.094,15.41Zm-2.748,5.385V18.984H53.027l-1.67.023q-.094,0-.094-.082v-.375q0-.082.094-.082l1.67.023h1.318V14.93a9.31,9.31,0,0,0-.082-1.488q.27.012.6.059.135.023.135.117a.911.911,0,0,1-.076.24,5.1,5.1,0,0,0-.059,1.061v3.574H56.49l1.658-.023a.073.073,0,0,1,.082.082v.375a.073.073,0,0,1-.082.082l-1.658-.023H54.861v1.811h2.625l1.693-.023q.088,0,.088.082v.387q0,.082-.088.082L57.486,21.3H52.078l-1.693.023a.073.073,0,0,1-.082-.082v-.387a.073.073,0,0,1,.082-.082l1.693.023Zm-.387-8.408v-.48a4.255,4.255,0,0,0-.082-.973q.428.023.645.047.123.023.123.1a1.21,1.21,0,0,1-.059.217,1.651,1.651,0,0,0-.076.6v.492h2.906l1.682-.023a.073.073,0,0,1,.082.082v.387a.073.073,0,0,1-.082.082l-1.682-.023H50.4v1.98A27.21,27.21,0,0,1,50.2,18.51a8.45,8.45,0,0,1-1.09,3.105q-.07.117-.105.117t-.123-.094a.977.977,0,0,0-.357-.24,7.346,7.346,0,0,0,1.137-3.105,26.413,26.413,0,0,0,.17-3.469l-.023-2.379a.073.073,0,0,1,.082-.082l1.717.023ZM52.5,15.457a7.155,7.155,0,0,0,1.465,1.775.769.769,0,0,0-.275.229q-.082.111-.123.111t-.129-.1a7.955,7.955,0,0,1-1.131-1.5,6.732,6.732,0,0,1-1.078,1.688q-.105.117-.146.117a.25.25,0,0,1-.117-.064,1.1,1.1,0,0,0-.316-.182,6.06,6.06,0,0,0,1.564-2.83,2.708,2.708,0,0,0,.094-.674,2.537,2.537,0,0,1,.469.135q.158.059.158.129a.179.179,0,0,1-.047.123.906.906,0,0,0-.182.369Q52.646,15.012,52.5,15.457Zm10.869-1.2a2.852,2.852,0,0,1,1.084-1.775,2.722,2.722,0,0,1,1.641-.492,2.573,2.573,0,0,1,1.857.662,2.029,2.029,0,0,1,.627,1.547,2.442,2.442,0,0,1-.445,1.43,8.449,8.449,0,0,1-1.5,1.494,9.36,9.36,0,0,0-2.555,2.953H68.59v.662H63.3v-.592a10.4,10.4,0,0,1,2.795-3.475,7.157,7.157,0,0,0,1.383-1.459,1.907,1.907,0,0,0,.275-1.014,1.43,1.43,0,0,0-.533-1.189,1.759,1.759,0,0,0-1.137-.357q-1.576,0-1.934,1.8ZM6,36.492a.9.9,0,0,1,.7.311.945.945,0,0,1-.07,1.33A.9.9,0,0,1,6,38.379a.957.957,0,0,1-.949-.949.9.9,0,0,1,.316-.7A.921.921,0,0,1,6,36.492Zm10.295,2.074a8.982,8.982,0,0,1-3.229,2.051.735.735,0,0,1-.152.041q-.059,0-.135-.123a.964.964,0,0,0-.275-.287,8.807,8.807,0,0,0,3.135-1.682H14.4l-1.588.023q-.07,0-.07-.082v-.352q0-.082.07-.082L14.4,38.1h1.09v-4h-.5l-1.658.023a.073.073,0,0,1-.082-.082V33.68a.073.073,0,0,1,.082-.082l1.658.023h.5v-.082a9.487,9.487,0,0,0-.07-1.465q.217.012.609.059.135.023.135.094a.574.574,0,0,1-.059.205,4.334,4.334,0,0,0-.076,1.107v.082h3.832v-.082a8.766,8.766,0,0,0-.076-1.465q.234.012.615.059.135.018.135.094a.7.7,0,0,1-.076.217,5.223,5.223,0,0,0-.059,1.1v.082h.662l1.652-.023q.088,0,.088.082v.363q0,.082-.088.082L21.064,34.1H20.4v4h1.213l1.57-.023a.073.073,0,0,1,.082.082v.352a.073.073,0,0,1-.082.082l-1.57-.023H20.244A7.269,7.269,0,0,0,23.6,40.113a.986.986,0,0,0-.275.322q-.076.146-.135.146a.575.575,0,0,1-.141-.035,8.931,8.931,0,0,1-2.092-.879,6.233,6.233,0,0,1-1.318-1.1ZM16.031,34.1v1.008h3.832V34.1Zm0,1.453v1.02h3.832v-1.02Zm0,1.465V38.1h3.832V37.02Zm1.682,4.887V40.682H16.67l-1.559.023q-.088,0-.088-.082v-.352q0-.082.088-.082l1.559.023h1.043v-.152a6.676,6.676,0,0,0-.07-1.049q.246.018.58.064.123.018.123.094s-.016.061-.047.17a2.33,2.33,0,0,0-.07.7v.176h1.078l1.576-.023a.073.073,0,0,1,.082.082v.352a.073.073,0,0,1-.082.082l-1.576-.023H18.229v1.225h2.59l1.682-.023a.073.073,0,0,1,.082.082v.375a.073.073,0,0,1-.082.082L20.818,42.4H15.17l-1.682.023a.073.073,0,0,1-.082-.082v-.375a.073.073,0,0,1,.082-.082l1.682.023Zm12.023-8.355v-.5a4.168,4.168,0,0,0-.07-.926q.375.023.551.053.111.018.111.094a1.177,1.177,0,0,1-.059.17,2.016,2.016,0,0,0-.053.609v.5h.1l1.008-.023a.073.073,0,0,1,.082.082V33.9a.073.073,0,0,1-.082.082l-.984-.023a4.843,4.843,0,0,0,1.236,1.09.64.64,0,0,0-.217.217q-.059.105-.094.105a.314.314,0,0,1-.123-.07,4.4,4.4,0,0,1-.973-1.113q.018,1.055.041,1.951.006.146.012.469.006.123.006.146,0,.082-.094.082h-.311q-.088,0-.088-.082,0-.029.006-.334.023-1.055.047-2.2a5.683,5.683,0,0,1-1.5,2q-.1.088-.141.088t-.129-.1a.71.71,0,0,0-.252-.193A6.348,6.348,0,0,0,29.6,33.961h-.229l-1.008.023q-.088,0-.088-.082v-.293q0-.082.088-.082l1.008.023ZM26.08,40.705v1.113a.078.078,0,0,1-.088.088h-.346q-.082,0-.082-.088l.023-2.291V37.5a7.335,7.335,0,0,1-.721,1.084q-.082.1-.123.1t-.105-.088a1.137,1.137,0,0,0-.264-.252,8.505,8.505,0,0,0,1.869-4.828h-.311l-1.078.023a.073.073,0,0,1-.082-.082v-.363q0-.094.082-.094l1.078.023h.973L28,33q.082,0,.082.094v.363a.073.073,0,0,1-.082.082l-1.1-.023h-.141a13.364,13.364,0,0,1-.8,3.158h1l.768-.023a.073.073,0,0,1,.082.082L27.8,38.051V39l.023,2.162a.073.073,0,0,1-.082.082h-.352a.073.073,0,0,1-.082-.082v-.457Zm0-.445H27.3V37.131H26.08Zm7.283-6.105q.012,1.031.035,1.963.012.633.012.639a.073.073,0,0,1-.082.082h-.316q-.07,0-.07-.082,0-.029.006-.352.023-1.1.041-2.168a6.256,6.256,0,0,1-1.605,1.969.313.313,0,0,1-.135.082q-.041,0-.129-.105a.71.71,0,0,0-.252-.193,5.973,5.973,0,0,0,1.922-2.027l-1.061.023a.073.073,0,0,1-.082-.082v-.293a.073.073,0,0,1,.082-.082l1.131.023h.094v-.5a4.891,4.891,0,0,0-.07-.949q.352.023.551.053.111.018.111.094a.232.232,0,0,1-.029.1l-.047.094a2.572,2.572,0,0,0-.047.633v.48H34l1.143-.023a.073.073,0,0,1,.082.082V33.9a.073.073,0,0,1-.082.082L34,33.961h-.4a6.938,6.938,0,0,0,2.027,1.869.827.827,0,0,0-.275.3q-.064.1-.1.1a.291.291,0,0,1-.129-.076A7.364,7.364,0,0,1,33.363,34.154ZM31.9,39.469h1.295l.85-.023q.088,0,.088.082v.352q0,.094-.088.094l-.85-.023H31.9v1.693a13.9,13.9,0,0,0,2.93.229q.4,0,.744-.029a1.282,1.282,0,0,0-.123.375.333.333,0,0,1-.059.176.308.308,0,0,1-.17.029q-.574,0-1.418-.023a7.414,7.414,0,0,1-3.117-.691,2.747,2.747,0,0,1-1.113-1.254,5.06,5.06,0,0,1-1.588,2.186q-.094.088-.135.088t-.152-.1a.779.779,0,0,0-.311-.182,4.933,4.933,0,0,0,1.529-1.74,4.231,4.231,0,0,0,.475-1.523,3.362,3.362,0,0,0,.035-.445q0-.111-.012-.229a3.975,3.975,0,0,1,.516.082q.146.035.146.111a.518.518,0,0,1-.088.182.892.892,0,0,0-.082.275,5.259,5.259,0,0,1-.158.779,2.719,2.719,0,0,0,1.623,1.547V37.811H30.053l-1.682.023a.073.073,0,0,1-.082-.082v-.363a.073.073,0,0,1,.082-.082l1.682.023H34.43a.453.453,0,0,0,.193-.047.233.233,0,0,1,.105-.023q.07,0,.252.17.193.193.193.275a.121.121,0,0,1-.07.117,1.244,1.244,0,0,0-.275.275,7.173,7.173,0,0,1-.674.744q-.094.094-.129.094a.444.444,0,0,1-.158-.082,1.07,1.07,0,0,0-.328-.117,4.885,4.885,0,0,0,.879-.926H31.9Zm5.818,2.625v.639a.073.073,0,0,1-.082.082h-.363a.073.073,0,0,1-.082-.082l.023-1.74v-.7l-.023-1.031q0-.07.082-.07l.973.012h.768l.973-.012q.082,0,.082.07l-.023.844v.727l.023,1.682a.073.073,0,0,1-.082.082h-.352a.073.073,0,0,1-.082-.082v-.422Zm0-.457h1.834V39.662H37.717Zm4.74-5.578v-1l-1.213.023A.073.073,0,0,1,41.162,35v-.27a.073.073,0,0,1,.082-.082l1.213.023v-.9l-1.512.023q-.088,0-.088-.082v-.281q0-.082.088-.082l1.512.023v-.205a4.449,4.449,0,0,0-.082-1.078,3.93,3.93,0,0,1,.545.059q.135.018.135.094a.352.352,0,0,1-.059.17,2.2,2.2,0,0,0-.07.768v.193h1.729v-.205a4.162,4.162,0,0,0-.088-1.078,4.342,4.342,0,0,1,.568.059q.117.018.117.094a.352.352,0,0,1-.059.17,2.5,2.5,0,0,0-.059.768v.193h.152l1.588-.023a.073.073,0,0,1,.082.082v.281a.073.073,0,0,1-.082.082l-1.588-.023h-.152v.9l1.441-.023a.073.073,0,0,1,.082.082V35a.073.073,0,0,1-.082.082l-1.441-.023v1h.416l1.658-.023a.073.073,0,0,1,.082.082v.293a.073.073,0,0,1-.082.082l-1.658-.023H44v.961h.891l1.488-.029a.073.073,0,0,1,.082.082l-.023,1.383v1.271q.381-.006.691-.018l.211-.006a.073.073,0,0,1,.082.082v.281a.073.073,0,0,1-.082.082l-.117-.006q-.352-.012-.785-.018l.012,1.236a.877.877,0,0,1-.24.721,2.4,2.4,0,0,1-1.283.193.305.305,0,0,1-.176-.029.275.275,0,0,1-.053-.141,1.088,1.088,0,0,0-.193-.369q.439.035.914.035a.6.6,0,0,0,.439-.117.537.537,0,0,0,.088-.352V40.535H41.736v.844l.023,1.342a.073.073,0,0,1-.082.082H41.3q-.07,0-.07-.082l.023-1.307v-.879q-.34.006-.615.018l-.187.006a.073.073,0,0,1-.082-.082V40.2a.073.073,0,0,1,.082-.082l.24.006q.252.012.563.018v-1.33l-.023-1.324q0-.082.07-.082l1.488.029h.744v-.961H42.24l-1.658.023a.073.073,0,0,1-.082-.082v-.293a.073.073,0,0,1,.082-.082l1.658.023Zm1.078,3.082h-1.8v1h1.8Zm.469,0v1h1.945v-1Zm-.469-1.318h-1.8v.949h1.8Zm.469,0v.949h1.945v-.949Zm-1.078-4.055v.9h1.729v-.9Zm0,1.289v1h1.729v-1Zm-4.658,2.537h.686l.914-.023q.082,0,.082.088v.357a.073.073,0,0,1-.082.082l-.914-.023h-.686l-.908.023q-.088,0-.088-.082v-.357a.078.078,0,0,1,.088-.088Zm0-1.617h.686l.914-.023a.073.073,0,0,1,.082.082V36.4a.073.073,0,0,1-.082.082l-.914-.023h-.686l-.908.023q-.088,0-.088-.082v-.363q0-.082.088-.082Zm-.035-3.229h.891l1.008-.023a.073.073,0,0,1,.082.082v.363a.073.073,0,0,1-.082.082l-1.008-.023h-.891l-1.008.023a.073.073,0,0,1-.082-.082v-.363a.073.073,0,0,1,.082-.082Zm2.209,1.664v.375q0,.082-.07.082l-1.189-.023h-1.2l-1.189.023a.073.073,0,0,1-.082-.082v-.375q0-.07.082-.07l1.189.023h1.2l1.189-.023A.062.062,0,0,1,40.441,34.412Zm16.652,2a6.725,6.725,0,0,0,1.775,1.9.882.882,0,0,0-.322.24q-.082.111-.117.111t-.135-.1a8.189,8.189,0,0,1-1.406-1.641,6.885,6.885,0,0,1-1.137,1.752q-.082.1-.117.1a.367.367,0,0,1-.146-.088.952.952,0,0,0-.287-.146,6.408,6.408,0,0,0,1.594-2.818,2.771,2.771,0,0,0,.082-.686,3.44,3.44,0,0,1,.48.146q.146.047.146.129a.212.212,0,0,1-.07.123.8.8,0,0,0-.158.369Q57.158,36.217,57.094,36.41Zm-2.748,5.385V39.984H53.027l-1.67.023q-.094,0-.094-.082v-.375q0-.082.094-.082l1.67.023h1.318V35.93a9.31,9.31,0,0,0-.082-1.488q.27.012.6.059.135.023.135.117a.911.911,0,0,1-.076.24,5.1,5.1,0,0,0-.059,1.061v3.574H56.49l1.658-.023a.073.073,0,0,1,.082.082v.375a.073.073,0,0,1-.082.082l-1.658-.023H54.861v1.811h2.625l1.693-.023q.088,0,.088.082v.387q0,.082-.088.082L57.486,42.3H52.078l-1.693.023a.073.073,0,0,1-.082-.082v-.387a.073.073,0,0,1,.082-.082l1.693.023Zm-.387-8.408v-.48a4.255,4.255,0,0,0-.082-.973q.428.023.645.047.123.023.123.1a1.21,1.21,0,0,1-.059.217,1.651,1.651,0,0,0-.076.6v.492h2.906l1.682-.023a.073.073,0,0,1,.082.082v.387a.073.073,0,0,1-.082.082l-1.682-.023H50.4v1.98A27.21,27.21,0,0,1,50.2,39.51a8.45,8.45,0,0,1-1.09,3.105q-.07.117-.105.117t-.123-.094a.977.977,0,0,0-.357-.24,7.346,7.346,0,0,0,1.137-3.105,26.413,26.413,0,0,0,.17-3.469l-.023-2.379a.073.073,0,0,1,.082-.082l1.717.023ZM52.5,36.457a7.155,7.155,0,0,0,1.465,1.775.769.769,0,0,0-.275.229q-.082.111-.123.111t-.129-.1a7.955,7.955,0,0,1-1.131-1.5,6.732,6.732,0,0,1-1.078,1.688q-.105.117-.146.117a.25.25,0,0,1-.117-.064,1.1,1.1,0,0,0-.316-.182,6.06,6.06,0,0,0,1.564-2.83,2.708,2.708,0,0,0,.094-.674,2.537,2.537,0,0,1,.469.135q.158.059.158.129a.179.179,0,0,1-.047.123.906.906,0,0,0-.182.369Q52.646,36.012,52.5,36.457Zm10.863-1.8a2.543,2.543,0,0,1,2.578-1.67,2.674,2.674,0,0,1,1.881.65,1.89,1.89,0,0,1,.627,1.447,1.914,1.914,0,0,1-.521,1.389,2.3,2.3,0,0,1-1.219.627v.076a2.53,2.53,0,0,1,1.518.855,2.128,2.128,0,0,1,.451,1.365,2.315,2.315,0,0,1-.85,1.9,2.833,2.833,0,0,1-1.852.6,3.291,3.291,0,0,1-1.8-.445,2.77,2.77,0,0,1-1-1.2l.744-.311a2.114,2.114,0,0,0,.879,1.049,2.387,2.387,0,0,0,1.172.258,1.846,1.846,0,0,0,1.424-.562,1.792,1.792,0,0,0,.451-1.26,1.686,1.686,0,0,0-.65-1.441,2.709,2.709,0,0,0-1.658-.445h-.68V36.85h.609a2.419,2.419,0,0,0,1.682-.51,1.547,1.547,0,0,0,.48-1.2,1.361,1.361,0,0,0-.545-1.154,1.834,1.834,0,0,0-1.148-.346,1.748,1.748,0,0,0-1.834,1.318ZM6,57.492a.9.9,0,0,1,.7.311.945.945,0,0,1-.07,1.33A.9.9,0,0,1,6,59.379a.957.957,0,0,1-.949-.949.9.9,0,0,1,.316-.7A.921.921,0,0,1,6,57.492Zm10.295,2.074a8.982,8.982,0,0,1-3.229,2.051.735.735,0,0,1-.152.041q-.059,0-.135-.123a.964.964,0,0,0-.275-.287,8.807,8.807,0,0,0,3.135-1.682H14.4l-1.588.023q-.07,0-.07-.082v-.352q0-.082.07-.082L14.4,59.1h1.09v-4h-.5l-1.658.023a.073.073,0,0,1-.082-.082V54.68a.073.073,0,0,1,.082-.082l1.658.023h.5v-.082a9.487,9.487,0,0,0-.07-1.465q.217.012.609.059.135.023.135.094a.574.574,0,0,1-.059.205,4.334,4.334,0,0,0-.076,1.107v.082h3.832v-.082a8.766,8.766,0,0,0-.076-1.465q.234.012.615.059.135.018.135.094a.7.7,0,0,1-.076.217,5.223,5.223,0,0,0-.059,1.1v.082h.662l1.652-.023q.088,0,.088.082v.363q0,.082-.088.082L21.064,55.1H20.4v4h1.213l1.57-.023a.073.073,0,0,1,.082.082v.352a.073.073,0,0,1-.082.082l-1.57-.023H20.244A7.269,7.269,0,0,0,23.6,61.113a.986.986,0,0,0-.275.322q-.076.146-.135.146a.575.575,0,0,1-.141-.035,8.931,8.931,0,0,1-2.092-.879,6.233,6.233,0,0,1-1.318-1.1ZM16.031,55.1v1.008h3.832V55.1Zm0,1.453v1.02h3.832v-1.02Zm0,1.465V59.1h3.832V58.02Zm1.682,4.887V61.682H16.67l-1.559.023q-.088,0-.088-.082v-.352q0-.082.088-.082l1.559.023h1.043v-.152a6.676,6.676,0,0,0-.07-1.049q.246.018.58.064.123.018.123.094s-.016.061-.047.17a2.33,2.33,0,0,0-.07.7v.176h1.078l1.576-.023a.073.073,0,0,1,.082.082v.352a.073.073,0,0,1-.082.082l-1.576-.023H18.229v1.225h2.59l1.682-.023a.073.073,0,0,1,.082.082v.375a.073.073,0,0,1-.082.082L20.818,63.4H15.17l-1.682.023a.073.073,0,0,1-.082-.082v-.375a.073.073,0,0,1,.082-.082l1.682.023Zm12.023-8.355v-.5a4.168,4.168,0,0,0-.07-.926q.375.023.551.053.111.018.111.094a1.177,1.177,0,0,1-.059.17,2.016,2.016,0,0,0-.053.609v.5h.1l1.008-.023a.073.073,0,0,1,.082.082V54.9a.073.073,0,0,1-.082.082l-.984-.023a4.843,4.843,0,0,0,1.236,1.09.64.64,0,0,0-.217.217q-.059.105-.094.105a.314.314,0,0,1-.123-.07,4.4,4.4,0,0,1-.973-1.113q.018,1.055.041,1.951.006.146.012.469.006.123.006.146,0,.082-.094.082h-.311q-.088,0-.088-.082,0-.029.006-.334.023-1.055.047-2.2a5.683,5.683,0,0,1-1.5,2q-.1.088-.141.088t-.129-.1a.71.71,0,0,0-.252-.193A6.348,6.348,0,0,0,29.6,54.961h-.229l-1.008.023q-.088,0-.088-.082v-.293q0-.082.088-.082l1.008.023ZM26.08,61.705v1.113a.078.078,0,0,1-.088.088h-.346q-.082,0-.082-.088l.023-2.291V58.5a7.335,7.335,0,0,1-.721,1.084q-.082.1-.123.1t-.105-.088a1.137,1.137,0,0,0-.264-.252,8.505,8.505,0,0,0,1.869-4.828h-.311l-1.078.023a.073.073,0,0,1-.082-.082v-.363q0-.094.082-.094l1.078.023h.973L28,54q.082,0,.082.094v.363a.073.073,0,0,1-.082.082l-1.1-.023h-.141a13.364,13.364,0,0,1-.8,3.158h1l.768-.023a.073.073,0,0,1,.082.082L27.8,59.051V60l.023,2.162a.073.073,0,0,1-.082.082h-.352a.073.073,0,0,1-.082-.082v-.457Zm0-.445H27.3V58.131H26.08Zm7.283-6.105q.012,1.031.035,1.963.012.633.012.639a.073.073,0,0,1-.082.082h-.316q-.07,0-.07-.082,0-.029.006-.352.023-1.1.041-2.168a6.256,6.256,0,0,1-1.605,1.969.313.313,0,0,1-.135.082q-.041,0-.129-.105a.71.71,0,0,0-.252-.193,5.973,5.973,0,0,0,1.922-2.027l-1.061.023a.073.073,0,0,1-.082-.082v-.293a.073.073,0,0,1,.082-.082l1.131.023h.094v-.5a4.891,4.891,0,0,0-.07-.949q.352.023.551.053.111.018.111.094a.232.232,0,0,1-.029.1l-.047.094a2.572,2.572,0,0,0-.047.633v.48H34l1.143-.023a.073.073,0,0,1,.082.082V54.9a.073.073,0,0,1-.082.082L34,54.961h-.4a6.938,6.938,0,0,0,2.027,1.869.827.827,0,0,0-.275.3q-.064.1-.1.1a.291.291,0,0,1-.129-.076A7.364,7.364,0,0,1,33.363,55.154ZM31.9,60.469h1.295l.85-.023q.088,0,.088.082v.352q0,.094-.088.094l-.85-.023H31.9v1.693a13.9,13.9,0,0,0,2.93.229q.4,0,.744-.029a1.282,1.282,0,0,0-.123.375.333.333,0,0,1-.059.176.308.308,0,0,1-.17.029q-.574,0-1.418-.023a7.414,7.414,0,0,1-3.117-.691,2.747,2.747,0,0,1-1.113-1.254,5.06,5.06,0,0,1-1.588,2.186q-.094.088-.135.088t-.152-.1a.779.779,0,0,0-.311-.182,4.933,4.933,0,0,0,1.529-1.74,4.231,4.231,0,0,0,.475-1.523,3.362,3.362,0,0,0,.035-.445q0-.111-.012-.229a3.975,3.975,0,0,1,.516.082q.146.035.146.111a.518.518,0,0,1-.088.182.892.892,0,0,0-.082.275,5.259,5.259,0,0,1-.158.779,2.719,2.719,0,0,0,1.623,1.547V58.811H30.053l-1.682.023a.073.073,0,0,1-.082-.082v-.363a.073.073,0,0,1,.082-.082l1.682.023H34.43a.453.453,0,0,0,.193-.047.233.233,0,0,1,.105-.023q.07,0,.252.17.193.193.193.275a.121.121,0,0,1-.07.117,1.244,1.244,0,0,0-.275.275,7.173,7.173,0,0,1-.674.744q-.094.094-.129.094a.444.444,0,0,1-.158-.082,1.07,1.07,0,0,0-.328-.117,4.885,4.885,0,0,0,.879-.926H31.9Zm5.818,2.625v.639a.073.073,0,0,1-.082.082h-.363a.073.073,0,0,1-.082-.082l.023-1.74v-.7l-.023-1.031q0-.07.082-.07l.973.012h.768l.973-.012q.082,0,.082.07l-.023.844v.727l.023,1.682a.073.073,0,0,1-.082.082h-.352a.073.073,0,0,1-.082-.082v-.422Zm0-.457h1.834V60.662H37.717Zm4.74-5.578v-1l-1.213.023A.073.073,0,0,1,41.162,56v-.27a.073.073,0,0,1,.082-.082l1.213.023v-.9l-1.512.023q-.088,0-.088-.082v-.281q0-.082.088-.082l1.512.023v-.205a4.449,4.449,0,0,0-.082-1.078,3.93,3.93,0,0,1,.545.059q.135.018.135.094a.352.352,0,0,1-.059.17,2.2,2.2,0,0,0-.07.768v.193h1.729v-.205a4.162,4.162,0,0,0-.088-1.078,4.342,4.342,0,0,1,.568.059q.117.018.117.094a.352.352,0,0,1-.059.17,2.5,2.5,0,0,0-.059.768v.193h.152l1.588-.023a.073.073,0,0,1,.082.082v.281a.073.073,0,0,1-.082.082l-1.588-.023h-.152v.9l1.441-.023a.073.073,0,0,1,.082.082V56a.073.073,0,0,1-.082.082l-1.441-.023v1h.416l1.658-.023a.073.073,0,0,1,.082.082v.293a.073.073,0,0,1-.082.082l-1.658-.023H44v.961h.891l1.488-.029a.073.073,0,0,1,.082.082l-.023,1.383v1.271q.381-.006.691-.018l.211-.006a.073.073,0,0,1,.082.082v.281a.073.073,0,0,1-.082.082l-.117-.006q-.352-.012-.785-.018l.012,1.236a.877.877,0,0,1-.24.721,2.4,2.4,0,0,1-1.283.193.305.305,0,0,1-.176-.029.275.275,0,0,1-.053-.141,1.088,1.088,0,0,0-.193-.369q.439.035.914.035a.6.6,0,0,0,.439-.117.537.537,0,0,0,.088-.352V61.535H41.736v.844l.023,1.342a.073.073,0,0,1-.082.082H41.3q-.07,0-.07-.082l.023-1.307v-.879q-.34.006-.615.018l-.187.006a.073.073,0,0,1-.082-.082V61.2a.073.073,0,0,1,.082-.082l.24.006q.252.012.563.018v-1.33l-.023-1.324q0-.082.07-.082l1.488.029h.744v-.961H42.24l-1.658.023a.073.073,0,0,1-.082-.082v-.293a.073.073,0,0,1,.082-.082l1.658.023Zm1.078,3.082h-1.8v1h1.8Zm.469,0v1h1.945v-1Zm-.469-1.318h-1.8v.949h1.8Zm.469,0v.949h1.945v-.949Zm-1.078-4.055v.9h1.729v-.9Zm0,1.289v1h1.729v-1Zm-4.658,2.537h.686l.914-.023q.082,0,.082.088v.357a.073.073,0,0,1-.082.082l-.914-.023h-.686l-.908.023q-.088,0-.088-.082v-.357a.078.078,0,0,1,.088-.088Zm0-1.617h.686l.914-.023a.073.073,0,0,1,.082.082V57.4a.073.073,0,0,1-.082.082l-.914-.023h-.686l-.908.023q-.088,0-.088-.082v-.363q0-.082.088-.082Zm-.035-3.229h.891l1.008-.023a.073.073,0,0,1,.082.082v.363a.073.073,0,0,1-.082.082l-1.008-.023h-.891l-1.008.023a.073.073,0,0,1-.082-.082v-.363a.073.073,0,0,1,.082-.082Zm2.209,1.664v.375q0,.082-.07.082l-1.189-.023h-1.2l-1.189.023a.073.073,0,0,1-.082-.082v-.375q0-.07.082-.07l1.189.023h1.2l1.189-.023A.062.062,0,0,1,40.441,55.412Zm16.652,2a6.725,6.725,0,0,0,1.775,1.9.882.882,0,0,0-.322.24q-.082.111-.117.111t-.135-.1a8.189,8.189,0,0,1-1.406-1.641,6.885,6.885,0,0,1-1.137,1.752q-.082.1-.117.1a.367.367,0,0,1-.146-.088.952.952,0,0,0-.287-.146,6.408,6.408,0,0,0,1.594-2.818,2.771,2.771,0,0,0,.082-.686,3.44,3.44,0,0,1,.48.146q.146.047.146.129a.212.212,0,0,1-.07.123.8.8,0,0,0-.158.369Q57.158,57.217,57.094,57.41Zm-2.748,5.385V60.984H53.027l-1.67.023q-.094,0-.094-.082v-.375q0-.082.094-.082l1.67.023h1.318V56.93a9.31,9.31,0,0,0-.082-1.488q.27.012.6.059.135.023.135.117a.911.911,0,0,1-.076.24,5.1,5.1,0,0,0-.059,1.061v3.574H56.49l1.658-.023a.073.073,0,0,1,.082.082v.375a.073.073,0,0,1-.082.082l-1.658-.023H54.861v1.811h2.625l1.693-.023q.088,0,.088.082v.387q0,.082-.088.082L57.486,63.3H52.078l-1.693.023a.073.073,0,0,1-.082-.082v-.387a.073.073,0,0,1,.082-.082l1.693.023Zm-.387-8.408v-.48a4.255,4.255,0,0,0-.082-.973q.428.023.645.047.123.023.123.1a1.21,1.21,0,0,1-.059.217,1.651,1.651,0,0,0-.076.6v.492h2.906l1.682-.023a.073.073,0,0,1,.082.082v.387a.073.073,0,0,1-.082.082l-1.682-.023H50.4v1.98A27.21,27.21,0,0,1,50.2,60.51a8.45,8.45,0,0,1-1.09,3.105q-.07.117-.105.117t-.123-.094a.977.977,0,0,0-.357-.24,7.346,7.346,0,0,0,1.137-3.105,26.413,26.413,0,0,0,.17-3.469l-.023-2.379a.073.073,0,0,1,.082-.082l1.717.023ZM52.5,57.457a7.155,7.155,0,0,0,1.465,1.775.769.769,0,0,0-.275.229q-.082.111-.123.111t-.129-.1a7.955,7.955,0,0,1-1.131-1.5,6.732,6.732,0,0,1-1.078,1.688q-.105.117-.146.117a.25.25,0,0,1-.117-.064,1.1,1.1,0,0,0-.316-.182,6.06,6.06,0,0,0,1.564-2.83,2.708,2.708,0,0,0,.094-.674,2.537,2.537,0,0,1,.469.135q.158.059.158.129a.179.179,0,0,1-.047.123.906.906,0,0,0-.182.369Q52.646,57.012,52.5,57.457Zm14.783-3.434v6.029h1.354v.621H67.283v2.063h-.709V60.674H62.783v-.586l3.422-6.064Zm-.709,6.029V56.461q0-.357.023-1.822h-.129q-.451.955-.855,1.682l-2.074,3.732ZM6,78.492a.9.9,0,0,1,.7.311.945.945,0,0,1-.07,1.33A.9.9,0,0,1,6,80.379a.957.957,0,0,1-.949-.949.9.9,0,0,1,.316-.7A.921.921,0,0,1,6,78.492Zm10.295,2.074a8.982,8.982,0,0,1-3.229,2.051.735.735,0,0,1-.152.041q-.059,0-.135-.123a.964.964,0,0,0-.275-.287,8.807,8.807,0,0,0,3.135-1.682H14.4l-1.588.023q-.07,0-.07-.082v-.352q0-.082.07-.082L14.4,80.1h1.09v-4h-.5l-1.658.023a.073.073,0,0,1-.082-.082V75.68a.073.073,0,0,1,.082-.082l1.658.023h.5v-.082a9.487,9.487,0,0,0-.07-1.465q.217.012.609.059.135.023.135.094a.574.574,0,0,1-.059.205,4.334,4.334,0,0,0-.076,1.107v.082h3.832v-.082a8.766,8.766,0,0,0-.076-1.465q.234.012.615.059.135.018.135.094a.7.7,0,0,1-.076.217,5.223,5.223,0,0,0-.059,1.1v.082h.662l1.652-.023q.088,0,.088.082v.363q0,.082-.088.082L21.064,76.1H20.4v4h1.213l1.57-.023a.073.073,0,0,1,.082.082v.352a.073.073,0,0,1-.082.082l-1.57-.023H20.244A7.269,7.269,0,0,0,23.6,82.113a.986.986,0,0,0-.275.322q-.076.146-.135.146a.575.575,0,0,1-.141-.035,8.931,8.931,0,0,1-2.092-.879,6.233,6.233,0,0,1-1.318-1.1ZM16.031,76.1v1.008h3.832V76.1Zm0,1.453v1.02h3.832v-1.02Zm0,1.465V80.1h3.832V79.02Zm1.682,4.887V82.682H16.67l-1.559.023q-.088,0-.088-.082v-.352q0-.082.088-.082l1.559.023h1.043v-.152a6.676,6.676,0,0,0-.07-1.049q.246.018.58.064.123.018.123.094s-.016.061-.047.17a2.33,2.33,0,0,0-.07.7v.176h1.078l1.576-.023a.073.073,0,0,1,.082.082v.352a.073.073,0,0,1-.082.082l-1.576-.023H18.229v1.225h2.59l1.682-.023a.073.073,0,0,1,.082.082v.375a.073.073,0,0,1-.082.082L20.818,84.4H15.17l-1.682.023a.073.073,0,0,1-.082-.082v-.375a.073.073,0,0,1,.082-.082l1.682.023Zm12.023-8.355v-.5a4.168,4.168,0,0,0-.07-.926q.375.023.551.053.111.018.111.094a1.177,1.177,0,0,1-.059.17,2.016,2.016,0,0,0-.053.609v.5h.1l1.008-.023a.073.073,0,0,1,.082.082V75.9a.073.073,0,0,1-.082.082l-.984-.023a4.843,4.843,0,0,0,1.236,1.09.64.64,0,0,0-.217.217q-.059.105-.094.105a.314.314,0,0,1-.123-.07,4.4,4.4,0,0,1-.973-1.113q.018,1.055.041,1.951.006.146.012.469.006.123.006.146,0,.082-.094.082h-.311q-.088,0-.088-.082,0-.029.006-.334.023-1.055.047-2.2a5.683,5.683,0,0,1-1.5,2q-.1.088-.141.088t-.129-.1a.71.71,0,0,0-.252-.193A6.348,6.348,0,0,0,29.6,75.961h-.229l-1.008.023q-.088,0-.088-.082v-.293q0-.082.088-.082l1.008.023ZM26.08,82.705v1.113a.078.078,0,0,1-.088.088h-.346q-.082,0-.082-.088l.023-2.291V79.5a7.335,7.335,0,0,1-.721,1.084q-.082.1-.123.1t-.105-.088a1.137,1.137,0,0,0-.264-.252,8.505,8.505,0,0,0,1.869-4.828h-.311l-1.078.023a.073.073,0,0,1-.082-.082v-.363q0-.094.082-.094l1.078.023h.973L28,75q.082,0,.082.094v.363a.073.073,0,0,1-.082.082l-1.1-.023h-.141a13.364,13.364,0,0,1-.8,3.158h1l.768-.023a.073.073,0,0,1,.082.082L27.8,80.051V81l.023,2.162a.073.073,0,0,1-.082.082h-.352a.073.073,0,0,1-.082-.082v-.457Zm0-.445H27.3V79.131H26.08Zm7.283-6.105q.012,1.031.035,1.963.012.633.012.639a.073.073,0,0,1-.082.082h-.316q-.07,0-.07-.082,0-.029.006-.352.023-1.1.041-2.168a6.256,6.256,0,0,1-1.605,1.969.313.313,0,0,1-.135.082q-.041,0-.129-.105a.71.71,0,0,0-.252-.193,5.973,5.973,0,0,0,1.922-2.027l-1.061.023a.073.073,0,0,1-.082-.082v-.293a.073.073,0,0,1,.082-.082l1.131.023h.094v-.5a4.891,4.891,0,0,0-.07-.949q.352.023.551.053.111.018.111.094a.232.232,0,0,1-.029.1l-.047.094a2.572,2.572,0,0,0-.047.633v.48H34l1.143-.023a.073.073,0,0,1,.082.082V75.9a.073.073,0,0,1-.082.082L34,75.961h-.4a6.938,6.938,0,0,0,2.027,1.869.827.827,0,0,0-.275.3q-.064.1-.1.1a.291.291,0,0,1-.129-.076A7.364,7.364,0,0,1,33.363,76.154ZM31.9,81.469h1.295l.85-.023q.088,0,.088.082v.352q0,.094-.088.094l-.85-.023H31.9v1.693a13.9,13.9,0,0,0,2.93.229q.4,0,.744-.029a1.282,1.282,0,0,0-.123.375.333.333,0,0,1-.059.176.308.308,0,0,1-.17.029q-.574,0-1.418-.023a7.414,7.414,0,0,1-3.117-.691,2.747,2.747,0,0,1-1.113-1.254,5.06,5.06,0,0,1-1.588,2.186q-.094.088-.135.088t-.152-.1a.779.779,0,0,0-.311-.182,4.933,4.933,0,0,0,1.529-1.74,4.231,4.231,0,0,0,.475-1.523,3.362,3.362,0,0,0,.035-.445q0-.111-.012-.229a3.975,3.975,0,0,1,.516.082q.146.035.146.111a.518.518,0,0,1-.088.182.892.892,0,0,0-.082.275,5.259,5.259,0,0,1-.158.779,2.719,2.719,0,0,0,1.623,1.547V79.811H30.053l-1.682.023a.073.073,0,0,1-.082-.082v-.363a.073.073,0,0,1,.082-.082l1.682.023H34.43a.453.453,0,0,0,.193-.047.233.233,0,0,1,.105-.023q.07,0,.252.17.193.193.193.275a.121.121,0,0,1-.07.117,1.244,1.244,0,0,0-.275.275,7.173,7.173,0,0,1-.674.744q-.094.094-.129.094a.444.444,0,0,1-.158-.082,1.07,1.07,0,0,0-.328-.117,4.885,4.885,0,0,0,.879-.926H31.9Zm5.818,2.625v.639a.073.073,0,0,1-.082.082h-.363a.073.073,0,0,1-.082-.082l.023-1.74v-.7l-.023-1.031q0-.07.082-.07l.973.012h.768l.973-.012q.082,0,.082.07l-.023.844v.727l.023,1.682a.073.073,0,0,1-.082.082h-.352a.073.073,0,0,1-.082-.082v-.422Zm0-.457h1.834V81.662H37.717Zm4.74-5.578v-1l-1.213.023A.073.073,0,0,1,41.162,77v-.27a.073.073,0,0,1,.082-.082l1.213.023v-.9l-1.512.023q-.088,0-.088-.082v-.281q0-.082.088-.082l1.512.023v-.205a4.449,4.449,0,0,0-.082-1.078,3.93,3.93,0,0,1,.545.059q.135.018.135.094a.352.352,0,0,1-.059.17,2.2,2.2,0,0,0-.07.768v.193h1.729v-.205a4.162,4.162,0,0,0-.088-1.078,4.342,4.342,0,0,1,.568.059q.117.018.117.094a.352.352,0,0,1-.059.17,2.5,2.5,0,0,0-.059.768v.193h.152l1.588-.023a.073.073,0,0,1,.082.082v.281a.073.073,0,0,1-.082.082l-1.588-.023h-.152v.9l1.441-.023a.073.073,0,0,1,.082.082V77a.073.073,0,0,1-.082.082l-1.441-.023v1h.416l1.658-.023a.073.073,0,0,1,.082.082v.293a.073.073,0,0,1-.082.082l-1.658-.023H44v.961h.891l1.488-.029a.073.073,0,0,1,.082.082l-.023,1.383v1.271q.381-.006.691-.018l.211-.006a.073.073,0,0,1,.082.082v.281a.073.073,0,0,1-.082.082l-.117-.006q-.352-.012-.785-.018l.012,1.236a.877.877,0,0,1-.24.721,2.4,2.4,0,0,1-1.283.193.305.305,0,0,1-.176-.029.275.275,0,0,1-.053-.141,1.088,1.088,0,0,0-.193-.369q.439.035.914.035a.6.6,0,0,0,.439-.117.537.537,0,0,0,.088-.352V82.535H41.736v.844l.023,1.342a.073.073,0,0,1-.082.082H41.3q-.07,0-.07-.082l.023-1.307v-.879q-.34.006-.615.018l-.187.006a.073.073,0,0,1-.082-.082V82.2a.073.073,0,0,1,.082-.082l.24.006q.252.012.563.018v-1.33l-.023-1.324q0-.082.07-.082l1.488.029h.744v-.961H42.24l-1.658.023a.073.073,0,0,1-.082-.082v-.293a.073.073,0,0,1,.082-.082l1.658.023Zm1.078,3.082h-1.8v1h1.8Zm.469,0v1h1.945v-1Zm-.469-1.318h-1.8v.949h1.8Zm.469,0v.949h1.945v-.949Zm-1.078-4.055v.9h1.729v-.9Zm0,1.289v1h1.729v-1Zm-4.658,2.537h.686l.914-.023q.082,0,.082.088v.357a.073.073,0,0,1-.082.082l-.914-.023h-.686l-.908.023q-.088,0-.088-.082v-.357a.078.078,0,0,1,.088-.088Zm0-1.617h.686l.914-.023a.073.073,0,0,1,.082.082V78.4a.073.073,0,0,1-.082.082l-.914-.023h-.686l-.908.023q-.088,0-.088-.082v-.363q0-.082.088-.082Zm-.035-3.229h.891l1.008-.023a.073.073,0,0,1,.082.082v.363a.073.073,0,0,1-.082.082l-1.008-.023h-.891l-1.008.023a.073.073,0,0,1-.082-.082v-.363a.073.073,0,0,1,.082-.082Zm2.209,1.664v.375q0,.082-.07.082l-1.189-.023h-1.2l-1.189.023a.073.073,0,0,1-.082-.082v-.375q0-.07.082-.07l1.189.023h1.2l1.189-.023A.062.062,0,0,1,40.441,76.412Zm16.652,2a6.725,6.725,0,0,0,1.775,1.9.882.882,0,0,0-.322.24q-.082.111-.117.111t-.135-.1a8.189,8.189,0,0,1-1.406-1.641,6.885,6.885,0,0,1-1.137,1.752q-.082.1-.117.1a.367.367,0,0,1-.146-.088.952.952,0,0,0-.287-.146,6.408,6.408,0,0,0,1.594-2.818,2.771,2.771,0,0,0,.082-.686,3.44,3.44,0,0,1,.48.146q.146.047.146.129a.212.212,0,0,1-.07.123.8.8,0,0,0-.158.369Q57.158,78.217,57.094,78.41Zm-2.748,5.385V81.984H53.027l-1.67.023q-.094,0-.094-.082v-.375q0-.082.094-.082l1.67.023h1.318V77.93a9.31,9.31,0,0,0-.082-1.488q.27.012.6.059.135.023.135.117a.911.911,0,0,1-.076.24,5.1,5.1,0,0,0-.059,1.061v3.574H56.49l1.658-.023a.073.073,0,0,1,.082.082v.375a.073.073,0,0,1-.082.082l-1.658-.023H54.861v1.811h2.625l1.693-.023q.088,0,.088.082v.387q0,.082-.088.082L57.486,84.3H52.078l-1.693.023a.073.073,0,0,1-.082-.082v-.387a.073.073,0,0,1,.082-.082l1.693.023Zm-.387-8.408v-.48a4.255,4.255,0,0,0-.082-.973q.428.023.645.047.123.023.123.1a1.21,1.21,0,0,1-.059.217,1.651,1.651,0,0,0-.076.6v.492h2.906l1.682-.023a.073.073,0,0,1,.082.082v.387a.073.073,0,0,1-.082.082l-1.682-.023H50.4v1.98A27.21,27.21,0,0,1,50.2,81.51a8.45,8.45,0,0,1-1.09,3.105q-.07.117-.105.117t-.123-.094a.977.977,0,0,0-.357-.24,7.346,7.346,0,0,0,1.137-3.105,26.413,26.413,0,0,0,.17-3.469l-.023-2.379a.073.073,0,0,1,.082-.082l1.717.023ZM52.5,78.457a7.155,7.155,0,0,0,1.465,1.775.769.769,0,0,0-.275.229q-.082.111-.123.111t-.129-.1a7.955,7.955,0,0,1-1.131-1.5,6.732,6.732,0,0,1-1.078,1.688q-.105.117-.146.117a.25.25,0,0,1-.117-.064,1.1,1.1,0,0,0-.316-.182,6.06,6.06,0,0,0,1.564-2.83,2.708,2.708,0,0,0,.094-.674,2.537,2.537,0,0,1,.469.135q.158.059.158.129a.179.179,0,0,1-.047.123.906.906,0,0,0-.182.369Q52.646,78.012,52.5,78.457Zm15.686-3.322V75.8H64.441l-.111,2.279q-.006.2-.041.563-.041.428-.041.469a1.9,1.9,0,0,1,.809-.715,2.281,2.281,0,0,1,1-.223,2.339,2.339,0,0,1,1.875.844,2.881,2.881,0,0,1,.645,1.928,2.946,2.946,0,0,1-.9,2.279,2.6,2.6,0,0,1-1.816.674,2.539,2.539,0,0,1-2.566-1.6l.744-.322a1.769,1.769,0,0,0,1.822,1.271,1.693,1.693,0,0,0,1.43-.691,2.558,2.558,0,0,0,.457-1.576,2.309,2.309,0,0,0-.557-1.664,1.674,1.674,0,0,0-1.254-.492,1.766,1.766,0,0,0-1.729,1.213l-.65-.1.229-4.8Z" transform="translate(-5.051 10.066)"/>
</svg>
