<svg xmlns="http://www.w3.org/2000/svg" width="111.128" height="9.18" viewBox="0 0 111.128 9.18">
  <path id="パス_95" data-name="パス 95" d="M4.99-7.241A.711.711,0,0,1,5.542-7a.717.717,0,0,1,.19.5.706.706,0,0,1-.244.547.717.717,0,0,1-.5.19.706.706,0,0,1-.547-.244.71.71,0,0,1-.19-.493A.711.711,0,0,1,4.5-7.051.71.71,0,0,1,4.99-7.241Zm-2.7,2.7a.72.72,0,0,1,.557.249.71.71,0,0,1,.19.493.7.7,0,0,1-.244.547.734.734,0,0,1-.5.19.706.706,0,0,1-.547-.244A.709.709,0,0,1,1.563-3.8.712.712,0,0,1,1.8-4.346.7.7,0,0,1,2.295-4.541Zm5.405,0a.7.7,0,0,1,.547.249.721.721,0,0,1,.186.493.7.7,0,0,1-.239.547.71.71,0,0,1-.493.19.726.726,0,0,1-.557-.244.7.7,0,0,1-.19-.493A.706.706,0,0,1,7.2-4.346.724.724,0,0,1,7.7-4.541Zm-2.71,2.7a.7.7,0,0,1,.552.249.728.728,0,0,1,.19.5.7.7,0,0,1-.244.547.727.727,0,0,1-.5.186A.712.712,0,0,1,4.443-.6a.7.7,0,0,1-.19-.493A.721.721,0,0,1,4.5-1.646.7.7,0,0,1,4.99-1.841Zm.3-1.958,3.77,3.76-.3.3L4.99-3.5,1.24.259l-.3-.3L4.692-3.8.962-7.529l.3-.3L4.99-4.1l3.73-3.73.3.3Zm7.886.747V-5.479h-.522l-1.4.02q-.073,0-.073-.068v-.332q0-.068.073-.068l1.4.02h.522v-.879a7.9,7.9,0,0,0-.068-1.3,4.21,4.21,0,0,1,.527.059q.112.02.112.068a.593.593,0,0,1-.063.2,4.843,4.843,0,0,0-.049.972v.879h2.642v-.879a7.9,7.9,0,0,0-.068-1.3,3.733,3.733,0,0,1,.527.059q.112.015.112.068a.593.593,0,0,1-.063.2,4.843,4.843,0,0,0-.049.972v.879h.649l1.4-.02a.06.06,0,0,1,.068.068v.332a.06.06,0,0,1-.068.068l-1.4-.02h-.649v2.427h1.211l1.318-.02q.073,0,.073.068v.322q0,.068-.073.068l-1.318-.02h-5.9l-1.323.02a.06.06,0,0,1-.068-.068V-3a.06.06,0,0,1,.068-.068l1.323.02Zm.459-2.427v2.427h2.642V-5.479Zm-.181,3.359a2.435,2.435,0,0,1,.444.21q.078.049.078.1t-.112.132a1.344,1.344,0,0,0-.229.239A7.786,7.786,0,0,1,11.2.469a.389.389,0,0,1-.132.049q-.049,0-.122-.1A.845.845,0,0,0,10.679.19a7.252,7.252,0,0,0,2.368-1.65A1.774,1.774,0,0,0,13.457-2.119ZM19.2.122A1.027,1.027,0,0,0,18.94.41q-.068.122-.107.122a.285.285,0,0,1-.112-.054A9.055,9.055,0,0,1,15.967-1.8a.094.094,0,0,1-.02-.044q0-.029.1-.083l.171-.112a.2.2,0,0,1,.073-.029.081.081,0,0,1,.054.029,8.277,8.277,0,0,0,1.3,1.27A7.426,7.426,0,0,0,19.2.122Zm7.456-6.1h.728L28.735-6a.06.06,0,0,1,.068.068l-.02,1.27v1.621l.01,1.489a.706.706,0,0,1-.21.591,1.824,1.824,0,0,1-.962.171.268.268,0,0,1-.151-.024.249.249,0,0,1-.059-.127.732.732,0,0,0-.146-.308q.308.029.718.029a.341.341,0,0,0,.381-.391v-1.05H26.3v.542l.02,1.206q0,.073-.068.073h-.322q-.068,0-.068-.073l.02-1.206v-.542H24v.63l.02,1.221a.06.06,0,0,1-.068.068h-.322q-.059,0-.059-.068l.02-1.2v-2.7l-.02-1.221q0-.068.059-.068L25-5.981h1.089a8.171,8.171,0,0,0-1.24-.85Q24.8-6.855,24.8-6.88t.078-.1L25-7.08q.059-.059.088-.059a.1.1,0,0,1,.049.02,10.5,10.5,0,0,1,1.123.8A11.372,11.372,0,0,0,27.793-7.5H24.814l-1.309.02q-.073,0-.073-.068v-.293q0-.078.073-.078l1.309.02h2.949a.662.662,0,0,0,.229-.029.333.333,0,0,1,.122-.039q.068,0,.239.171t.161.259q0,.078-.122.122a1.183,1.183,0,0,0-.308.21,15.791,15.791,0,0,1-1.543,1.128A.525.525,0,0,0,26.655-5.981Zm1.709,1.47v-1.1H26.3v1.1Zm0,.371H26.3v1.108h2.061ZM24-3.032h1.88V-4.141H24Zm0-1.479h1.88v-1.1H24ZM29.683-.239a.789.789,0,0,0-.161.371q-.024.122-.054.142A.3.3,0,0,1,29.331.3Q27.48.439,25.669.439a6.135,6.135,0,0,1-2.49-.352,1.856,1.856,0,0,1-.928-1.006Q21.763-.391,21.23.093a.823.823,0,0,0-.2.22q-.039.078-.1.078A.159.159,0,0,1,20.82.322a2.176,2.176,0,0,1-.269-.41,3.48,3.48,0,0,0,.62-.391,8.154,8.154,0,0,0,.869-.85V-3.9h-.762l-.649.02a.06.06,0,0,1-.068-.068v-.342q0-.059.068-.059l.649.02h.483l.669-.02q.068,0,.068.059l-.02.952v2.021a2.043,2.043,0,0,0,.371.649,1.792,1.792,0,0,0,.518.371A5.278,5.278,0,0,0,25.41-.02,42.551,42.551,0,0,0,29.683-.239Zm-8.73-7.339a.085.085,0,0,1-.024-.044q0-.029.093-.088l.132-.088a.25.25,0,0,1,.088-.044.124.124,0,0,1,.073.039,7.875,7.875,0,0,1,1.1,1.362.112.112,0,0,1,.015.044q0,.034-.093.107l-.132.1a.3.3,0,0,1-.132.063q-.029,0-.049-.044A7.879,7.879,0,0,0,20.952-7.578Zm14.36,1.187a13.725,13.725,0,0,1-.537,2.6A7.7,7.7,0,0,1,34-1.992a1.742,1.742,0,0,1-1.426,1,1.162,1.162,0,0,1-.981-.64,2.838,2.838,0,0,1-.381-1.528,3.418,3.418,0,0,1,.347-1.475,3.43,3.43,0,0,1,.825-1.128,4.158,4.158,0,0,1,2.9-1.05,3.565,3.565,0,0,1,2.69.981,2.969,2.969,0,0,1,.811,2.158,3.1,3.1,0,0,1-.85,2.217,4.489,4.489,0,0,1-2.3,1.216.4.4,0,0,1-.054,0,.163.163,0,0,1-.146-.107.709.709,0,0,0-.269-.269,4.146,4.146,0,0,0,2.407-1.25,2.849,2.849,0,0,0,.659-1.909,2.479,2.479,0,0,0-.9-2,2.7,2.7,0,0,0-1.787-.62Zm-.532.029a3.368,3.368,0,0,0-2.061.923,3.256,3.256,0,0,0-.811,1.226,3.019,3.019,0,0,0-.2,1.06,2.151,2.151,0,0,0,.342,1.3.7.7,0,0,0,.557.327q.518,0,.981-.791a8.606,8.606,0,0,0,.791-1.953A11.44,11.44,0,0,0,34.78-6.362Zm10.391.42a6.177,6.177,0,0,0,1.2,2.31,6.546,6.546,0,0,0,1.719,1.362.866.866,0,0,0-.278.239q-.078.107-.117.107a.34.34,0,0,1-.127-.068,6.526,6.526,0,0,1-1.65-1.5,6.12,6.12,0,0,1-.928-1.855,4.751,4.751,0,0,1-.22.718,5.154,5.154,0,0,1-.864,1.47,5.834,5.834,0,0,1-1.47,1.191.4.4,0,0,1-.127.068q-.034,0-.1-.1a.822.822,0,0,0-.259-.239A5.529,5.529,0,0,0,43.613-3.53a4.721,4.721,0,0,0,.737-1.24,4.968,4.968,0,0,0,.288-1.172H41.758v4.9l.02,1.479a.06.06,0,0,1-.068.068h-.361a.06.06,0,0,1-.068-.068l.02-1.509V-4.79l-.02-1.533a.06.06,0,0,1,.068-.068l1.421.02h1.909q.039-.454.039-1a5.622,5.622,0,0,0-.059-.957,5.015,5.015,0,0,1,.542.059q.1.015.1.088s-.016.063-.049.181a3.65,3.65,0,0,0-.059.762q0,.327-.049.869H47.3l1.421-.02a.06.06,0,0,1,.068.068l-.02,1.563v2.852l.02,1.548a.725.725,0,0,1-.239.61A2.36,2.36,0,0,1,47.358.42.283.283,0,0,1,47.207.4a.623.623,0,0,1-.059-.146.845.845,0,0,0-.171-.361,7.633,7.633,0,0,0,.864.054.621.621,0,0,0,.386-.1.409.409,0,0,0,.083-.293V-5.942Zm12.28,3.311v.039l-.02.864v.771L57.451.62q0,.073-.068.073h-.322q-.078,0-.078-.073V.112h-4V.684q0,.059-.073.059h-.327q-.068,0-.068-.059l.015-1.6v-.693L52.51-2.6a13.226,13.226,0,0,1-1.47.8.433.433,0,0,1-.127.044q-.044,0-.122-.122a.756.756,0,0,0-.22-.239,9.076,9.076,0,0,0,3.857-2.69,2.529,2.529,0,0,0,.391-.63,3.788,3.788,0,0,1,.469.117q.112.044.112.1t-.068.078l-.054.029a8.955,8.955,0,0,0,4.214,2.939.9.9,0,0,0-.22.293q-.059.132-.1.132a.333.333,0,0,1-.107-.044A15.934,15.934,0,0,1,57.451-2.632ZM57.4-2.661a9.778,9.778,0,0,1-.894-.61,7.394,7.394,0,0,1-1.5-1.558,8.571,8.571,0,0,1-2.4,2.168l1.289.02h2.168ZM52.983-.3h4V-2.231h-4Zm1.709-6.86v-.088a4.745,4.745,0,0,0-.073-1.04q.122,0,.3.02l.22.02q.122.015.122.078a.583.583,0,0,1-.063.181,2.9,2.9,0,0,0-.049.732v.1H57.49l1.4-.02q.073,0,.073.068l-.02.459v.361l.02,1.03a.06.06,0,0,1-.068.068H58.55a.06.06,0,0,1-.068-.068V-6.748H51.514v1.489q0,.068-.073.068H51.1a.06.06,0,0,1-.068-.068l.015-1.03V-6.6l-.015-.513a.06.06,0,0,1,.068-.068l1.4.02ZM58.76-4.531a.806.806,0,0,0-.2.283q-.054.117-.093.117a.387.387,0,0,1-.117-.049A7.094,7.094,0,0,1,56.211-5.8a.074.074,0,0,1-.02-.044q0-.02.088-.1l.151-.107a.1.1,0,0,1,.059-.029.07.07,0,0,1,.049.024A6.374,6.374,0,0,0,58.76-4.531ZM53.389-6.172a2.71,2.71,0,0,1,.41.22q.093.068.093.112t-.142.132a1.357,1.357,0,0,0-.269.249,6.705,6.705,0,0,1-1.641,1.27.366.366,0,0,1-.122.049q-.039,0-.107-.112a1.028,1.028,0,0,0-.234-.229,5.471,5.471,0,0,0,1.65-1.147A1.314,1.314,0,0,0,53.389-6.172Zm8.7-1.177a2.751,2.751,0,0,1,.581.239q.107.059.107.117a.306.306,0,0,1-.068.181,1.072,1.072,0,0,0-.181.41,14.771,14.771,0,0,0-.493,3.53,9.105,9.105,0,0,0,.171,1.919q.142-.337.4-.9t.386-.859a1.289,1.289,0,0,0,.2.308.168.168,0,0,1,.039.093.408.408,0,0,1-.049.151q-.342.781-.664,1.616a.527.527,0,0,0-.049.229l.024.2a.078.078,0,0,1-.049.073A1.267,1.267,0,0,1,62.1.039q-.063,0-.1-.088a5.835,5.835,0,0,1-.342-1.411,10.253,10.253,0,0,1-.107-1.46,17.508,17.508,0,0,1,.439-3.462,4.337,4.337,0,0,0,.1-.854Zm2.2,5.029.42-.02q.073,0,.073.078.029,1.143,1.836,1.143A14.6,14.6,0,0,0,68.6-1.26a.21.21,0,0,1,.039,0q.054,0,.063.093a2.843,2.843,0,0,1,.02.342.153.153,0,0,1-.015.088.178.178,0,0,1-.093.029,17.566,17.566,0,0,1-1.851.1,4.783,4.783,0,0,1-1.279-.137,1.819,1.819,0,0,1-.762-.425A1.535,1.535,0,0,1,64.287-2.319Zm.332-3.32v-.4a.13.13,0,0,1,.112-.142,12.53,12.53,0,0,1,2.109-.181q.84,0,1.387.049.122.015.122.1v.342q0,.083-.059.083a.161.161,0,0,1-.039,0q-.674-.054-1.523-.054A12.117,12.117,0,0,0,64.619-5.64ZM76.162-1.89q-.1-1.133-.122-1.992a3.555,3.555,0,0,0-.068-.679,3.294,3.294,0,0,1,.581.1.109.109,0,0,1,.088.107.678.678,0,0,1-.049.171,1.468,1.468,0,0,0-.059.488q0,.654.137,1.924A8.793,8.793,0,0,1,78.55-.8q.059.044.059.073a.2.2,0,0,1-.029.078,1.909,1.909,0,0,1-.156.3.075.075,0,0,1-.068.044.155.155,0,0,1-.083-.034,5.635,5.635,0,0,0-1.587-.937,1.45,1.45,0,0,1-.439,1.211,2.046,2.046,0,0,1-1.323.356,1.766,1.766,0,0,1-1.04-.3.952.952,0,0,1-.43-.811,1.061,1.061,0,0,1,.542-.942,2.087,2.087,0,0,1,1.118-.278A3.623,3.623,0,0,1,76.162-1.89Zm.01.469A2.944,2.944,0,0,0,75.151-1.6a1.6,1.6,0,0,0-.981.249.629.629,0,0,0-.249.513q0,.679,1.079.679,1.182,0,1.182-.991A2.037,2.037,0,0,0,76.172-1.421Zm-2.3-4.619a11.5,11.5,0,0,0,1.46-.288.274.274,0,0,1,.063-.01q.059,0,.068.068a2.065,2.065,0,0,1,.039.313.11.11,0,0,1-.088.117q-.864.19-1.685.288a20.358,20.358,0,0,1-2.017,4.224.086.086,0,0,1-.073.044.134.134,0,0,1-.068-.024,2.113,2.113,0,0,1-.3-.229.107.107,0,0,1-.039-.068.165.165,0,0,1,.039-.083A17.391,17.391,0,0,0,73.193-5.5a12.257,12.257,0,0,1-1.353.078q-.3,0-.527-.02a.1.1,0,0,1-.112-.1,3.783,3.783,0,0,1-.049-.386q.425.029.742.029a12.013,12.013,0,0,0,1.45-.093q.132-.444.3-1.167a2.882,2.882,0,0,0,.073-.63q0-.073,0-.132a2.483,2.483,0,0,1,.664.19.1.1,0,0,1,.068.088.231.231,0,0,1-.078.142.807.807,0,0,0-.151.278Q73.979-6.367,73.872-6.04Zm2.729.391a3.385,3.385,0,0,1,.2-.342q.049-.073.088-.073a.232.232,0,0,1,.063.015,6.908,6.908,0,0,1,1.958.938.094.094,0,0,1,.039.068.3.3,0,0,1-.029.093,1.233,1.233,0,0,1-.171.278q-.034.044-.063.044a.111.111,0,0,1-.063-.034A6.1,6.1,0,0,0,76.6-5.649Zm6.519-2.08a2.427,2.427,0,0,1,.557.21q.122.068.122.132a.145.145,0,0,1-.039.107.8.8,0,0,0-.171.391,12.906,12.906,0,0,0-.312,2.432,8.6,8.6,0,0,0,.054,1.177q.1-.215.776-1.509a.951.951,0,0,0,.151.3.2.2,0,0,1,.039.107.222.222,0,0,1-.039.112,9.676,9.676,0,0,0-.64,1.343.974.974,0,0,0-.078.317v.049a.085.085,0,0,1-.054.083,1.515,1.515,0,0,1-.361.059q-.054,0-.088-.1a5.246,5.246,0,0,1-.239-1.8,15.05,15.05,0,0,1,.234-2.31,6.442,6.442,0,0,0,.1-.894Q83.13-7.627,83.12-7.729Zm3.13.059a3.055,3.055,0,0,1,.605.083q.137.029.137.122a.226.226,0,0,1,0,.044,1.306,1.306,0,0,0-.044.376q0,.054,0,.107.107,1.606.107,2.666a5.236,5.236,0,0,1-.84,3.232,4.885,4.885,0,0,1-1.6,1.367.211.211,0,0,1-.1.034.147.147,0,0,1-.1-.044.955.955,0,0,0-.41-.2,6.955,6.955,0,0,0,1.05-.664,3.743,3.743,0,0,0,.659-.7,4.952,4.952,0,0,0,.82-3.008q0-.8-.1-2.383A5.343,5.343,0,0,0,86.25-7.671Zm8.633,5.8q-.054-.674-.068-1.758-.552.024-1.03.024-.7,0-1.3-.059a.1.1,0,0,1-.1-.1q-.02-.2-.02-.391a12.842,12.842,0,0,0,1.553.083q.444,0,.889-.024-.015-.488-.015-1.616-.591.029-1.133.029-.82,0-1.577-.068a.089.089,0,0,1-.068-.083q-.029-.361-.029-.41a15.835,15.835,0,0,0,1.8.1q.488,0,1.011-.029,0-.688-.01-1.069a1.863,1.863,0,0,0-.1-.64,3.676,3.676,0,0,1,.669.122q.107.039.107.127a.124.124,0,0,1-.024.073.85.85,0,0,0-.122.449q-.029.537-.029.918a15.863,15.863,0,0,0,2.485-.327l.039,0q.044,0,.054.054a2.254,2.254,0,0,1,.029.361.063.063,0,0,1-.059.068,22.093,22.093,0,0,1-2.549.3q0,1.113.01,1.621a14.862,14.862,0,0,0,2.271-.308.134.134,0,0,1,.029,0,.053.053,0,0,1,.059.044v.361a.083.083,0,0,1-.078.088,16.69,16.69,0,0,1-2.271.278q0,.874.078,1.914a8.443,8.443,0,0,1,2.69,1.3.123.123,0,0,1,.044.083.154.154,0,0,1-.015.059A2.087,2.087,0,0,1,97.92,0a.092.092,0,0,1-.068.044A.115.115,0,0,1,97.8.029,7.691,7.691,0,0,0,95.4-1.26q0,.059,0,.083A1.336,1.336,0,0,1,94.922,0a2.125,2.125,0,0,1-1.24.293,2.169,2.169,0,0,1-1.328-.337A.9.9,0,0,1,91.992-.8a.977.977,0,0,1,.527-.864,2.438,2.438,0,0,1,1.274-.293A6.225,6.225,0,0,1,94.883-1.87Zm0,.479a5.479,5.479,0,0,0-1.113-.137,1.955,1.955,0,0,0-1.035.225.548.548,0,0,0-.293.474q0,.669,1.172.669a1.428,1.428,0,0,0,1.064-.308,1.05,1.05,0,0,0,.215-.728A1.868,1.868,0,0,0,94.883-1.392Zm10.386-4.79q-.01-.342-.01-.952a2.909,2.909,0,0,0-.107-.649,3.219,3.219,0,0,1,.669.1q.142.039.142.132a.317.317,0,0,1-.073.161.586.586,0,0,0-.078.259q-.02.522-.02.933,1.392-.054,3.252-.054a.078.078,0,0,1,.088.088v.322q0,.093-.112.093-.693-.029-1.387-.029-.84,0-1.841.039,0,1.348.01,2.051a5.1,5.1,0,0,1,.117,1.069A3.23,3.23,0,0,1,103.95.43a.483.483,0,0,1-.181.059.207.207,0,0,1-.132-.068A1.121,1.121,0,0,0,103.3.2a3,3,0,0,0,2.139-2.627,1.206,1.206,0,0,1-1.143.62,1.232,1.232,0,0,1-.937-.376,1.378,1.378,0,0,1-.352-1,1.25,1.25,0,0,1,.464-1,1.282,1.282,0,0,1,.85-.317,1.226,1.226,0,0,1,.977.381q0-.264-.01-.859,0-.479-.01-.732-2.051.1-3.77.3a1.746,1.746,0,0,0-.288.068.615.615,0,0,1-.142.034.1.1,0,0,1-.1-.078,3.394,3.394,0,0,1-.132-.532q.117,0,.225,0,.4,0,1.045-.054Q103.94-6.113,105.269-6.182Zm-.913,2.09a.857.857,0,0,0-.664.278.9.9,0,0,0-.225.63.917.917,0,0,0,.283.713.846.846,0,0,0,.586.21.967.967,0,0,0,.771-.342.926.926,0,0,0,.229-.61.8.8,0,0,0-.312-.659A1.022,1.022,0,0,0,104.355-4.092ZM110.7-1.87a1.323,1.323,0,0,1,1.016.454,1.306,1.306,0,0,1,.356.908,1.292,1.292,0,0,1-.459,1A1.323,1.323,0,0,1,110.7.85,1.318,1.318,0,0,1,109.688.4a1.3,1.3,0,0,1-.356-.9,1.3,1.3,0,0,1,.459-1.006A1.317,1.317,0,0,1,110.7-1.87Zm0,.439a.9.9,0,0,0-.684.308.871.871,0,0,0-.244.61.9.9,0,0,0,.313.693A.9.9,0,0,0,110.7.42a.9.9,0,0,0,.693-.308.91.91,0,0,0,.239-.625.881.881,0,0,0-.308-.679A.91.91,0,0,0,110.7-1.431Z" transform="translate(-0.942 8.33)"/>
</svg>
