<svg xmlns="http://www.w3.org/2000/svg" width="131.28" height="61.44" viewBox="0 0 131.28 61.44">
  <path id="パス_22" data-name="パス 22" d="M6.56,0h35.6V-9.52H31.04V-59.28H22.32c-3.76,2.4-7.84,3.92-13.76,5.04v7.28H19.28V-9.52H6.56ZM70.72,1.12c12.08,0,20-10.56,20-30.96s-7.92-30.48-20-30.48-20.08,10-20.08,30.48C50.64-9.44,58.64,1.12,70.72,1.12Zm0-9.2c-5.12,0-8.96-5.12-8.96-21.76,0-16.56,3.84-21.36,8.96-21.36s8.88,4.8,8.88,21.36C79.6-13.2,75.84-8.08,70.72-8.08Zm47.12,9.2c12.08,0,20-10.56,20-30.96s-7.92-30.48-20-30.48-20.08,10-20.08,30.48C97.76-9.44,105.76,1.12,117.84,1.12Zm0-9.2c-5.12,0-8.96-5.12-8.96-21.76,0-16.56,3.84-21.36,8.96-21.36s8.88,4.8,8.88,21.36C126.72-13.2,122.96-8.08,117.84-8.08Z" transform="translate(-6.56 60.32)"/>
</svg>
