<svg xmlns="http://www.w3.org/2000/svg" width="16.059" height="23.82" viewBox="0 0 16.059 23.82">
  <path id="パス_82" data-name="パス 82" d="M8.719.108a7.889,7.889,0,0,0,8.171-8.2c0-5.079-3.281-7.414-7.193-7.414a6.132,6.132,0,0,0-2.808.663L7.331-19.8h8.487v-3.912H3.324L2.693-12.354l2.114,1.388a5.586,5.586,0,0,1,3.5-1.23c2.366,0,3.944,1.514,3.944,4.228A3.92,3.92,0,0,1,8.12-3.678,7.257,7.257,0,0,1,2.977-6.044L.832-3.079A10.641,10.641,0,0,0,8.719.108Z" transform="translate(-0.832 23.712)" fill="#fff"/>
</svg>
