<svg xmlns="http://www.w3.org/2000/svg" width="16.027" height="24.23" viewBox="0 0 16.027 24.23">
  <path id="パス_80" data-name="パス 80" d="M8.656.1c4.448,0,8.2-2.492,8.2-6.783a5.838,5.838,0,0,0-4.638-5.742v-.158A5.541,5.541,0,0,0,16.1-17.913c0-3.975-3.06-6.215-7.572-6.215a10.358,10.358,0,0,0-7,2.871l2.366,2.839a6.346,6.346,0,0,1,4.417-2.051c1.988,0,3.123,1.073,3.123,2.9,0,2.082-1.388,3.565-5.679,3.565v3.313c5.079,0,6.436,1.451,6.436,3.723,0,2.114-1.609,3.281-3.975,3.281a7.417,7.417,0,0,1-5.206-2.4L.832-3.148A9.925,9.925,0,0,0,8.656.1Z" transform="translate(-0.832 24.128)" fill="#fff"/>
</svg>
