<svg xmlns="http://www.w3.org/2000/svg" width="191.268" height="25.76" viewBox="0 0 191.268 25.76">
  <path id="パス_58" data-name="パス 58" d="M18.76-22.148H15.568A21.547,21.547,0,0,1,15.82-19.6c.028.672.056,1.512.084,2.436H6.132a21.973,21.973,0,0,1-2.8-.2v2.968q1.386-.084,2.856-.084h8.54A34.143,34.143,0,0,1,2.1-4.172l2.016,2.3A38.788,38.788,0,0,0,16.016-11.9c.056,3.416.084,6.916.084,9.016,0,.756-.28,1.12-1.036,1.12a28.48,28.48,0,0,1-3.836-.308L11.452.812C12.936.9,14.56.98,16.1.98c1.876,0,2.828-.9,2.828-2.52-.028-3.612-.14-8.792-.224-12.936h4.088c.7,0,1.708.028,2.464.056v-2.94a22.532,22.532,0,0,1-2.6.2h-4c0-.952-.028-1.764-.028-2.436A15.554,15.554,0,0,1,18.76-22.148ZM34.524-20.86,32.48-18.676a60.731,60.731,0,0,1,7,5.936l2.212-2.268A58.756,58.756,0,0,0,34.524-20.86ZM31.64-2.128,33.516.756A30.872,30.872,0,0,0,44.24-3.416a28.629,28.629,0,0,0,9.828-10.136L52.36-16.6A26.659,26.659,0,0,1,42.644-6.048,29.094,29.094,0,0,1,31.64-2.128ZM62.384-21.112v2.884c.784-.056,1.792-.084,2.688-.084H75.936c.952,0,2.072.028,2.772.084v-2.884a26.75,26.75,0,0,1-2.744.14H65.072A25.615,25.615,0,0,1,62.384-21.112Zm18.536,7.7-1.988-1.232a5.555,5.555,0,0,1-1.792.252H62.8c-.812,0-1.876-.084-2.968-.2v2.912c1.064-.084,2.3-.112,2.968-.112H77.056a13.2,13.2,0,0,1-3.108,5.6,18.838,18.838,0,0,1-9.8,5.04l2.184,2.52A20.69,20.69,0,0,0,76.356-4.592a19.812,19.812,0,0,0,4.116-7.84A4.918,4.918,0,0,1,80.92-13.412Zm5.208,2.968L87.5-7.672a57.287,57.287,0,0,0,10.332-4.34v9.744a32.446,32.446,0,0,1-.168,3.3h3.472a21.056,21.056,0,0,1-.2-3.3v-11.62a47.233,47.233,0,0,0,7.532-6.132l-2.352-2.24A34.563,34.563,0,0,1,98.336-15.6,46.237,46.237,0,0,1,86.128-10.444Zm32.4-10.416-2.044,2.184a60.732,60.732,0,0,1,7,5.936l2.212-2.268A58.756,58.756,0,0,0,118.524-20.86ZM115.64-2.128,117.516.756A30.872,30.872,0,0,0,128.24-3.416a28.629,28.629,0,0,0,9.828-10.136L136.36-16.6a26.659,26.659,0,0,1-9.716,10.556A29.094,29.094,0,0,1,115.64-2.128Zm34.048-20.44h-7.224v2.044h7.224Zm-1.96,17.444v4.032h-3.276V-5.124Zm2.184-2.1H142.3V2.184h2.156V.98h5.46Zm-7.588-1.848H149.8v-2.016h-7.476ZM149.8-14.9h-7.476v2.016H149.8Zm-8.68-1.82h9.436v-2.072H141.12Zm18.7,12.6V-5.824h3.248v1.708Zm-5.4-1.708h3.192v1.708H154.42Zm3.192-3.416v1.708H154.42V-9.24Zm5.46,0v1.708h-3.248V-9.24Zm-6.16-6.8H160.8v1.54h-3.892Zm0-3.36H160.8v1.484h-3.892ZM166.964-4.116H165.48v-7h-5.656V-12.46h7.084V-14.5h-3.752v-1.54H165.9V-17.92h-2.744V-19.4h3.3v-1.9h-3.3v-2.184H160.8v2.184h-3.892v-2.184H154.56v2.184h-3.136v1.9h3.136v1.484h-2.6v1.876h2.6v1.54h-3.892v2.044h6.944v1.344h-5.4v7H150.64v2.072h1.568V2.212h2.212V-2.044h8.652V-.28c0,.336-.084.448-.448.476-.364,0-1.6,0-2.8-.056a8.127,8.127,0,0,1,.616,2.044,12.02,12.02,0,0,0,3.948-.336c.868-.336,1.092-.924,1.092-2.1V-2.044h1.484Zm15.736-7.9c2.1-.756,4.76-1.736,7.252-2.688l-.42-1.9c-2.828,1.008-5.74,1.988-7.728,2.6Zm5.46-5.628a15.045,15.045,0,0,0-3.724-2.436l-1.288,1.512a18.217,18.217,0,0,1,3.668,2.6Zm-11.452,1.624c-2.744.98-5.488,1.96-7.392,2.576l.98,2.128c1.988-.784,4.424-1.848,6.8-2.828Zm-.784-1.54a14.1,14.1,0,0,0-3.612-2.492l-1.288,1.512A15.632,15.632,0,0,1,174.58-15.9ZM188.5-5.1H175.7v-2.24h12.8ZM175.7-.812v-2.3h12.8v2.3Zm5.04-11.06a3.906,3.906,0,0,0,.14-1.12v-9.156H170.044V-20.1H178.5v7.112c0,.28-.084.392-.448.392-.336,0-1.4,0-2.52-.028a8.132,8.132,0,0,1,.672,1.9,10.678,10.678,0,0,0,3.668-.308,1.588,1.588,0,0,0,.588-.42,18.278,18.278,0,0,1-.812,2.128H173.1V2.268h2.6V1.232h12.8V2.268h2.716V-9.324H182.2c.392-.672.784-1.4,1.176-2.128Zm12.628-10.276H182.5V-20.1h8.4v7.084c0,.308-.084.392-.448.42-.364,0-1.6,0-2.772-.056a8.035,8.035,0,0,1,.7,2.044,11.731,11.731,0,0,0,3.892-.336c.84-.364,1.092-.924,1.092-2.072Z" transform="translate(-2.1 23.492)" fill="#fff"/>
</svg>
