<svg xmlns="http://www.w3.org/2000/svg" width="69.856" height="14.624" viewBox="0 0 69.856 14.624">
  <path id="パス_57" data-name="パス 57" d="M1.408,0H7.84V-1.216H5.488V-11.744H4.368a7.065,7.065,0,0,1-2.432.848v.928h2.08v8.752H1.408ZM16.064-12.9C15.952-10.784,15.952-3.152,9.472.16a4.049,4.049,0,0,1,.96.912c4.048-2.192,5.7-6.048,6.4-9.248.768,3.2,2.528,7.3,6.656,9.248A3.587,3.587,0,0,1,24.368.1c-6.016-2.752-6.88-10.144-7.024-12.256.016-.272.016-.528.032-.736Zm10.08,2.368.144,1.392c1.728-.368,5.808-.752,7.52-.944a6.5,6.5,0,0,0-2.992,5.408C30.816-1.1,34.192.48,37.152.592l.464-1.328c-2.608-.1-5.52-1.088-5.52-4.208a5.631,5.631,0,0,1,3.664-5.072,13.4,13.4,0,0,1,3.136-.256v-1.28c-1.072.048-2.576.144-4.32.288-2.944.24-5.968.544-7.008.656C27.264-10.576,26.752-10.544,26.144-10.528ZM36.592-8.3l-.816.352A14.853,14.853,0,0,1,37.088-5.7L37.9-6.08A18.99,18.99,0,0,0,36.592-8.3Zm1.744-.672-.784.368A14.83,14.83,0,0,1,38.9-6.368l.832-.4A21.132,21.132,0,0,0,38.336-8.976Zm6.5,2.256H48.56v1.1H44.832ZM48.56-9.472H44.832v-1.072H48.56Zm0,1.9H44.832V-8.624H48.56Zm7.424,4.88v-.976h-6.56v-.992h6.112v-.96H49.7v-1.1h4.64v-.848H49.7V-8.624h4.592v-.848H49.7v-1.072h5.216v-.944H49.664c.3-.512.64-1.12.96-1.712L49.3-13.392a13.531,13.531,0,0,1-.832,1.9H45.376a19.425,19.425,0,0,0,1.008-1.68l-1.232-.24a14.082,14.082,0,0,1-3.776,4.7,3.56,3.56,0,0,1,.848.784,16.074,16.074,0,0,0,1.5-1.44v4.7h4.528v.992H41.792v.976h5.472A17.184,17.184,0,0,1,41.408.064a4.666,4.666,0,0,1,.784.976,18.72,18.72,0,0,0,6.064-3.264V1.2h1.168V-2.256A18.141,18.141,0,0,0,55.536.928,5.038,5.038,0,0,1,56.3-.048a17.074,17.074,0,0,1-5.84-2.64Zm9.472-2.448v-4.24h4.592v4.24Zm-5.808,0v-4.24h4.576v4.24Zm5.808-5.408v-2.848H64.224v2.848H58.48v7.568h1.168v-.992h4.576V1.216h1.232V-3.968h4.592v.912h1.216v-7.488Z" transform="translate(-1.408 13.408)" fill="#fff"/>
</svg>
