<svg xmlns="http://www.w3.org/2000/svg" width="79.636" height="18.76" viewBox="0 0 79.636 18.76">
  <path id="パス_99" data-name="パス 99" d="M14.072-4.34v3.26H6.118V-4.34ZM3.762,1.76H6.118V1.02h7.954v.74h2.457v-8.2H3.762ZM6-10.52A20.5,20.5,0,0,0,10-14.58a21.985,21.985,0,0,0,4.128,4.06Zm2.658-6.4A21.271,21.271,0,0,1,.46-9.8,9.72,9.72,0,0,1,1.97-7.86,28.082,28.082,0,0,0,5.091-9.82v1.4H15.119V-9.8A24.18,24.18,0,0,0,18.2-7.9a11.627,11.627,0,0,1,1.55-2.14,20.2,20.2,0,0,1-8.618-6.88ZM31.449-5.72a15.6,15.6,0,0,0,2.316-1.64A15.012,15.012,0,0,0,36.18-5.72ZM31.569-1V-3.72h4.208V-1ZM28.388-7.34c-.342-.46-1.852-2.24-2.4-2.82v-.48H27.7a17.092,17.092,0,0,1,1.45,1.3,13.7,13.7,0,0,0,1.49-1.54,18.928,18.928,0,0,0,1.51,1.96A15.494,15.494,0,0,1,27.7-6.4ZM35.4-12.82a12.119,12.119,0,0,1-1.712,2.44,12.421,12.421,0,0,1-1.732-2.24l.141-.2Zm1.51-2.1-.4.08H33.261q.362-.75.664-1.5l-2.275-.62a14.7,14.7,0,0,1-3.4,5.2v-1.08H25.992v-4.1H23.737v4.1H21.1v2.2h2.457a19.427,19.427,0,0,1-2.94,6.72,12.16,12.16,0,0,1,1.107,2.16,15.939,15.939,0,0,0,2.014-4.1V1.72h2.255V-7.5A21.8,21.8,0,0,1,27.1-5.56l.181-.26a9.54,9.54,0,0,1,1.027,1.58,11.088,11.088,0,0,0,1.027-.42v6.4h2.235v-.7h4.208v.64h2.316V-4.84l.362.14a9.287,9.287,0,0,1,1.45-1.98A13.39,13.39,0,0,1,35.355-8.9a14.792,14.792,0,0,0,3.061-5.32Zm13.249,2.2h3.282a27.451,27.451,0,0,1-2.175,1.82H50.154Zm4.39,8.74H47.617V-5.26h6.927ZM47.617-.82V-2.18h6.927V-.82ZM59.356-8.8v-2.1H54.685a29.321,29.321,0,0,0,3.967-4.4L56.6-16.34a24.387,24.387,0,0,1-2.074,2.54v-.98H50.154v-2.16H47.778v2.16H43.047v2.06h4.732v1.82H41.315v2.1h6.846a35.8,35.8,0,0,1-7.47,3.32,12.947,12.947,0,0,1,1.45,1.96c1.027-.38,2.074-.82,3.081-1.26V1.76h2.4v-.6h6.927v.52h2.517V-7.2H49.732c.826-.52,1.591-1.04,2.376-1.6ZM71.2-4.64V-6.56c.121.12.2.22.282.3A12.675,12.675,0,0,0,72.4-7.7a21.078,21.078,0,0,0,1.369,3.94A9.873,9.873,0,0,1,70.229-.74,18.768,18.768,0,0,0,68.558-1.8a8.05,8.05,0,0,0,1.067-2.84Zm-5.779,0H67.37a6.059,6.059,0,0,1-.765,1.82c-.584-.28-1.168-.52-1.772-.76Zm10.833-6.5a21.278,21.278,0,0,1-1.087,4.7,25.1,25.1,0,0,1-1.228-4.7Zm3.6,0v-2.2H74.5c.262-1.06.483-2.16.644-3.28l-2.416-.32c-.483,3.56-1.45,6.96-3.161,9A13.938,13.938,0,0,1,71.2-6.56H66.4l.483-.96-.866-.18H67.31v-2.42c.785.62,1.631,1.32,2.074,1.74l1.269-1.64c-.443-.3-1.873-1.14-2.839-1.68h3.3v-1.88H69.2c.483-.62,1.107-1.46,1.732-2.32l-2.014-.8a19.273,19.273,0,0,1-1.349,2.54l1.329.58H67.31v-3.36H65.115v3.36H63.424l1.289-.56A8.5,8.5,0,0,0,63.5-16.62l-1.732.72a10.619,10.619,0,0,1,1.047,2.32h-1.53v1.88H64.43a10.7,10.7,0,0,1-3.544,2.5,7.2,7.2,0,0,1,1.208,1.72,14.5,14.5,0,0,0,3.02-2.32v1.92l-.443-.1c-.2.44-.443.92-.685,1.42h-2.92v1.92h1.913c-.5.96-1.007,1.86-1.45,2.56l2.094.64.221-.38a11.647,11.647,0,0,1,1.128.54A10.635,10.635,0,0,1,61.148-.2a5.239,5.239,0,0,1,.946,1.96,12.4,12.4,0,0,0,4.953-1.9,19.079,19.079,0,0,1,2.094,1.5l.906-.92a9.014,9.014,0,0,1,.765,1.36,13.066,13.066,0,0,0,4.249-3.28A10.9,10.9,0,0,0,78.445,1.7,9.2,9.2,0,0,1,80.1-.36a9.425,9.425,0,0,1-3.564-3.32,22.392,22.392,0,0,0,2.195-7.46Z" transform="translate(-0.46 16.96)"/>
</svg>
