<svg xmlns="http://www.w3.org/2000/svg" width="88.888" height="41.472" viewBox="0 0 88.888 41.472">
  <path id="パス_102" data-name="パス 102" d="M4.428,0H28.621V-6.426H21.064V-40.014H15.138a25.2,25.2,0,0,1-9.351,3.4V-31.7h7.285V-6.426H4.428Zm43.6.756c8.209,0,13.591-7.128,13.591-20.9S56.239-40.716,48.029-40.716s-13.646,6.75-13.646,20.574C34.384-6.372,39.82.756,48.029.756Zm0-6.21c-3.479,0-6.089-3.456-6.089-14.688,0-11.178,2.61-14.418,6.089-14.418s6.035,3.24,6.035,14.418C54.064-8.91,51.509-5.454,48.029-5.454ZM66.351,0H93.316V-6.7h-8.7c-1.9,0-4.567.216-6.578.432,7.339-7.128,13.374-14.9,13.374-22.14,0-7.452-5.056-12.312-12.667-12.312-5.491,0-9.079,2.106-12.776,6.048l4.349,4.32c2.066-2.214,4.458-4.1,7.394-4.1,3.86,0,6.035,2.43,6.035,6.48,0,6.156-6.47,13.662-17.4,23.382Z" transform="translate(-4.428 40.716)"/>
</svg>
