<svg xmlns="http://www.w3.org/2000/svg" width="22.826" height="24.414" viewBox="0 0 22.826 24.414">
  <path id="パス_103" data-name="パス 103" d="M11.33-1.56V-6.63H20.2v5.07Zm4.607-15.21A20.391,20.391,0,0,1,12.3-12.012a36.856,36.856,0,0,0-4.162-3.432c.445-.442.864-.884,1.283-1.326ZM23.45-9.438H14.1a24.059,24.059,0,0,0,6.073-9.074L18.031-19.63l-.524.156H11.566c.471-.676.916-1.352,1.309-2.028l-3.508-.65a20.846,20.846,0,0,1-8.69,8.268,10.8,10.8,0,0,1,2.2,2.418,26.951,26.951,0,0,0,2.906-1.976,36.276,36.276,0,0,1,4,3.588,29.181,29.181,0,0,1-9.162,4.5A9.874,9.874,0,0,1,2.43-2.6,33.672,33.672,0,0,0,8.215-5.148V2.236H11.33V1.222H20.2v1.04H23.45Z" transform="translate(-0.624 22.152)"/>
</svg>
