<svg xmlns="http://www.w3.org/2000/svg" width="108.623" height="41.472" viewBox="0 0 108.623 41.472">
  <path id="パス_101" data-name="パス 101" d="M9.5-27.378c0-4.914,2.446-7.344,5.437-7.344,3.425,0,6.2,2.7,6.9,9.936-1.848,3.078-4.4,4.32-6.633,4.32C11.728-20.466,9.5-22.68,9.5-27.378ZM13.849.756c7.992,0,15.44-6.534,15.44-21.654,0-13.878-6.85-19.818-14.461-19.818-6.9,0-12.667,5.13-12.667,13.338C2.16-18.9,7-14.8,13.686-14.8a11.323,11.323,0,0,0,8.264-4.32c-.381,9.99-4.077,13.392-8.59,13.392A8.954,8.954,0,0,1,7.053-8.586L2.812-3.78A15.139,15.139,0,0,0,13.849.756Zm34.9-20.3c3.479,0,5.763,2.214,5.763,6.912,0,4.914-2.5,7.4-5.491,7.4-3.371,0-6.089-2.808-6.85-10.1C44.022-18.36,46.577-19.548,48.751-19.548Zm.435,20.3C56.037.756,61.8-4.428,61.8-12.636c0-8.532-4.784-12.528-11.526-12.528a11.609,11.609,0,0,0-8.264,4.32c.326-10.044,4.132-13.5,8.753-13.5a8.757,8.757,0,0,1,6.2,2.916L61.2-36.18a14.857,14.857,0,0,0-10.928-4.536c-8.1,0-15.549,6.372-15.549,21.276C34.725-5.346,41.521.756,49.186.756Zm23.649,0a4.989,4.989,0,0,0,5-5.184,4.957,4.957,0,0,0-5-5.184,4.946,4.946,0,0,0-4.947,5.184A4.978,4.978,0,0,0,72.836.756ZM96.7.756c7.448,0,14.081-5.13,14.081-14.04,0-8.694-5.654-12.69-12.4-12.69a10.625,10.625,0,0,0-4.839,1.134l.761-8.478h14.624v-6.7H87.406l-1.087,19.44L89.961-18.2C92.3-19.71,93.6-20.3,96-20.3c4.077,0,6.8,2.592,6.8,7.236,0,4.7-2.936,7.344-7.122,7.344-3.751,0-6.578-1.836-8.862-4.05L83.111-4.7A18.4,18.4,0,0,0,96.7.756Z" transform="translate(-2.16 40.716)"/>
</svg>
