<svg xmlns="http://www.w3.org/2000/svg" width="58.997" height="18.72" viewBox="0 0 58.997 18.72">
  <path id="パス_100" data-name="パス 100" d="M14.072-4.34v3.26H6.118V-4.34ZM3.762,1.76H6.118V1.02h7.954v.74h2.457v-8.2H3.762ZM6-10.52A20.5,20.5,0,0,0,10-14.58a21.985,21.985,0,0,0,4.128,4.06Zm2.658-6.4A21.271,21.271,0,0,1,.46-9.8,9.72,9.72,0,0,1,1.97-7.86,28.082,28.082,0,0,0,5.091-9.82v1.4H15.119V-9.8A24.18,24.18,0,0,0,18.2-7.9a11.627,11.627,0,0,1,1.55-2.14,20.2,20.2,0,0,1-8.618-6.88ZM31.449-5.72a15.6,15.6,0,0,0,2.316-1.64A15.012,15.012,0,0,0,36.18-5.72ZM31.569-1V-3.72h4.208V-1ZM28.388-7.34c-.342-.46-1.852-2.24-2.4-2.82v-.48H27.7a17.092,17.092,0,0,1,1.45,1.3,13.7,13.7,0,0,0,1.49-1.54,18.928,18.928,0,0,0,1.51,1.96A15.494,15.494,0,0,1,27.7-6.4ZM35.4-12.82a12.119,12.119,0,0,1-1.712,2.44,12.421,12.421,0,0,1-1.732-2.24l.141-.2Zm1.51-2.1-.4.08H33.261q.362-.75.664-1.5l-2.275-.62a14.7,14.7,0,0,1-3.4,5.2v-1.08H25.992v-4.1H23.737v4.1H21.1v2.2h2.457a19.427,19.427,0,0,1-2.94,6.72,12.16,12.16,0,0,1,1.107,2.16,15.939,15.939,0,0,0,2.014-4.1V1.72h2.255V-7.5A21.8,21.8,0,0,1,27.1-5.56l.181-.26a9.54,9.54,0,0,1,1.027,1.58,11.088,11.088,0,0,0,1.027-.42v6.4h2.235v-.7h4.208v.64h2.316V-4.84l.362.14a9.287,9.287,0,0,1,1.45-1.98A13.39,13.39,0,0,1,35.355-8.9a14.792,14.792,0,0,0,3.061-5.32Zm9.6,7.82-.362-1.48c-1.852.72-3.785,1.46-5.054,1.86L42.221-4.8c1.087-.48,2.416-1.1,3.685-1.72l.242,1.38c1.933-.14,4.39-.32,6.826-.54a7.715,7.715,0,0,1,.423,1l1.812-.8a8.237,8.237,0,0,0-.685-1.44,22.219,22.219,0,0,1,3.2,2.18l1.732-1.42a25.618,25.618,0,0,0-4.208-2.56l-1.228.98c-.322-.48-.685-.96-1.007-1.38l-1.691.7c.242.34.5.7.725,1.08l-2.074.1a48.768,48.768,0,0,0,3.745-3.9L51.846-12c-.5.72-1.148,1.52-1.832,2.34-.3-.24-.644-.48-1.007-.74.584-.68,1.248-1.5,1.873-2.3l-.443-.16h8.336v-2.12H51.5v-1.94H49.047v1.94H41.959v2.12h6.584c-.282.5-.624,1.06-.946,1.54l-.483-.28-.926,1.1a20.09,20.09,0,0,0-2.9-1.9L41.7-11.1a15.86,15.86,0,0,1,3.02,2.2l1.47-1.24a27.683,27.683,0,0,1,2.537,1.88c-.383.38-.765.76-1.148,1.12Zm9.3-2.02a29.68,29.68,0,0,0,3.1-2.46L56.779-12.6a18.243,18.243,0,0,1-2.718,2.54ZM51.5-5.3H49.047v1.28H41.315v2.2h7.732V1.74H51.5V-1.82H59.4v-2.2H51.5Z" transform="translate(-0.46 16.96)"/>
</svg>
