<svg xmlns="http://www.w3.org/2000/svg" width="23.637" height="20.02" viewBox="0 0 23.637 20.02">
  <path id="パス_104" data-name="パス 104" d="M6.012-7.644c2.8,0,4.738-2.288,4.738-6.162S8.813-19.89,6.012-19.89c-2.775,0-4.738,2.21-4.738,6.084S3.237-7.644,6.012-7.644Zm0-2.184C4.886-9.828,4-10.972,4-13.806s.89-3.926,2.016-3.926c1.152,0,2.042,1.092,2.042,3.926S7.164-9.828,6.012-9.828ZM20.173.13c2.775,0,4.738-2.288,4.738-6.136,0-3.874-1.963-6.11-4.738-6.11s-4.764,2.236-4.764,6.11C15.409-2.158,17.4.13,20.173.13Zm0-2.158c-1.152,0-2.042-1.17-2.042-3.978,0-2.86.89-3.926,2.042-3.926s2.016,1.066,2.016,3.926C22.189-3.2,21.325-2.028,20.173-2.028ZM6.666.13H8.944l10.6-20.02h-2.3Z" transform="translate(-1.274 19.89)"/>
</svg>
