<svg xmlns="http://www.w3.org/2000/svg" width="43.152" height="36.864" viewBox="0 0 43.152 36.864">
  <path id="パス_23" data-name="パス 23" d="M10.176-13.68c5.088,0,8.688-4.176,8.688-11.328,0-7.1-3.6-11.184-8.688-11.184s-8.64,4.08-8.64,11.184C1.536-17.856,5.088-13.68,10.176-13.68Zm0-3.984c-2.064,0-3.648-2.112-3.648-7.344s1.584-7.2,3.648-7.2,3.7,1.968,3.7,7.2S12.24-17.664,10.176-17.664ZM11.376.672h4.176l19.3-36.864H30.672ZM36,.672c5.04,0,8.688-4.224,8.688-11.328,0-7.152-3.648-11.232-8.688-11.232s-8.64,4.08-8.64,11.232C27.36-3.552,30.96.672,36,.672ZM36-3.36c-2.064,0-3.648-2.064-3.648-7.3S33.936-17.9,36-17.9s3.7,2.016,3.7,7.248S38.064-3.36,36-3.36Z" transform="translate(-1.536 36.192)"/>
</svg>
