<svg xmlns="http://www.w3.org/2000/svg" width="474.486" height="12.07" viewBox="0 0 474.486 12.07">
  <path id="パス_67" data-name="パス 67" d="M7.512.949l-.088.686a8.163,8.163,0,0,1-1.1.07,2.131,2.131,0,0,1-1.283-.3A1.9,1.9,0,0,1,4.488.5L4.26-.105A3.055,3.055,0,0,1,1.693-1.482,5.335,5.335,0,0,1,.838-4.617a4.972,4.972,0,0,1,1.154-3.5,3.124,3.124,0,0,1,2.4-1.043,3.129,3.129,0,0,1,2.66,1.342,5.227,5.227,0,0,1,.891,3.17,5.316,5.316,0,0,1-.926,3.258A3.089,3.089,0,0,1,5.039-.141L5.18.275a1.119,1.119,0,0,0,.439.65,1.675,1.675,0,0,0,.785.141A4.99,4.99,0,0,0,7.512.949ZM4.389-8.473A2.32,2.32,0,0,0,2.344-7.348a4.885,4.885,0,0,0-.668,2.713,4.614,4.614,0,0,0,.861,3,2.287,2.287,0,0,0,1.852.879A2.316,2.316,0,0,0,6.439-1.9,5,5,0,0,0,7.1-4.635a4.552,4.552,0,0,0-.855-2.977A2.3,2.3,0,0,0,4.389-8.473Zm11.93,4.166A6.845,6.845,0,0,1,15.9-2.619a3.553,3.553,0,0,1-.65,1.119,2.373,2.373,0,0,0,.838.639,2.477,2.477,0,0,0,.885.129l-.187.6h-.17a2.286,2.286,0,0,1-1.084-.229,2.828,2.828,0,0,1-.762-.645,3.485,3.485,0,0,1-2.437.9,2.735,2.735,0,0,1-2.057-.8,2.352,2.352,0,0,1-.668-1.7,2.523,2.523,0,0,1,.539-1.646,3.894,3.894,0,0,1,1.406-1,3.6,3.6,0,0,1-.674-1.91A1.765,1.765,0,0,1,11.5-8.543a1.885,1.885,0,0,1,1.289-.469,1.838,1.838,0,0,1,1.395.533,1.678,1.678,0,0,1,.439,1.2,1.8,1.8,0,0,1-.568,1.365,4.477,4.477,0,0,1-1.617.855,26.755,26.755,0,0,0,2.414,3.193,5.57,5.57,0,0,0,.779-2.607ZM11.83-4.834a2.908,2.908,0,0,0-1.225,1.008,2.288,2.288,0,0,0-.287,1.2,1.806,1.806,0,0,0,.668,1.447,2.116,2.116,0,0,0,1.418.5A2.832,2.832,0,0,0,14.4-1.395,25.32,25.32,0,0,1,11.83-4.834Zm.346-.662a3.441,3.441,0,0,0,1.441-.844,1.517,1.517,0,0,0,.311-.99,1.073,1.073,0,0,0-.352-.838,1.139,1.139,0,0,0-.785-.281,1.165,1.165,0,0,0-.914.4,1.247,1.247,0,0,0-.311.855,2.342,2.342,0,0,0,.152.844A5.426,5.426,0,0,0,12.176-5.5ZM21.82-9.012,24.709-.264h-.838l-.926-2.889h-3.3L18.7-.264h-.791L20.8-9.012Zm.943,5.221L22.037-6.07q-.393-1.189-.7-2.32h-.111q-.316,1.172-.68,2.309l-.721,2.291Zm13.857-6.287a8.187,8.187,0,0,0-2.168,2.824,6.824,6.824,0,0,0-.5,2.7,6.653,6.653,0,0,0,.668,3.047,8.747,8.747,0,0,0,2,2.473l-.252.287A8.6,8.6,0,0,1,33.9-1.635a6.629,6.629,0,0,1-.621-2.924,6.494,6.494,0,0,1,.826-3.3,9.146,9.146,0,0,1,2.268-2.508ZM38.918.094V.732a.073.073,0,0,1-.082.082h-.363a.073.073,0,0,1-.082-.082l.023-1.74v-.7l-.023-1.031q0-.07.082-.07l.973.012h.768l.973-.012q.082,0,.082.07l-.023.844v.727L41.268.516A.073.073,0,0,1,41.186.6h-.352a.073.073,0,0,1-.082-.082V.094Zm0-.457h1.834V-2.338H38.918Zm4.74-5.578v-1l-1.213.023A.073.073,0,0,1,42.363-7v-.27a.073.073,0,0,1,.082-.082l1.213.023v-.9l-1.512.023q-.088,0-.088-.082v-.281q0-.082.088-.082l1.512.023v-.205a4.449,4.449,0,0,0-.082-1.078,3.93,3.93,0,0,1,.545.059q.135.018.135.094a.352.352,0,0,1-.059.17,2.2,2.2,0,0,0-.07.768v.193h1.729v-.205a4.162,4.162,0,0,0-.088-1.078,4.343,4.343,0,0,1,.568.059q.117.018.117.094a.352.352,0,0,1-.059.17,2.5,2.5,0,0,0-.059.768v.193h.152l1.588-.023a.073.073,0,0,1,.082.082v.281a.073.073,0,0,1-.082.082l-1.588-.023h-.152v.9l1.441-.023a.073.073,0,0,1,.082.082V-7a.073.073,0,0,1-.082.082l-1.441-.023v1h.416l1.658-.023a.073.073,0,0,1,.082.082v.293a.073.073,0,0,1-.082.082l-1.658-.023H45.205v.961H46.1L47.584-4.6a.073.073,0,0,1,.082.082l-.023,1.383v1.271q.381-.006.691-.018l.211-.006a.073.073,0,0,1,.082.082v.281a.073.073,0,0,1-.082.082l-.117-.006q-.352-.012-.785-.018l.012,1.236a.877.877,0,0,1-.24.721,2.4,2.4,0,0,1-1.283.193.305.305,0,0,1-.176-.029A.275.275,0,0,1,45.9.516a1.088,1.088,0,0,0-.193-.369q.439.035.914.035a.6.6,0,0,0,.439-.117.537.537,0,0,0,.088-.352V-1.465H42.938v.844L42.961.721A.073.073,0,0,1,42.879.8H42.5q-.07,0-.07-.082l.023-1.307v-.879q-.34.006-.615.018l-.187.006a.073.073,0,0,1-.082-.082V-1.8a.073.073,0,0,1,.082-.082l.24.006q.252.012.563.018v-1.33l-.023-1.324q0-.082.07-.082l1.488.029h.744v-.961H43.441l-1.658.023A.073.073,0,0,1,41.7-5.59v-.293a.073.073,0,0,1,.082-.082l1.658.023Zm1.078,3.082h-1.8v1h1.8Zm.469,0v1H47.15v-1Zm-.469-1.318h-1.8v.949h1.8Zm.469,0v.949H47.15v-.949ZM44.127-8.232v.9h1.729v-.9Zm0,1.289v1h1.729v-1ZM39.469-4.406h.686l.914-.023q.082,0,.082.088v.357a.073.073,0,0,1-.082.082l-.914-.023h-.686l-.908.023q-.088,0-.088-.082v-.357a.078.078,0,0,1,.088-.088Zm0-1.617h.686l.914-.023a.073.073,0,0,1,.082.082V-5.6a.073.073,0,0,1-.082.082l-.914-.023h-.686l-.908.023q-.088,0-.088-.082v-.363q0-.082.088-.082Zm-.035-3.229h.891l1.008-.023a.073.073,0,0,1,.082.082v.363a.073.073,0,0,1-.082.082l-1.008-.023h-.891l-1.008.023a.073.073,0,0,1-.082-.082v-.363a.073.073,0,0,1,.082-.082Zm2.209,1.664v.375q0,.082-.07.082l-1.189-.023h-1.2l-1.189.023a.073.073,0,0,1-.082-.082v-.375q0-.07.082-.07l1.189.023h1.2l1.189-.023A.062.062,0,0,1,41.643-7.588Zm10.031-.451q.334-.715.492-1.137a3.535,3.535,0,0,0,.164-.709,5.39,5.39,0,0,1,.58.164A.125.125,0,0,1,53-9.6q0,.047-.094.141a.587.587,0,0,0-.158.229q-.205.521-.527,1.189h.65l1.055-.023a.073.073,0,0,1,.082.082l-.023.973v.926l.023.973a.073.073,0,0,1-.082.082l-1.043-.023H51.023v1.559h1.992l1.166-.023a.073.073,0,0,1,.082.082l-.023,1.1V-.914L54.264.152q0,.088-.082.088h-.387q-.082,0-.082-.088V-.4H51.023V.428q0,.088-.082.088h-.387q-.082,0-.082-.088L50.5-1.453V-6.082l-.023-1.9a.073.073,0,0,1,.082-.082ZM53.713-.891V-3H51.023V-.891ZM51.023-5.52h2.449V-7.559H51.023Zm6.7-3.135v1.828h.791l1.441-.023a.073.073,0,0,1,.082.082l-.023,1.488V-3.5l.012,1.6a.93.93,0,0,1-.182.668,1.313,1.313,0,0,1-.9.217q-.152,0-.176-.029a.46.46,0,0,1-.041-.176.75.75,0,0,0-.146-.357,4.292,4.292,0,0,0,.6.047.243.243,0,0,0,.229-.1.788.788,0,0,0,.059-.357V-6.334H57.721v5.35L57.744.744q0,.088-.082.088h-.41q-.082,0-.082-.088l.023-1.729v-5.35H55.57v3.492l.023,1.682a.073.073,0,0,1-.082.082H55.1a.073.073,0,0,1-.082-.082l.023-1.67V-5.35L55.02-6.768A.073.073,0,0,1,55.1-6.85l1.453.023h.639V-8.654h-.984l-1.588.023a.073.073,0,0,1-.082-.082V-9.1a.073.073,0,0,1,.082-.082l1.588.023H58.9l1.594-.023a.073.073,0,0,1,.082.082v.387a.073.073,0,0,1-.082.082L58.9-8.654Zm4.465,4.91a2.556,2.556,0,0,0,.879-.527q1.354-1.178,2.156-1.9a1.288,1.288,0,0,1,.838-.422,1.362,1.362,0,0,1,.832.369Q68.5-4.916,69.744-4a28.265,28.265,0,0,0,2.543,1.605.118.118,0,0,1,.064.1.111.111,0,0,1-.006.035,2.759,2.759,0,0,1-.24.48.111.111,0,0,1-.082.053.129.129,0,0,1-.07-.029q-1.09-.668-2.52-1.676Q68.385-4.189,66.7-5.613a1.157,1.157,0,0,0-.639-.346.93.93,0,0,0-.539.311q-1.705,1.57-2.244,2.074a2.678,2.678,0,0,0-.369.416q-.059.076-.111.076a.168.168,0,0,1-.105-.053A3.215,3.215,0,0,1,62.186-3.744ZM79.576-7.67a16.47,16.47,0,0,1-.645,3.123A9.244,9.244,0,0,1,78-2.391a2.09,2.09,0,0,1-1.711,1.2,1.394,1.394,0,0,1-1.178-.768,3.406,3.406,0,0,1-.457-1.834,4.1,4.1,0,0,1,.416-1.77,4.116,4.116,0,0,1,.99-1.354,4.99,4.99,0,0,1,3.475-1.26A4.279,4.279,0,0,1,82.764-7a3.562,3.562,0,0,1,.973,2.59,3.724,3.724,0,0,1-1.02,2.66,5.387,5.387,0,0,1-2.76,1.459.484.484,0,0,1-.064.006.2.2,0,0,1-.176-.129.851.851,0,0,0-.322-.322,4.975,4.975,0,0,0,2.889-1.5,3.418,3.418,0,0,0,.791-2.291A2.975,2.975,0,0,0,82-6.926a3.235,3.235,0,0,0-2.145-.744Zm-.639.035a4.041,4.041,0,0,0-2.473,1.107,3.907,3.907,0,0,0-.973,1.471,3.623,3.623,0,0,0-.24,1.271,2.581,2.581,0,0,0,.41,1.564.843.843,0,0,0,.668.393q.621,0,1.178-.949a10.327,10.327,0,0,0,.949-2.344A13.728,13.728,0,0,0,78.938-7.635Zm14.936.205H92.109a2.711,2.711,0,0,1-.85,1.523q-.111.1-.146.1t-.152-.1a1.528,1.528,0,0,0-.3-.182,2.431,2.431,0,0,0,1.014-2.1,7.558,7.558,0,0,0-.053-1.189,3,3,0,0,1,.627.217,12.7,12.7,0,0,0,2.432-.457,2.16,2.16,0,0,0,.545-.252,2.485,2.485,0,0,1,.422.363.2.2,0,0,1,.07.141q0,.082-.135.082a2.091,2.091,0,0,0-.428.064A23.2,23.2,0,0,1,92.18-8.7v.539a2.4,2.4,0,0,1-.012.275h2.689l1.406-.023a.073.073,0,0,1,.082.082v.34a.073.073,0,0,1-.082.082L94.857-7.43h-.48V-6.8l.023.814a.073.073,0,0,1-.082.082h-.387a.073.073,0,0,1-.082-.082l.023-.814Zm-6.48-.457H89.7l1.26-.023a.073.073,0,0,1,.082.082v.34a.073.073,0,0,1-.082.082L89.7-7.43h-.217v.65l.023.814q0,.082-.088.082h-.369a.073.073,0,0,1-.082-.082l.023-.814v-.65H87.357a3.7,3.7,0,0,1-.949,2.086q-.094.105-.135.105t-.141-.105a1.042,1.042,0,0,0-.322-.2,2.98,2.98,0,0,0,.932-1.412,4.928,4.928,0,0,0,.135-1.277,7.829,7.829,0,0,0-.059-1.131,3.106,3.106,0,0,1,.627.205,11.382,11.382,0,0,0,2.35-.434,1.826,1.826,0,0,0,.586-.264,2.079,2.079,0,0,1,.422.34.229.229,0,0,1,.082.152q0,.076-.146.1l-.2.023a1.443,1.443,0,0,0-.205.047,21.47,21.47,0,0,1-2.941.516Zm1.992,2.332h3.662l1.693-.023a.073.073,0,0,1,.082.082L94.8-4.271v1.992l.023,1.213a.073.073,0,0,1-.082.082l-1.693-.023H89.385L87.7-.984q-.094,0-.094-.082l.023-1.213V-4.271L87.609-5.5q0-.082.094-.082ZM88.16-4.2h6.111v-.908H88.16Zm0,.422v.932h6.111v-.932Zm0,1.354v.973h6.111v-.973ZM89.221-.85a3.894,3.894,0,0,1,.457.275.188.188,0,0,1,.082.129.115.115,0,0,1-.111.123.852.852,0,0,0-.322.129A10.052,10.052,0,0,1,86.484.879,1.12,1.12,0,0,1,86.35.9q-.064,0-.141-.164a1.342,1.342,0,0,0-.24-.322,8.79,8.79,0,0,0,2.865-.926A1.667,1.667,0,0,0,89.221-.85ZM96.346.387a1.183,1.183,0,0,0-.229.334Q96.041.9,95.971.9A.72.72,0,0,1,95.83.879a9.187,9.187,0,0,1-3.1-1.248q-.053-.041-.053-.076t.082-.117L92.9-.709q.082-.082.129-.082a.119.119,0,0,1,.064.023A7.994,7.994,0,0,0,96.346.387Zm5.414-1.875v.85q0,.088-.082.088H101.3q-.082,0-.082-.088l.023-1.893v-.826l-.023-1.166a.073.073,0,0,1,.082-.082l1.213.023h1.271l1.225-.023a.073.073,0,0,1,.082.082l-.023.973v.885l.023,1.828a.073.073,0,0,1-.082.082h-.387a.073.073,0,0,1-.082-.082v-.65Zm0-.469h2.783V-4.113H101.76Zm5.619-3.838h-2.232l-1.289.023a.073.073,0,0,1-.082-.082l.012-1.043v-1.43l-.012-1.037a.073.073,0,0,1,.082-.082l1.289.023h1.43l1.283-.023a.073.073,0,0,1,.082.082l-.023,1.734v5.59l.023,1.582a1.664,1.664,0,0,1-.076.586.709.709,0,0,1-.223.27,2.093,2.093,0,0,1-1.16.205h-.258a.29.29,0,0,1-.17-.029A.45.45,0,0,1,106,.422a1.323,1.323,0,0,0-.193-.41,6.917,6.917,0,0,0,.891.053.834.834,0,0,0,.58-.135.786.786,0,0,0,.105-.492Zm0-.445V-7.412h-3.064V-6.24Zm0-1.617V-8.965h-3.064v1.107ZM99.932-9.422h1.324l1.2-.023a.073.073,0,0,1,.082.082l-.023,1.1v1.313l.023,1.1a.073.073,0,0,1-.082.082l-1.2-.023H99.094v4.031L99.117.686a.073.073,0,0,1-.082.082h-.422a.073.073,0,0,1-.082-.082l.023-2.449V-6.9l-.023-2.467a.073.073,0,0,1,.082-.082Zm-.838,2.01V-6.24h2.895V-7.412Zm0-.445h2.895V-8.965H99.094Zm18.1,5.467q-.1-1.635-.1-3.551-.844.059-1.582.059-.586,0-1.166-.035A.085.085,0,0,1,114.252-6q-.035-.4-.035-.521.674.059,1.377.059t1.488-.059l.012-1.424a4.445,4.445,0,0,0-.105-1.02,3.7,3.7,0,0,1,.768.152.132.132,0,0,1,.094.123.405.405,0,0,1-.035.141,1.665,1.665,0,0,0-.105.627q-.029.885-.029,1.354a13.783,13.783,0,0,0,1.969-.322q.076,0,.088.059a1.851,1.851,0,0,1,.035.41q0,.1-.059.117a13.446,13.446,0,0,1-2.033.3q.023,2.256.123,3.791a8.01,8.01,0,0,1,2.1,1.23q.041.035.041.059a.228.228,0,0,1-.018.064,1.473,1.473,0,0,1-.252.4q-.035.035-.053.035a.113.113,0,0,1-.053-.023A7.17,7.17,0,0,0,117.8-1.6Q117.75.059,115.846.059A2.152,2.152,0,0,1,114.5-.3a1.085,1.085,0,0,1-.434-.908,1.185,1.185,0,0,1,.621-1.061,2.139,2.139,0,0,1,1.143-.3A5.428,5.428,0,0,1,117.193-2.391Zm0,.574a3.919,3.919,0,0,0-1.395-.252,1.456,1.456,0,0,0-.92.258.734.734,0,0,0-.293.609.623.623,0,0,0,.387.574,1.794,1.794,0,0,0,.838.17q1.383,0,1.383-1.131Zm-5.561-7.066a2.556,2.556,0,0,1,.744.264q.111.07.111.152a.2.2,0,0,1-.041.111,1.706,1.706,0,0,0-.24.574,26.775,26.775,0,0,0-.574,4.453,14.56,14.56,0,0,0,.135,2.268q.188-.48.861-2.051a1.358,1.358,0,0,0,.229.41.14.14,0,0,1,.047.1.276.276,0,0,1-.035.117,11.941,11.941,0,0,0-.744,1.928,2.536,2.536,0,0,0-.029.322.71.71,0,0,0,.018.17.4.4,0,0,1,.012.076.084.084,0,0,1-.047.082,1.488,1.488,0,0,1-.434.141.1.1,0,0,1-.029.006q-.053,0-.088-.088a9.756,9.756,0,0,1-.469-3.445,30.468,30.468,0,0,1,.527-4.488,5.107,5.107,0,0,0,.07-.785A1.869,1.869,0,0,0,111.633-8.883Zm16.758,3.029a10.917,10.917,0,0,1-.973,1.318q-.105.117-.146.117t-.117-.094a.912.912,0,0,0-.287-.217,8.706,8.706,0,0,0,1.969-3.094h-.182l-1.5.023q-.07,0-.07-.082v-.363a.062.062,0,0,1,.07-.07l1.5.023h.334q.111-.352.229-.814a2.618,2.618,0,0,0,.088-.627v-.082a2.989,2.989,0,0,1,.5.129q.158.047.158.146a.447.447,0,0,1-.105.193.789.789,0,0,0-.123.264q-.082.322-.24.791h1.418l1.488-.023q.082,0,.082.07v.363a.073.073,0,0,1-.082.082l-1.488-.023h-1.57a10.4,10.4,0,0,1-.568,1.295h1.752l1.166-.023a.073.073,0,0,1,.082.082l-.023,1.43v1.922l.012,1.377a.9.9,0,0,1-.24.721,1.655,1.655,0,0,1-.9.193.29.29,0,0,1-.17-.029.45.45,0,0,1-.059-.152.908.908,0,0,0-.193-.357q.369.035.609.035a.42.42,0,0,0,.352-.123.569.569,0,0,0,.082-.346V-2.865h-2.35v.721L128.918-.8q0,.088-.082.088h-.387q-.082,0-.082-.088l.023-1.342Zm2.854,2.543V-4.5h-2.35v1.189Zm0-1.635V-6.07h-2.35v1.125Zm-6.492-4.02h-1.775V-1.8L123,.756a.073.073,0,0,1-.082.082h-.4a.073.073,0,0,1-.082-.082l.023-2.473V-6.9l-.023-2.5a.073.073,0,0,1,.082-.082l.832.023h1.271a.829.829,0,0,0,.3-.035.233.233,0,0,1,.105-.023q.088,0,.264.182t.182.264a.224.224,0,0,1-.082.141,1.054,1.054,0,0,0-.229.363q-.6,1.365-1.2,2.432A4.073,4.073,0,0,1,125.2-3.709a1.564,1.564,0,0,1-.416,1.207,1.794,1.794,0,0,1-1.131.375l-.1.006q-.088,0-.129-.2a.711.711,0,0,0-.182-.334q.105.006.24.006a1.439,1.439,0,0,0,.943-.234,1.031,1.031,0,0,0,.27-.8,2.244,2.244,0,0,0-.334-1.119,9.424,9.424,0,0,0-.937-1.254A29.427,29.427,0,0,0,124.752-8.965Zm1.178.387a10.879,10.879,0,0,1,1.055,1.4.119.119,0,0,1,.023.064q0,.047-.117.117l-.158.094a.349.349,0,0,1-.146.07q-.029,0-.059-.041a7.471,7.471,0,0,0-1.02-1.43.113.113,0,0,1-.023-.053q0-.029.123-.105l.164-.105a.226.226,0,0,1,.105-.047Q125.9-8.613,125.93-8.578Zm6.85,8.408a.936.936,0,0,0-.176.41q-.029.158-.064.182a.387.387,0,0,1-.164.035q-1.6.082-2.643.082a8.469,8.469,0,0,1-1.453-.088A3.11,3.11,0,0,1,127.5.17a2.389,2.389,0,0,1-1.09-1.283A12.712,12.712,0,0,1,125.092.111a.872.872,0,0,0-.264.252q-.059.105-.123.105a.174.174,0,0,1-.129-.082q-.076-.1-.316-.469a5.982,5.982,0,0,0,.756-.457,8.362,8.362,0,0,0,1.166-1.066V-4.67h-.4l-.451.023q-.088,0-.088-.082v-.393q0-.076.088-.076l.492.023h.322l.5-.023q.082,0,.082.07L126.709-4v2.438a2.205,2.205,0,0,0,1.02,1.26,4.9,4.9,0,0,0,1.957.3Q131.039,0,132.779-.17Zm9.516-3.322h-2.83l-1.646.023a.073.073,0,0,1-.082-.082v-.375q0-.07.082-.07l1.646.012h2.83v-.082a6.965,6.965,0,0,0-.082-1.283,3.647,3.647,0,0,1,.609.07q.146.018.146.082a.556.556,0,0,1-.076.205,3.77,3.77,0,0,0-.059.9v.105L144.346-4q.082,0,.082.07v.375a.073.073,0,0,1-.082.082l-1.512-.023v1.787l.012,1.547a.844.844,0,0,1-.311.744A2.277,2.277,0,0,1,141.4.768h-.2a.321.321,0,0,1-.182-.029.48.48,0,0,1-.07-.164,1.255,1.255,0,0,0-.205-.416,6.983,6.983,0,0,0,.838.047q.123,0,.275-.006.434,0,.434-.463Zm-7.271,2.109v1.02q0,.07-.082.07h-.387q-.082,0-.082-.07l.023-3.691V-6.346l-.023-2.789a.073.073,0,0,1,.082-.082l.938.023h.768l.938-.023a.073.073,0,0,1,.082.082l-.023,2.426v2.426l.023,3.521q0,.088-.082.088h-.375q-.082,0-.082-.088v-.621Zm0-4.23h1.717V-8.7h-1.717Zm0,.48v3.27h1.717v-3.27Zm5.584-.937V-7.8h-.8l-1.547.023q-.1,0-.1-.082v-.363q0-.082.1-.082l1.547.023h.8v-.059a10.194,10.194,0,0,0-.082-1.547q.223.006.621.059.117.018.117.094a1.254,1.254,0,0,1-.047.205,5.257,5.257,0,0,0-.07,1.166v.082h1.178l1.547-.023a.073.073,0,0,1,.082.082v.363a.073.073,0,0,1-.082.082L142.324-7.8h-1.178V-6.07h1.682l1.664-.023q.088,0,.088.082v.363q0,.082-.088.082l-1.664-.023h-3.422l-1.652.023q-.088,0-.088-.082v-.363q0-.082.088-.082l1.652.023Zm-1.359,3.381a6.139,6.139,0,0,1,1.225,1.477.113.113,0,0,1,.018.059q0,.041-.076.1l-.205.141a.453.453,0,0,1-.135.076q-.029,0-.059-.053a6.467,6.467,0,0,0-1.172-1.5q-.041-.029-.041-.053t.111-.111l.164-.123a.263.263,0,0,1,.105-.047A.117.117,0,0,1,139.248-2.689Zm9.539-1.248q-.48.006-.879.018l-.264.006A.073.073,0,0,1,147.563-4v-.4a.073.073,0,0,1,.082-.082l1.658.023h4.125a1.048,1.048,0,0,0,.27-.023l.07-.023a.192.192,0,0,1,.047-.012q.111,0,.3.205.182.182.182.264a.151.151,0,0,1-.094.129.875.875,0,0,0-.3.275,8.779,8.779,0,0,1-2.145,2.256,15.518,15.518,0,0,0,4.787,1.57,1.424,1.424,0,0,0-.275.387q-.088.17-.152.17a.7.7,0,0,1-.135-.029,15.216,15.216,0,0,1-4.717-1.758A14.858,14.858,0,0,1,146.59.645a.621.621,0,0,1-.129.029q-.059,0-.135-.17a1.062,1.062,0,0,0-.264-.363,13.91,13.91,0,0,0,4.717-1.535A7.509,7.509,0,0,1,148.787-3.937Zm.574,0a6.532,6.532,0,0,0,1.9,2.232,7.942,7.942,0,0,0,2.186-2.232Zm3.6-2.373a9.334,9.334,0,0,0,.955-1.705,1.969,1.969,0,0,0,.146-.516,4.794,4.794,0,0,1,.5.205q.117.059.117.117t-.117.182a1.448,1.448,0,0,0-.217.322,11.377,11.377,0,0,1-.814,1.395h.85l1.67-.023a.073.073,0,0,1,.082.082l-.023.527v.469l.023,1.166a.073.073,0,0,1-.082.082h-.41a.073.073,0,0,1-.082-.082V-5.818H146.83V-4.09a.073.073,0,0,1-.082.082h-.4a.073.073,0,0,1-.082-.082l.023-1.166v-.4l-.023-.592a.073.073,0,0,1,.082-.082l1.67.023Zm1.664-3.516a3.453,3.453,0,0,1,.5.357.226.226,0,0,1,.082.146q0,.105-.146.105a2.261,2.261,0,0,0-.428.047q-1.635.328-3.422.527-2.227.211-3.914.287l-.07.006q-.1,0-.17-.193a1.064,1.064,0,0,0-.217-.352q2.074-.029,4.359-.264a19.975,19.975,0,0,0,2.566-.393A6.286,6.286,0,0,0,154.629-9.826Zm-6.346,1.775a.266.266,0,0,1,.1-.029q.035,0,.07.053a6.519,6.519,0,0,1,.645,1.236.186.186,0,0,1,.012.053q0,.035-.117.088l-.205.088a.513.513,0,0,1-.135.035q-.053,0-.082-.082a4.5,4.5,0,0,0-.562-1.2.129.129,0,0,1-.029-.07q0-.047.1-.088Zm2.613-.158a.452.452,0,0,1,.1-.023q.041,0,.07.059a6.22,6.22,0,0,1,.545,1.359.172.172,0,0,1,.006.041q0,.041-.141.088l-.193.064a.6.6,0,0,1-.135.029q-.047,0-.07-.082a5.681,5.681,0,0,0-.492-1.318.191.191,0,0,1-.018-.053q0-.035.141-.094Zm14.5,1.535q-.035-1.559-.059-1.893a2.2,2.2,0,0,0-.152-.768,2.986,2.986,0,0,1,.826.094q.105.035.105.123a.312.312,0,0,1-.035.141,1.2,1.2,0,0,0-.094.48q0,.346.023,1.764a10.339,10.339,0,0,0,1.775-.322.251.251,0,0,1,.064-.012q.059,0,.07.07a2.238,2.238,0,0,1,.047.422q0,.117-.082.129-.9.182-1.863.287l.023,1.717a10.2,10.2,0,0,1-.1,1.729,4.841,4.841,0,0,1-.381,1.236A4.193,4.193,0,0,1,163.881.352a.342.342,0,0,1-.152.07.215.215,0,0,1-.135-.07,1.073,1.073,0,0,0-.416-.234,4.6,4.6,0,0,0,1.254-.937,3.413,3.413,0,0,0,.65-1.1,6.772,6.772,0,0,0,.352-2.432v-.34l-.023-1.4q-.844.076-1.74.076l-.48.006q-.287,0-.5-.018-.152-.012-.17-.129a3.235,3.235,0,0,1-.035-.48q.58.053,1.307.053Q164.461-6.586,165.393-6.674Zm-5.66-2.473a3.4,3.4,0,0,1,.709.281q.129.082.129.164a.669.669,0,0,1-.07.182,2.507,2.507,0,0,0-.193.633,24.027,24.027,0,0,0-.445,4.1,9.584,9.584,0,0,0,.316,2.5q.375-.926.885-2.092a1.948,1.948,0,0,0,.24.445.2.2,0,0,1,.047.111,1.08,1.08,0,0,1-.082.229q-.422.938-.721,1.811a2.324,2.324,0,0,0-.059.275l.023.217a.084.084,0,0,1-.047.082,2.23,2.23,0,0,1-.352.105.172.172,0,0,1-.041.006.118.118,0,0,1-.111-.088,6.767,6.767,0,0,1-.51-1.687,9.577,9.577,0,0,1-.176-1.746,22.484,22.484,0,0,1,.311-3.586,11.913,11.913,0,0,0,.152-1.582Q159.738-8.936,159.732-9.146Zm15.5,2.8-1.664.023q-.088,0-.088-.082v-.387q0-.082.088-.082l1.664.023h2.836V-8.432A8.548,8.548,0,0,0,178-9.814a5.038,5.038,0,0,1,.627.07q.146.023.146.1a1.69,1.69,0,0,1-.088.217,4.458,4.458,0,0,0-.059.984V-6.85h.082l1.67-.023a.073.073,0,0,1,.082.082V-6.4a.073.073,0,0,1-.082.082l-1.67-.023h-.082v4.295l.012,1.717a.918.918,0,0,1-.3.768A2.75,2.75,0,0,1,177,.615h-.334a.321.321,0,0,1-.182-.029.57.57,0,0,1-.059-.164,1.12,1.12,0,0,0-.205-.434,12.943,12.943,0,0,0,1.33.059.569.569,0,0,0,.416-.117.538.538,0,0,0,.105-.375v-5.9Zm-2.443-3.492a3.2,3.2,0,0,1,.586.24q.111.053.111.117t-.1.158a1.44,1.44,0,0,0-.252.439q-.439,1.072-.867,1.934v5.795L172.3.721q0,.082-.076.082h-.439A.073.073,0,0,1,171.7.721l.023-1.875V-4.318q0-1,.012-1.635a12.4,12.4,0,0,1-1.359,1.934q-.088.1-.129.1t-.111-.088a1.159,1.159,0,0,0-.3-.275,13.138,13.138,0,0,0,2.76-4.764A2.962,2.962,0,0,0,172.793-9.838Zm1.559,5.121.2-.129a.2.2,0,0,1,.076-.041.1.1,0,0,1,.059.035,10.846,10.846,0,0,1,1.523,2.127.105.105,0,0,1,.018.053q0,.035-.1.117l-.205.129a.466.466,0,0,1-.152.088q-.029,0-.064-.059a9.17,9.17,0,0,0-1.441-2.15.1.1,0,0,1-.029-.053Q174.234-4.629,174.352-4.717Zm15.041-1.957q-.035-1.559-.059-1.893a2.2,2.2,0,0,0-.152-.768,2.986,2.986,0,0,1,.826.094q.105.035.105.123a.312.312,0,0,1-.035.141,1.2,1.2,0,0,0-.094.48q0,.346.023,1.764a10.339,10.339,0,0,0,1.775-.322.251.251,0,0,1,.064-.012q.059,0,.07.07a2.238,2.238,0,0,1,.047.422q0,.117-.082.129-.9.182-1.863.287l.023,1.717a10.2,10.2,0,0,1-.1,1.729,4.841,4.841,0,0,1-.381,1.236A4.193,4.193,0,0,1,187.881.352a.342.342,0,0,1-.152.07.215.215,0,0,1-.135-.07,1.073,1.073,0,0,0-.416-.234,4.6,4.6,0,0,0,1.254-.937,3.413,3.413,0,0,0,.65-1.1,6.772,6.772,0,0,0,.352-2.432v-.34l-.023-1.4q-.844.076-1.74.076l-.48.006q-.287,0-.5-.018-.152-.012-.17-.129a3.235,3.235,0,0,1-.035-.48q.58.053,1.307.053Q188.461-6.586,189.393-6.674Zm-5.66-2.473a3.4,3.4,0,0,1,.709.281q.129.082.129.164a.669.669,0,0,1-.07.182,2.507,2.507,0,0,0-.193.633,24.027,24.027,0,0,0-.445,4.1,9.584,9.584,0,0,0,.316,2.5q.375-.926.885-2.092a1.948,1.948,0,0,0,.24.445.2.2,0,0,1,.047.111,1.08,1.08,0,0,1-.082.229q-.422.938-.721,1.811a2.324,2.324,0,0,0-.059.275l.023.217a.084.084,0,0,1-.047.082,2.23,2.23,0,0,1-.352.105.172.172,0,0,1-.041.006.118.118,0,0,1-.111-.088,6.767,6.767,0,0,1-.51-1.687,9.577,9.577,0,0,1-.176-1.746,22.484,22.484,0,0,1,.311-3.586,11.913,11.913,0,0,0,.152-1.582Q183.738-8.936,183.732-9.146Zm10.74,1.969h.117a9.441,9.441,0,0,0,1.348-.123q3.727-.58,7.389-1.031h.047a.127.127,0,0,1,.135.088,1.622,1.622,0,0,1,.059.457q0,.105-.135.117a5.208,5.208,0,0,0-1.857.4,6.229,6.229,0,0,0-2.268,1.623,3.448,3.448,0,0,0-.8,2.156,2.327,2.327,0,0,0,1.33,2.209,6.381,6.381,0,0,0,2.232.574q.17.012.17.094a2.285,2.285,0,0,1-.047.434q-.029.146-.135.146h-.047a5.751,5.751,0,0,1-2.959-.973,2.838,2.838,0,0,1-1.166-2.414,3.828,3.828,0,0,1,.932-2.49A7.071,7.071,0,0,1,201.047-7.5l-.012-.035q-3.193.475-5.221.908a2.582,2.582,0,0,0-.668.193.521.521,0,0,1-.217.082.163.163,0,0,1-.158-.094A3.94,3.94,0,0,1,194.473-7.178Zm12.516-.932a3.606,3.606,0,0,1,.82.2q.082.035.082.1a.578.578,0,0,1-.035.176,3.147,3.147,0,0,0-.123,1.072,22.054,22.054,0,0,0,.158,2.719,5.663,5.663,0,0,0,.58,2.033q.363.656.762.656t.8-.656a5.377,5.377,0,0,0,.539-1.307,1.461,1.461,0,0,0,.34.5.215.215,0,0,1,.076.146.2.2,0,0,1-.018.076,4.064,4.064,0,0,1-.738,1.354,1.343,1.343,0,0,1-1,.545q-.8,0-1.348-1.107a6.931,6.931,0,0,1-.621-2.227,23.1,23.1,0,0,1-.182-3.135A4.908,4.908,0,0,0,206.988-8.109Zm6.105,1.4a2.972,2.972,0,0,1,.41-.264A.266.266,0,0,1,213.592-7a.126.126,0,0,1,.07.023,6.8,6.8,0,0,1,2.326,4.16v.023a.109.109,0,0,1-.076.1,2.188,2.188,0,0,1-.451.205.172.172,0,0,1-.041.006q-.064,0-.082-.076A6.753,6.753,0,0,0,213.094-6.709Zm9.967,4.465q-.064-.809-.082-2.109-.662.029-1.236.029-.844,0-1.564-.07a.12.12,0,0,1-.117-.117q-.023-.24-.023-.469a15.41,15.41,0,0,0,1.863.1q.533,0,1.066-.029-.018-.586-.018-1.939-.709.035-1.359.035-.984,0-1.893-.082a.107.107,0,0,1-.082-.1q-.035-.434-.035-.492a19,19,0,0,0,2.156.117q.586,0,1.213-.035,0-.826-.012-1.283a2.236,2.236,0,0,0-.117-.768,4.411,4.411,0,0,1,.8.146q.129.047.129.152a.148.148,0,0,1-.029.088,1.02,1.02,0,0,0-.146.539q-.035.645-.035,1.1a19.036,19.036,0,0,0,2.982-.393l.047-.006q.053,0,.064.064a2.7,2.7,0,0,1,.035.434.075.075,0,0,1-.07.082,26.512,26.512,0,0,1-3.059.357q0,1.336.012,1.945a17.834,17.834,0,0,0,2.725-.369.16.16,0,0,1,.035-.006.064.064,0,0,1,.07.053v.434a.1.1,0,0,1-.094.105,20.028,20.028,0,0,1-2.725.334q0,1.049.094,2.3a10.131,10.131,0,0,1,3.229,1.559.148.148,0,0,1,.053.1.184.184,0,0,1-.018.07,2.5,2.5,0,0,1-.217.369.111.111,0,0,1-.082.053.138.138,0,0,1-.059-.018,9.229,9.229,0,0,0-2.883-1.547q.006.07.006.1a1.6,1.6,0,0,1-.58,1.406,2.55,2.55,0,0,1-1.488.352,2.6,2.6,0,0,1-1.594-.4,1.079,1.079,0,0,1-.434-.9A1.172,1.172,0,0,1,220.225-2a2.925,2.925,0,0,1,1.529-.352A7.47,7.47,0,0,1,223.061-2.244Zm0,.574a6.575,6.575,0,0,0-1.336-.164,2.346,2.346,0,0,0-1.242.27.658.658,0,0,0-.352.568q0,.8,1.406.8a1.714,1.714,0,0,0,1.277-.369,1.26,1.26,0,0,0,.258-.873A2.241,2.241,0,0,0,223.061-1.67Zm12.463-5.748q-.012-.41-.012-1.143a3.49,3.49,0,0,0-.129-.779,3.863,3.863,0,0,1,.8.117q.17.047.17.158a.38.38,0,0,1-.088.193.7.7,0,0,0-.094.311q-.023.627-.023,1.119,1.67-.064,3.9-.064a.093.093,0,0,1,.105.105v.387q0,.111-.135.111-.832-.035-1.664-.035-1.008,0-2.209.047,0,1.617.012,2.461a6.115,6.115,0,0,1,.141,1.283A3.876,3.876,0,0,1,233.941.516a.579.579,0,0,1-.217.07A.248.248,0,0,1,233.566.5a1.345,1.345,0,0,0-.4-.27,3.594,3.594,0,0,0,2.566-3.152,1.448,1.448,0,0,1-1.371.744,1.479,1.479,0,0,1-1.125-.451,1.654,1.654,0,0,1-.422-1.2,1.5,1.5,0,0,1,.557-1.2,1.538,1.538,0,0,1,1.02-.381,1.471,1.471,0,0,1,1.172.457q-.006-.316-.012-1.031-.006-.574-.012-.879-2.461.117-4.523.357a2.1,2.1,0,0,0-.346.082.738.738,0,0,1-.17.041.116.116,0,0,1-.117-.094,4.072,4.072,0,0,1-.158-.639q.141.006.27.006.475,0,1.254-.064Q233.93-7.336,235.523-7.418Zm-1.1,2.508a1.028,1.028,0,0,0-.8.334,1.086,1.086,0,0,0-.27.756,1.1,1.1,0,0,0,.34.855,1.015,1.015,0,0,0,.7.252,1.16,1.16,0,0,0,.926-.41,1.111,1.111,0,0,0,.275-.732.961.961,0,0,0-.375-.791A1.226,1.226,0,0,0,234.428-4.91Zm7.611,2.666a1.588,1.588,0,0,1,1.219.545,1.567,1.567,0,0,1,.428,1.09,1.551,1.551,0,0,1-.551,1.2,1.588,1.588,0,0,1-1.1.428,1.582,1.582,0,0,1-1.213-.545A1.56,1.56,0,0,1,240.4-.609a1.557,1.557,0,0,1,.551-1.207A1.581,1.581,0,0,1,242.039-2.244Zm0,.527a1.075,1.075,0,0,0-.82.369,1.045,1.045,0,0,0-.293.732,1.08,1.08,0,0,0,.375.832,1.078,1.078,0,0,0,.738.287,1.076,1.076,0,0,0,.832-.369,1.093,1.093,0,0,0,.287-.75,1.057,1.057,0,0,0-.369-.814A1.093,1.093,0,0,0,242.039-1.717ZM256.775-4.57h-.68l-1.623.023a.073.073,0,0,1-.082-.082v-.4a.073.073,0,0,1,.082-.082l1.623.023h2.977l1.629-.023a.083.083,0,0,1,.094.094q-.012.205-.023.627t-.023.668a21.647,21.647,0,0,1-.287,2.906A1.378,1.378,0,0,1,259.02.516q-.668,0-1.02-.035-.152-.018-.176-.047a.566.566,0,0,1-.053-.182,1.046,1.046,0,0,0-.187-.434,8.064,8.064,0,0,0,1.354.123.876.876,0,0,0,.691-.258,1.464,1.464,0,0,0,.281-.691,23.406,23.406,0,0,0,.275-3.562h-2.842A5.883,5.883,0,0,1,253.729.686a.6.6,0,0,1-.141.053q-.053,0-.146-.152A.925.925,0,0,0,253.131.3,5.306,5.306,0,0,0,256.775-4.57Zm-4.594-.111a9.764,9.764,0,0,0,2.484-2.133,8.963,8.963,0,0,0,1.354-2.139,2.3,2.3,0,0,0,.182-.656,2.482,2.482,0,0,1,.6.211q.146.064.146.158,0,.041-.094.123a.74.74,0,0,0-.193.234,12.479,12.479,0,0,1-1.764,2.678,12.254,12.254,0,0,1-2.074,1.834.348.348,0,0,1-.158.082q-.053,0-.146-.117A.773.773,0,0,0,252.182-4.682Zm11.162-.141a1.162,1.162,0,0,0-.328.334q-.082.135-.123.135a.41.41,0,0,1-.141-.076,11.944,11.944,0,0,1-4.16-4.916.177.177,0,0,1-.018-.059q0-.023.123-.088l.229-.105a.383.383,0,0,1,.123-.047q.023,0,.059.07A10.191,10.191,0,0,0,263.344-4.822Zm4.664-1.529q.275-.914.451-1.687a3.979,3.979,0,0,0,.105-.9q0-.152-.006-.281a3.811,3.811,0,0,1,.814.3.155.155,0,0,1,.088.135.172.172,0,0,1-.064.129.855.855,0,0,0-.217.387q-.27.99-.539,1.846a8.581,8.581,0,0,1,1.225-.105,1.382,1.382,0,0,1,1.189.463,2.3,2.3,0,0,1,.322,1.371,9.116,9.116,0,0,1-.65,3.85,1.358,1.358,0,0,1-1.248.914,3.519,3.519,0,0,1-1.242-.217.146.146,0,0,1-.111-.152,1.649,1.649,0,0,0-.117-.58,3.446,3.446,0,0,0,1.365.328.9.9,0,0,0,.809-.609,8.623,8.623,0,0,0,.574-3.521,1.854,1.854,0,0,0-.217-1.066.792.792,0,0,0-.674-.264,10.323,10.323,0,0,0-1.377.129A34.8,34.8,0,0,1,266.039-.17a.1.1,0,0,1-.094.07.1.1,0,0,1-.059-.018q-.023-.018-.205-.141-.129-.088-.182-.129a.068.068,0,0,1-.041-.059.189.189,0,0,1,.029-.082,29.526,29.526,0,0,0,2.35-5.256q-1.107.158-1.57.24a2.481,2.481,0,0,0-.662.188.4.4,0,0,1-.158.047.15.15,0,0,1-.141-.094,3.589,3.589,0,0,1-.229-.674q.141.012.287.012a8.171,8.171,0,0,0,.926-.059Q266.854-6.182,268.008-6.352Zm4.307-.469a2.487,2.487,0,0,1,.422-.275.144.144,0,0,1,.053-.012.182.182,0,0,1,.111.047,6.409,6.409,0,0,1,1.9,2.906.493.493,0,0,1,.018.094.129.129,0,0,1-.041.094,1.824,1.824,0,0,1-.375.229.2.2,0,0,1-.094.029q-.076,0-.1-.1A6.454,6.454,0,0,0,272.314-6.82Zm7.518-2.273a2.009,2.009,0,0,1,.311-.387.131.131,0,0,1,.088-.047.251.251,0,0,1,.064.012,8.359,8.359,0,0,1,2.127,1.342.11.11,0,0,1,.047.076.148.148,0,0,1-.023.07,3.9,3.9,0,0,1-.311.369.1.1,0,0,1-.07.035.131.131,0,0,1-.088-.047A7.313,7.313,0,0,0,279.832-9.094Zm-.984,2.18a2.129,2.129,0,0,1,.662.316.182.182,0,0,1,.105.152.182.182,0,0,1-.047.111,1.1,1.1,0,0,0-.193.551A19.138,19.138,0,0,0,279-2.795a6.524,6.524,0,0,1,2.232-1.8,4.582,4.582,0,0,1,2.027-.527,2.614,2.614,0,0,1,1.934.691,2.066,2.066,0,0,1,.586,1.518A2.767,2.767,0,0,1,283.969-.4a8.456,8.456,0,0,1-2.83.762.4.4,0,0,1-.064.006.2.2,0,0,1-.187-.1,1.561,1.561,0,0,0-.434-.445,8.592,8.592,0,0,0,3.188-.756,2.281,2.281,0,0,0,1.465-2.027,1.446,1.446,0,0,0-.521-1.2,2.187,2.187,0,0,0-1.395-.393,4.03,4.03,0,0,0-1.951.574,7.046,7.046,0,0,0-1.646,1.295,3.989,3.989,0,0,0-.557.732q-.035.064-.082.064a.288.288,0,0,1-.07-.018,2.777,2.777,0,0,1-.387-.182.142.142,0,0,1-.07-.141,33.443,33.443,0,0,1,.346-3.721,6.088,6.088,0,0,0,.076-.838Zm16.307,4.646q-.123-1.359-.146-2.391a4.266,4.266,0,0,0-.082-.814,3.953,3.953,0,0,1,.7.123.131.131,0,0,1,.105.129.813.813,0,0,1-.059.205,1.762,1.762,0,0,0-.07.586q0,.785.164,2.309a10.551,10.551,0,0,1,2.256,1.16q.07.053.07.088a.234.234,0,0,1-.035.094,2.29,2.29,0,0,1-.187.357.09.09,0,0,1-.082.053.186.186,0,0,1-.1-.041,6.762,6.762,0,0,0-1.9-1.125,1.74,1.74,0,0,1-.527,1.453,2.455,2.455,0,0,1-1.588.428,2.119,2.119,0,0,1-1.248-.357,1.142,1.142,0,0,1-.516-.973,1.273,1.273,0,0,1,.65-1.131,2.5,2.5,0,0,1,1.342-.334A4.347,4.347,0,0,1,295.154-2.268Zm.012.563a3.533,3.533,0,0,0-1.225-.217,1.915,1.915,0,0,0-1.178.3.755.755,0,0,0-.3.615q0,.814,1.295.814,1.418,0,1.418-1.189A2.443,2.443,0,0,0,295.166-1.705Zm-2.76-5.543a13.8,13.8,0,0,0,1.752-.346.329.329,0,0,1,.076-.012q.07,0,.082.082a2.478,2.478,0,0,1,.047.375.132.132,0,0,1-.105.141q-1.037.229-2.021.346a24.43,24.43,0,0,1-2.42,5.068.1.1,0,0,1-.088.053.161.161,0,0,1-.082-.029,2.535,2.535,0,0,1-.357-.275.129.129,0,0,1-.047-.082.2.2,0,0,1,.047-.1,20.869,20.869,0,0,0,2.3-4.57,14.708,14.708,0,0,1-1.623.094q-.357,0-.633-.023a.125.125,0,0,1-.135-.123,4.541,4.541,0,0,1-.059-.463q.51.035.891.035a14.415,14.415,0,0,0,1.74-.111q.158-.533.357-1.4a3.458,3.458,0,0,0,.088-.756q0-.088-.006-.158a2.98,2.98,0,0,1,.8.229.114.114,0,0,1,.082.105A.277.277,0,0,1,293-9a.968.968,0,0,0-.182.334Q292.535-7.641,292.406-7.248Zm3.275.469a4.062,4.062,0,0,1,.24-.41q.059-.088.105-.088a.279.279,0,0,1,.076.018,8.29,8.29,0,0,1,2.35,1.125.113.113,0,0,1,.047.082.363.363,0,0,1-.035.111,1.48,1.48,0,0,1-.205.334q-.041.053-.076.053a.133.133,0,0,1-.076-.041A7.322,7.322,0,0,0,295.682-6.779Zm5.865-1.33a3.606,3.606,0,0,1,.82.2q.082.035.082.1a.578.578,0,0,1-.035.176,3.147,3.147,0,0,0-.123,1.072,22.054,22.054,0,0,0,.158,2.719,5.663,5.663,0,0,0,.58,2.033q.363.656.762.656t.8-.656a5.377,5.377,0,0,0,.539-1.307,1.461,1.461,0,0,0,.34.5.215.215,0,0,1,.076.146.2.2,0,0,1-.018.076,4.064,4.064,0,0,1-.738,1.354,1.343,1.343,0,0,1-1,.545q-.8,0-1.348-1.107a6.931,6.931,0,0,1-.621-2.227,23.1,23.1,0,0,1-.182-3.135A4.908,4.908,0,0,0,301.547-8.109Zm6.105,1.4a2.972,2.972,0,0,1,.41-.264A.266.266,0,0,1,308.15-7a.126.126,0,0,1,.07.023,6.8,6.8,0,0,1,2.326,4.16v.023a.109.109,0,0,1-.076.1,2.188,2.188,0,0,1-.451.205.172.172,0,0,1-.041.006q-.064,0-.082-.076A6.753,6.753,0,0,0,307.652-6.709Zm8.666,5.221v.85q0,.088-.082.088h-.375q-.082,0-.082-.088l.023-1.893v-.826l-.023-1.166a.073.073,0,0,1,.082-.082l1.213.023h1.271l1.225-.023a.073.073,0,0,1,.082.082l-.023.973v.885l.023,1.828a.073.073,0,0,1-.082.082h-.387a.073.073,0,0,1-.082-.082v-.65Zm0-.469H319.1V-4.113h-2.783Zm5.619-3.838h-2.232l-1.289.023a.073.073,0,0,1-.082-.082l.012-1.043v-1.43l-.012-1.037a.073.073,0,0,1,.082-.082l1.289.023h1.43l1.283-.023a.073.073,0,0,1,.082.082l-.023,1.734v5.59L322.5-.457a1.664,1.664,0,0,1-.076.586A.709.709,0,0,1,322.2.4a2.093,2.093,0,0,1-1.16.205h-.258a.29.29,0,0,1-.17-.029.45.45,0,0,1-.059-.152,1.323,1.323,0,0,0-.193-.41,6.917,6.917,0,0,0,.891.053.834.834,0,0,0,.58-.135.786.786,0,0,0,.105-.492Zm0-.445V-7.412h-3.064V-6.24Zm0-1.617V-8.965h-3.064v1.107ZM314.49-9.422h1.324l1.2-.023a.073.073,0,0,1,.082.082l-.023,1.1v1.313l.023,1.1a.073.073,0,0,1-.082.082l-1.2-.023h-2.162v4.031l.023,2.449a.073.073,0,0,1-.082.082h-.422a.073.073,0,0,1-.082-.082l.023-2.449V-6.9l-.023-2.467a.073.073,0,0,1,.082-.082Zm-.838,2.01V-6.24h2.895V-7.412Zm0-.445h2.895V-8.965h-2.895Zm18.434.164h.926l1.283-.023q.088,0,.088.082l-.023,1.318v2.479l.023,1.307q0,.082-.088.082l-1.283-.023h-1.43l-1.271.023a.073.073,0,0,1-.082-.082l.023-1.307V-6.316l-.023-1.318a.073.073,0,0,1,.082-.082l1.225.023a8.846,8.846,0,0,0,.357-1.137h-.656l-1.518.023q-.082,0-.082-.076v-.369a.073.073,0,0,1,.082-.082l1.518.023h2.279l1.512-.023q.088,0,.088.082v.369q0,.076-.088.076l-1.512-.023h-1.043A9.983,9.983,0,0,1,332.086-7.693Zm1.758.445h-3.088v1.113h3.088Zm0,1.547h-3.088v1.143h3.088Zm0,1.576h-3.088v1.207h3.088ZM327.826-5.66h-1.318l-1.248.023a.073.073,0,0,1-.082-.082L325.2-6.8V-8.186l-.023-1.066a.073.073,0,0,1,.082-.082l1.248.023h1.318l1.248-.023q.088,0,.088.082l-.023,1.066V-6.8l.023,1.084q0,.082-.088.082Zm.8-2.068V-8.865h-2.918v1.137Zm0,.422h-2.918v1.2h2.918ZM327.6-.574a9.083,9.083,0,0,0,3.609.551,34.216,34.216,0,0,0,4.248-.264,1.081,1.081,0,0,0-.193.369.423.423,0,0,1-.07.193.486.486,0,0,1-.158.035A34.382,34.382,0,0,1,331.318.5a8.076,8.076,0,0,1-4.365-.861,4.068,4.068,0,0,1-.779-.727,5,5,0,0,1-.434-.668,5.749,5.749,0,0,1-.949,2.221q-.076.105-.111.105a.4.4,0,0,1-.141-.082.908.908,0,0,0-.357-.158,4.538,4.538,0,0,0,.943-1.641,8.7,8.7,0,0,0,.34-1.828,1.862,1.862,0,0,0,.012-.217,2.241,2.241,0,0,0-.012-.234q.217.029.492.082.146.035.146.111a.324.324,0,0,1-.064.152,1.245,1.245,0,0,0-.082.217l-.094.645a5.3,5.3,0,0,0,.633,1.014,2.878,2.878,0,0,0,.58.5V-4.295h-1.008l-1.477.023q-.088,0-.088-.082v-.363q0-.082.088-.082l1.477.023H328.2l1.465-.023a.073.073,0,0,1,.082.082v.363a.073.073,0,0,1-.082.082L328.2-4.295h-.6v1.453h.668l1.031-.023q.088,0,.088.082v.334a.078.078,0,0,1-.088.088l-1.031-.029H327.6Zm3.533-1.717a2.445,2.445,0,0,1,.387.252q.1.076.1.135,0,.088-.123.129a1.027,1.027,0,0,0-.24.17,9.52,9.52,0,0,1-1.682,1.078.372.372,0,0,1-.141.053q-.047,0-.123-.146a.7.7,0,0,0-.217-.24,6.709,6.709,0,0,0,1.729-1.049A1.579,1.579,0,0,0,331.137-2.291Zm3.984,1.342a.747.747,0,0,0-.252.264q-.094.146-.146.146a.424.424,0,0,1-.141-.053,6.966,6.966,0,0,1-1.852-1.295.1.1,0,0,1-.035-.064q0-.029.088-.1l.158-.123a.278.278,0,0,1,.123-.064q.023,0,.053.035A5.228,5.228,0,0,0,335.121-.949Zm8.631-1.441q-.1-1.635-.1-3.551-.844.059-1.582.059-.586,0-1.166-.035A.085.085,0,0,1,340.811-6q-.035-.4-.035-.521.674.059,1.377.059t1.488-.059l.012-1.424a4.445,4.445,0,0,0-.105-1.02,3.7,3.7,0,0,1,.768.152.132.132,0,0,1,.094.123.405.405,0,0,1-.035.141,1.665,1.665,0,0,0-.105.627q-.029.885-.029,1.354a13.783,13.783,0,0,0,1.969-.322q.076,0,.088.059a1.851,1.851,0,0,1,.035.41q0,.1-.059.117a13.446,13.446,0,0,1-2.033.3q.023,2.256.123,3.791a8.01,8.01,0,0,1,2.1,1.23q.041.035.041.059a.228.228,0,0,1-.018.064,1.473,1.473,0,0,1-.252.4q-.035.035-.053.035a.113.113,0,0,1-.053-.023A7.17,7.17,0,0,0,344.361-1.6Q344.309.059,342.4.059A2.152,2.152,0,0,1,341.063-.3a1.085,1.085,0,0,1-.434-.908,1.185,1.185,0,0,1,.621-1.061,2.139,2.139,0,0,1,1.143-.3A5.428,5.428,0,0,1,343.752-2.391Zm0,.574a3.919,3.919,0,0,0-1.395-.252,1.456,1.456,0,0,0-.92.258.734.734,0,0,0-.293.609.623.623,0,0,0,.387.574,1.794,1.794,0,0,0,.838.17q1.383,0,1.383-1.131Zm-5.561-7.066a2.556,2.556,0,0,1,.744.264q.111.07.111.152a.2.2,0,0,1-.041.111,1.706,1.706,0,0,0-.24.574,26.775,26.775,0,0,0-.574,4.453,14.56,14.56,0,0,0,.135,2.268q.188-.48.861-2.051a1.358,1.358,0,0,0,.229.41.14.14,0,0,1,.047.1.276.276,0,0,1-.035.117,11.941,11.941,0,0,0-.744,1.928,2.536,2.536,0,0,0-.029.322.71.71,0,0,0,.018.17.4.4,0,0,1,.012.076.084.084,0,0,1-.047.082,1.488,1.488,0,0,1-.434.141.1.1,0,0,1-.029.006q-.053,0-.088-.088a9.756,9.756,0,0,1-.469-3.445,30.468,30.468,0,0,1,.527-4.488,5.107,5.107,0,0,0,.07-.785A1.869,1.869,0,0,0,338.191-8.883Zm17.051,6.8q-.082,0-.082-.088v-.574h-2.291v.9q0,.082-.088.082h-.369a.073.073,0,0,1-.082-.082l.023-2.033v-.949L352.33-6.1a.073.073,0,0,1,.082-.082l1.078.023h1.031l1.084-.023a.073.073,0,0,1,.082.082l-.023,1.031v.99l.023,1.9q0,.088-.082.088Zm-2.373-3.592v2.449h2.291V-5.678Zm.75-2.531-1.682.023a.073.073,0,0,1-.082-.082v-.387a.073.073,0,0,1,.082-.082l1.682.023h3.732l1.688-.023q.07,0,.07.082v.387q0,.082-.07.082l-.135-.006q-.416-.012-.955-.018v5.566l.023,2.209a1,1,0,0,1-.3.855A2.859,2.859,0,0,1,356.3.627h-.217q-.152,0-.182-.035a.5.5,0,0,1-.059-.17,1.167,1.167,0,0,0-.193-.4,9.777,9.777,0,0,0,1.09.053.925.925,0,0,0,.545-.105.506.506,0,0,0,.117-.393V-8.209Zm-2.6-1.682a3.468,3.468,0,0,1,.586.229q.123.064.123.123t-.1.141a1.44,1.44,0,0,0-.24.445q-.434,1.061-.814,1.811v5.977L350.6.744a.073.073,0,0,1-.082.082h-.434A.073.073,0,0,1,350,.744l.023-1.91v-3.24q0-.609.023-1.787A13.988,13.988,0,0,1,348.8-4.418q-.082.105-.123.105t-.105-.105a.748.748,0,0,0-.264-.275,12.644,12.644,0,0,0,2.531-4.377A2.831,2.831,0,0,0,351.023-9.891Zm17.1,3.252h.861l1.717-.023q.088,0,.088.082v.34q0,.082-.088.082l-1.717-.023h-.861v.6l.023,1.107a.073.073,0,0,1-.082.082l-1.119-.023h-1.09l-1.119.023a.073.073,0,0,1-.082-.082l.023-1.107v-.6h-.357l-1.658.023a.073.073,0,0,1-.082-.082v-.34a.073.073,0,0,1,.082-.082l1.658.023h.357a5.651,5.651,0,0,0-.082-1.2q.223.012.586.059.117.023.117.088a1.494,1.494,0,0,1-.059.205,3.37,3.37,0,0,0-.059.85h2.438a5.753,5.753,0,0,0-.082-1.2q.229.012.586.059.135.023.135.088a.587.587,0,0,1-.07.205A2.993,2.993,0,0,0,368.127-6.639Zm-2.941.457v1.295h2.438V-6.182Zm-1.008,3.217-1.348.023a.073.073,0,0,1-.082-.082v-.34a.073.073,0,0,1,.082-.082l1.623.023h3.961a.672.672,0,0,0,.24-.047.384.384,0,0,1,.094-.023q.082,0,.275.182.193.211.193.275a.155.155,0,0,1-.094.135,1.1,1.1,0,0,0-.293.287A7.667,7.667,0,0,1,367.02-.855,11.12,11.12,0,0,0,370.969.252.877.877,0,0,0,370.74.6q-.064.17-.158.17a1.115,1.115,0,0,1-.117-.012,9.9,9.9,0,0,1-3.937-1.295,11.732,11.732,0,0,1-4.09,1.354.957.957,0,0,1-.135.018q-.076,0-.152-.164a.764.764,0,0,0-.264-.3,11.146,11.146,0,0,0,4.16-1.236A6.53,6.53,0,0,1,364.178-2.965Zm.563,0a6.1,6.1,0,0,0,1.787,1.822,6.417,6.417,0,0,0,1.91-1.822Zm.943-5.748v-.311A4.349,4.349,0,0,0,365.6-10q.211.012.639.059.117.023.117.082a.631.631,0,0,1-.059.229,1.9,1.9,0,0,0-.059.6v.311h2.865l1.693-.023q.07,0,.07.082v.387q0,.082-.07.082l-1.693-.023H362.1v1.992a29.867,29.867,0,0,1-.146,3.24A9.19,9.19,0,0,1,360.814.551q-.064.111-.094.111t-.135-.1a.841.841,0,0,0-.357-.24,7.855,7.855,0,0,0,1.184-3.5,28.7,28.7,0,0,0,.135-3.07l-.023-2.4a.073.073,0,0,1,.082-.082l1.705.023ZM380.35-5.531l.363-.252a.078.078,0,0,1,.047-.018.1.1,0,0,1,.047.018A5.293,5.293,0,0,1,382.16-4.33a.086.086,0,0,1,.023.047.1.1,0,0,1-.029.059l-.287.24a.084.084,0,0,1-.059.029q-.035,0-.076-.053A5.359,5.359,0,0,0,380.35-5.531Zm1.014-.744.311-.24a.1.1,0,0,1,.064-.029.072.072,0,0,1,.041.018,5.656,5.656,0,0,1,1.354,1.377.119.119,0,0,1,.023.064.1.1,0,0,1-.041.07l-.281.24a.078.078,0,0,1-.047.018.094.094,0,0,1-.07-.047A5.573,5.573,0,0,0,381.363-6.275Zm-8.379-.9q.064.006.117.006a9.441,9.441,0,0,0,1.348-.123q3.768-.592,7.389-1.031a.152.152,0,0,1,.047-.006.127.127,0,0,1,.135.088,1.622,1.622,0,0,1,.059.457q0,.105-.135.117a5.208,5.208,0,0,0-1.857.4,5.814,5.814,0,0,0-2.268,1.705,3.455,3.455,0,0,0-.8,2.162,2.327,2.327,0,0,0,1.33,2.209,6.381,6.381,0,0,0,2.232.574q.17.012.17.094a2.285,2.285,0,0,1-.047.434q-.029.146-.135.146h-.047a5.751,5.751,0,0,1-2.959-.973,2.848,2.848,0,0,1-1.166-2.414,3.813,3.813,0,0,1,.932-2.49A6.509,6.509,0,0,1,379.559-7.5l-.012-.035q-3.176.475-5.221.914a2.69,2.69,0,0,0-.668.193.521.521,0,0,1-.217.082.163.163,0,0,1-.158-.094A3.89,3.89,0,0,1,372.984-7.178Zm15.527,3.627A10.708,10.708,0,0,0,388.377-2a1.6,1.6,0,0,0,.586,1.412,2.385,2.385,0,0,0,1.371.328A2.831,2.831,0,0,0,392.145-.8a1.721,1.721,0,0,0,.662-1.43,3.074,3.074,0,0,0-1.055-2.1q.076.006.152.006a1.734,1.734,0,0,0,.4-.047.541.541,0,0,1,.076-.006.143.143,0,0,1,.105.041,2.911,2.911,0,0,1,.984,2.1,2.258,2.258,0,0,1-1.008,1.951,3.456,3.456,0,0,1-2.027.58q-2.643,0-2.643-2.279a11.356,11.356,0,0,1,.135-1.605,9.937,9.937,0,0,1-1.992-.375q-.082-.018-.1-.129a2.238,2.238,0,0,1-.018-.3q0-.1.006-.205A9.169,9.169,0,0,0,388-4.143l.3-2.244a12.026,12.026,0,0,1-2.133-.381.164.164,0,0,1-.1-.146q0-.311-.012-.492a9.171,9.171,0,0,0,2.344.469q.152-1.084.176-1.307a5.525,5.525,0,0,0,.047-.68,3.522,3.522,0,0,0-.035-.51,2.778,2.778,0,0,1,.826.264q.146.064.146.158a.315.315,0,0,1-.082.158,1.187,1.187,0,0,0-.24.574q-.176,1.031-.24,1.389.4.035.838.035a8.736,8.736,0,0,0,.926-.047q.059,0,.059.082,0,.293-.012.41,0,.1-.094.1-.41.023-.838.023-.521,0-.973-.035L388.57-4.09q.416.029.855.029.6,0,1.16-.053a.193.193,0,0,1,.047-.006q.088,0,.088.076,0,.275-.012.381t-.082.111q-.48.035-1.037.035T388.512-3.551Zm15.92-3.879h-1.764a2.711,2.711,0,0,1-.85,1.523q-.111.1-.146.1t-.152-.1a1.528,1.528,0,0,0-.3-.182,2.431,2.431,0,0,0,1.014-2.1,7.558,7.558,0,0,0-.053-1.189,3,3,0,0,1,.627.217,12.7,12.7,0,0,0,2.432-.457,2.16,2.16,0,0,0,.545-.252,2.485,2.485,0,0,1,.422.363.2.2,0,0,1,.07.141q0,.082-.135.082a2.091,2.091,0,0,0-.428.064,23.2,23.2,0,0,1-2.971.516v.539a2.4,2.4,0,0,1-.012.275h2.689l1.406-.023a.073.073,0,0,1,.082.082v.34a.073.073,0,0,1-.082.082l-1.406-.023h-.48V-6.8l.023.814a.073.073,0,0,1-.082.082h-.387a.073.073,0,0,1-.082-.082l.023-.814Zm-6.48-.457h2.309l1.26-.023a.073.073,0,0,1,.082.082v.34a.073.073,0,0,1-.082.082l-1.26-.023h-.217v.65l.023.814q0,.082-.088.082h-.369a.073.073,0,0,1-.082-.082l.023-.814v-.65h-1.635a3.7,3.7,0,0,1-.949,2.086q-.094.105-.135.105t-.141-.105a1.042,1.042,0,0,0-.322-.2,2.98,2.98,0,0,0,.932-1.412,4.928,4.928,0,0,0,.135-1.277,7.829,7.829,0,0,0-.059-1.131,3.106,3.106,0,0,1,.627.205,11.382,11.382,0,0,0,2.35-.434,1.826,1.826,0,0,0,.586-.264,2.079,2.079,0,0,1,.422.34.229.229,0,0,1,.082.152q0,.076-.146.1l-.2.023a1.443,1.443,0,0,0-.205.047,21.47,21.47,0,0,1-2.941.516Zm1.992,2.332h3.662l1.693-.023a.073.073,0,0,1,.082.082l-.023,1.225v1.992l.023,1.213a.073.073,0,0,1-.082.082l-1.693-.023h-3.662l-1.682.023q-.094,0-.094-.082l.023-1.213V-4.271L398.168-5.5q0-.082.094-.082ZM398.719-4.2h6.111v-.908h-6.111Zm0,.422v.932h6.111v-.932Zm0,1.354v.973h6.111v-.973ZM399.779-.85a3.894,3.894,0,0,1,.457.275.188.188,0,0,1,.082.129.115.115,0,0,1-.111.123.852.852,0,0,0-.322.129A10.052,10.052,0,0,1,397.043.879a1.12,1.12,0,0,1-.135.018q-.064,0-.141-.164a1.342,1.342,0,0,0-.24-.322,8.79,8.79,0,0,0,2.865-.926A1.667,1.667,0,0,0,399.779-.85ZM406.9.387a1.183,1.183,0,0,0-.229.334Q406.6.9,406.529.9a.72.72,0,0,1-.141-.023,9.187,9.187,0,0,1-3.1-1.248q-.053-.041-.053-.076t.082-.117l.141-.146q.082-.082.129-.082a.119.119,0,0,1,.064.023A7.994,7.994,0,0,0,406.9.387Zm5.414-1.875v.85q0,.088-.082.088h-.375q-.082,0-.082-.088l.023-1.893v-.826l-.023-1.166a.073.073,0,0,1,.082-.082l1.213.023h1.271l1.225-.023a.073.073,0,0,1,.082.082l-.023.973v.885l.023,1.828a.073.073,0,0,1-.082.082h-.387a.073.073,0,0,1-.082-.082v-.65Zm0-.469H415.1V-4.113h-2.783Zm5.619-3.838h-2.232l-1.289.023a.073.073,0,0,1-.082-.082l.012-1.043v-1.43l-.012-1.037a.073.073,0,0,1,.082-.082l1.289.023h1.43l1.283-.023a.073.073,0,0,1,.082.082l-.023,1.734v5.59L418.5-.457a1.664,1.664,0,0,1-.076.586A.709.709,0,0,1,418.2.4a2.093,2.093,0,0,1-1.16.205h-.258a.29.29,0,0,1-.17-.029.45.45,0,0,1-.059-.152,1.323,1.323,0,0,0-.193-.41,6.917,6.917,0,0,0,.891.053.834.834,0,0,0,.58-.135.786.786,0,0,0,.105-.492Zm0-.445V-7.412h-3.064V-6.24Zm0-1.617V-8.965h-3.064v1.107ZM410.49-9.422h1.324l1.2-.023a.073.073,0,0,1,.082.082l-.023,1.1v1.313l.023,1.1a.073.073,0,0,1-.082.082l-1.2-.023h-2.162v4.031l.023,2.449a.073.073,0,0,1-.082.082h-.422a.073.073,0,0,1-.082-.082l.023-2.449V-6.9l-.023-2.467a.073.073,0,0,1,.082-.082Zm-.838,2.01V-6.24h2.895V-7.412Zm0-.445h2.895V-8.965h-2.895Zm14.5-1.312a3.129,3.129,0,0,1,2.66,1.342,5.264,5.264,0,0,1,.891,3.182,5.013,5.013,0,0,1-1.143,3.5,3.129,3.129,0,0,1-2.408,1.049,3.125,3.125,0,0,1-2.66-1.348,5.254,5.254,0,0,1-.891-3.176,5,5,0,0,1,1.154-3.51A3.124,3.124,0,0,1,424.148-9.17Zm0,.686A2.32,2.32,0,0,0,422.1-7.359a4.91,4.91,0,0,0-.668,2.725,4.579,4.579,0,0,0,.861,2.988,2.3,2.3,0,0,0,1.852.867A2.322,2.322,0,0,0,426.2-1.91a4.943,4.943,0,0,0,.662-2.725,4.562,4.562,0,0,0-.855-2.982A2.294,2.294,0,0,0,424.148-8.484Zm11.842-.527-3.3,3.527,3.662,5.221H435.4l-3.229-4.693-1.5,1.559V-.264H429.9V-9.012h.779v4.717l4.318-4.717Zm9.445,3.48.363-.252a.078.078,0,0,1,.047-.018.1.1,0,0,1,.047.018,5.293,5.293,0,0,1,1.354,1.453.086.086,0,0,1,.023.047.1.1,0,0,1-.029.059l-.287.24a.084.084,0,0,1-.059.029q-.035,0-.076-.053A5.359,5.359,0,0,0,445.436-5.531Zm1.014-.744.311-.24a.1.1,0,0,1,.064-.029.072.072,0,0,1,.041.018,5.656,5.656,0,0,1,1.354,1.377.119.119,0,0,1,.023.064.1.1,0,0,1-.041.07l-.281.24a.078.078,0,0,1-.047.018.094.094,0,0,1-.07-.047A5.573,5.573,0,0,0,446.449-6.275Zm-8.379-.9q.064.006.117.006a9.441,9.441,0,0,0,1.348-.123q3.768-.592,7.389-1.031a.152.152,0,0,1,.047-.006.127.127,0,0,1,.135.088,1.622,1.622,0,0,1,.059.457q0,.105-.135.117a5.208,5.208,0,0,0-1.857.4A5.814,5.814,0,0,0,442.9-5.566a3.455,3.455,0,0,0-.8,2.162,2.327,2.327,0,0,0,1.33,2.209,6.381,6.381,0,0,0,2.232.574q.17.012.17.094a2.285,2.285,0,0,1-.047.434q-.029.146-.135.146h-.047a5.751,5.751,0,0,1-2.959-.973,2.848,2.848,0,0,1-1.166-2.414,3.813,3.813,0,0,1,.932-2.49A6.509,6.509,0,0,1,444.645-7.5l-.012-.035q-3.176.475-5.221.914a2.69,2.69,0,0,0-.668.193.521.521,0,0,1-.217.082.163.163,0,0,1-.158-.094A3.89,3.89,0,0,1,438.07-7.178Zm17.1-.24q-.012-.41-.012-1.143a3.49,3.49,0,0,0-.129-.779,3.863,3.863,0,0,1,.8.117q.17.047.17.158a.38.38,0,0,1-.088.193.7.7,0,0,0-.094.311q-.023.627-.023,1.119,1.67-.064,3.9-.064a.093.093,0,0,1,.105.105v.387q0,.111-.135.111-.832-.035-1.664-.035-1.008,0-2.209.047,0,1.617.012,2.461a6.115,6.115,0,0,1,.141,1.283A3.876,3.876,0,0,1,453.586.516a.579.579,0,0,1-.217.07A.248.248,0,0,1,453.211.5a1.345,1.345,0,0,0-.4-.27,3.594,3.594,0,0,0,2.566-3.152A1.448,1.448,0,0,1,454-2.174a1.479,1.479,0,0,1-1.125-.451,1.654,1.654,0,0,1-.422-1.2,1.5,1.5,0,0,1,.557-1.2,1.538,1.538,0,0,1,1.02-.381,1.471,1.471,0,0,1,1.172.457q-.006-.316-.012-1.031-.006-.574-.012-.879-2.461.117-4.523.357a2.1,2.1,0,0,0-.346.082.738.738,0,0,1-.17.041.116.116,0,0,1-.117-.094,4.072,4.072,0,0,1-.158-.639q.141.006.27.006.475,0,1.254-.064Q453.574-7.336,455.168-7.418Zm-1.1,2.508a1.028,1.028,0,0,0-.8.334,1.086,1.086,0,0,0-.27.756,1.1,1.1,0,0,0,.34.855,1.015,1.015,0,0,0,.7.252,1.16,1.16,0,0,0,.926-.41,1.111,1.111,0,0,0,.275-.732.961.961,0,0,0-.375-.791A1.226,1.226,0,0,0,454.072-4.91Zm7.611,2.666A1.588,1.588,0,0,1,462.9-1.7a1.567,1.567,0,0,1,.428,1.09,1.551,1.551,0,0,1-.551,1.2,1.588,1.588,0,0,1-1.1.428,1.582,1.582,0,0,1-1.213-.545,1.56,1.56,0,0,1-.428-1.084,1.557,1.557,0,0,1,.551-1.207A1.581,1.581,0,0,1,461.684-2.244Zm0,.527a1.075,1.075,0,0,0-.82.369,1.045,1.045,0,0,0-.293.732,1.08,1.08,0,0,0,.375.832,1.078,1.078,0,0,0,.738.287,1.076,1.076,0,0,0,.832-.369,1.093,1.093,0,0,0,.287-.75,1.057,1.057,0,0,0-.369-.814A1.093,1.093,0,0,0,461.684-1.717Zm10.295-8.361.252-.287A8.6,8.6,0,0,1,474.7-7.482a6.629,6.629,0,0,1,.621,2.924,6.51,6.51,0,0,1-.82,3.3,9.005,9.005,0,0,1-2.273,2.508l-.252-.287a8.214,8.214,0,0,0,2.168-2.83,6.781,6.781,0,0,0,.5-2.689,6.69,6.69,0,0,0-.668-3.053A8.571,8.571,0,0,0,471.979-10.078Z" transform="translate(-0.838 10.365)"/>
</svg>
