<svg xmlns="http://www.w3.org/2000/svg" width="58.107" height="64.623" viewBox="0 0 58.107 64.623">
  <path id="パス_65" data-name="パス 65" d="M6-5.508a.9.9,0,0,1,.7.311.913.913,0,0,1,.24.627.921.921,0,0,1-.311.7A.9.9,0,0,1,6-3.621a.913.913,0,0,1-.7-.316.922.922,0,0,1-.246-.633.9.9,0,0,1,.316-.7A.921.921,0,0,1,6-5.508ZM16.137-6.926a6.387,6.387,0,0,0,1.67,1.336.886.886,0,0,0-.275.264q-.076.1-.111.1a.35.35,0,0,1-.152-.088,7.069,7.069,0,0,1-1.43-1.477q.006.668.041,1.359.029.539.029.574a.073.073,0,0,1-.082.082h-.41a.073.073,0,0,1-.082-.082q0-.064.018-.34.047-.832.053-1.559a7.874,7.874,0,0,1-2.279,2.314.35.35,0,0,1-.152.088q-.041,0-.123-.1a.788.788,0,0,0-.264-.229A8.213,8.213,0,0,0,14.7-6.445a3.331,3.331,0,0,0,.363-.48h-.686l-1.5.023a.073.073,0,0,1-.082-.082v-.322q0-.1.082-.1l1.5.023h1.008V-8.988a3.987,3.987,0,0,0-.082-.9,5.054,5.054,0,0,1,.574.064q.117.018.117.105a.664.664,0,0,1-.059.182,1.608,1.608,0,0,0-.059.563v1.594h.732l1.5-.023q.082,0,.082.1v.322a.073.073,0,0,1-.082.082l-1.5-.023Zm-.949,3.434h1.6l1.523-.023a.073.073,0,0,1,.082.082v.328a.073.073,0,0,1-.082.082l-.135-.006q-.4-.012-.943-.018a6.108,6.108,0,0,1-1,1.881A11.614,11.614,0,0,1,17.3-.492q.047.029.047.059t-.07.111l-.123.152q-.088.135-.135.135a.142.142,0,0,1-.07-.035A10.49,10.49,0,0,0,15.9-.8,7.023,7.023,0,0,1,13.26.662.575.575,0,0,1,13.119.7q-.07,0-.164-.146A.776.776,0,0,0,12.7.3a6.833,6.833,0,0,0,2.748-1.365,12.842,12.842,0,0,0-1.318-.627q-.217.322-.287.422t-.152.105a.377.377,0,0,1-.111-.023l-.193-.07q-.117-.041-.117-.088a.118.118,0,0,1,.035-.07,5.426,5.426,0,0,0,.539-.7,9.966,9.966,0,0,0,.551-.926h-.035l-1.523.023a.073.073,0,0,1-.082-.082v-.328a.073.073,0,0,1,.082-.082l1.523.023h.275l.252-.5a2.476,2.476,0,0,0,.193-.639,4.2,4.2,0,0,1,.516.17q.105.041.105.123a.2.2,0,0,1-.094.141,2.007,2.007,0,0,0-.275.434Q15.293-3.7,15.188-3.492Zm-.24.445q-.064.135-.6,1.008a10.4,10.4,0,0,1,1.441.639A4.635,4.635,0,0,0,16.7-3.047Zm4.74-4.348h2.268l1.289-.023a.073.073,0,0,1,.082.082v.363a.073.073,0,0,1-.082.082l-1.061-.023a10.478,10.478,0,0,1-1.26,4.559A12.1,12.1,0,0,0,23.566.176a1.027,1.027,0,0,0-.287.34q-.088.123-.129.123a.32.32,0,0,1-.135-.076A13.374,13.374,0,0,1,20.625-1.9,8.379,8.379,0,0,1,17.59.715a.425.425,0,0,1-.152.059q-.047,0-.146-.129a.808.808,0,0,0-.3-.264,7.907,7.907,0,0,0,3.334-2.76,11.559,11.559,0,0,1-1.271-3.457,11.2,11.2,0,0,1-.814,1.395q-.07.105-.111.105a.389.389,0,0,1-.141-.094.892.892,0,0,0-.3-.17,11.047,11.047,0,0,0,1.91-4.213,4.839,4.839,0,0,0,.182-1.1,3.075,3.075,0,0,1,.521.158q.146.053.146.141a1.67,1.67,0,0,1-.117.193,1.842,1.842,0,0,0-.193.563Q19.928-8.115,19.688-7.395Zm-.164.48-.158.381A13.148,13.148,0,0,0,20.6-2.871a10.069,10.069,0,0,0,1.055-4.043ZM13.729-9.369a5.118,5.118,0,0,1,.75,1.248.094.094,0,0,1,.012.041q0,.041-.105.1l-.152.082a.359.359,0,0,1-.135.059q-.029,0-.059-.07a4.754,4.754,0,0,0-.7-1.207.156.156,0,0,1-.029-.07q0-.041.111-.1l.158-.082a.221.221,0,0,1,.088-.041Q13.7-9.41,13.729-9.369Zm2.83,1.482A6.218,6.218,0,0,0,17.3-9a1.608,1.608,0,0,0,.152-.434,2.7,2.7,0,0,1,.451.205Q18-9.17,18-9.105A.142.142,0,0,1,17.93-9a.809.809,0,0,0-.193.205,7.9,7.9,0,0,1-.662.961q-.088.111-.135.111a.4.4,0,0,1-.152-.064A.6.6,0,0,0,16.559-7.887ZM29.748-2.654H26.438l-1.588.023a.073.073,0,0,1-.082-.082v-.4a.073.073,0,0,1,.082-.082l1.588.023h3.311a6.2,6.2,0,0,0-.082-1.248q.3.064.563.146a11.239,11.239,0,0,0,1.74-1.189H28.523l-1.559.023q-.088,0-.088-.082v-.375q0-.082.088-.082l1.559.023h3.393a1.331,1.331,0,0,0,.316-.023A.386.386,0,0,1,32.35-6q.088,0,.287.217a.571.571,0,0,1,.193.322.129.129,0,0,1-.105.135,1.524,1.524,0,0,0-.492.287,14.124,14.124,0,0,1-1.9,1.184,2.749,2.749,0,0,0-.023.469v.217h3.264l1.582-.023q.088,0,.088.082v.4q0,.082-.088.082l-1.582-.023H30.311v1.406l.012,1.031a.8.8,0,0,1-.3.709,2.119,2.119,0,0,1-1,.182q-.369,0-.609-.012a.5.5,0,0,1-.182-.029Q28.207.615,28.178.48a1.878,1.878,0,0,0-.205-.434A9.588,9.588,0,0,0,29.2.123a.665.665,0,0,0,.428-.105.486.486,0,0,0,.123-.375Zm2.174-5.027a10.216,10.216,0,0,0,.861-1.559,2.275,2.275,0,0,0,.135-.527,2.815,2.815,0,0,1,.551.217q.117.064.117.141a.163.163,0,0,1-.07.123.7.7,0,0,0-.229.275q-.3.586-.791,1.33h.563l1.682-.023q.094,0,.094.07l-.023.568v.48l.023,1.26q0,.082-.094.082h-.4a.073.073,0,0,1-.082-.082V-7.2H25.775v1.875a.073.073,0,0,1-.082.082h-.41a.073.073,0,0,1-.082-.082l.023-1.26V-7L25.2-7.635q0-.07.082-.07l1.682.023ZM26.9-9.639a9.455,9.455,0,0,1,.938,1.359.127.127,0,0,1,.029.064q0,.041-.123.117l-.17.082a.481.481,0,0,1-.164.064q-.035,0-.064-.064A7.4,7.4,0,0,0,26.42-9.41a.086.086,0,0,1-.023-.047q0-.029.135-.094l.17-.088a.355.355,0,0,1,.129-.041A.1.1,0,0,1,26.9-9.639Zm2.344,0a.145.145,0,0,1-.023-.059q0-.041.117-.094l.182-.07a.315.315,0,0,1,.105-.035q.035,0,.076.059a7.688,7.688,0,0,1,.779,1.412.135.135,0,0,1,.018.053q0,.035-.152.105l-.164.07a.572.572,0,0,1-.158.053q-.047,0-.07-.076A6.667,6.667,0,0,0,29.244-9.639ZM6,12.492a.9.9,0,0,1,.7.311.945.945,0,0,1-.07,1.33A.9.9,0,0,1,6,14.379a.957.957,0,0,1-.949-.949.9.9,0,0,1,.316-.7A.921.921,0,0,1,6,12.492Zm8.854-1.248H13.688a8.54,8.54,0,0,1-.381,1.594q-.041.141-.082.141a.572.572,0,0,1-.158-.053,1.581,1.581,0,0,0-.334-.076,10.222,10.222,0,0,0,.639-3.105q.006-.164.006-.281a2.535,2.535,0,0,0-.023-.357q.434.064.527.088.135.029.135.094a.547.547,0,0,1-.047.158,1,1,0,0,0-.076.287q-.012.1-.035.328-.053.463-.082.7h1.078V9.7a13.146,13.146,0,0,0-.07-1.6,4.7,4.7,0,0,1,.6.064q.117.018.117.094,0,.018-.047.205a6.377,6.377,0,0,0-.07,1.213v1.09h.205l1.1-.023q.088,0,.088.07v.375q0,.082-.088.082l-1.1-.023h-.205v2.643q.574-.293,1.342-.773-.006.1-.006.158a1.389,1.389,0,0,0,.018.217q.012.1.012.123,0,.088-.17.176-.885.486-1.2.639v2.232l.023,2.121q0,.07-.082.07h-.41q-.082,0-.082-.07l.023-2.109v-1.98q-.434.217-1.143.527a1.172,1.172,0,0,0-.416.24.177.177,0,0,1-.135.082.152.152,0,0,1-.129-.082,3.137,3.137,0,0,1-.264-.516A7.026,7.026,0,0,0,13.8,14.59q.65-.258,1.055-.451Zm3.316-.674h3.264l1.441-.023a.093.093,0,0,1,.105.105q-.023.533-.023.785a35.343,35.343,0,0,1-.4,5.461,3.126,3.126,0,0,1-.5,1.395,1.175,1.175,0,0,1-.961.4q-.492,0-1.125-.059-.141-.012-.17-.053a.79.79,0,0,1-.047-.176,1.655,1.655,0,0,0-.141-.434,7.159,7.159,0,0,0,1.412.158.791.791,0,0,0,.727-.457,3.037,3.037,0,0,0,.281-.973,38,38,0,0,0,.387-5.643h-.855A14.08,14.08,0,0,1,19.857,15.5a9.967,9.967,0,0,1-2.625,2.7.35.35,0,0,1-.152.088q-.041,0-.135-.123a.805.805,0,0,0-.311-.258,9.851,9.851,0,0,0,2.947-3.012,12.179,12.179,0,0,0,1.43-3.832H19.729a9.438,9.438,0,0,1-1.2,2.678,8.606,8.606,0,0,1-1.582,1.693.3.3,0,0,1-.141.082q-.047,0-.135-.117a.627.627,0,0,0-.316-.229,7.138,7.138,0,0,0,2.824-4.107H17.906A9.552,9.552,0,0,1,16.9,12.5q-.094.111-.135.111t-.141-.088a.916.916,0,0,0-.316-.182,8.388,8.388,0,0,0,1.9-3.24,5.285,5.285,0,0,0,.217-1.02,5.274,5.274,0,0,1,.563.135q.117.035.117.117A.378.378,0,0,1,19,8.531a2.4,2.4,0,0,0-.229.551A12.82,12.82,0,0,1,18.17,10.57ZM30.5,8.842h2.578l1.57-.023q.088,0,.088.082L34.717,10.2v2.355l.023,1.313q0,.07-.088.07l-1.57-.023H32v1.5h1.189l1.57-.023a.073.073,0,0,1,.082.082v.387a.073.073,0,0,1-.082.082l-1.57-.023H32v1.717h1.74l1.717-.023q.07,0,.07.082v.387q0,.082-.07.082l-1.717-.023H29.355l-1.717.023q-.088,0-.088-.082v-.387q0-.082.088-.082l1.717.023h2.121V15.914h-.984l-1.57.023a.073.073,0,0,1-.082-.082v-.387a.073.073,0,0,1,.082-.082l1.57.023h.984v-1.5H30.5l-1.57.023q-.094,0-.094-.07l.023-1.312V10.2L28.84,8.9q0-.082.094-.082Zm1.5.492v1.775h2.186V9.334Zm0,4.1h2.186V11.578H32Zm-.527-2.32V9.334h-2.1v1.775Zm0,.469h-2.1V13.43h2.1ZM26.918,9.527v2.725h.217l1.078-.023q.07,0,.07.082V12.7q0,.082-.07.082l-1.078-.023h-.217v2.877a14.85,14.85,0,0,0,1.582-.8,1.677,1.677,0,0,0-.047.352l.006.1q0,.105-.164.2a19.645,19.645,0,0,1-2.707,1.283,3.5,3.5,0,0,0-.457.205.2.2,0,0,1-.135.059q-.059,0-.105-.094A2.789,2.789,0,0,1,24.7,16.4a5.474,5.474,0,0,0,1.1-.311q.387-.141.58-.229V12.756h-.264l-1.084.023a.073.073,0,0,1-.082-.082v-.387a.073.073,0,0,1,.082-.082l1.084.023h.264V9.527h-.363l-1.16.023q-.088,0-.088-.082V9.094q0-.082.088-.082l1.16.023H27.24l1.166-.023a.073.073,0,0,1,.082.082v.375a.073.073,0,0,1-.082.082L27.24,9.527ZM6,30.492a.9.9,0,0,1,.7.311.945.945,0,0,1-.07,1.33A.9.9,0,0,1,6,32.379a.957.957,0,0,1-.949-.949.9.9,0,0,1,.316-.7A.921.921,0,0,1,6,30.492Zm9.369-1.441v5.771l.023,1.887a.073.073,0,0,1-.082.082h-.434q-.094,0-.094-.082l.023-1.887V31.693q0-.023.035-1.828a12.793,12.793,0,0,1-1.752,2.092q-.105.105-.152.105t-.123-.117a.809.809,0,0,0-.264-.275,12.561,12.561,0,0,0,3.188-4.535,3.266,3.266,0,0,0,.217-.785,2.757,2.757,0,0,1,.58.24q.105.064.105.135a.167.167,0,0,1-.094.141,1.073,1.073,0,0,0-.281.434A15.146,15.146,0,0,1,15.369,29.051Zm3.088,2.221a12.967,12.967,0,0,0,2.977-2.52,2.734,2.734,0,0,0,.422-.621,3.114,3.114,0,0,1,.5.381.259.259,0,0,1,.094.17q0,.076-.182.141a2.94,2.94,0,0,0-.621.557,15.909,15.909,0,0,1-3.193,2.52v2.959a1.471,1.471,0,0,0,.123.709.626.626,0,0,0,.393.258,7.814,7.814,0,0,0,1.594.094,2.621,2.621,0,0,0,1.541-.334q.41-.34.492-1.77a1.445,1.445,0,0,0,.393.252q.17.082.17.164a.965.965,0,0,1-.012.111,2.5,2.5,0,0,1-.686,1.729,3.371,3.371,0,0,1-1.9.387,8.137,8.137,0,0,1-1.934-.135q-.732-.223-.732-1.236v-7.4a9.274,9.274,0,0,0-.07-1.324q.287.018.633.064.135.018.135.094a.621.621,0,0,1-.059.217,3.105,3.105,0,0,0-.076.949Zm11.291,2.074H26.438l-1.588.023a.073.073,0,0,1-.082-.082v-.4a.073.073,0,0,1,.082-.082l1.588.023h3.311a6.2,6.2,0,0,0-.082-1.248q.3.064.563.146a11.239,11.239,0,0,0,1.74-1.189H28.523l-1.559.023q-.088,0-.088-.082v-.375q0-.082.088-.082l1.559.023h3.393a1.331,1.331,0,0,0,.316-.023A.386.386,0,0,1,32.35,30q.088,0,.287.217a.571.571,0,0,1,.193.322.129.129,0,0,1-.105.135,1.524,1.524,0,0,0-.492.287,14.124,14.124,0,0,1-1.9,1.184,2.749,2.749,0,0,0-.023.469v.217h3.264l1.582-.023q.088,0,.088.082v.4q0,.082-.088.082l-1.582-.023H30.311v1.406l.012,1.031a.8.8,0,0,1-.3.709,2.119,2.119,0,0,1-1,.182q-.369,0-.609-.012a.5.5,0,0,1-.182-.029q-.029-.018-.059-.152a1.878,1.878,0,0,0-.205-.434,9.588,9.588,0,0,0,1.225.076.665.665,0,0,0,.428-.105.486.486,0,0,0,.123-.375Zm2.174-5.027a10.216,10.216,0,0,0,.861-1.559,2.275,2.275,0,0,0,.135-.527,2.815,2.815,0,0,1,.551.217q.117.064.117.141a.163.163,0,0,1-.07.123.7.7,0,0,0-.229.275q-.3.586-.791,1.33h.563l1.682-.023q.094,0,.094.07l-.023.568v.48l.023,1.26q0,.082-.094.082h-.4a.073.073,0,0,1-.082-.082V28.8H25.775v1.875a.073.073,0,0,1-.082.082h-.41a.073.073,0,0,1-.082-.082l.023-1.26V29l-.023-.639q0-.07.082-.07l1.682.023ZM26.9,26.361a9.455,9.455,0,0,1,.938,1.359.127.127,0,0,1,.029.064q0,.041-.123.117l-.17.082a.481.481,0,0,1-.164.064q-.035,0-.064-.064a7.4,7.4,0,0,0-.926-1.395.086.086,0,0,1-.023-.047q0-.029.135-.094l.17-.088a.355.355,0,0,1,.129-.041A.1.1,0,0,1,26.9,26.361Zm2.344,0a.145.145,0,0,1-.023-.059q0-.041.117-.094l.182-.07a.315.315,0,0,1,.105-.035q.035,0,.076.059a7.688,7.688,0,0,1,.779,1.412.135.135,0,0,1,.018.053q0,.035-.152.105l-.164.07a.572.572,0,0,1-.158.053q-.047,0-.07-.076A6.667,6.667,0,0,0,29.244,26.361ZM5.988,45.311a.887.887,0,1,1-.592.229A.853.853,0,0,1,5.988,45.311Zm-3.234,3.24a.863.863,0,0,1,.668.3.852.852,0,0,1,.229.592.836.836,0,0,1-.293.656.881.881,0,0,1-.6.229.888.888,0,0,1,0-1.775Zm6.486,0a.84.84,0,0,1,.656.3.865.865,0,0,1,.223.592.843.843,0,0,1-.287.656.852.852,0,0,1-.592.229.871.871,0,0,1-.668-.293.881.881,0,0,1,.064-1.248A.869.869,0,0,1,9.24,48.551Zm-3.252,3.24a.846.846,0,0,1,.662.3.874.874,0,0,1,.229.6.836.836,0,0,1-.293.656.873.873,0,0,1-.6.223.855.855,0,0,1-.656-.287.839.839,0,0,1-.229-.592.865.865,0,0,1,.293-.662A.841.841,0,0,1,5.988,51.791Zm.363-2.35,4.523,4.512-.357.357L5.988,49.8l-4.5,4.512-.357-.357,4.5-4.512L1.154,44.965l.363-.363,4.471,4.477L10.465,44.6l.363.363Zm11.484,1.688V49.9l-1.635.023q-.082,0-.082-.094v-.316a.073.073,0,0,1,.082-.082l1.635.023V49.33a4.275,4.275,0,0,0-.07-.838,4.425,4.425,0,0,1,.551.07q.129.023.129.1a.3.3,0,0,1-.059.164.909.909,0,0,0-.059.41v.217h1.916v-.07a4.162,4.162,0,0,0-.07-.879q.182.012.563.059.129.023.129.111a.456.456,0,0,1-.059.164.793.793,0,0,0-.059.352v.264h.135l1.629-.023a.073.073,0,0,1,.082.082v.316q0,.094-.082.094L20.883,49.9h-.135v1.23h.574l1.693-.023a.073.073,0,0,1,.082.082v.3q0,.094-.082.094l-1.693-.023H17.467l-1.693.023q-.088,0-.088-.094v-.3q0-.082.088-.082l1.693.023Zm.492-1.23v1.23h1.916V49.9Zm-.1-4.84H16.775l-1.008.023A.073.073,0,0,1,15.686,45v-.322q0-.088.082-.088l1.008.023h.914l.984-.023a.073.073,0,0,1,.082.082l-.023.686v.375l.023.7a.073.073,0,0,1-.082.082l-.984-.023H16.348v.527a1.008,1.008,0,0,0,.105.592,2.5,2.5,0,0,0,.973.094,2.089,2.089,0,0,0,1.043-.135A1.223,1.223,0,0,0,18.6,46.9a.814.814,0,0,0,.311.205q.129.041.129.135a1.091,1.091,0,0,1-.012.129.981.981,0,0,1-.275.586,2.831,2.831,0,0,1-1.383.193,2.686,2.686,0,0,1-1.289-.17.543.543,0,0,1-.2-.27,2.179,2.179,0,0,1-.053-.568V46.57l-.029-.457q0-.082.094-.082l.879.023h1.453Zm3.938,0H20.689l-1,.023q-.094,0-.094-.082v-.322q0-.088.094-.088l1,.023h.938l.984-.023a.073.073,0,0,1,.082.082l-.023.686v.375l.023.7a.073.073,0,0,1-.082.082l-.984-.023H20.232v.539q0,.475.123.58a2.992,2.992,0,0,0,1.078.094,2.165,2.165,0,0,0,1.008-.123,1.191,1.191,0,0,0,.135-.68,1.3,1.3,0,0,0,.322.205q.152.064.152.135a1.291,1.291,0,0,1-.293.715,3.211,3.211,0,0,1-1.477.193,2.789,2.789,0,0,1-1.312-.17.567.567,0,0,1-.187-.27,2.179,2.179,0,0,1-.053-.568V46.57l-.023-.457a.073.073,0,0,1,.082-.082l.9.023h1.477Zm1.447,8.689a.956.956,0,0,0-.193.41.333.333,0,0,1-.059.176.58.58,0,0,1-.164.035q-2.537.158-4.277.158a7.491,7.491,0,0,1-3-.41A2.287,2.287,0,0,1,14.807,52.9a15.265,15.265,0,0,1-1.295,1.213,1.019,1.019,0,0,0-.264.252q-.059.105-.135.105-.053,0-.129-.094a2.647,2.647,0,0,1-.3-.469,4.417,4.417,0,0,0,.738-.457,8.562,8.562,0,0,0,1.131-1.043V49.318h-.973l-.814.023a.073.073,0,0,1-.082-.082v-.4a.073.073,0,0,1,.082-.082l.814.023h.586l.855-.023a.073.073,0,0,1,.082.082l-.023,1.131v2.449a2.014,2.014,0,0,0,1.078,1.236A6.407,6.407,0,0,0,18.609,54Q20.953,54,23.613,53.748Zm-5.514-2a1.465,1.465,0,0,1,.369.24.188.188,0,0,1,.088.135v.023q-.018.064-.158.105a.667.667,0,0,0-.17.1q-.146.1-.164.117a8.936,8.936,0,0,1-1.635.861.511.511,0,0,1-.146.047q-.053,0-.152-.129a.642.642,0,0,0-.252-.217,7.684,7.684,0,0,0,1.752-.838A1.7,1.7,0,0,0,18.1,51.744Zm-4.418-7.131a10.679,10.679,0,0,1,1.33,1.658.078.078,0,0,1,.018.047q0,.035-.111.123l-.158.117a.392.392,0,0,1-.152.094q-.035,0-.076-.053a8.581,8.581,0,0,0-1.283-1.682.086.086,0,0,1-.023-.047q0-.047.123-.123l.141-.094a.411.411,0,0,1,.129-.076A.1.1,0,0,1,13.682,44.613Zm9.275,8.426a.928.928,0,0,0-.217.275q-.082.164-.141.164a.454.454,0,0,1-.135-.041,9.987,9.987,0,0,1-2.285-1.324q-.041-.035-.041-.059t.094-.117l.123-.111q.076-.076.111-.076a.133.133,0,0,1,.076.041A8.193,8.193,0,0,0,22.957,53.039Zm9.182-4.33a9.908,9.908,0,0,0,.779,2.625,6.983,6.983,0,0,0,1.646,2.273,6.719,6.719,0,0,0,.814.609,1.4,1.4,0,0,0-.334.328q-.076.117-.117.117a.384.384,0,0,1-.135-.07,8.686,8.686,0,0,1-3.182-5.883H29.906a14.886,14.886,0,0,1-.252,2.314,7.8,7.8,0,0,1-1.74,3.58q-.082.105-.117.105t-.135-.105a.873.873,0,0,0-.352-.229,6.949,6.949,0,0,0,1.84-3.592,13.293,13.293,0,0,0,.205-2.074q.023-.568.023-2.2l-.023-1.535a.073.073,0,0,1,.082-.082l1.477.023h2.092l1.471-.023q.088,0,.088.082l-.023,1.2V48.07l.023,1.248a.078.078,0,0,1-.088.088h-.393q-.082,0-.082-.088v-.609Zm1.863-.5V45.41H29.93v1.137q0,1.166-.012,1.658Zm-7.488,2.2q-.48.205-1,.393a1.289,1.289,0,0,0-.445.24.232.232,0,0,1-.158.082q-.059,0-.105-.094a5.6,5.6,0,0,1-.217-.551,7,7,0,0,0,1.043-.287l.879-.328V47.139h-.539l-1.213.023a.078.078,0,0,1-.088-.088v-.381a.078.078,0,0,1,.088-.088l1.213.029h.539v-1.1a7.38,7.38,0,0,0-.088-1.377,4.329,4.329,0,0,1,.633.07q.123.018.123.082a.715.715,0,0,1-.07.229,5.115,5.115,0,0,0-.047.984v1.107h.2l1.213-.029a.078.078,0,0,1,.088.088v.381a.078.078,0,0,1-.088.088l-1.213-.023h-.2v2.479q.949-.41,1.594-.768-.012.146-.012.258v.117a.541.541,0,0,1,.006.076q0,.123-.187.223-.48.24-1.4.65v1.834l.012,1.617a1.071,1.071,0,0,1-.287.879,1.846,1.846,0,0,1-1.014.193h-.246a.292.292,0,0,1-.182-.035.556.556,0,0,1-.059-.158,1.68,1.68,0,0,0-.205-.41,8.145,8.145,0,0,0,.938.047.512.512,0,0,0,.375-.105.67.67,0,0,0,.117-.457Zm18.58-4.945H38.531l-1.6.023a.073.073,0,0,1-.082-.082v-.422a.073.073,0,0,1,.082-.082l1.6.023h6.943l1.594-.023q.088,0,.088.082V45.4q0,.082-.088.082l-1.389-.023v5.83l.023,2.2a1,1,0,0,1-.311.85,2.55,2.55,0,0,1-1.289.205q-.3,0-.7-.012a.305.305,0,0,1-.176-.029.436.436,0,0,1-.064-.164,1.245,1.245,0,0,0-.205-.428q.586.053,1.43.053a1.126,1.126,0,0,0,.568-.094.439.439,0,0,0,.141-.381Zm-6.076,5.9v.973a.073.073,0,0,1-.082.082h-.41a.073.073,0,0,1-.082-.082l.023-2.221V48.973l-.023-1.488a.073.073,0,0,1,.082-.082l1.283.023H41.3l1.283-.023a.073.073,0,0,1,.082.082l-.023,1.225v1.16l.023,2.115a.073.073,0,0,1-.082.082h-.41q-.094,0-.094-.082v-.627Zm0-.516h3.064V47.953H39.018ZM55.2,46.418a14.24,14.24,0,0,0,2.3-1.02,2.485,2.485,0,0,0,.639-.48,4.571,4.571,0,0,1,.422.357.2.2,0,0,1,.07.135q0,.088-.146.105a3.3,3.3,0,0,0-.527.229,23.6,23.6,0,0,1-2.76,1.178v.908a.73.73,0,0,0,.07.387.44.44,0,0,0,.252.146,6.039,6.039,0,0,0,1.248.082,2.914,2.914,0,0,0,1.576-.252,1.889,1.889,0,0,0,.3-1.166,2.072,2.072,0,0,0,.352.24q.152.082.152.164a.853.853,0,0,1-.012.1,2.545,2.545,0,0,1-.158.727,1.113,1.113,0,0,1-.27.346,3.643,3.643,0,0,1-1.957.322A6.645,6.645,0,0,1,55.1,48.8a.578.578,0,0,1-.34-.252,1.1,1.1,0,0,1-.094-.516V45.457a7.556,7.556,0,0,0-.07-1.236q.246.012.6.059.146.023.146.1a.763.763,0,0,1-.07.211,3.219,3.219,0,0,0-.064.867Zm.023,5.156A12.737,12.737,0,0,0,57.674,50.5a2.175,2.175,0,0,0,.621-.48,3.53,3.53,0,0,1,.422.334.248.248,0,0,1,.082.158q0,.088-.146.105a2.716,2.716,0,0,0-.539.229,17.182,17.182,0,0,1-2.889,1.236V53.3a.585.585,0,0,0,.334.6,4.392,4.392,0,0,0,1.359.123,4.59,4.59,0,0,0,.9-.088,1.363,1.363,0,0,0,.551-.187.842.842,0,0,0,.264-.457,4.692,4.692,0,0,0,.082-.744,2.637,2.637,0,0,0,.369.24q.152.076.152.141a.867.867,0,0,1-.018.123,2.363,2.363,0,0,1-.193.738,1.3,1.3,0,0,1-.287.357,3.137,3.137,0,0,1-1.834.369,5.38,5.38,0,0,1-1.775-.182.889.889,0,0,1-.445-.9v-2.7a7.26,7.26,0,0,0-.07-1.225q.223.012.609.059.135.023.135.1a.774.774,0,0,1-.076.217,3.314,3.314,0,0,0-.059.861Zm-5.484-4.74a16.031,16.031,0,0,0,.949-1.916,3.428,3.428,0,0,0,.229-.82,2.975,2.975,0,0,1,.539.17q.158.07.158.146t-.123.176a1.009,1.009,0,0,0-.2.3,19.877,19.877,0,0,1-.984,1.881q1.559-.17,2.648-.346a6.731,6.731,0,0,0-.656-.855q-.029-.023-.029-.041,0-.035.111-.111l.141-.088a.234.234,0,0,1,.094-.035.1.1,0,0,1,.064.035,8.436,8.436,0,0,1,1.348,1.887.138.138,0,0,1,.018.059q0,.041-.105.111l-.17.105a.3.3,0,0,1-.135.064q-.041,0-.076-.076t-.34-.65q-1.447.27-3.656.551a1.347,1.347,0,0,0-.533.146.228.228,0,0,1-.117.047q-.059,0-.105-.129a3.518,3.518,0,0,1-.146-.562A8.38,8.38,0,0,0,49.74,46.834Zm3.135,5.2H50.139v1.078l.023,1.5q0,.088-.082.088h-.387q-.082,0-.082-.088l.023-1.471v-3.41l-.023-1.5a.073.073,0,0,1,.082-.082l1.2.023h1.236l1.213-.023q.07,0,.07.082l-.023,1.559v2.3l.012,1.57a.846.846,0,0,1-.24.721,2.378,2.378,0,0,1-1.2.193.34.34,0,0,1-.182-.029.581.581,0,0,1-.07-.164,1.174,1.174,0,0,0-.176-.369q.434.035.756.035a.718.718,0,0,0,.475-.117.538.538,0,0,0,.111-.387Zm0-.457V50.3H50.139v1.271Zm0-1.729V48.639H50.139v1.207Z" transform="translate(-1.131 9.914)"/>
</svg>
