<svg xmlns="http://www.w3.org/2000/svg" width="751.356" height="50.706" viewBox="0 0 751.356 50.706">
  <path id="パス_51" data-name="パス 51" d="M35.1-45.684v34.938h4V-41.958H52.164v-3.726Zm52.758,36.4A26.757,26.757,0,0,1,81.27-5.454a26.161,26.161,0,0,1-6.642-3.834ZM68.85-21.384H93.042v2.16H68.85Zm0-5.724H93.042v2.16H68.85Zm0-5.67H93.042v2.106H68.85Zm24.732,18.9-1.134.27H77.112c.648-.648,1.242-1.3,1.836-2H99.522V-36.342H83.214a19.117,19.117,0,0,0,.756-2.106h20.142v-5.184H57.942v5.184H77c-.108.7-.216,1.4-.378,2.106H62.694v20.736H71.28c-3.24,2.862-8.262,5.4-15.174,7.236a16.838,16.838,0,0,1,3.726,4.482A66.952,66.952,0,0,0,68.8-7.614,34.265,34.265,0,0,0,74.25-3.078,100.5,100.5,0,0,1,55.566-.432,20.135,20.135,0,0,1,57.942,4.7C65.988,3.942,73.98,2.646,80.838.27,87.048,2.7,94.5,4.1,103.086,4.7A28.5,28.5,0,0,1,106.7-1.026a103.216,103.216,0,0,1-18.2-2.16,27.126,27.126,0,0,0,9.072-8.208Zm26.838-3.51h6.7v3.672h-6.7Zm6.7-16.362v3.132h-6.7V-33.75Zm-6.7,8.046h6.7v3.4h-6.7ZM136.3-13.716H133V-33.75h3.672v-5.616H133V-45.09h-5.886v5.724h-6.7V-45.09h-5.778v5.724H110.43v5.616h4.212v20.034h-4.86V-8.1H136.3ZM116.478-7.722a24.985,24.985,0,0,1-7.128,8.748,36.248,36.248,0,0,1,5.13,3.834,37.987,37.987,0,0,0,7.992-10.8ZM144.45-18.9c.054-1.674.054-3.24.054-4.644v-2h7.776V-18.9Zm7.83-18.63v6.318H144.5V-37.53Zm6.21-5.832H138.51v19.818c0,7.02-.27,16.146-3.4,22.9a58.832,58.832,0,0,0-5.832-7.344l-4.86,2.646a53.689,53.689,0,0,1,5.778,8.154L134.676.27c-.162.324-.378.594-.54.918a18.552,18.552,0,0,1,5.076,3.618c2.916-4.86,4.266-11.61,4.86-17.982h8.208V-2.538c0,.864-.27,1.134-1.08,1.134-.756,0-3.348.054-5.67-.108a23.267,23.267,0,0,1,1.836,6.1c4,.054,6.75-.108,8.64-1.134s2.484-2.7,2.484-5.886Zm21.276-.324-.918.27H166.1V4.7H172.1v-42.39h4.752c-.972,3.78-2.214,8.64-3.348,12.1,3.186,3.618,4,6.966,4,9.5,0,1.512-.324,2.538-.972,3.024a2.689,2.689,0,0,1-1.566.486c-.7,0-1.512,0-2.538-.054a14.037,14.037,0,0,1,1.458,5.724,27.238,27.238,0,0,0,3.726-.108,6.934,6.934,0,0,0,3.186-1.242c1.728-1.188,2.538-3.456,2.484-7.02A16.077,16.077,0,0,0,179.118-26.3c1.674-4.212,3.51-10.152,5.022-14.85Zm12.1,15.39H204.39v4.536H191.862Zm12.528-9.5v4.266H191.862V-37.8Zm3.888,19.926a47.885,47.885,0,0,1-4.86,5.346,37.74,37.74,0,0,1-2.052-5.724h9.4v-25.11H185.706V-3.24c-2.106.324-4,.648-5.616.864l2.106,6.21C187.272,2.7,193.914,1.35,200.124-.108l-.486-5.616c-2.592.486-5.238.972-7.776,1.4V-18.252h3.888c2.43,10.53,6.642,18.576,14.58,22.788a22.807,22.807,0,0,1,4.158-5.454,20.44,20.44,0,0,1-8.478-7.074,95.039,95.039,0,0,0,7.29-6.318ZM226.26-34.182h33.21v7.4h6.642v-13.5H246.348v-5.4h-6.8v5.4h-19.6v13.5h6.318Zm20.034,23.544h14.85v-6.048h-14.85v-6.75H257.85v-6.1h-29.7v6.1h11.5V-4.374a14.536,14.536,0,0,1-7.344-8.478c.486-2.16.864-4.428,1.188-6.858l-6.7-.648c-.972,9.234-3.618,16.686-9.45,21.006a39.323,39.323,0,0,1,5.292,4.374,27.065,27.065,0,0,0,7.182-10.206c4.968,7.668,12.366,9.288,22.3,9.288h13.5a24.014,24.014,0,0,1,2.268-6.534c-3.618.162-12.528.162-15.444.162a55.8,55.8,0,0,1-6.156-.324ZM288.9,4.644V-30.294h-4V.918H271.836V4.644Zm59.4-16.2c2.592,2.646,5.508,6.318,6.642,8.8l3.24-2.052a37.906,37.906,0,0,0-6.858-8.586ZM375.57-25.11v-3.726H362.286v-6.858h10.8v-3.672h-10.8V-45.2h-4v5.832H347.76v3.672h10.53v6.858H344.574v3.726h20.412v6.48H346.572l-.486-3.186-6.264,1.89V-30.51h5.562v-3.78h-5.562V-45.144H336.15V-34.29h-4.212c.378-2.43.756-4.914,1.026-7.4l-3.51-.594c-.648,6.534-1.674,13.392-3.672,17.928a19.651,19.651,0,0,1,2.97,1.782,43.217,43.217,0,0,0,2.43-7.938h4.968v11.664c-3.78,1.134-7.29,2.106-10.044,2.862l1.08,3.78,8.964-2.754V4.1h3.672v-20.2l5.67-1.782v2.916h19.494V-.864c0,.81-.216.972-1.134,1.026s-3.834.054-7.128-.054a12.8,12.8,0,0,1,1.3,4c4.158,0,7.02-.054,8.694-.648,1.674-.7,2.214-1.89,2.214-4.266V-14.958h6.318V-18.63h-6.318v-6.48ZM387.018-39.1h13.716v10.368H387.018Zm5.562,19.71c.216-1.944.378-3.888.486-5.778h11.448v-17.55H383.292v17.55h5.886c-.54,9.774-1.836,20.79-9.18,26.622a10.274,10.274,0,0,1,2.754,2.754c5.67-4.7,8.208-12.15,9.4-19.98H401c-.486,10.638-1.026,14.742-2,15.822a2.177,2.177,0,0,1-1.836.594c-.972,0-3.51,0-6.156-.27a8.152,8.152,0,0,1,1.134,3.51,52.564,52.564,0,0,0,6.588,0,4.258,4.258,0,0,0,3.456-1.512c1.458-1.674,2-6.588,2.646-20.034,0-.486.054-1.728.054-1.728Zm21.33-19.332h-3.888v29.7h3.888Zm9.234-5.4v42.93c0,1.026-.432,1.35-1.4,1.35-1.026.054-4.428.108-8.208-.054a15.966,15.966,0,0,1,1.458,4.05c4.914,0,7.938-.054,9.72-.7,1.674-.7,2.43-1.944,2.43-4.644v-42.93Zm27.486.81H436.86v3.24h13.77Zm-3.024,32.616v9.018h-7.722v-9.018Zm3.456-3.294h-14.58V4.05h3.4V1.62h11.178ZM436.59-18.144h14.256V-21.33H436.59Zm14.256-10.53H436.59v3.186h14.256Zm-16.578-4.158H452.25v-3.294H434.268ZM469.8-7.614V-11.5h7.344v3.888ZM459.324-11.5H466.4v3.888h-7.074Zm7.074-6.75v3.942h-7.074v-3.942Zm10.746,0v3.942H469.8v-3.942ZM464.13-31.158h8.532v3.618H464.13Zm0-6.372h8.532v3.4H464.13ZM483.84-7.614h-2.97V-21.276H469.8v-3.078h13.986V-27.54H476.28v-3.618H481.9v-2.97H476.28v-3.4h6.7v-3.078h-6.7v-4.536h-3.618v4.536H464.13v-4.536h-3.672v4.536h-6.372v3.078h6.372v3.4h-5.292v2.97h5.292v3.618h-7.83v3.186H466.4v3.078H455.814V-7.614h-3.24v3.24h3.24V4.1h3.51V-4.374h17.82V.054c0,.648-.162.81-.918.81-.648.054-3.078.054-5.67,0a14.116,14.116,0,0,1,1.026,3.24c3.618,0,5.994-.054,7.4-.594,1.458-.54,1.89-1.512,1.89-3.4V-4.374h2.97ZM514.188-23.49c4.1-1.512,9.342-3.456,14.31-5.346l-.594-2.97c-5.616,2-11.286,4-15.174,5.238Zm10.584-10.26a29.781,29.781,0,0,0-7.236-4.914l-2.106,2.43a25.774,25.774,0,0,1,7.128,5.13Zm-17.928,9.018c0,.594-.162.81-.81.81-.648.054-2.808.054-5.184,0a14.882,14.882,0,0,1,1.026,2.97c3.4,0,5.562.054,6.966-.486,1.3-.54,1.728-1.458,1.728-3.24V-42.444H490.1v3.294h16.74ZM492.372-36.288A27.731,27.731,0,0,1,499.392-31l2.16-2.592a29.809,29.809,0,0,0-7.074-5.076ZM503.28-30.78c-5.346,2.106-10.8,4.1-14.472,5.238l1.566,3.294c3.888-1.512,8.748-3.51,13.5-5.562Zm23,21.114h-26.19V-14.9h26.19Zm-26.19,8.64V-6.48h26.19v5.454Zm10.8-22.086a46.456,46.456,0,0,1-2.106,5.076H496.152v22.3h3.942V2.16h26.19V4.266h4.05v-22.3h-17.6c.756-1.3,1.566-2.808,2.322-4.266ZM534.6-42.444H513.972v3.294H530.82v14.472c0,.648-.216.81-.864.864-.756,0-3.078,0-5.616-.108a11.849,11.849,0,0,1,1.134,3.186c3.564,0,5.832,0,7.29-.54,1.4-.594,1.836-1.512,1.836-3.4Zm48.6,6.318-2.754-2.106a14.786,14.786,0,0,1-4.05.432H555.552c-1.62,0-4.7-.216-5.454-.324v4.914c.594-.054,3.564-.27,5.454-.27h21.06c-1.35,4.482-5.292,10.854-8.964,15.012C562.086-12.258,554.094-5.832,545.4-2.43l3.456,3.618c7.992-3.618,15.282-9.558,21.06-15.768a124.679,124.679,0,0,1,14.85,16.038l3.78-3.24a149.8,149.8,0,0,0-15.768-16.146A68.343,68.343,0,0,0,581.85-33.75,15.49,15.49,0,0,1,583.2-36.126Zm39.744-6.264-4.914-1.566A19.5,19.5,0,0,1,616.3-39.69,49.486,49.486,0,0,1,598.968-20.9l3.618,2.808A58.907,58.907,0,0,0,616.9-32.4h18.252A45.114,45.114,0,0,1,627.8-17.442c-3.78-2.646-7.83-5.238-11.394-7.29l-2.916,2.97c3.456,2.16,7.56,4.968,11.448,7.776a47.371,47.371,0,0,1-20.9,13.014l3.888,3.348A51.242,51.242,0,0,0,628.506-11.34c2.214,1.782,4.266,3.456,5.886,4.914l3.186-3.726c-1.728-1.4-3.888-3.078-6.156-4.752A54.356,54.356,0,0,0,639.846-31.7a17.718,17.718,0,0,1,1.3-2.916l-3.564-2.16a10.762,10.762,0,0,1-3.564.54H619.38a18.1,18.1,0,0,0,1.134-1.944C621.054-39.15,622.026-40.986,622.944-42.39Zm30.564,19.008v5.292c1.674-.162,4.536-.27,7.506-.27H690.66c2.43,0,4.7.216,5.778.27v-5.292c-1.188.108-3.132.27-5.832.27H661.014C657.99-23.112,655.128-23.274,653.508-23.382ZM720.2-4.752a47.578,47.578,0,0,1-.378,6.372h5.238c-.216-1.782-.324-4.7-.324-6.372,0-1.566,0-9.72-.054-17.82A141.571,141.571,0,0,1,745.9-13.878l1.836-4.59a172.593,172.593,0,0,0-23.058-8.91v-8.8c0-1.62.216-3.942.378-5.616h-5.292a34.079,34.079,0,0,1,.432,5.616Zm61.02-8.316h3.564l1.08-20.952.108-6.372h-5.94l.108,6.372ZM783,.27a3.406,3.406,0,0,0,3.456-3.564A3.452,3.452,0,0,0,783-6.912a3.452,3.452,0,0,0-3.456,3.618A3.376,3.376,0,0,0,783,.27Z" transform="translate(-35.1 45.684)"/>
</svg>
