<svg xmlns="http://www.w3.org/2000/svg" width="87.627" height="52.869" viewBox="0 0 87.627 52.869">
  <path id="パス_97" data-name="パス 97" d="M6-5.508a.9.9,0,0,1,.7.311.913.913,0,0,1,.24.627.921.921,0,0,1-.311.7A.9.9,0,0,1,6-3.621a.913.913,0,0,1-.7-.316.922.922,0,0,1-.246-.633.9.9,0,0,1,.316-.7A.921.921,0,0,1,6-5.508Zm9.814,1.846V-6.574h-.627l-1.676.023q-.088,0-.088-.082v-.4q0-.082.088-.082l1.676.023h.627V-8.145A9.484,9.484,0,0,0,15.732-9.7a5.052,5.052,0,0,1,.633.07q.135.023.135.082a.712.712,0,0,1-.076.24,5.812,5.812,0,0,0-.059,1.166V-7.09h3.17V-8.145A9.484,9.484,0,0,0,19.453-9.7a4.48,4.48,0,0,1,.633.07q.135.018.135.082a.712.712,0,0,1-.076.24,5.812,5.812,0,0,0-.059,1.166V-7.09h.779l1.682-.023a.073.073,0,0,1,.082.082v.4a.073.073,0,0,1-.082.082l-1.682-.023h-.779v2.912h1.453l1.582-.023q.088,0,.088.082v.387q0,.082-.088.082l-1.582-.023H14.461l-1.588.023a.073.073,0,0,1-.082-.082V-3.6a.073.073,0,0,1,.082-.082l1.588.023Zm.551-2.912v2.912h3.17V-6.574Zm-.217,4.031a2.923,2.923,0,0,1,.533.252q.094.059.094.117t-.135.158a1.613,1.613,0,0,0-.275.287A9.344,9.344,0,0,1,13.441.563a.467.467,0,0,1-.158.059q-.059,0-.146-.117a1.013,1.013,0,0,0-.322-.275,8.7,8.7,0,0,0,2.842-1.98A2.128,2.128,0,0,0,16.148-2.543ZM23.039.146a1.233,1.233,0,0,0-.311.346q-.082.146-.129.146a.342.342,0,0,1-.135-.064,10.866,10.866,0,0,1-3.3-2.736.113.113,0,0,1-.023-.053q0-.035.123-.1l.205-.135a.241.241,0,0,1,.088-.035.1.1,0,0,1,.064.035A9.932,9.932,0,0,0,21.182-.926,8.911,8.911,0,0,0,23.039.146Zm8.947-7.324h.873L34.482-7.2a.073.073,0,0,1,.082.082L34.541-5.6V-3.65l.012,1.787a.847.847,0,0,1-.252.709,2.189,2.189,0,0,1-1.154.205.321.321,0,0,1-.182-.029.3.3,0,0,1-.07-.152.879.879,0,0,0-.176-.369q.369.035.861.035a.409.409,0,0,0,.457-.469v-1.26H31.564v.65L31.588-1.1q0,.088-.082.088h-.387q-.082,0-.082-.088l.023-1.447v-.65H28.8v.756l.023,1.465a.073.073,0,0,1-.082.082h-.387q-.07,0-.07-.082l.023-1.441v-3.24l-.023-1.465q0-.082.07-.082l1.635.023H31.3A9.8,9.8,0,0,0,29.813-8.2q-.047-.029-.047-.059t.094-.123l.135-.117q.07-.07.105-.07a.114.114,0,0,1,.059.023,12.6,12.6,0,0,1,1.348.955A13.647,13.647,0,0,0,33.352-9H29.777l-1.57.023q-.088,0-.088-.082V-9.41q0-.094.088-.094l1.57.023h3.539a.794.794,0,0,0,.275-.035.4.4,0,0,1,.146-.047q.082,0,.287.205t.193.311q0,.094-.146.146a1.42,1.42,0,0,0-.369.252,18.949,18.949,0,0,1-1.852,1.354A.631.631,0,0,0,31.986-7.178Zm2.051,1.764V-6.732H31.564v1.318Zm0,.445H31.564v1.33h2.473ZM28.8-3.639h2.256v-1.33H28.8Zm0-1.775h2.256V-6.732H28.8ZM35.619-.287a.947.947,0,0,0-.193.445Q35.4.3,35.361.328A.357.357,0,0,1,35.2.357q-2.221.17-4.395.17A7.362,7.362,0,0,1,27.814.105,2.227,2.227,0,0,1,26.7-1.1q-.586.633-1.225,1.213a.988.988,0,0,0-.24.264q-.047.094-.117.094a.19.19,0,0,1-.135-.082,2.611,2.611,0,0,1-.322-.492,4.176,4.176,0,0,0,.744-.469,9.784,9.784,0,0,0,1.043-1.02V-4.682h-.914l-.779.023a.073.073,0,0,1-.082-.082v-.41q0-.07.082-.07l.779.023h.58l.8-.023q.082,0,.082.07l-.023,1.143v2.426a2.451,2.451,0,0,0,.445.779,2.151,2.151,0,0,0,.621.445,6.333,6.333,0,0,0,2.449.334A51.061,51.061,0,0,0,35.619-.287ZM25.143-9.094a.1.1,0,0,1-.029-.053q0-.035.111-.105l.158-.105a.3.3,0,0,1,.105-.053.149.149,0,0,1,.088.047,9.45,9.45,0,0,1,1.318,1.635.135.135,0,0,1,.018.053q0,.041-.111.129l-.158.117a.359.359,0,0,1-.158.076q-.035,0-.059-.053A9.455,9.455,0,0,0,25.143-9.094ZM42.791-4.729v3.012a16.408,16.408,0,0,0,1.57-.539,2.587,2.587,0,0,0-.047.311.373.373,0,0,1-.035.193.422.422,0,0,1-.158.082q-1.113.439-2.578.855a1.682,1.682,0,0,0-.434.158.284.284,0,0,1-.152.07.125.125,0,0,1-.123-.094,3.548,3.548,0,0,1-.164-.557,7.6,7.6,0,0,0,1.113-.205q.17-.047.48-.117v-3.17h-.287l-1,.023a.073.073,0,0,1-.082-.082V-5.15q0-.07.082-.07l1,.023h.908l1.008-.023q.088,0,.088.07v.363q0,.082-.088.082l-1.008-.023Zm1.646-2.232H42.721L41.1-6.937a.073.073,0,0,1-.082-.082v-.387a.073.073,0,0,1,.082-.082l1.623.023h1.693q-.023-.7-.023-1.031a11.152,11.152,0,0,0-.076-1.395q.369.035.6.076.141.035.141.105a.776.776,0,0,1-.07.229,3.77,3.77,0,0,0-.059.9q0,.369.023,1.113h.686l1.617-.023a.073.073,0,0,1,.082.082v.387a.073.073,0,0,1-.082.082l-1.617-.023h-.674A24.318,24.318,0,0,0,45.621-2.1a5.506,5.506,0,0,0,.545,1.43q.264.434.5.434.492,0,.563-1.98a1.034,1.034,0,0,0,.334.252q.152.07.152.182a.951.951,0,0,1-.012.117,4.508,4.508,0,0,1-.375,1.652.737.737,0,0,1-.668.439q-.873,0-1.523-2.221A23.929,23.929,0,0,1,44.438-6.961Zm-6.615,7V.756a.073.073,0,0,1-.082.082h-.363a.073.073,0,0,1-.082-.082L37.318-1v-.709l-.023-1.031q0-.07.082-.07l1.008.012h.844l1.008-.012q.082,0,.082.07l-.023.844v.727L40.318.539a.073.073,0,0,1-.082.082h-.363a.073.073,0,0,1-.082-.082v-.5Zm0-.457h1.969V-2.338H37.822Zm.592-4h.791l.949-.023q.082,0,.082.088v.346a.073.073,0,0,1-.082.082l-.949-.023h-.791l-.961.023q-.088,0-.088-.082v-.346a.078.078,0,0,1,.088-.088Zm0-1.617h.791l.949-.023a.073.073,0,0,1,.082.082v.363a.073.073,0,0,1-.082.082l-.949-.023h-.791l-.961.023q-.088,0-.088-.082v-.363q0-.082.088-.082Zm0-3.217h.9l1.031-.023q.088,0,.088.082v.363q0,.082-.088.082l-1.031-.023h-.9l-1.037.023a.073.073,0,0,1-.082-.082v-.363a.073.073,0,0,1,.082-.082Zm-.34,1.594h1.295l1.236-.023q.088,0,.088.082v.375q0,.082-.088.082l-1.236-.023H38.074l-1.236.023a.073.073,0,0,1-.082-.082V-7.6a.073.073,0,0,1,.082-.082Zm7.488-1.523q-.035-.035-.035-.053t.111-.1l.129-.088a.365.365,0,0,1,.117-.059.117.117,0,0,1,.064.035,5.583,5.583,0,0,1,1.02,1.213.145.145,0,0,1,.023.059q0,.035-.123.111l-.141.082a.531.531,0,0,1-.146.082q-.023,0-.059-.059A4.907,4.907,0,0,0,45.563-9.182ZM55.91-5.3V-6.434h-.252l-1.131.023q-.082,0-.082-.07v-.34a.073.073,0,0,1,.082-.082l1.131.023h1.137L57.926-6.9a.073.073,0,0,1,.082.082v.34q0,.07-.082.07l-1.131-.023h-.381V-5.3h.779l1.441-.023a.073.073,0,0,1,.082.082l-.023.879v.8l.023.867a.073.073,0,0,1-.082.082l-1.441-.023h-.768A5.9,5.9,0,0,0,59.643.146a1.176,1.176,0,0,0-.287.311Q59.256.6,59.2.6a.484.484,0,0,1-.152-.059A6.683,6.683,0,0,1,56.08-2.35q-.012.047-.064.205A4.336,4.336,0,0,1,54.908-.486,6.435,6.435,0,0,1,53.3.674a.5.5,0,0,1-.17.07q-.047,0-.141-.117a.884.884,0,0,0-.311-.275A5.71,5.71,0,0,0,54.58-.9a4.071,4.071,0,0,0,1.008-1.512l.07-.229h-.434l-1.453.023a.073.073,0,0,1-.082-.082l.023-.867v-.8l-.023-.879a.073.073,0,0,1,.082-.082l1.453.023Zm0,.434H54.217v1.811h1.547A11.906,11.906,0,0,0,55.91-4.869Zm.346,1.811H58.2V-4.869H56.4A11.906,11.906,0,0,1,56.256-3.059ZM51.469-7.682h.123l1.09-.023q.082,0,.082.07v.34a.073.073,0,0,1-.082.082l-1.09-.023h-.123v1.283h.123l1.09-.023a.073.073,0,0,1,.082.082v.328a.073.073,0,0,1-.082.082l-1.09-.023h-.123v1.395h.48l1.107-.023q.094,0,.094.082-.035.252-.059.773a11.475,11.475,0,0,1-.48,3.4.953.953,0,0,1-.926.563q-.363,0-.756-.035Q50.807.633,50.783.6a.462.462,0,0,1-.047-.164,1.428,1.428,0,0,0-.129-.375,5.343,5.343,0,0,0,.955.111.675.675,0,0,0,.627-.357,11.866,11.866,0,0,0,.41-3.48H50.52l-1.26.023a.073.073,0,0,1-.082-.082L49.2-5.174V-7.957L49.178-9.4a.073.073,0,0,1,.082-.082l1.26.023h1.488l1.154-.023a.073.073,0,0,1,.082.082v.363a.073.073,0,0,1-.082.082l-1.154-.023h-.539Zm-.48,0V-8.977H49.693v1.295Zm0,.445H49.693v1.283h1.295Zm0,1.729H49.693v1.395h1.295Zm5.4-4.078a8.7,8.7,0,0,0,3.4,2.771.855.855,0,0,0-.264.311q-.07.141-.129.141a.368.368,0,0,1-.146-.053,8.565,8.565,0,0,1-3.117-2.8,8.7,8.7,0,0,1-2.93,2.877.4.4,0,0,1-.146.07q-.047,0-.141-.141a.741.741,0,0,0-.264-.252,6.84,6.84,0,0,0,1.723-1.189A6.758,6.758,0,0,0,55.57-9.322a2.328,2.328,0,0,0,.3-.709q.111.018.551.141.129.053.129.135a.107.107,0,0,1-.059.105A.381.381,0,0,0,56.391-9.586ZM50.52-.984a.141.141,0,0,1-.105.135L50.268-.8a.471.471,0,0,1-.123.035q-.047,0-.047-.059a11.532,11.532,0,0,0-.217-1.922.321.321,0,0,1-.012-.07q0-.041.111-.064l.129-.035a.853.853,0,0,1,.1-.012q.035,0,.047.053A11.82,11.82,0,0,1,50.52-.984ZM49.271-2.977l.158.035q.129.035.129.123a7.392,7.392,0,0,1-.551,2.438q-.029.053-.053.053a.288.288,0,0,1-.105-.059L48.65-.5q-.07-.047-.07-.082A.229.229,0,0,1,48.6-.662a6.669,6.669,0,0,0,.545-2.268q.006-.064.047-.064A.437.437,0,0,1,49.271-2.977Zm1.582.023a.452.452,0,0,1,.1-.023q.029,0,.047.047a8.2,8.2,0,0,1,.393,1.588.1.1,0,0,1,.006.029q0,.064-.111.111l-.094.047a.485.485,0,0,1-.129.053q-.029,0-.041-.076a7.759,7.759,0,0,0-.369-1.629.192.192,0,0,1-.012-.047q0-.029.129-.076Zm.7-.141a.222.222,0,0,1,.082-.023q.035,0,.064.059a6.117,6.117,0,0,1,.469,1.2.172.172,0,0,1,.006.041q0,.035-.094.076l-.094.047a.449.449,0,0,1-.117.041q-.029,0-.053-.064a6.218,6.218,0,0,0-.428-1.225.1.1,0,0,1-.018-.047q0-.023.088-.059ZM69.3-6.322h-1.57L66.275-6.3a.073.073,0,0,1-.082-.082v-.387a.073.073,0,0,1,.082-.082l1.453.023H69.3V-8.373a7.727,7.727,0,0,0-.082-1.371q.328.018.633.064.135.018.135.094a.774.774,0,0,1-.076.217,4.458,4.458,0,0,0-.059.984v1.559l1.33-.023q.088,0,.088.082v.387q0,.082-.088.082l-1.33-.023V-1.9L69.861-.17a.955.955,0,0,1-.3.756,2.553,2.553,0,0,1-1.289.2q-.17,0-.369-.006A.321.321,0,0,1,67.723.75a.4.4,0,0,1-.059-.164.954.954,0,0,0-.2-.4q.551.047,1.318.047a.547.547,0,0,0,.41-.117A.538.538,0,0,0,69.3-.264ZM64.98-7.178A11.693,11.693,0,0,1,64.125-3.3a17.716,17.716,0,0,1,1.418,2.027.127.127,0,0,1,.029.064q0,.029-.1.111L65.268-.9a.157.157,0,0,1-.082.041q-.035,0-.076-.064a17.928,17.928,0,0,0-1.225-1.869A8.732,8.732,0,0,1,61.2.322.384.384,0,0,1,61.049.4Q61,.4,60.908.287a1.229,1.229,0,0,0-.322-.264,8.144,8.144,0,0,0,2.918-3.3A22.081,22.081,0,0,0,61.652-5.3a.149.149,0,0,1-.047-.082.128.128,0,0,1,.047-.076l.182-.17a.232.232,0,0,1,.105-.064.081.081,0,0,1,.053.029,25.452,25.452,0,0,1,1.74,1.887,10.232,10.232,0,0,0,.691-3.4H62.361l-1.488.023a.073.073,0,0,1-.082-.082V-7.6a.073.073,0,0,1,.082-.082l1.488.023h.855v-.885a5.874,5.874,0,0,0-.088-1.26,5.652,5.652,0,0,1,.627.059q.129.018.129.094a.819.819,0,0,1-.07.217,3.783,3.783,0,0,0-.059.891v.885h.768l1.488-.023a.073.073,0,0,1,.082.082v.363a.073.073,0,0,1-.082.082l-.129-.006Q65.5-7.172,64.98-7.178Zm1.8,2.221A8.613,8.613,0,0,1,68.232-2.83a.138.138,0,0,1,.018.059q0,.029-.082.082l-.217.135a.423.423,0,0,1-.141.07q-.029,0-.059-.064a8.753,8.753,0,0,0-1.395-2.109.08.08,0,0,1-.035-.059q0-.035.094-.105l.182-.123A.213.213,0,0,1,66.7-5,.114.114,0,0,1,66.779-4.957ZM78.217-4.1v.838a9.121,9.121,0,0,0,2.414,2.021A13.519,13.519,0,0,0,83.4-.117a1.675,1.675,0,0,0-.264.34Q83.057.369,83,.369a.735.735,0,0,1-.152-.041,10.254,10.254,0,0,1-4.67-3.012L78.24.732a.078.078,0,0,1-.088.088h-.416a.078.078,0,0,1-.088-.088l.064-3.381a10.592,10.592,0,0,1-4.5,2.994.5.5,0,0,1-.152.047Q73,.393,72.914.24A1.023,1.023,0,0,0,72.65-.07,10.266,10.266,0,0,0,77.689-3.3v-.8H74.771v1.318l.023.844q0,.082-.07.082H74.3a.073.073,0,0,1-.082-.082l.023-.867v-.814l-.023-.891a.073.073,0,0,1,.082-.082l1.729.023h1.658v-.9H74.713l-1.623.023a.073.073,0,0,1-.082-.082v-.363a.073.073,0,0,1,.082-.082l1.623.023h2.977V-6A4.919,4.919,0,0,0,77.6-7.02q.322.018.6.059.146.023.146.094a.541.541,0,0,1-.07.205,2.1,2.1,0,0,0-.059.639v.07h3.129l1.617-.023q.088,0,.088.082v.363q0,.082-.088.082l-1.617-.023H78.217v.9h1.893l1.729-.023a.073.073,0,0,1,.082.082l-.023.65V-3.7l.012.873a.8.8,0,0,1-.264.7,2.059,2.059,0,0,1-1.055.182A.374.374,0,0,1,80.4-1.98a.411.411,0,0,1-.07-.164,1.083,1.083,0,0,0-.17-.363,4.327,4.327,0,0,0,.721.064q.492,0,.492-.457V-4.1Zm-3.7-4.553h2.074l1.26-.023q.088,0,.088.082v.352q0,.082-.088.082l-1.26-.023h-.7a5.767,5.767,0,0,1,.563,1.236.135.135,0,0,1,.012.047q0,.047-.129.094l-.217.076a.45.45,0,0,1-.135.035q-.047,0-.07-.076a5.74,5.74,0,0,0-.6-1.412H74.268a7.99,7.99,0,0,1-1.119,1.43q-.094.105-.129.105t-.146-.094a.7.7,0,0,0-.322-.17A7.414,7.414,0,0,0,74.244-9.34a1.911,1.911,0,0,0,.164-.609,4.9,4.9,0,0,1,.58.164q.105.047.105.123t-.105.146a.68.68,0,0,0-.182.275Q74.619-8.848,74.52-8.654Zm4.67,0h2.578l1.4-.023q.088,0,.088.082v.352q0,.082-.088.082l-1.4-.023H80.66a7.562,7.562,0,0,1,.627,1.271.105.105,0,0,1,.018.053q0,.041-.123.094l-.217.07a.533.533,0,0,1-.129.035q-.047,0-.076-.088a6.16,6.16,0,0,0-.674-1.436H78.938a10.123,10.123,0,0,1-.674.938q-.088.111-.123.111a.5.5,0,0,1-.164-.076,1.215,1.215,0,0,0-.328-.123,6.03,6.03,0,0,0,1.3-2.1,2.491,2.491,0,0,0,.082-.492,3.508,3.508,0,0,1,.557.141q.105.041.105.111a.277.277,0,0,1-.094.158,1.154,1.154,0,0,0-.158.3Q79.348-9,79.189-8.654Zm11.42-.322V-.9h1.74v.639H87.984V-.9h1.857v-7.26a8.329,8.329,0,0,1-1.887.9l-.141-.7a9.164,9.164,0,0,0,2.162-1.02ZM6,15.492a.9.9,0,0,1,.7.311.945.945,0,0,1-.07,1.33A.9.9,0,0,1,6,17.379a.957.957,0,0,1-.949-.949.9.9,0,0,1,.316-.7A.921.921,0,0,1,6,15.492Zm9.814,1.846V14.426h-.627l-1.676.023q-.088,0-.088-.082v-.4q0-.082.088-.082l1.676.023h.627V12.855a9.484,9.484,0,0,0-.082-1.559,5.052,5.052,0,0,1,.633.07q.135.023.135.082a.712.712,0,0,1-.076.24,5.812,5.812,0,0,0-.059,1.166V13.91h3.17V12.855a9.484,9.484,0,0,0-.082-1.559,4.48,4.48,0,0,1,.633.07q.135.018.135.082a.712.712,0,0,1-.076.24,5.812,5.812,0,0,0-.059,1.166V13.91h.779l1.682-.023a.073.073,0,0,1,.082.082v.4a.073.073,0,0,1-.082.082l-1.682-.023h-.779v2.912h1.453l1.582-.023q.088,0,.088.082v.387q0,.082-.088.082l-1.582-.023H14.461l-1.588.023a.073.073,0,0,1-.082-.082V17.4a.073.073,0,0,1,.082-.082l1.588.023Zm.551-2.912v2.912h3.17V14.426Zm-.217,4.031a2.923,2.923,0,0,1,.533.252q.094.059.094.117t-.135.158a1.613,1.613,0,0,0-.275.287,9.344,9.344,0,0,1-2.924,2.291.467.467,0,0,1-.158.059q-.059,0-.146-.117a1.013,1.013,0,0,0-.322-.275,8.7,8.7,0,0,0,2.842-1.98A2.128,2.128,0,0,0,16.148,18.457Zm6.891,2.689a1.233,1.233,0,0,0-.311.346q-.082.146-.129.146a.342.342,0,0,1-.135-.064,10.866,10.866,0,0,1-3.3-2.736.113.113,0,0,1-.023-.053q0-.035.123-.1l.205-.135a.241.241,0,0,1,.088-.035.1.1,0,0,1,.064.035,9.932,9.932,0,0,0,1.564,1.523A8.911,8.911,0,0,0,23.039,21.146Zm8.947-7.324h.873l1.623-.023a.073.073,0,0,1,.082.082L34.541,15.4V17.35l.012,1.787a.847.847,0,0,1-.252.709,2.189,2.189,0,0,1-1.154.205.321.321,0,0,1-.182-.029.3.3,0,0,1-.07-.152.879.879,0,0,0-.176-.369q.369.035.861.035a.409.409,0,0,0,.457-.469v-1.26H31.564v.65l.023,1.447q0,.088-.082.088h-.387q-.082,0-.082-.088l.023-1.447v-.65H28.8v.756l.023,1.465a.073.073,0,0,1-.082.082h-.387q-.07,0-.07-.082l.023-1.441v-3.24l-.023-1.465q0-.082.07-.082l1.635.023H31.3a9.8,9.8,0,0,0-1.488-1.02q-.047-.029-.047-.059t.094-.123l.135-.117q.07-.07.105-.07a.114.114,0,0,1,.059.023,12.6,12.6,0,0,1,1.348.955A13.647,13.647,0,0,0,33.352,12H29.777l-1.57.023q-.088,0-.088-.082V11.59q0-.094.088-.094l1.57.023h3.539a.794.794,0,0,0,.275-.035.4.4,0,0,1,.146-.047q.082,0,.287.205t.193.311q0,.094-.146.146a1.42,1.42,0,0,0-.369.252,18.949,18.949,0,0,1-1.852,1.354A.631.631,0,0,0,31.986,13.822Zm2.051,1.764V14.268H31.564v1.318Zm0,.445H31.564v1.33h2.473ZM28.8,17.361h2.256v-1.33H28.8Zm0-1.775h2.256V14.268H28.8Zm6.814,5.127a.947.947,0,0,0-.193.445q-.029.146-.064.17a.357.357,0,0,1-.164.029q-2.221.17-4.395.17a7.362,7.362,0,0,1-2.988-.422A2.227,2.227,0,0,1,26.7,19.9q-.586.633-1.225,1.213a.988.988,0,0,0-.24.264q-.047.094-.117.094a.19.19,0,0,1-.135-.082,2.611,2.611,0,0,1-.322-.492,4.176,4.176,0,0,0,.744-.469,9.784,9.784,0,0,0,1.043-1.02V16.318h-.914l-.779.023a.073.073,0,0,1-.082-.082v-.41q0-.07.082-.07l.779.023h.58l.8-.023q.082,0,.082.07l-.023,1.143v2.426a2.451,2.451,0,0,0,.445.779,2.151,2.151,0,0,0,.621.445,6.333,6.333,0,0,0,2.449.334A51.061,51.061,0,0,0,35.619,20.713ZM25.143,11.906a.1.1,0,0,1-.029-.053q0-.035.111-.105l.158-.105a.3.3,0,0,1,.105-.053.149.149,0,0,1,.088.047,9.45,9.45,0,0,1,1.318,1.635.135.135,0,0,1,.018.053q0,.041-.111.129l-.158.117a.359.359,0,0,1-.158.076q-.035,0-.059-.053A9.455,9.455,0,0,0,25.143,11.906Zm17.648,4.365v3.012a16.408,16.408,0,0,0,1.57-.539,2.587,2.587,0,0,0-.047.311.373.373,0,0,1-.035.193.422.422,0,0,1-.158.082q-1.113.439-2.578.855a1.682,1.682,0,0,0-.434.158.284.284,0,0,1-.152.07.125.125,0,0,1-.123-.094,3.548,3.548,0,0,1-.164-.557,7.6,7.6,0,0,0,1.113-.205q.17-.047.48-.117v-3.17h-.287l-1,.023a.073.073,0,0,1-.082-.082V15.85q0-.07.082-.07l1,.023h.908l1.008-.023q.088,0,.088.07v.363q0,.082-.088.082l-1.008-.023Zm1.646-2.232H42.721l-1.623.023a.073.073,0,0,1-.082-.082v-.387a.073.073,0,0,1,.082-.082l1.623.023h1.693q-.023-.7-.023-1.031a11.152,11.152,0,0,0-.076-1.395q.369.035.6.076.141.035.141.105a.776.776,0,0,1-.07.229,3.77,3.77,0,0,0-.059.9q0,.369.023,1.113h.686l1.617-.023a.073.073,0,0,1,.082.082v.387a.073.073,0,0,1-.082.082l-1.617-.023h-.674a24.318,24.318,0,0,0,.656,4.857,5.506,5.506,0,0,0,.545,1.43q.264.434.5.434.492,0,.563-1.98a1.034,1.034,0,0,0,.334.252q.152.07.152.182a.951.951,0,0,1-.012.117,4.508,4.508,0,0,1-.375,1.652.737.737,0,0,1-.668.439q-.873,0-1.523-2.221A23.929,23.929,0,0,1,44.438,14.039Zm-6.615,7v.721a.073.073,0,0,1-.082.082h-.363a.073.073,0,0,1-.082-.082L37.318,20v-.709l-.023-1.031q0-.07.082-.07l1.008.012h.844l1.008-.012q.082,0,.082.07l-.023.844v.727l.023,1.705a.073.073,0,0,1-.082.082h-.363a.073.073,0,0,1-.082-.082v-.5Zm0-.457h1.969V18.662H37.822Zm.592-4h.791l.949-.023q.082,0,.082.088v.346a.073.073,0,0,1-.082.082l-.949-.023h-.791l-.961.023q-.088,0-.088-.082v-.346a.078.078,0,0,1,.088-.088Zm0-1.617h.791l.949-.023a.073.073,0,0,1,.082.082v.363a.073.073,0,0,1-.082.082l-.949-.023h-.791l-.961.023q-.088,0-.088-.082v-.363q0-.082.088-.082Zm0-3.217h.9l1.031-.023q.088,0,.088.082v.363q0,.082-.088.082l-1.031-.023h-.9l-1.037.023a.073.073,0,0,1-.082-.082v-.363a.073.073,0,0,1,.082-.082Zm-.34,1.594h1.295l1.236-.023q.088,0,.088.082v.375q0,.082-.088.082l-1.236-.023H38.074l-1.236.023a.073.073,0,0,1-.082-.082V13.4a.073.073,0,0,1,.082-.082Zm7.488-1.523q-.035-.035-.035-.053t.111-.1l.129-.088a.365.365,0,0,1,.117-.059.117.117,0,0,1,.064.035,5.583,5.583,0,0,1,1.02,1.213.145.145,0,0,1,.023.059q0,.035-.123.111l-.141.082a.531.531,0,0,1-.146.082q-.023,0-.059-.059A4.907,4.907,0,0,0,45.563,11.818ZM55.91,15.7V14.566h-.252l-1.131.023q-.082,0-.082-.07v-.34a.073.073,0,0,1,.082-.082l1.131.023h1.137l1.131-.023a.073.073,0,0,1,.082.082v.34q0,.07-.082.07l-1.131-.023h-.381V15.7h.779l1.441-.023a.073.073,0,0,1,.082.082l-.023.879v.8l.023.867a.073.073,0,0,1-.082.082l-1.441-.023h-.768a5.9,5.9,0,0,0,3.217,2.783,1.176,1.176,0,0,0-.287.311q-.1.146-.152.146a.484.484,0,0,1-.152-.059A6.683,6.683,0,0,1,56.08,18.65q-.012.047-.064.205a4.336,4.336,0,0,1-1.107,1.658,6.435,6.435,0,0,1-1.605,1.16.5.5,0,0,1-.17.07q-.047,0-.141-.117a.884.884,0,0,0-.311-.275,5.71,5.71,0,0,0,1.9-1.248,4.071,4.071,0,0,0,1.008-1.512l.07-.229h-.434l-1.453.023a.073.073,0,0,1-.082-.082l.023-.867v-.8l-.023-.879a.073.073,0,0,1,.082-.082l1.453.023Zm0,.434H54.217v1.811h1.547A11.906,11.906,0,0,0,55.91,16.131Zm.346,1.811H58.2V16.131H56.4A11.906,11.906,0,0,1,56.256,17.941Zm-4.787-4.623h.123l1.09-.023q.082,0,.082.07v.34a.073.073,0,0,1-.082.082l-1.09-.023h-.123v1.283h.123l1.09-.023a.073.073,0,0,1,.082.082v.328a.073.073,0,0,1-.082.082l-1.09-.023h-.123v1.395h.48l1.107-.023q.094,0,.094.082-.035.252-.059.773a11.475,11.475,0,0,1-.48,3.4.953.953,0,0,1-.926.563q-.363,0-.756-.035-.123-.018-.146-.053a.462.462,0,0,1-.047-.164,1.428,1.428,0,0,0-.129-.375,5.343,5.343,0,0,0,.955.111.675.675,0,0,0,.627-.357,11.866,11.866,0,0,0,.41-3.48H50.52l-1.26.023a.073.073,0,0,1-.082-.082l.023-1.447V13.043L49.178,11.6a.073.073,0,0,1,.082-.082l1.26.023h1.488l1.154-.023a.073.073,0,0,1,.082.082v.363a.073.073,0,0,1-.082.082l-1.154-.023h-.539Zm-.48,0V12.023H49.693v1.295Zm0,.445H49.693v1.283h1.295Zm0,1.729H49.693v1.395h1.295Zm5.4-4.078a8.7,8.7,0,0,0,3.4,2.771.855.855,0,0,0-.264.311q-.07.141-.129.141a.368.368,0,0,1-.146-.053,8.565,8.565,0,0,1-3.117-2.8,8.7,8.7,0,0,1-2.93,2.877.4.4,0,0,1-.146.07q-.047,0-.141-.141a.741.741,0,0,0-.264-.252,6.84,6.84,0,0,0,1.723-1.189,6.758,6.758,0,0,0,1.189-1.471,2.328,2.328,0,0,0,.3-.709q.111.018.551.141.129.053.129.135a.107.107,0,0,1-.059.105A.381.381,0,0,0,56.391,11.414Zm-5.871,8.6a.141.141,0,0,1-.105.135l-.146.047a.471.471,0,0,1-.123.035q-.047,0-.047-.059a11.532,11.532,0,0,0-.217-1.922.321.321,0,0,1-.012-.07q0-.041.111-.064l.129-.035a.853.853,0,0,1,.1-.012q.035,0,.047.053A11.82,11.82,0,0,1,50.52,20.016Zm-1.248-1.992.158.035q.129.035.129.123a7.392,7.392,0,0,1-.551,2.438q-.029.053-.053.053a.288.288,0,0,1-.105-.059l-.2-.117q-.07-.047-.07-.082a.229.229,0,0,1,.018-.076,6.669,6.669,0,0,0,.545-2.268q.006-.064.047-.064A.437.437,0,0,1,49.271,18.023Zm1.582.023a.452.452,0,0,1,.1-.023q.029,0,.047.047a8.2,8.2,0,0,1,.393,1.588.1.1,0,0,1,.006.029q0,.064-.111.111l-.094.047a.485.485,0,0,1-.129.053q-.029,0-.041-.076a7.759,7.759,0,0,0-.369-1.629.192.192,0,0,1-.012-.047q0-.029.129-.076Zm.7-.141a.222.222,0,0,1,.082-.023q.035,0,.064.059a6.117,6.117,0,0,1,.469,1.2.172.172,0,0,1,.006.041q0,.035-.094.076l-.094.047a.449.449,0,0,1-.117.041q-.029,0-.053-.064a6.218,6.218,0,0,0-.428-1.225.1.1,0,0,1-.018-.047q0-.023.088-.059ZM69.3,14.678h-1.57l-1.453.023a.073.073,0,0,1-.082-.082v-.387a.073.073,0,0,1,.082-.082l1.453.023H69.3V12.627a7.727,7.727,0,0,0-.082-1.371q.328.018.633.064.135.018.135.094a.774.774,0,0,1-.076.217,4.458,4.458,0,0,0-.059.984v1.559l1.33-.023q.088,0,.088.082v.387q0,.082-.088.082l-1.33-.023V19.1l.012,1.729a.955.955,0,0,1-.3.756,2.553,2.553,0,0,1-1.289.2q-.17,0-.369-.006a.321.321,0,0,1-.182-.029.4.4,0,0,1-.059-.164.954.954,0,0,0-.2-.4q.551.047,1.318.047a.547.547,0,0,0,.41-.117.538.538,0,0,0,.105-.375Zm-4.318-.855a11.693,11.693,0,0,1-.855,3.879,17.716,17.716,0,0,1,1.418,2.027.127.127,0,0,1,.029.064q0,.029-.1.111l-.205.193a.157.157,0,0,1-.082.041q-.035,0-.076-.064a17.928,17.928,0,0,0-1.225-1.869A8.732,8.732,0,0,1,61.2,21.322a.384.384,0,0,1-.146.076q-.047,0-.141-.111a1.229,1.229,0,0,0-.322-.264,8.144,8.144,0,0,0,2.918-3.3A22.081,22.081,0,0,0,61.652,15.7a.149.149,0,0,1-.047-.082.128.128,0,0,1,.047-.076l.182-.17a.232.232,0,0,1,.105-.064.081.081,0,0,1,.053.029,25.451,25.451,0,0,1,1.74,1.887,10.232,10.232,0,0,0,.691-3.4H62.361l-1.488.023a.073.073,0,0,1-.082-.082V13.4a.073.073,0,0,1,.082-.082l1.488.023h.855v-.885a5.874,5.874,0,0,0-.088-1.26,5.652,5.652,0,0,1,.627.059q.129.018.129.094a.819.819,0,0,1-.07.217,3.783,3.783,0,0,0-.059.891v.885h.768l1.488-.023a.073.073,0,0,1,.082.082v.363a.073.073,0,0,1-.082.082l-.129-.006Q65.5,13.828,64.98,13.822Zm1.8,2.221a8.613,8.613,0,0,1,1.453,2.127.138.138,0,0,1,.018.059q0,.029-.082.082l-.217.135a.423.423,0,0,1-.141.07q-.029,0-.059-.064a8.753,8.753,0,0,0-1.395-2.109.08.08,0,0,1-.035-.059q0-.035.094-.105l.182-.123A.213.213,0,0,1,66.7,16,.114.114,0,0,1,66.779,16.043Zm11.438.855v.838a9.121,9.121,0,0,0,2.414,2.021A13.519,13.519,0,0,0,83.4,20.883a1.675,1.675,0,0,0-.264.34q-.076.146-.135.146a.735.735,0,0,1-.152-.041,10.254,10.254,0,0,1-4.67-3.012l.064,3.416a.078.078,0,0,1-.088.088h-.416a.078.078,0,0,1-.088-.088l.064-3.381a10.592,10.592,0,0,1-4.5,2.994.5.5,0,0,1-.152.047q-.064,0-.146-.152a1.023,1.023,0,0,0-.264-.311A10.266,10.266,0,0,0,77.689,17.7v-.8H74.771v1.318l.023.844q0,.082-.07.082H74.3a.073.073,0,0,1-.082-.082l.023-.867v-.814l-.023-.891a.073.073,0,0,1,.082-.082l1.729.023h1.658v-.9H74.713l-1.623.023a.073.073,0,0,1-.082-.082v-.363a.073.073,0,0,1,.082-.082l1.623.023h2.977V15a4.919,4.919,0,0,0-.088-1.02q.322.018.6.059.146.023.146.094a.541.541,0,0,1-.07.205,2.1,2.1,0,0,0-.059.639v.07h3.129l1.617-.023q.088,0,.088.082v.363q0,.082-.088.082l-1.617-.023H78.217v.9h1.893l1.729-.023a.073.073,0,0,1,.082.082l-.023.65V17.3l.012.873a.8.8,0,0,1-.264.7,2.059,2.059,0,0,1-1.055.182.374.374,0,0,1-.193-.029.411.411,0,0,1-.07-.164,1.083,1.083,0,0,0-.17-.363,4.327,4.327,0,0,0,.721.064q.492,0,.492-.457V16.9Zm-3.7-4.553h2.074l1.26-.023q.088,0,.088.082v.352q0,.082-.088.082l-1.26-.023h-.7a5.767,5.767,0,0,1,.563,1.236.135.135,0,0,1,.012.047q0,.047-.129.094l-.217.076a.45.45,0,0,1-.135.035q-.047,0-.07-.076a5.74,5.74,0,0,0-.6-1.412H74.268a7.99,7.99,0,0,1-1.119,1.43q-.094.105-.129.105t-.146-.094a.7.7,0,0,0-.322-.17,7.414,7.414,0,0,0,1.693-2.426,1.911,1.911,0,0,0,.164-.609,4.9,4.9,0,0,1,.58.164q.105.047.105.123t-.105.146a.68.68,0,0,0-.182.275Q74.619,12.152,74.52,12.346Zm4.67,0h2.578l1.4-.023q.088,0,.088.082v.352q0,.082-.088.082l-1.4-.023H80.66a7.562,7.562,0,0,1,.627,1.271.105.105,0,0,1,.018.053q0,.041-.123.094l-.217.07a.533.533,0,0,1-.129.035q-.047,0-.076-.088a6.16,6.16,0,0,0-.674-1.436H78.938a10.123,10.123,0,0,1-.674.938q-.088.111-.123.111a.5.5,0,0,1-.164-.076,1.216,1.216,0,0,0-.328-.123,6.03,6.03,0,0,0,1.3-2.1,2.491,2.491,0,0,0,.082-.492,3.508,3.508,0,0,1,.557.141q.105.041.105.111a.277.277,0,0,1-.094.158,1.154,1.154,0,0,0-.158.3Q79.348,12,79.189,12.346Zm8.18,1.91a2.852,2.852,0,0,1,1.084-1.775,2.722,2.722,0,0,1,1.641-.492,2.573,2.573,0,0,1,1.857.662,2.029,2.029,0,0,1,.627,1.547,2.442,2.442,0,0,1-.445,1.43,8.449,8.449,0,0,1-1.5,1.494,9.36,9.36,0,0,0-2.555,2.953H92.59v.662H87.3v-.592a10.4,10.4,0,0,1,2.795-3.475,7.157,7.157,0,0,0,1.383-1.459,1.907,1.907,0,0,0,.275-1.014,1.43,1.43,0,0,0-.533-1.189,1.759,1.759,0,0,0-1.137-.357q-1.576,0-1.934,1.8ZM6,36.492a.9.9,0,0,1,.7.311.945.945,0,0,1-.07,1.33A.9.9,0,0,1,6,38.379a.957.957,0,0,1-.949-.949.9.9,0,0,1,.316-.7A.921.921,0,0,1,6,36.492Zm9.814,1.846V35.426h-.627l-1.676.023q-.088,0-.088-.082v-.4q0-.082.088-.082l1.676.023h.627V33.855a9.484,9.484,0,0,0-.082-1.559,5.052,5.052,0,0,1,.633.07q.135.023.135.082a.712.712,0,0,1-.076.24,5.812,5.812,0,0,0-.059,1.166V34.91h3.17V33.855a9.484,9.484,0,0,0-.082-1.559,4.48,4.48,0,0,1,.633.07q.135.018.135.082a.712.712,0,0,1-.076.24,5.812,5.812,0,0,0-.059,1.166V34.91h.779l1.682-.023a.073.073,0,0,1,.082.082v.4a.073.073,0,0,1-.082.082l-1.682-.023h-.779v2.912h1.453l1.582-.023q.088,0,.088.082v.387q0,.082-.088.082l-1.582-.023H14.461l-1.588.023a.073.073,0,0,1-.082-.082V38.4a.073.073,0,0,1,.082-.082l1.588.023Zm.551-2.912v2.912h3.17V35.426Zm-.217,4.031a2.923,2.923,0,0,1,.533.252q.094.059.094.117t-.135.158a1.613,1.613,0,0,0-.275.287,9.344,9.344,0,0,1-2.924,2.291.467.467,0,0,1-.158.059q-.059,0-.146-.117a1.013,1.013,0,0,0-.322-.275,8.7,8.7,0,0,0,2.842-1.98A2.128,2.128,0,0,0,16.148,39.457Zm6.891,2.689a1.233,1.233,0,0,0-.311.346q-.082.146-.129.146a.342.342,0,0,1-.135-.064,10.866,10.866,0,0,1-3.3-2.736.113.113,0,0,1-.023-.053q0-.035.123-.1l.205-.135a.241.241,0,0,1,.088-.035.1.1,0,0,1,.064.035,9.932,9.932,0,0,0,1.564,1.523A8.911,8.911,0,0,0,23.039,42.146Zm8.947-7.324h.873l1.623-.023a.073.073,0,0,1,.082.082L34.541,36.4V38.35l.012,1.787a.847.847,0,0,1-.252.709,2.189,2.189,0,0,1-1.154.205.321.321,0,0,1-.182-.029.3.3,0,0,1-.07-.152.879.879,0,0,0-.176-.369q.369.035.861.035a.409.409,0,0,0,.457-.469v-1.26H31.564v.65l.023,1.447q0,.088-.082.088h-.387q-.082,0-.082-.088l.023-1.447v-.65H28.8v.756l.023,1.465a.073.073,0,0,1-.082.082h-.387q-.07,0-.07-.082l.023-1.441v-3.24l-.023-1.465q0-.082.07-.082l1.635.023H31.3a9.8,9.8,0,0,0-1.488-1.02q-.047-.029-.047-.059t.094-.123l.135-.117q.07-.07.105-.07a.114.114,0,0,1,.059.023,12.6,12.6,0,0,1,1.348.955A13.647,13.647,0,0,0,33.352,33H29.777l-1.57.023q-.088,0-.088-.082V32.59q0-.094.088-.094l1.57.023h3.539a.794.794,0,0,0,.275-.035.4.4,0,0,1,.146-.047q.082,0,.287.205t.193.311q0,.094-.146.146a1.42,1.42,0,0,0-.369.252,18.949,18.949,0,0,1-1.852,1.354A.631.631,0,0,0,31.986,34.822Zm2.051,1.764V35.268H31.564v1.318Zm0,.445H31.564v1.33h2.473ZM28.8,38.361h2.256v-1.33H28.8Zm0-1.775h2.256V35.268H28.8Zm6.814,5.127a.947.947,0,0,0-.193.445q-.029.146-.064.17a.357.357,0,0,1-.164.029q-2.221.17-4.395.17a7.362,7.362,0,0,1-2.988-.422A2.227,2.227,0,0,1,26.7,40.9q-.586.633-1.225,1.213a.988.988,0,0,0-.24.264q-.047.094-.117.094a.19.19,0,0,1-.135-.082,2.611,2.611,0,0,1-.322-.492,4.176,4.176,0,0,0,.744-.469,9.784,9.784,0,0,0,1.043-1.02V37.318h-.914l-.779.023a.073.073,0,0,1-.082-.082v-.41q0-.07.082-.07l.779.023h.58l.8-.023q.082,0,.082.07l-.023,1.143v2.426a2.451,2.451,0,0,0,.445.779,2.151,2.151,0,0,0,.621.445,6.333,6.333,0,0,0,2.449.334A51.061,51.061,0,0,0,35.619,41.713ZM25.143,32.906a.1.1,0,0,1-.029-.053q0-.035.111-.105l.158-.105a.3.3,0,0,1,.105-.053.149.149,0,0,1,.088.047,9.45,9.45,0,0,1,1.318,1.635.135.135,0,0,1,.018.053q0,.041-.111.129l-.158.117a.359.359,0,0,1-.158.076q-.035,0-.059-.053A9.455,9.455,0,0,0,25.143,32.906Zm17.648,4.365v3.012a16.408,16.408,0,0,0,1.57-.539,2.587,2.587,0,0,0-.047.311.373.373,0,0,1-.035.193.422.422,0,0,1-.158.082q-1.113.439-2.578.855a1.682,1.682,0,0,0-.434.158.284.284,0,0,1-.152.07.125.125,0,0,1-.123-.094,3.548,3.548,0,0,1-.164-.557,7.6,7.6,0,0,0,1.113-.205q.17-.047.48-.117v-3.17h-.287l-1,.023a.073.073,0,0,1-.082-.082V36.85q0-.07.082-.07l1,.023h.908l1.008-.023q.088,0,.088.07v.363q0,.082-.088.082l-1.008-.023Zm1.646-2.232H42.721l-1.623.023a.073.073,0,0,1-.082-.082v-.387a.073.073,0,0,1,.082-.082l1.623.023h1.693q-.023-.7-.023-1.031a11.152,11.152,0,0,0-.076-1.395q.369.035.6.076.141.035.141.105a.776.776,0,0,1-.07.229,3.77,3.77,0,0,0-.059.9q0,.369.023,1.113h.686l1.617-.023a.073.073,0,0,1,.082.082v.387a.073.073,0,0,1-.082.082l-1.617-.023h-.674a24.318,24.318,0,0,0,.656,4.857,5.506,5.506,0,0,0,.545,1.43q.264.434.5.434.492,0,.563-1.98a1.034,1.034,0,0,0,.334.252q.152.07.152.182a.951.951,0,0,1-.012.117,4.508,4.508,0,0,1-.375,1.652.737.737,0,0,1-.668.439q-.873,0-1.523-2.221A23.929,23.929,0,0,1,44.438,35.039Zm-6.615,7v.721a.073.073,0,0,1-.082.082h-.363a.073.073,0,0,1-.082-.082L37.318,41v-.709l-.023-1.031q0-.07.082-.07l1.008.012h.844l1.008-.012q.082,0,.082.07l-.023.844v.727l.023,1.705a.073.073,0,0,1-.082.082h-.363a.073.073,0,0,1-.082-.082v-.5Zm0-.457h1.969V39.662H37.822Zm.592-4h.791l.949-.023q.082,0,.082.088v.346a.073.073,0,0,1-.082.082l-.949-.023h-.791l-.961.023q-.088,0-.088-.082v-.346a.078.078,0,0,1,.088-.088Zm0-1.617h.791l.949-.023a.073.073,0,0,1,.082.082v.363a.073.073,0,0,1-.082.082l-.949-.023h-.791l-.961.023q-.088,0-.088-.082v-.363q0-.082.088-.082Zm0-3.217h.9l1.031-.023q.088,0,.088.082v.363q0,.082-.088.082l-1.031-.023h-.9l-1.037.023a.073.073,0,0,1-.082-.082v-.363a.073.073,0,0,1,.082-.082Zm-.34,1.594h1.295l1.236-.023q.088,0,.088.082v.375q0,.082-.088.082l-1.236-.023H38.074l-1.236.023a.073.073,0,0,1-.082-.082V34.4a.073.073,0,0,1,.082-.082Zm7.488-1.523q-.035-.035-.035-.053t.111-.1l.129-.088a.365.365,0,0,1,.117-.059.117.117,0,0,1,.064.035,5.583,5.583,0,0,1,1.02,1.213.145.145,0,0,1,.023.059q0,.035-.123.111l-.141.082a.531.531,0,0,1-.146.082q-.023,0-.059-.059A4.907,4.907,0,0,0,45.563,32.818ZM55.91,36.7V35.566h-.252l-1.131.023q-.082,0-.082-.07v-.34a.073.073,0,0,1,.082-.082l1.131.023h1.137l1.131-.023a.073.073,0,0,1,.082.082v.34q0,.07-.082.07l-1.131-.023h-.381V36.7h.779l1.441-.023a.073.073,0,0,1,.082.082l-.023.879v.8l.023.867a.073.073,0,0,1-.082.082l-1.441-.023h-.768a5.9,5.9,0,0,0,3.217,2.783,1.176,1.176,0,0,0-.287.311q-.1.146-.152.146a.484.484,0,0,1-.152-.059A6.683,6.683,0,0,1,56.08,39.65q-.012.047-.064.205a4.336,4.336,0,0,1-1.107,1.658,6.435,6.435,0,0,1-1.605,1.16.5.5,0,0,1-.17.07q-.047,0-.141-.117a.884.884,0,0,0-.311-.275,5.71,5.71,0,0,0,1.9-1.248,4.071,4.071,0,0,0,1.008-1.512l.07-.229h-.434l-1.453.023a.073.073,0,0,1-.082-.082l.023-.867v-.8l-.023-.879a.073.073,0,0,1,.082-.082l1.453.023Zm0,.434H54.217v1.811h1.547A11.906,11.906,0,0,0,55.91,37.131Zm.346,1.811H58.2V37.131H56.4A11.906,11.906,0,0,1,56.256,38.941Zm-4.787-4.623h.123l1.09-.023q.082,0,.082.07v.34a.073.073,0,0,1-.082.082l-1.09-.023h-.123v1.283h.123l1.09-.023a.073.073,0,0,1,.082.082v.328a.073.073,0,0,1-.082.082l-1.09-.023h-.123v1.395h.48l1.107-.023q.094,0,.094.082-.035.252-.059.773a11.475,11.475,0,0,1-.48,3.4.953.953,0,0,1-.926.563q-.363,0-.756-.035-.123-.018-.146-.053a.462.462,0,0,1-.047-.164,1.428,1.428,0,0,0-.129-.375,5.343,5.343,0,0,0,.955.111.675.675,0,0,0,.627-.357,11.866,11.866,0,0,0,.41-3.48H50.52l-1.26.023a.073.073,0,0,1-.082-.082l.023-1.447V34.043L49.178,32.6a.073.073,0,0,1,.082-.082l1.26.023h1.488l1.154-.023a.073.073,0,0,1,.082.082v.363a.073.073,0,0,1-.082.082l-1.154-.023h-.539Zm-.48,0V33.023H49.693v1.295Zm0,.445H49.693v1.283h1.295Zm0,1.729H49.693v1.395h1.295Zm5.4-4.078a8.7,8.7,0,0,0,3.4,2.771.855.855,0,0,0-.264.311q-.07.141-.129.141a.368.368,0,0,1-.146-.053,8.565,8.565,0,0,1-3.117-2.8,8.7,8.7,0,0,1-2.93,2.877.4.4,0,0,1-.146.07q-.047,0-.141-.141a.741.741,0,0,0-.264-.252,6.84,6.84,0,0,0,1.723-1.189,6.758,6.758,0,0,0,1.189-1.471,2.328,2.328,0,0,0,.3-.709q.111.018.551.141.129.053.129.135a.107.107,0,0,1-.059.105A.381.381,0,0,0,56.391,32.414Zm-5.871,8.6a.141.141,0,0,1-.105.135l-.146.047a.471.471,0,0,1-.123.035q-.047,0-.047-.059a11.532,11.532,0,0,0-.217-1.922.321.321,0,0,1-.012-.07q0-.041.111-.064l.129-.035a.853.853,0,0,1,.1-.012q.035,0,.047.053A11.82,11.82,0,0,1,50.52,41.016Zm-1.248-1.992.158.035q.129.035.129.123a7.392,7.392,0,0,1-.551,2.438q-.029.053-.053.053a.288.288,0,0,1-.105-.059l-.2-.117q-.07-.047-.07-.082a.229.229,0,0,1,.018-.076,6.669,6.669,0,0,0,.545-2.268q.006-.064.047-.064A.437.437,0,0,1,49.271,39.023Zm1.582.023a.452.452,0,0,1,.1-.023q.029,0,.047.047a8.2,8.2,0,0,1,.393,1.588.1.1,0,0,1,.006.029q0,.064-.111.111l-.094.047a.485.485,0,0,1-.129.053q-.029,0-.041-.076a7.759,7.759,0,0,0-.369-1.629.192.192,0,0,1-.012-.047q0-.029.129-.076Zm.7-.141a.222.222,0,0,1,.082-.023q.035,0,.064.059a6.117,6.117,0,0,1,.469,1.2.172.172,0,0,1,.006.041q0,.035-.094.076l-.094.047a.449.449,0,0,1-.117.041q-.029,0-.053-.064a6.218,6.218,0,0,0-.428-1.225.1.1,0,0,1-.018-.047q0-.023.088-.059ZM69.3,35.678h-1.57l-1.453.023a.073.073,0,0,1-.082-.082v-.387a.073.073,0,0,1,.082-.082l1.453.023H69.3V33.627a7.727,7.727,0,0,0-.082-1.371q.328.018.633.064.135.018.135.094a.774.774,0,0,1-.076.217,4.458,4.458,0,0,0-.059.984v1.559l1.33-.023q.088,0,.088.082v.387q0,.082-.088.082l-1.33-.023V40.1l.012,1.729a.955.955,0,0,1-.3.756,2.553,2.553,0,0,1-1.289.2q-.17,0-.369-.006a.321.321,0,0,1-.182-.029.4.4,0,0,1-.059-.164.954.954,0,0,0-.2-.4q.551.047,1.318.047a.547.547,0,0,0,.41-.117.538.538,0,0,0,.105-.375Zm-4.318-.855a11.693,11.693,0,0,1-.855,3.879,17.716,17.716,0,0,1,1.418,2.027.127.127,0,0,1,.029.064q0,.029-.1.111l-.205.193a.157.157,0,0,1-.082.041q-.035,0-.076-.064a17.928,17.928,0,0,0-1.225-1.869A8.732,8.732,0,0,1,61.2,42.322a.384.384,0,0,1-.146.076q-.047,0-.141-.111a1.229,1.229,0,0,0-.322-.264,8.144,8.144,0,0,0,2.918-3.3A22.081,22.081,0,0,0,61.652,36.7a.149.149,0,0,1-.047-.082.128.128,0,0,1,.047-.076l.182-.17a.232.232,0,0,1,.105-.064.081.081,0,0,1,.053.029,25.451,25.451,0,0,1,1.74,1.887,10.232,10.232,0,0,0,.691-3.4H62.361l-1.488.023a.073.073,0,0,1-.082-.082V34.4a.073.073,0,0,1,.082-.082l1.488.023h.855v-.885a5.874,5.874,0,0,0-.088-1.26,5.652,5.652,0,0,1,.627.059q.129.018.129.094a.819.819,0,0,1-.07.217,3.783,3.783,0,0,0-.059.891v.885h.768l1.488-.023a.073.073,0,0,1,.082.082v.363a.073.073,0,0,1-.082.082l-.129-.006Q65.5,34.828,64.98,34.822Zm1.8,2.221a8.613,8.613,0,0,1,1.453,2.127.138.138,0,0,1,.018.059q0,.029-.082.082l-.217.135a.423.423,0,0,1-.141.07q-.029,0-.059-.064a8.753,8.753,0,0,0-1.395-2.109.08.08,0,0,1-.035-.059q0-.035.094-.105l.182-.123A.213.213,0,0,1,66.7,37,.114.114,0,0,1,66.779,37.043Zm11.438.855v.838a9.121,9.121,0,0,0,2.414,2.021A13.519,13.519,0,0,0,83.4,41.883a1.675,1.675,0,0,0-.264.34q-.076.146-.135.146a.735.735,0,0,1-.152-.041,10.254,10.254,0,0,1-4.67-3.012l.064,3.416a.078.078,0,0,1-.088.088h-.416a.078.078,0,0,1-.088-.088l.064-3.381a10.592,10.592,0,0,1-4.5,2.994.5.5,0,0,1-.152.047q-.064,0-.146-.152a1.023,1.023,0,0,0-.264-.311A10.266,10.266,0,0,0,77.689,38.7v-.8H74.771v1.318l.023.844q0,.082-.07.082H74.3a.073.073,0,0,1-.082-.082l.023-.867v-.814l-.023-.891a.073.073,0,0,1,.082-.082l1.729.023h1.658v-.9H74.713l-1.623.023a.073.073,0,0,1-.082-.082v-.363a.073.073,0,0,1,.082-.082l1.623.023h2.977V36a4.919,4.919,0,0,0-.088-1.02q.322.018.6.059.146.023.146.094a.541.541,0,0,1-.07.205,2.1,2.1,0,0,0-.059.639v.07h3.129l1.617-.023q.088,0,.088.082v.363q0,.082-.088.082l-1.617-.023H78.217v.9h1.893l1.729-.023a.073.073,0,0,1,.082.082l-.023.65V38.3l.012.873a.8.8,0,0,1-.264.7,2.059,2.059,0,0,1-1.055.182.374.374,0,0,1-.193-.029.411.411,0,0,1-.07-.164,1.083,1.083,0,0,0-.17-.363,4.327,4.327,0,0,0,.721.064q.492,0,.492-.457V37.9Zm-3.7-4.553h2.074l1.26-.023q.088,0,.088.082v.352q0,.082-.088.082l-1.26-.023h-.7a5.767,5.767,0,0,1,.563,1.236.135.135,0,0,1,.012.047q0,.047-.129.094l-.217.076a.45.45,0,0,1-.135.035q-.047,0-.07-.076a5.74,5.74,0,0,0-.6-1.412H74.268a7.99,7.99,0,0,1-1.119,1.43q-.094.105-.129.105t-.146-.094a.7.7,0,0,0-.322-.17,7.414,7.414,0,0,0,1.693-2.426,1.911,1.911,0,0,0,.164-.609,4.9,4.9,0,0,1,.58.164q.105.047.105.123t-.105.146a.68.68,0,0,0-.182.275Q74.619,33.152,74.52,33.346Zm4.67,0h2.578l1.4-.023q.088,0,.088.082v.352q0,.082-.088.082l-1.4-.023H80.66a7.562,7.562,0,0,1,.627,1.271.105.105,0,0,1,.018.053q0,.041-.123.094l-.217.07a.533.533,0,0,1-.129.035q-.047,0-.076-.088a6.16,6.16,0,0,0-.674-1.436H78.938a10.123,10.123,0,0,1-.674.938q-.088.111-.123.111a.5.5,0,0,1-.164-.076,1.215,1.215,0,0,0-.328-.123,6.03,6.03,0,0,0,1.3-2.1,2.491,2.491,0,0,0,.082-.492,3.508,3.508,0,0,1,.557.141q.105.041.105.111a.277.277,0,0,1-.094.158,1.154,1.154,0,0,0-.158.3Q79.348,33,79.189,33.346Zm8.174,1.313a2.543,2.543,0,0,1,2.578-1.67,2.674,2.674,0,0,1,1.881.65,1.89,1.89,0,0,1,.627,1.447,1.914,1.914,0,0,1-.521,1.389,2.3,2.3,0,0,1-1.219.627v.076a2.53,2.53,0,0,1,1.518.855,2.128,2.128,0,0,1,.451,1.365,2.315,2.315,0,0,1-.85,1.9,2.833,2.833,0,0,1-1.852.6,3.291,3.291,0,0,1-1.8-.445,2.77,2.77,0,0,1-1-1.2l.744-.311a2.114,2.114,0,0,0,.879,1.049,2.387,2.387,0,0,0,1.172.258,1.846,1.846,0,0,0,1.424-.562,1.792,1.792,0,0,0,.451-1.26,1.686,1.686,0,0,0-.65-1.441,2.709,2.709,0,0,0-1.658-.445h-.68V36.85h.609a2.419,2.419,0,0,0,1.682-.51,1.547,1.547,0,0,0,.48-1.2,1.361,1.361,0,0,0-.545-1.154,1.834,1.834,0,0,0-1.148-.346,1.748,1.748,0,0,0-1.834,1.318Z" transform="translate(-5.051 10.031)"/>
</svg>
