<svg xmlns="http://www.w3.org/2000/svg" width="110.223" height="12.722" viewBox="0 0 110.223 12.722">
  <path id="パス_90" data-name="パス 90" d="M4.45-4.272v-3.4H3.719l-1.955.027q-.1,0-.1-.1V-8.2q0-.1.1-.1l1.955.027H4.45V-9.5a11.064,11.064,0,0,0-.1-1.818,5.894,5.894,0,0,1,.738.082q.157.027.157.1a.831.831,0,0,1-.089.28A6.78,6.78,0,0,0,5.093-9.5v1.23h3.7V-9.5a11.064,11.064,0,0,0-.1-1.818,5.227,5.227,0,0,1,.738.082q.157.021.157.1a.831.831,0,0,1-.089.28A6.78,6.78,0,0,0,9.434-9.5v1.23h.909L12.3-8.3a.085.085,0,0,1,.1.1v.465a.085.085,0,0,1-.1.1L10.343-7.67H9.434v3.4h1.7L12.975-4.3q.1,0,.1.1v.451q0,.1-.1.1l-1.846-.027H2.871l-1.853.027a.085.085,0,0,1-.1-.1V-4.2a.085.085,0,0,1,.1-.1l1.853.027Zm.643-3.4v3.4h3.7v-3.4Zm-.253,4.7a3.41,3.41,0,0,1,.622.294q.109.068.109.137t-.157.185a1.882,1.882,0,0,0-.321.335A10.9,10.9,0,0,1,1.682.656.544.544,0,0,1,1.5.725q-.068,0-.171-.137A1.182,1.182,0,0,0,.95.267,10.153,10.153,0,0,0,4.266-2.044,2.483,2.483,0,0,0,4.84-2.967ZM12.879.171a1.438,1.438,0,0,0-.362.4q-.1.171-.15.171A.4.4,0,0,1,12.209.67,12.676,12.676,0,0,1,8.354-2.522a.132.132,0,0,1-.027-.062q0-.041.144-.116l.239-.157a.281.281,0,0,1,.1-.041.114.114,0,0,1,.075.041A11.588,11.588,0,0,0,10.712-1.08,10.4,10.4,0,0,0,12.879.171ZM23.317-8.374h1.019L26.229-8.4a.085.085,0,0,1,.1.1L26.3-6.528v2.27l.014,2.085a.988.988,0,0,1-.294.827,2.554,2.554,0,0,1-1.347.239.375.375,0,0,1-.212-.034.349.349,0,0,1-.082-.178,1.025,1.025,0,0,0-.205-.431q.431.041,1,.041a.477.477,0,0,0,.533-.547v-1.47H22.825v.759l.027,1.688q0,.1-.1.1h-.451q-.1,0-.1-.1l.027-1.688v-.759H19.605v.882l.027,1.709a.085.085,0,0,1-.1.1h-.451q-.082,0-.082-.1l.027-1.682V-6.6L19-8.306q0-.1.082-.1l1.907.027h1.524a11.439,11.439,0,0,0-1.736-1.189q-.055-.034-.055-.068t.109-.144l.157-.137q.082-.082.123-.082a.133.133,0,0,1,.068.027,14.7,14.7,0,0,1,1.572,1.114A15.921,15.921,0,0,0,24.91-10.5H20.74l-1.832.027q-.1,0-.1-.1v-.41q0-.109.1-.109l1.832.027h4.129a.927.927,0,0,0,.321-.041.466.466,0,0,1,.171-.055q.1,0,.335.239t.226.362q0,.109-.171.171a1.656,1.656,0,0,0-.431.294,22.107,22.107,0,0,1-2.16,1.579A.736.736,0,0,0,23.317-8.374ZM25.71-6.316V-7.854H22.825v1.538Zm0,.52H22.825v1.552H25.71Zm-6.1,1.552h2.632V-5.8H19.605Zm0-2.071h2.632V-7.854H19.605Zm7.95,5.981a1.105,1.105,0,0,0-.226.52q-.034.171-.075.2a.417.417,0,0,1-.191.034q-2.591.2-5.127.2A8.589,8.589,0,0,1,18.45.123a2.6,2.6,0,0,1-1.3-1.408Q16.468-.547,15.723.13a1.152,1.152,0,0,0-.28.308q-.055.109-.137.109a.222.222,0,0,1-.157-.1,3.046,3.046,0,0,1-.376-.574,4.872,4.872,0,0,0,.868-.547,11.415,11.415,0,0,0,1.217-1.189v-3.6H15.791l-.909.027a.085.085,0,0,1-.1-.1v-.479q0-.082.1-.082l.909.027h.677l.937-.027q.1,0,.1.082l-.027,1.333v2.83a2.86,2.86,0,0,0,.52.909,2.509,2.509,0,0,0,.725.52,7.389,7.389,0,0,0,2.857.39A59.571,59.571,0,0,0,27.556-.335ZM15.333-10.609a.12.12,0,0,1-.034-.062q0-.041.13-.123l.185-.123a.35.35,0,0,1,.123-.062.174.174,0,0,1,.1.055,11.025,11.025,0,0,1,1.538,1.907.157.157,0,0,1,.021.062q0,.048-.13.15l-.185.137a.419.419,0,0,1-.185.089q-.041,0-.068-.062A11.03,11.03,0,0,0,15.333-10.609Zm20.59,5.093V-2a19.143,19.143,0,0,0,1.832-.629,3.018,3.018,0,0,0-.055.362.435.435,0,0,1-.041.226.492.492,0,0,1-.185.1q-1.3.513-3.008,1a1.962,1.962,0,0,0-.506.185.331.331,0,0,1-.178.082.146.146,0,0,1-.144-.109,4.139,4.139,0,0,1-.191-.649,8.867,8.867,0,0,0,1.3-.239q.2-.055.561-.137v-3.7h-.335l-1.162.027a.085.085,0,0,1-.1-.1v-.424q0-.082.1-.082l1.162.027h1.06l1.176-.027q.1,0,.1.082v.424q0,.1-.1.1l-1.176-.027Zm1.921-2.6h-2l-1.894.027a.085.085,0,0,1-.1-.1v-.451a.085.085,0,0,1,.1-.1l1.894.027h1.976q-.027-.813-.027-1.2a13.011,13.011,0,0,0-.089-1.627q.431.041.7.089.164.041.164.123a.905.905,0,0,1-.082.267,4.4,4.4,0,0,0-.068,1.053q0,.431.027,1.3h.8l1.887-.027a.085.085,0,0,1,.1.1v.451a.085.085,0,0,1-.1.1l-1.887-.027h-.786a28.371,28.371,0,0,0,.766,5.667A6.424,6.424,0,0,0,39.86-.786q.308.506.588.506.574,0,.656-2.311a1.206,1.206,0,0,0,.39.294q.178.082.178.212a1.11,1.11,0,0,1-.014.137,5.259,5.259,0,0,1-.437,1.928.86.86,0,0,1-.779.513q-1.019,0-1.777-2.591A27.917,27.917,0,0,1,37.844-8.121ZM30.126.041V.882a.085.085,0,0,1-.1.1h-.424a.085.085,0,0,1-.1-.1l.027-2.044v-.827l-.027-1.2q0-.082.1-.082l1.176.014h.984l1.176-.014q.1,0,.1.082l-.027.984v.848L33.038.629a.085.085,0,0,1-.1.1h-.424a.085.085,0,0,1-.1-.1V.041Zm0-.533h2.3V-2.728h-2.3Zm.69-4.662h.923l1.107-.027q.1,0,.1.1v.4a.085.085,0,0,1-.1.1l-1.107-.027h-.923L29.7-4.58q-.1,0-.1-.1v-.4a.091.091,0,0,1,.1-.1Zm0-1.887h.923l1.107-.027a.085.085,0,0,1,.1.1v.424a.085.085,0,0,1-.1.1L31.739-6.48h-.923L29.7-6.453q-.1,0-.1-.1v-.424q0-.1.1-.1Zm0-3.753h1.046l1.2-.027q.1,0,.1.1v.424q0,.1-.1.1l-1.2-.027H30.816l-1.21.027a.085.085,0,0,1-.1-.1v-.424a.085.085,0,0,1,.1-.1Zm-.4,1.859h1.511l1.442-.027q.1,0,.1.1v.438q0,.1-.1.1L31.931-8.36H30.42l-1.442.027a.085.085,0,0,1-.1-.1v-.437a.085.085,0,0,1,.1-.1Zm8.736-1.777q-.041-.041-.041-.062t.13-.116l.15-.1a.426.426,0,0,1,.137-.068.137.137,0,0,1,.075.041A6.514,6.514,0,0,1,40.8-9.6a.17.17,0,0,1,.027.068q0,.041-.144.13l-.164.1a.62.62,0,0,1-.171.1q-.027,0-.068-.068A5.725,5.725,0,0,0,39.156-10.712ZM51.229-6.187V-7.506h-.294l-1.319.027q-.1,0-.1-.082v-.4a.085.085,0,0,1,.1-.1l1.319.027h1.326l1.319-.027a.085.085,0,0,1,.1.1v.4q0,.082-.1.082l-1.319-.027h-.444v1.319h.909l1.682-.027a.085.085,0,0,1,.1.1l-.027,1.025v.937L54.5-3.145a.085.085,0,0,1-.1.1l-1.682-.027h-.9A6.889,6.889,0,0,0,55.583.171a1.372,1.372,0,0,0-.335.362Q55.132.7,55.07.7a.565.565,0,0,1-.178-.068,7.8,7.8,0,0,1-3.466-3.377q-.014.055-.075.239A5.059,5.059,0,0,1,50.06-.567,7.508,7.508,0,0,1,48.187.786a.58.58,0,0,1-.2.082q-.055,0-.164-.137A1.032,1.032,0,0,0,47.462.41a6.662,6.662,0,0,0,2.215-1.456A4.749,4.749,0,0,0,50.853-2.81l.082-.267h-.506l-1.7.027a.085.085,0,0,1-.1-.1l.027-1.012v-.937l-.027-1.025a.085.085,0,0,1,.1-.1l1.7.027Zm0,.506H49.253v2.112h1.8A13.89,13.89,0,0,0,51.229-5.681Zm.4,2.112H53.9V-5.681H51.8A13.89,13.89,0,0,1,51.632-3.568ZM46.047-8.962h.144l1.271-.027q.1,0,.1.082v.4a.085.085,0,0,1-.1.1L46.19-8.442h-.144v1.5h.144l1.271-.027a.085.085,0,0,1,.1.1v.383a.085.085,0,0,1-.1.1L46.19-6.426h-.144V-4.8h.561L47.9-4.826q.109,0,.109.1-.041.294-.068.9A13.387,13.387,0,0,1,47.38.144,1.112,1.112,0,0,1,46.3.8q-.424,0-.882-.041Q45.274.738,45.247.7a.539.539,0,0,1-.055-.191,1.666,1.666,0,0,0-.15-.437A6.234,6.234,0,0,0,46.156.2a.788.788,0,0,0,.731-.417,13.843,13.843,0,0,0,.479-4.061H44.939l-1.47.027a.085.085,0,0,1-.1-.1L43.4-6.036V-9.283l-.027-1.682a.085.085,0,0,1,.1-.1l1.47.027h1.736l1.347-.027a.085.085,0,0,1,.1.1v.424a.085.085,0,0,1-.1.1l-1.347-.027h-.629Zm-.561,0v-1.511H43.976v1.511Zm0,.52H43.976v1.5h1.511Zm0,2.017H43.976V-4.8h1.511Zm6.3-4.758A10.152,10.152,0,0,0,55.761-7.95a1,1,0,0,0-.308.362q-.082.164-.15.164a.429.429,0,0,1-.171-.062A9.993,9.993,0,0,1,51.5-10.753,10.145,10.145,0,0,1,48.077-7.4a.464.464,0,0,1-.171.082q-.055,0-.164-.164a.865.865,0,0,0-.308-.294,7.98,7.98,0,0,0,2.01-1.388,7.885,7.885,0,0,0,1.388-1.716,2.716,2.716,0,0,0,.355-.827q.13.021.643.164.15.062.15.157a.125.125,0,0,1-.068.123A.445.445,0,0,0,51.789-11.184ZM44.939-1.148a.164.164,0,0,1-.123.157l-.171.055A.55.55,0,0,1,44.5-.9q-.055,0-.055-.068a13.454,13.454,0,0,0-.253-2.242.374.374,0,0,1-.014-.082q0-.048.13-.075l.15-.041a1,1,0,0,1,.116-.014q.041,0,.055.062A13.79,13.79,0,0,1,44.939-1.148ZM43.483-3.473l.185.041q.15.041.15.144a8.624,8.624,0,0,1-.643,2.844q-.034.062-.062.062a.336.336,0,0,1-.123-.068l-.232-.137q-.082-.055-.082-.1A.268.268,0,0,1,42.7-.772a7.78,7.78,0,0,0,.636-2.646q.007-.075.055-.075A.51.51,0,0,1,43.483-3.473Zm1.846.027a.527.527,0,0,1,.116-.027q.034,0,.055.055a9.569,9.569,0,0,1,.458,1.853.112.112,0,0,1,.007.034q0,.075-.13.13l-.109.055a.565.565,0,0,1-.15.062q-.034,0-.048-.089a9.052,9.052,0,0,0-.431-1.9.224.224,0,0,1-.014-.055q0-.034.15-.089Zm.813-.164a.259.259,0,0,1,.1-.027q.041,0,.075.068a7.136,7.136,0,0,1,.547,1.4.2.2,0,0,1,.007.048q0,.041-.109.089l-.109.055a.523.523,0,0,1-.137.048q-.034,0-.062-.075a7.255,7.255,0,0,0-.5-1.429.117.117,0,0,1-.021-.055q0-.027.1-.068ZM66.849-7.376H65.017l-1.7.027a.085.085,0,0,1-.1-.1V-7.9a.085.085,0,0,1,.1-.1l1.7.027h1.832v-1.8a9.015,9.015,0,0,0-.1-1.6q.383.021.738.075.157.021.157.109a.9.9,0,0,1-.089.253,5.2,5.2,0,0,0-.068,1.148v1.818l1.552-.027q.1,0,.1.1v.451q0,.1-.1.1l-1.552-.027v5.161L67.5-.2a1.114,1.114,0,0,1-.349.882,2.979,2.979,0,0,1-1.5.232q-.2,0-.431-.007A.375.375,0,0,1,65.01.875a.465.465,0,0,1-.068-.191,1.113,1.113,0,0,0-.232-.472q.643.055,1.538.055A.638.638,0,0,0,66.726.13a.628.628,0,0,0,.123-.437Zm-5.038-1a13.642,13.642,0,0,1-1,4.525,20.669,20.669,0,0,1,1.654,2.365.148.148,0,0,1,.034.075q0,.034-.116.13l-.239.226a.183.183,0,0,1-.1.048q-.041,0-.089-.075a20.916,20.916,0,0,0-1.429-2.181A10.187,10.187,0,0,1,57.395.376a.449.449,0,0,1-.171.089q-.055,0-.164-.13a1.433,1.433,0,0,0-.376-.308,9.5,9.5,0,0,0,3.4-3.849,25.761,25.761,0,0,0-2.16-2.365.174.174,0,0,1-.055-.1.149.149,0,0,1,.055-.089l.212-.2a.271.271,0,0,1,.123-.075.094.094,0,0,1,.062.034,29.694,29.694,0,0,1,2.03,2.2,11.937,11.937,0,0,0,.807-3.965H58.755l-1.736.027a.085.085,0,0,1-.1-.1v-.424a.085.085,0,0,1,.1-.1l1.736.027h1V-9.967a6.853,6.853,0,0,0-.1-1.47,6.594,6.594,0,0,1,.731.068q.15.021.15.109a.956.956,0,0,1-.082.253,4.413,4.413,0,0,0-.068,1.039v1.032h.9l1.736-.027a.085.085,0,0,1,.1.1v.424a.085.085,0,0,1-.1.1l-.15-.007Q62.419-8.367,61.811-8.374Zm2.1,2.591A10.049,10.049,0,0,1,65.6-3.3a.161.161,0,0,1,.021.068q0,.034-.1.1l-.253.157a.494.494,0,0,1-.164.082q-.034,0-.068-.075a10.212,10.212,0,0,0-1.627-2.461.093.093,0,0,1-.041-.068q0-.041.109-.123L63.7-5.77a.249.249,0,0,1,.123-.062A.133.133,0,0,1,63.909-5.783Zm13.344,1v.978a10.641,10.641,0,0,0,2.816,2.358A15.772,15.772,0,0,0,83.3-.137a1.954,1.954,0,0,0-.308.4q-.089.171-.157.171a.858.858,0,0,1-.178-.048,11.963,11.963,0,0,1-5.448-3.514L77.28.854a.091.091,0,0,1-.1.1h-.485a.091.091,0,0,1-.1-.1l.075-3.944A12.357,12.357,0,0,1,71.415.4a.579.579,0,0,1-.178.055q-.075,0-.171-.178a1.193,1.193,0,0,0-.308-.362,11.977,11.977,0,0,0,5.879-3.767v-.937h-3.4v1.538l.027.984q0,.1-.082.1h-.492a.085.085,0,0,1-.1-.1l.027-1.012v-.95l-.027-1.039a.085.085,0,0,1,.1-.1l2.017.027h1.935V-6.385H73.165l-1.894.027a.085.085,0,0,1-.1-.1v-.424a.085.085,0,0,1,.1-.1l1.894.027h3.473V-7a5.739,5.739,0,0,0-.1-1.189q.376.021.7.068.171.027.171.109a.631.631,0,0,1-.082.239,2.455,2.455,0,0,0-.068.745v.082H80.9l1.887-.027q.1,0,.1.1v.424q0,.1-.1.1L80.9-6.385h-3.65v1.053h2.208l2.017-.027a.085.085,0,0,1,.1.1l-.027.759v.185L81.56-3.3a.936.936,0,0,1-.308.813,2.4,2.4,0,0,1-1.23.212.437.437,0,0,1-.226-.034.479.479,0,0,1-.082-.191,1.263,1.263,0,0,0-.2-.424,5.048,5.048,0,0,0,.841.075q.574,0,.574-.533v-1.4ZM72.939-10.1h2.42l1.47-.027q.1,0,.1.1v.41q0,.1-.1.1l-1.47-.027h-.813A6.729,6.729,0,0,1,75.2-8.107a.158.158,0,0,1,.014.055q0,.055-.15.109l-.253.089a.525.525,0,0,1-.157.041q-.055,0-.082-.089a6.7,6.7,0,0,0-.7-1.647h-1.23A9.322,9.322,0,0,1,71.34-7.882q-.109.123-.15.123t-.171-.109a.813.813,0,0,0-.376-.2,8.65,8.65,0,0,0,1.976-2.83,2.23,2.23,0,0,0,.191-.711,5.719,5.719,0,0,1,.677.191q.123.055.123.144t-.123.171a.793.793,0,0,0-.212.321Q73.056-10.322,72.939-10.1Zm5.448,0H81.4l1.634-.027q.1,0,.1.1v.41q0,.1-.1.1L81.4-9.55H80.1a8.822,8.822,0,0,1,.731,1.483A.123.123,0,0,1,80.855-8q0,.048-.144.109l-.253.082a.622.622,0,0,1-.15.041q-.055,0-.089-.1a7.187,7.187,0,0,0-.786-1.675h-1.34a11.81,11.81,0,0,1-.786,1.094q-.1.13-.144.13a.582.582,0,0,1-.191-.089,1.418,1.418,0,0,0-.383-.144,7.035,7.035,0,0,0,1.518-2.447,2.906,2.906,0,0,0,.1-.574,4.092,4.092,0,0,1,.649.164q.123.048.123.13a.323.323,0,0,1-.109.185,1.346,1.346,0,0,0-.185.349Q78.572-10.5,78.388-10.1ZM86,.109V.854a.085.085,0,0,1-.1.1h-.424a.085.085,0,0,1-.1-.1l.027-2.03v-.813l-.027-1.2q0-.082.1-.082l1.135.014h.9l1.135-.014q.1,0,.1.082l-.027.984v.848L88.744.6a.085.085,0,0,1-.1.1h-.41a.085.085,0,0,1-.1-.1V.109Zm0-.533h2.14v-2.3H86Zm5.53-6.508V-8.1l-1.415.027a.085.085,0,0,1-.1-.1v-.314a.085.085,0,0,1,.1-.1l1.415.027V-9.6l-1.764.027q-.1,0-.1-.1V-10q0-.1.1-.1l1.764.027v-.239a5.191,5.191,0,0,0-.1-1.258,4.586,4.586,0,0,1,.636.068q.157.021.157.109a.411.411,0,0,1-.068.2,2.567,2.567,0,0,0-.082.9v.226H94.1v-.239a4.855,4.855,0,0,0-.1-1.258,5.066,5.066,0,0,1,.663.068q.137.021.137.109a.411.411,0,0,1-.068.2,2.922,2.922,0,0,0-.068.9v.226h.178l1.853-.027a.085.085,0,0,1,.1.1v.328a.085.085,0,0,1-.1.1L94.835-9.6h-.178v1.053l1.682-.027a.085.085,0,0,1,.1.1v.314a.085.085,0,0,1-.1.1L94.657-8.1v1.169h.485l1.935-.027a.085.085,0,0,1,.1.1v.342a.085.085,0,0,1-.1.1l-1.935-.027h-1.8v1.121h1.039l1.736-.034a.085.085,0,0,1,.1.1l-.027,1.613v1.483q.444-.007.807-.021l.246-.007a.085.085,0,0,1,.1.1v.328a.085.085,0,0,1-.1.1L97.1-1.688q-.41-.014-.916-.021L96.2-.267a1.023,1.023,0,0,1-.28.841,2.8,2.8,0,0,1-1.5.226.356.356,0,0,1-.205-.034A.321.321,0,0,1,94.151.6a1.27,1.27,0,0,0-.226-.431q.513.041,1.066.041A.7.7,0,0,0,95.5.075a.627.627,0,0,0,.1-.41V-1.709H90.692v.984L90.72.841a.085.085,0,0,1-.1.1h-.437q-.082,0-.082-.1l.027-1.524V-1.709q-.4.007-.718.021l-.219.007a.085.085,0,0,1-.1-.1v-.328a.085.085,0,0,1,.1-.1l.28.007q.294.014.656.021V-3.726L90.1-5.271q0-.1.082-.1l1.736.034h.868V-6.453H91.28l-1.935.027a.085.085,0,0,1-.1-.1v-.342a.085.085,0,0,1,.1-.1l1.935.027Zm1.258,3.6h-2.1v1.162h2.1Zm.547,0v1.162h2.27V-3.336Zm-.547-1.538h-2.1v1.107h2.1Zm.547,0v1.107h2.27V-4.874ZM92.08-9.6v1.053H94.1V-9.6Zm0,1.5v1.169H94.1V-8.1Zm-5.435,2.96h.8l1.066-.027q.1,0,.1.1v.417a.085.085,0,0,1-.1.1L87.445-4.58h-.8l-1.06.027q-.1,0-.1-.1v-.417a.091.091,0,0,1,.1-.1Zm0-1.887h.8l1.066-.027a.085.085,0,0,1,.1.1v.424a.085.085,0,0,1-.1.1l-1.066-.027h-.8l-1.06.027q-.1,0-.1-.1v-.424q0-.1.1-.1ZM86.6-10.794h1.039l1.176-.027a.085.085,0,0,1,.1.1v.424a.085.085,0,0,1-.1.1l-1.176-.027H86.6l-1.176.027a.085.085,0,0,1-.1-.1v-.424a.085.085,0,0,1,.1-.1Zm2.577,1.941v.438q0,.1-.082.1l-1.388-.027h-1.4l-1.388.027a.085.085,0,0,1-.1-.1v-.437q0-.082.1-.082l1.388.027h1.4L89.1-8.935A.073.073,0,0,1,89.182-8.853Zm19.428,2.331A7.846,7.846,0,0,0,110.681-4.3a1.029,1.029,0,0,0-.376.28q-.1.13-.137.13t-.157-.116A9.554,9.554,0,0,1,108.37-5.92a8.032,8.032,0,0,1-1.326,2.044q-.1.116-.137.116a.428.428,0,0,1-.171-.1,1.11,1.11,0,0,0-.335-.171,7.476,7.476,0,0,0,1.859-3.288,3.232,3.232,0,0,0,.1-.8,4.014,4.014,0,0,1,.561.171q.171.055.171.15a.248.248,0,0,1-.082.144.937.937,0,0,0-.185.431Q108.685-6.747,108.609-6.521ZM105.4-.239V-2.352h-1.538l-1.948.027q-.109,0-.109-.1v-.437q0-.1.109-.1l1.948.027H105.4V-7.082a10.862,10.862,0,0,0-.1-1.736q.314.014.7.068.157.027.157.137a1.063,1.063,0,0,1-.089.28A5.954,5.954,0,0,0,106-7.1v4.17h1.9l1.935-.027a.085.085,0,0,1,.1.1v.438a.085.085,0,0,1-.1.1l-1.935-.027H106V-.239h3.063l1.976-.027q.1,0,.1.1V.28q0,.1-.1.1L109.067.349h-6.31l-1.976.027a.085.085,0,0,1-.1-.1V-.171a.085.085,0,0,1,.1-.1l1.976.027Zm-.451-9.81v-.561a4.964,4.964,0,0,0-.1-1.135q.5.027.752.055.144.027.144.116a1.412,1.412,0,0,1-.068.253,1.927,1.927,0,0,0-.089.7v.574h3.391l1.962-.027a.085.085,0,0,1,.1.1v.451a.085.085,0,0,1-.1.1l-1.962-.027H100.8V-7.15a31.744,31.744,0,0,1-.226,4.245A9.858,9.858,0,0,1,99.3.718q-.082.137-.123.137T99.032.745a1.14,1.14,0,0,0-.417-.28,8.57,8.57,0,0,0,1.326-3.623,30.815,30.815,0,0,0,.2-4.047l-.027-2.775a.085.085,0,0,1,.1-.1l2,.027Zm-1.7,3.582A8.348,8.348,0,0,0,104.959-4.4a.9.9,0,0,0-.321.267q-.1.13-.144.13t-.15-.116a9.281,9.281,0,0,1-1.319-1.75A7.854,7.854,0,0,1,101.767-3.9q-.123.137-.171.137a.291.291,0,0,1-.137-.075,1.289,1.289,0,0,0-.369-.212,7.069,7.069,0,0,0,1.825-3.3,3.16,3.16,0,0,0,.109-.786,2.96,2.96,0,0,1,.547.157q.185.068.185.15a.209.209,0,0,1-.055.144,1.057,1.057,0,0,0-.212.431Q103.421-6.986,103.25-6.467Z" transform="translate(-0.923 11.744)" fill="#fff"/>
</svg>
