<svg xmlns="http://www.w3.org/2000/svg" width="81.566" height="12.694" viewBox="0 0 81.566 12.694">
  <path id="パス_88" data-name="パス 88" d="M7.588-6.159a8.789,8.789,0,0,1-.827,3.767A6.683,6.683,0,0,1,4.293.2.471.471,0,0,1,4.067.28.163.163,0,0,1,3.958.239,1.933,1.933,0,0,0,3.3-.123a6.943,6.943,0,0,0,1.757-1.2,5.349,5.349,0,0,0,.971-1.347,7.761,7.761,0,0,0,.731-3.486H3.849q-.937,0-2,.068-.13,0-.164-.041a.312.312,0,0,1-.048-.144q-.007-.048-.055-.622,1.1.055,2.27.055H9.823q1.3,0,2.475-.055.157,0,.157.2v.444q0,.137-.171.137-1.271-.041-2.447-.041Zm-4.3-3.828q1.025.055,2.112.055H8.2q1.483,0,2.242-.048h.041q.109,0,.109.171v.4q0,.185-.171.185Q9.673-9.249,8.2-9.249H5.4q-1.258,0-1.9.041a.151.151,0,0,1-.048.007q-.109,0-.123-.157ZM15.736-5.722a24.471,24.471,0,0,0,2.885.123h4.45q1.948,0,3.008-.041.2,0,.2.157v.526q0,.171-.2.171-.731-.027-1.846-.027h-6.59l-1.6.123a.192.192,0,0,1-.2-.171A3.381,3.381,0,0,1,15.736-5.722ZM35.451-3.028a16.8,16.8,0,0,1,1.524,1.709.219.219,0,0,1,.062.123.193.193,0,0,1-.062.116,2.1,2.1,0,0,1-.383.321.258.258,0,0,1-.1.048q-.041,0-.1-.075a20.227,20.227,0,0,0-4.259-4.143,4.354,4.354,0,0,1,.41-.41.2.2,0,0,1,.109-.055.263.263,0,0,1,.13.055,21.3,21.3,0,0,1,2.181,1.825,25.48,25.48,0,0,0,4.115-4.231H32.833q-1.613,0-2.844.109a.254.254,0,0,1-.062.007.133.133,0,0,1-.15-.116,6.6,6.6,0,0,1-.082-.779q1.292.1,3.124.1h5.667a2.749,2.749,0,0,0,.937-.089.4.4,0,0,1,.178-.048.243.243,0,0,1,.178.075A4.228,4.228,0,0,1,40.243-8a.294.294,0,0,1,.055.164.234.234,0,0,1-.13.212,2.068,2.068,0,0,0-.492.424A29.587,29.587,0,0,1,35.451-3.028ZM45.9-6.829q-.055,1.258-.13,1.887h1.921l1.128-.027q.116,0,.116.109-.007.048-.041,1.319a18.367,18.367,0,0,1-.226,2.632A2.267,2.267,0,0,1,48.187.253a1.214,1.214,0,0,1-.909.335q-.5,0-.909-.041a.63.63,0,0,1-.219-.055A.423.423,0,0,1,46.108.28,1.15,1.15,0,0,0,45.938-.2a6.75,6.75,0,0,0,1.333.157.635.635,0,0,0,.595-.4,3.4,3.4,0,0,0,.212-.813,20.033,20.033,0,0,0,.185-3.124H45.7a8.687,8.687,0,0,1-.813,2.748A8.674,8.674,0,0,1,43.4.376q-.109.116-.15.116t-.157-.13a1.245,1.245,0,0,0-.39-.28,6.877,6.877,0,0,0,2.037-2.953,14.24,14.24,0,0,0,.526-3.958h-.075L43.6-6.8a.085.085,0,0,1-.1-.1l.027-1.2V-9.475l-.027-1.2a.085.085,0,0,1,.1-.1l1.593.027h1.976l1.613-.027a.085.085,0,0,1,.1.1l-.027,1.2v1.381l.027,1.2a.085.085,0,0,1-.1.1l-1.613-.027Zm-1.75-3.35v2.8h4.088v-2.8ZM51.734-.068a11.079,11.079,0,0,0,1.3.068.882.882,0,0,0,.615-.15.805.805,0,0,0,.144-.561V-9.659a9.343,9.343,0,0,0-.1-1.613q.342.021.738.075.171.021.171.109a1.2,1.2,0,0,1-.1.267,5.025,5.025,0,0,0-.068,1.148v7.2l.027,1.887A1.154,1.154,0,0,1,54.086.424a1.223,1.223,0,0,1-.513.191A6.983,6.983,0,0,1,52.6.663h-.342q-.171,0-.205-.041a.83.83,0,0,1-.062-.2A1.582,1.582,0,0,0,51.734-.068Zm-.923-10.192q.335.021.69.068.144.021.144.109a1.373,1.373,0,0,1-.068.2,9.265,9.265,0,0,0-.055,1.442v3.78l.027,1.777q0,.1-.109.1h-.465a.085.085,0,0,1-.1-.1l.027-1.777V-8.429A11.345,11.345,0,0,0,50.812-10.261ZM58,.109V.854a.085.085,0,0,1-.1.1h-.424a.085.085,0,0,1-.1-.1l.027-2.03v-.813l-.027-1.2q0-.082.1-.082l1.135.014h.9l1.135-.014q.1,0,.1.082l-.027.984v.848L60.744.6a.085.085,0,0,1-.1.1h-.41a.085.085,0,0,1-.1-.1V.109Zm0-.533h2.14v-2.3H58Zm5.53-6.508V-8.1l-1.415.027a.085.085,0,0,1-.1-.1v-.314a.085.085,0,0,1,.1-.1l1.415.027V-9.6l-1.764.027q-.1,0-.1-.1V-10q0-.1.1-.1l1.764.027v-.239a5.191,5.191,0,0,0-.1-1.258,4.585,4.585,0,0,1,.636.068q.157.021.157.109a.411.411,0,0,1-.068.2,2.567,2.567,0,0,0-.082.9v.226H66.1v-.239a4.855,4.855,0,0,0-.1-1.258,5.066,5.066,0,0,1,.663.068q.137.021.137.109a.411.411,0,0,1-.068.2,2.922,2.922,0,0,0-.068.9v.226h.178l1.853-.027a.085.085,0,0,1,.1.1v.328a.085.085,0,0,1-.1.1L66.835-9.6h-.178v1.053l1.682-.027a.085.085,0,0,1,.1.1v.314a.085.085,0,0,1-.1.1L66.657-8.1v1.169h.485l1.935-.027a.085.085,0,0,1,.1.1v.342a.085.085,0,0,1-.1.1l-1.935-.027h-1.8v1.121h1.039l1.736-.034a.085.085,0,0,1,.1.1l-.027,1.613v1.483q.444-.007.807-.021l.246-.007a.085.085,0,0,1,.1.1v.328a.085.085,0,0,1-.1.1L69.1-1.688q-.41-.014-.916-.021L68.2-.267a1.023,1.023,0,0,1-.28.841,2.8,2.8,0,0,1-1.5.226.356.356,0,0,1-.205-.034A.321.321,0,0,1,66.151.6a1.27,1.27,0,0,0-.226-.431q.513.041,1.066.041A.7.7,0,0,0,67.5.075a.627.627,0,0,0,.1-.41V-1.709H62.692v.984L62.72.841a.085.085,0,0,1-.1.1h-.437q-.082,0-.082-.1l.027-1.524V-1.709q-.4.007-.718.021l-.219.007a.085.085,0,0,1-.1-.1v-.328a.085.085,0,0,1,.1-.1l.28.007q.294.014.656.021V-3.726L62.1-5.271q0-.1.082-.1l1.736.034h.868V-6.453H63.28l-1.935.027a.085.085,0,0,1-.1-.1v-.342a.085.085,0,0,1,.1-.1l1.935.027Zm1.258,3.6h-2.1v1.162h2.1Zm.547,0v1.162h2.27V-3.336Zm-.547-1.538h-2.1v1.107h2.1Zm.547,0v1.107h2.27V-4.874ZM64.08-9.6v1.053H66.1V-9.6Zm0,1.5v1.169H66.1V-8.1Zm-5.435,2.96h.8l1.066-.027q.1,0,.1.1v.417a.085.085,0,0,1-.1.1L59.445-4.58h-.8l-1.06.027q-.1,0-.1-.1v-.417a.091.091,0,0,1,.1-.1Zm0-1.887h.8l1.066-.027a.085.085,0,0,1,.1.1v.424a.085.085,0,0,1-.1.1l-1.066-.027h-.8l-1.06.027q-.1,0-.1-.1v-.424q0-.1.1-.1ZM58.6-10.794h1.039l1.176-.027a.085.085,0,0,1,.1.1v.424a.085.085,0,0,1-.1.1l-1.176-.027H58.6l-1.176.027a.085.085,0,0,1-.1-.1v-.424a.085.085,0,0,1,.1-.1Zm2.577,1.941v.438q0,.1-.082.1l-1.388-.027h-1.4l-1.388.027a.085.085,0,0,1-.1-.1v-.437q0-.082.1-.082l1.388.027h1.4L61.1-8.935A.073.073,0,0,1,61.182-8.853ZM80.609-6.521A7.846,7.846,0,0,0,82.681-4.3a1.029,1.029,0,0,0-.376.28q-.1.13-.137.13t-.157-.116A9.554,9.554,0,0,1,80.37-5.92a8.032,8.032,0,0,1-1.326,2.044q-.1.116-.137.116a.428.428,0,0,1-.171-.1,1.11,1.11,0,0,0-.335-.171,7.476,7.476,0,0,0,1.859-3.288,3.232,3.232,0,0,0,.1-.8,4.014,4.014,0,0,1,.561.171q.171.055.171.15a.248.248,0,0,1-.082.144.937.937,0,0,0-.185.431Q80.685-6.747,80.609-6.521ZM77.4-.239V-2.352H75.865l-1.948.027q-.109,0-.109-.1v-.437q0-.1.109-.1l1.948.027H77.4V-7.082a10.862,10.862,0,0,0-.1-1.736q.314.014.7.068.157.027.157.137a1.063,1.063,0,0,1-.089.28A5.954,5.954,0,0,0,78-7.1v4.17h1.9l1.935-.027a.085.085,0,0,1,.1.1v.438a.085.085,0,0,1-.1.1l-1.935-.027H78V-.239h3.063l1.976-.027q.1,0,.1.1V.28q0,.1-.1.1L81.067.349h-6.31L72.782.376a.085.085,0,0,1-.1-.1V-.171a.085.085,0,0,1,.1-.1l1.976.027Zm-.451-9.81v-.561a4.964,4.964,0,0,0-.1-1.135q.5.027.752.055.144.027.144.116a1.412,1.412,0,0,1-.068.253,1.927,1.927,0,0,0-.089.7v.574h3.391l1.962-.027a.085.085,0,0,1,.1.1v.451a.085.085,0,0,1-.1.1l-1.962-.027H72.8V-7.15a31.744,31.744,0,0,1-.226,4.245A9.858,9.858,0,0,1,71.3.718q-.082.137-.123.137T71.032.745a1.14,1.14,0,0,0-.417-.28,8.57,8.57,0,0,0,1.326-3.623,30.815,30.815,0,0,0,.2-4.047L72.112-9.98a.085.085,0,0,1,.1-.1l2,.027Zm-1.7,3.582A8.348,8.348,0,0,0,76.959-4.4a.9.9,0,0,0-.321.267q-.1.13-.144.13t-.15-.116a9.281,9.281,0,0,1-1.319-1.75A7.854,7.854,0,0,1,73.767-3.9q-.123.137-.171.137a.291.291,0,0,1-.137-.075,1.289,1.289,0,0,0-.369-.212,7.069,7.069,0,0,0,1.825-3.3,3.16,3.16,0,0,0,.109-.786,2.96,2.96,0,0,1,.547.157q.185.068.185.15a.209.209,0,0,1-.055.144,1.057,1.057,0,0,0-.212.431Q75.421-6.986,75.25-6.467Z" transform="translate(-1.579 11.744)" fill="#fff"/>
</svg>
