<svg xmlns="http://www.w3.org/2000/svg" width="87.627" height="94.881" viewBox="0 0 87.627 94.881">
  <path id="パス_92" data-name="パス 92" d="M6-5.508a.9.9,0,0,1,.7.311.913.913,0,0,1,.24.627.921.921,0,0,1-.311.7A.9.9,0,0,1,6-3.621a.913.913,0,0,1-.7-.316.922.922,0,0,1-.246-.633.9.9,0,0,1,.316-.7A.921.921,0,0,1,6-5.508Zm12.5.229a7.534,7.534,0,0,1-.709,3.229A5.728,5.728,0,0,1,15.68.17a.4.4,0,0,1-.193.07.14.14,0,0,1-.094-.035,1.657,1.657,0,0,0-.562-.311,5.951,5.951,0,0,0,1.506-1.031,4.585,4.585,0,0,0,.832-1.154,6.652,6.652,0,0,0,.627-2.988H15.3q-.8,0-1.717.059-.111,0-.141-.035a.267.267,0,0,1-.041-.123q-.006-.041-.047-.533.943.047,1.945.047H20.42q1.113,0,2.121-.047.135,0,.135.17v.381q0,.117-.146.117-1.09-.035-2.1-.035ZM14.818-8.561q.879.047,1.811.047h2.4q1.271,0,1.922-.041h.035q.094,0,.094.146v.346q0,.158-.146.158-.645-.023-1.9-.023h-2.4q-1.078,0-1.629.035a.13.13,0,0,1-.041.006q-.094,0-.105-.135ZM25.488-4.9a20.975,20.975,0,0,0,2.473.105h3.814q1.67,0,2.578-.035.17,0,.17.135v.451q0,.146-.17.146-.627-.023-1.582-.023H27.123l-1.371.105a.165.165,0,0,1-.17-.146A2.9,2.9,0,0,1,25.488-4.9ZM42.387-2.6a14.4,14.4,0,0,1,1.307,1.465.188.188,0,0,1,.053.105.165.165,0,0,1-.053.1,1.8,1.8,0,0,1-.328.275.221.221,0,0,1-.088.041q-.035,0-.088-.064a17.337,17.337,0,0,0-3.65-3.551,3.732,3.732,0,0,1,.352-.352.172.172,0,0,1,.094-.047.225.225,0,0,1,.111.047,18.257,18.257,0,0,1,1.869,1.564,21.84,21.84,0,0,0,3.527-3.627h-5.35q-1.383,0-2.437.094a.218.218,0,0,1-.053.006.114.114,0,0,1-.129-.1,5.657,5.657,0,0,1-.07-.668q1.107.082,2.678.082h4.857a2.356,2.356,0,0,0,.8-.076.343.343,0,0,1,.152-.041.208.208,0,0,1,.152.064,3.624,3.624,0,0,1,.4.422.252.252,0,0,1,.047.141.2.2,0,0,1-.111.182,1.773,1.773,0,0,0-.422.363A25.361,25.361,0,0,1,42.387-2.6ZM51.34-5.854q-.047,1.078-.111,1.617h1.646l.967-.023q.1,0,.1.094-.006.041-.035,1.131a15.743,15.743,0,0,1-.193,2.256,1.943,1.943,0,0,1-.41,1A1.041,1.041,0,0,1,52.523.5Q52.1.5,51.744.469a.54.54,0,0,1-.187-.047A.363.363,0,0,1,51.521.24a.986.986,0,0,0-.146-.41,5.786,5.786,0,0,0,1.143.135.544.544,0,0,0,.51-.346,2.916,2.916,0,0,0,.182-.7,17.171,17.171,0,0,0,.158-2.678h-2.2a7.446,7.446,0,0,1-.7,2.355A7.435,7.435,0,0,1,49.2.322q-.094.1-.129.1T48.938.311A1.067,1.067,0,0,0,48.6.07,5.894,5.894,0,0,0,50.35-2.461,12.206,12.206,0,0,0,50.8-5.854h-.064l-1.365.023a.073.073,0,0,1-.082-.082l.023-1.025V-8.121l-.023-1.025a.073.073,0,0,1,.082-.082l1.365.023H52.43l1.383-.023a.073.073,0,0,1,.082.082l-.023,1.025v1.184l.023,1.025a.073.073,0,0,1-.082.082L52.43-5.854Zm-1.5-2.871v2.4h3.5v-2.4Zm6.5,8.666A9.5,9.5,0,0,0,57.457,0a.756.756,0,0,0,.527-.129.69.69,0,0,0,.123-.48v-7.67a8.008,8.008,0,0,0-.082-1.383q.293.018.633.064.146.018.146.094a1.033,1.033,0,0,1-.088.229,4.307,4.307,0,0,0-.059.984v6.17L58.682-.5a.989.989,0,0,1-.322.867,1.048,1.048,0,0,1-.439.164,5.985,5.985,0,0,1-.838.041h-.293q-.146,0-.176-.035a.712.712,0,0,1-.053-.17A1.356,1.356,0,0,0,56.344-.059Zm-.791-8.736q.287.018.592.059.123.018.123.094a1.177,1.177,0,0,1-.059.17,7.941,7.941,0,0,0-.047,1.236V-4l.023,1.523q0,.082-.094.082h-.4a.073.073,0,0,1-.082-.082L55.635-4V-7.225A9.725,9.725,0,0,0,55.553-8.795ZM61.717.094V.732a.073.073,0,0,1-.082.082h-.363a.073.073,0,0,1-.082-.082l.023-1.74v-.7l-.023-1.031q0-.07.082-.07l.973.012h.768l.973-.012q.082,0,.082.07l-.023.844v.727L64.066.516A.073.073,0,0,1,63.984.6h-.352a.073.073,0,0,1-.082-.082V.094Zm0-.457h1.834V-2.338H61.717Zm4.74-5.578v-1l-1.213.023A.073.073,0,0,1,65.162-7v-.27a.073.073,0,0,1,.082-.082l1.213.023v-.9l-1.512.023q-.088,0-.088-.082v-.281q0-.082.088-.082l1.512.023v-.205a4.449,4.449,0,0,0-.082-1.078,3.93,3.93,0,0,1,.545.059q.135.018.135.094a.352.352,0,0,1-.059.17,2.2,2.2,0,0,0-.07.768v.193h1.729v-.205a4.162,4.162,0,0,0-.088-1.078,4.343,4.343,0,0,1,.568.059q.117.018.117.094a.352.352,0,0,1-.059.17,2.5,2.5,0,0,0-.059.768v.193h.152l1.588-.023a.073.073,0,0,1,.082.082v.281a.073.073,0,0,1-.082.082l-1.588-.023h-.152v.9l1.441-.023a.073.073,0,0,1,.082.082V-7a.073.073,0,0,1-.082.082l-1.441-.023v1h.416l1.658-.023a.073.073,0,0,1,.082.082v.293a.073.073,0,0,1-.082.082l-1.658-.023H68v.961h.891L70.383-4.6a.073.073,0,0,1,.082.082l-.023,1.383v1.271q.381-.006.691-.018l.211-.006a.073.073,0,0,1,.082.082v.281a.073.073,0,0,1-.082.082l-.117-.006q-.352-.012-.785-.018l.012,1.236a.877.877,0,0,1-.24.721A2.4,2.4,0,0,1,68.93.686a.305.305,0,0,1-.176-.029A.275.275,0,0,1,68.7.516a1.088,1.088,0,0,0-.193-.369q.439.035.914.035a.6.6,0,0,0,.439-.117.537.537,0,0,0,.088-.352V-1.465H65.736v.844L65.76.721A.073.073,0,0,1,65.678.8H65.3q-.07,0-.07-.082l.023-1.307v-.879q-.34.006-.615.018l-.187.006a.073.073,0,0,1-.082-.082V-1.8a.073.073,0,0,1,.082-.082l.24.006q.252.012.563.018v-1.33l-.023-1.324q0-.082.07-.082l1.488.029h.744v-.961H66.24l-1.658.023A.073.073,0,0,1,64.5-5.59v-.293a.073.073,0,0,1,.082-.082l1.658.023Zm1.078,3.082h-1.8v1h1.8Zm.469,0v1h1.945v-1Zm-.469-1.318h-1.8v.949h1.8Zm.469,0v.949h1.945v-.949ZM66.926-8.232v.9h1.729v-.9Zm0,1.289v1h1.729v-1ZM62.268-4.406h.686l.914-.023q.082,0,.082.088v.357a.073.073,0,0,1-.082.082l-.914-.023h-.686l-.908.023q-.088,0-.088-.082v-.357a.078.078,0,0,1,.088-.088Zm0-1.617h.686l.914-.023a.073.073,0,0,1,.082.082V-5.6a.073.073,0,0,1-.082.082l-.914-.023h-.686l-.908.023q-.088,0-.088-.082v-.363q0-.082.088-.082Zm-.035-3.229h.891l1.008-.023a.073.073,0,0,1,.082.082v.363a.073.073,0,0,1-.082.082l-1.008-.023h-.891l-1.008.023a.073.073,0,0,1-.082-.082v-.363a.073.073,0,0,1,.082-.082Zm2.209,1.664v.375q0,.082-.07.082l-1.189-.023h-1.2l-1.189.023a.073.073,0,0,1-.082-.082v-.375q0-.07.082-.07l1.189.023h1.2l1.189-.023A.062.062,0,0,1,64.441-7.588Zm16.652,2a6.725,6.725,0,0,0,1.775,1.9.882.882,0,0,0-.322.24q-.082.111-.117.111t-.135-.1a8.189,8.189,0,0,1-1.406-1.641,6.885,6.885,0,0,1-1.137,1.752q-.082.1-.117.1a.367.367,0,0,1-.146-.088.952.952,0,0,0-.287-.146,6.408,6.408,0,0,0,1.594-2.818,2.771,2.771,0,0,0,.082-.686,3.44,3.44,0,0,1,.48.146q.146.047.146.129a.212.212,0,0,1-.07.123.8.8,0,0,0-.158.369Q81.158-5.783,81.094-5.59ZM78.346-.205V-2.016H77.027l-1.67.023q-.094,0-.094-.082v-.375q0-.082.094-.082l1.67.023h1.318V-6.07a9.31,9.31,0,0,0-.082-1.488q.27.012.6.059.135.023.135.117a.911.911,0,0,1-.076.24,5.1,5.1,0,0,0-.059,1.061v3.574H80.49l1.658-.023a.073.073,0,0,1,.082.082v.375a.073.073,0,0,1-.082.082L80.49-2.016H78.861V-.205h2.625L83.18-.229q.088,0,.088.082V.24q0,.082-.088.082L81.486.3H76.078L74.385.322A.073.073,0,0,1,74.3.24V-.146a.073.073,0,0,1,.082-.082l1.693.023Zm-.387-8.408v-.48a4.255,4.255,0,0,0-.082-.973q.428.023.645.047.123.023.123.1a1.21,1.21,0,0,1-.059.217,1.651,1.651,0,0,0-.076.6v.492h2.906L83.1-8.637a.073.073,0,0,1,.082.082v.387a.073.073,0,0,1-.082.082l-1.682-.023H74.4v1.98A27.21,27.21,0,0,1,74.2-2.49,8.45,8.45,0,0,1,73.113.615q-.07.117-.105.117T72.885.639A.977.977,0,0,0,72.527.4a7.346,7.346,0,0,0,1.137-3.105,26.413,26.413,0,0,0,.17-3.469l-.023-2.379a.073.073,0,0,1,.082-.082l1.717.023ZM76.5-5.543a7.155,7.155,0,0,0,1.465,1.775.769.769,0,0,0-.275.229q-.082.111-.123.111t-.129-.1a7.955,7.955,0,0,1-1.131-1.5A6.732,6.732,0,0,1,75.229-3.34q-.105.117-.146.117a.25.25,0,0,1-.117-.064,1.1,1.1,0,0,0-.316-.182A6.06,6.06,0,0,0,76.213-6.3a2.708,2.708,0,0,0,.094-.674,2.537,2.537,0,0,1,.469.135q.158.059.158.129a.179.179,0,0,1-.047.123.906.906,0,0,0-.182.369Q76.646-5.988,76.5-5.543ZM90.609-8.977V-.9h1.74v.639H87.984V-.9h1.857v-7.26a8.329,8.329,0,0,1-1.887.9l-.141-.7a9.164,9.164,0,0,0,2.162-1.02ZM6,15.492a.9.9,0,0,1,.7.311.945.945,0,0,1-.07,1.33A.9.9,0,0,1,6,17.379a.957.957,0,0,1-.949-.949.9.9,0,0,1,.316-.7A.921.921,0,0,1,6,15.492Zm12.5.229a7.534,7.534,0,0,1-.709,3.229A5.728,5.728,0,0,1,15.68,21.17a.4.4,0,0,1-.193.07.14.14,0,0,1-.094-.035,1.657,1.657,0,0,0-.562-.311,5.951,5.951,0,0,0,1.506-1.031,4.585,4.585,0,0,0,.832-1.154,6.652,6.652,0,0,0,.627-2.988H15.3q-.8,0-1.717.059-.111,0-.141-.035a.267.267,0,0,1-.041-.123q-.006-.041-.047-.533.943.047,1.945.047H20.42q1.113,0,2.121-.047.135,0,.135.17v.381q0,.117-.146.117-1.09-.035-2.1-.035Zm-3.686-3.281q.879.047,1.811.047h2.4q1.271,0,1.922-.041h.035q.094,0,.094.146v.346q0,.158-.146.158-.645-.023-1.9-.023h-2.4q-1.078,0-1.629.035a.13.13,0,0,1-.041.006q-.094,0-.105-.135ZM25.488,16.1a20.975,20.975,0,0,0,2.473.105h3.814q1.67,0,2.578-.035.17,0,.17.135v.451q0,.146-.17.146-.627-.023-1.582-.023H27.123l-1.371.105a.165.165,0,0,1-.17-.146A2.9,2.9,0,0,1,25.488,16.1Zm16.9,2.309a14.4,14.4,0,0,1,1.307,1.465.188.188,0,0,1,.053.105.165.165,0,0,1-.053.1,1.8,1.8,0,0,1-.328.275.221.221,0,0,1-.088.041q-.035,0-.088-.064a17.337,17.337,0,0,0-3.65-3.551,3.732,3.732,0,0,1,.352-.352.172.172,0,0,1,.094-.047.225.225,0,0,1,.111.047,18.257,18.257,0,0,1,1.869,1.564,21.84,21.84,0,0,0,3.527-3.627h-5.35q-1.383,0-2.437.094a.218.218,0,0,1-.053.006.114.114,0,0,1-.129-.1,5.657,5.657,0,0,1-.07-.668q1.107.082,2.678.082h4.857a2.356,2.356,0,0,0,.8-.076.343.343,0,0,1,.152-.041.208.208,0,0,1,.152.064,3.624,3.624,0,0,1,.4.422.252.252,0,0,1,.047.141.2.2,0,0,1-.111.182,1.773,1.773,0,0,0-.422.363A25.361,25.361,0,0,1,42.387,18.4Zm8.953-3.258q-.047,1.078-.111,1.617h1.646l.967-.023q.1,0,.1.094-.006.041-.035,1.131a15.743,15.743,0,0,1-.193,2.256,1.943,1.943,0,0,1-.41,1,1.041,1.041,0,0,1-.779.287q-.428,0-.779-.035a.54.54,0,0,1-.187-.047.363.363,0,0,1-.035-.182.986.986,0,0,0-.146-.41,5.786,5.786,0,0,0,1.143.135.544.544,0,0,0,.51-.346,2.916,2.916,0,0,0,.182-.7,17.171,17.171,0,0,0,.158-2.678h-2.2a7.446,7.446,0,0,1-.7,2.355A7.435,7.435,0,0,1,49.2,21.322q-.094.1-.129.1t-.135-.111a1.067,1.067,0,0,0-.334-.24,5.894,5.894,0,0,0,1.746-2.531,12.206,12.206,0,0,0,.451-3.393h-.064l-1.365.023a.073.073,0,0,1-.082-.082l.023-1.025V12.879l-.023-1.025a.073.073,0,0,1,.082-.082l1.365.023H52.43l1.383-.023a.073.073,0,0,1,.082.082l-.023,1.025v1.184l.023,1.025a.073.073,0,0,1-.082.082l-1.383-.023Zm-1.5-2.871v2.4h3.5v-2.4Zm6.5,8.666A9.5,9.5,0,0,0,57.457,21a.756.756,0,0,0,.527-.129.69.69,0,0,0,.123-.48v-7.67a8.008,8.008,0,0,0-.082-1.383q.293.018.633.064.146.018.146.094a1.033,1.033,0,0,1-.088.229,4.307,4.307,0,0,0-.059.984v6.17l.023,1.617a.989.989,0,0,1-.322.867,1.048,1.048,0,0,1-.439.164,5.985,5.985,0,0,1-.838.041h-.293q-.146,0-.176-.035a.712.712,0,0,1-.053-.17A1.356,1.356,0,0,0,56.344,20.941Zm-.791-8.736q.287.018.592.059.123.018.123.094a1.177,1.177,0,0,1-.059.17,7.941,7.941,0,0,0-.047,1.236V17l.023,1.523q0,.082-.094.082h-.4a.073.073,0,0,1-.082-.082L55.635,17V13.775A9.725,9.725,0,0,0,55.553,12.205Zm6.164,8.889v.639a.073.073,0,0,1-.082.082h-.363a.073.073,0,0,1-.082-.082l.023-1.74v-.7l-.023-1.031q0-.07.082-.07l.973.012h.768l.973-.012q.082,0,.082.07l-.023.844v.727l.023,1.682a.073.073,0,0,1-.082.082h-.352a.073.073,0,0,1-.082-.082v-.422Zm0-.457h1.834V18.662H61.717Zm4.74-5.578v-1l-1.213.023A.073.073,0,0,1,65.162,14v-.27a.073.073,0,0,1,.082-.082l1.213.023v-.9l-1.512.023q-.088,0-.088-.082v-.281q0-.082.088-.082l1.512.023v-.205a4.449,4.449,0,0,0-.082-1.078,3.93,3.93,0,0,1,.545.059q.135.018.135.094a.352.352,0,0,1-.059.17,2.2,2.2,0,0,0-.07.768v.193h1.729v-.205a4.162,4.162,0,0,0-.088-1.078,4.343,4.343,0,0,1,.568.059q.117.018.117.094a.352.352,0,0,1-.059.17,2.5,2.5,0,0,0-.059.768v.193h.152l1.588-.023a.073.073,0,0,1,.082.082v.281a.073.073,0,0,1-.082.082l-1.588-.023h-.152v.9l1.441-.023a.073.073,0,0,1,.082.082V14a.073.073,0,0,1-.082.082l-1.441-.023v1h.416l1.658-.023a.073.073,0,0,1,.082.082v.293a.073.073,0,0,1-.082.082l-1.658-.023H68v.961h.891l1.488-.029a.073.073,0,0,1,.082.082l-.023,1.383v1.271q.381-.006.691-.018l.211-.006a.073.073,0,0,1,.082.082v.281a.073.073,0,0,1-.082.082l-.117-.006q-.352-.012-.785-.018l.012,1.236a.877.877,0,0,1-.24.721,2.4,2.4,0,0,1-1.283.193.305.305,0,0,1-.176-.029.275.275,0,0,1-.053-.141,1.088,1.088,0,0,0-.193-.369q.439.035.914.035a.6.6,0,0,0,.439-.117.537.537,0,0,0,.088-.352V19.535H65.736v.844l.023,1.342a.073.073,0,0,1-.082.082H65.3q-.07,0-.07-.082l.023-1.307v-.879q-.34.006-.615.018l-.187.006a.073.073,0,0,1-.082-.082V19.2a.073.073,0,0,1,.082-.082l.24.006q.252.012.563.018v-1.33l-.023-1.324q0-.082.07-.082l1.488.029h.744v-.961H66.24l-1.658.023a.073.073,0,0,1-.082-.082v-.293a.073.073,0,0,1,.082-.082l1.658.023Zm1.078,3.082h-1.8v1h1.8Zm.469,0v1h1.945v-1Zm-.469-1.318h-1.8v.949h1.8Zm.469,0v.949h1.945v-.949Zm-1.078-4.055v.9h1.729v-.9Zm0,1.289v1h1.729v-1Zm-4.658,2.537h.686l.914-.023q.082,0,.082.088v.357a.073.073,0,0,1-.082.082l-.914-.023h-.686l-.908.023q-.088,0-.088-.082v-.357a.078.078,0,0,1,.088-.088Zm0-1.617h.686l.914-.023a.073.073,0,0,1,.082.082V15.4a.073.073,0,0,1-.082.082l-.914-.023h-.686l-.908.023q-.088,0-.088-.082v-.363q0-.082.088-.082Zm-.035-3.229h.891l1.008-.023a.073.073,0,0,1,.082.082v.363a.073.073,0,0,1-.082.082l-1.008-.023h-.891l-1.008.023a.073.073,0,0,1-.082-.082v-.363a.073.073,0,0,1,.082-.082Zm2.209,1.664v.375q0,.082-.07.082l-1.189-.023h-1.2l-1.189.023a.073.073,0,0,1-.082-.082v-.375q0-.07.082-.07l1.189.023h1.2l1.189-.023A.062.062,0,0,1,64.441,13.412Zm16.652,2a6.725,6.725,0,0,0,1.775,1.9.882.882,0,0,0-.322.24q-.082.111-.117.111t-.135-.1a8.189,8.189,0,0,1-1.406-1.641,6.885,6.885,0,0,1-1.137,1.752q-.082.1-.117.1a.367.367,0,0,1-.146-.088.952.952,0,0,0-.287-.146,6.408,6.408,0,0,0,1.594-2.818,2.771,2.771,0,0,0,.082-.686,3.44,3.44,0,0,1,.48.146q.146.047.146.129a.212.212,0,0,1-.07.123.8.8,0,0,0-.158.369Q81.158,15.217,81.094,15.41Zm-2.748,5.385V18.984H77.027l-1.67.023q-.094,0-.094-.082v-.375q0-.082.094-.082l1.67.023h1.318V14.93a9.31,9.31,0,0,0-.082-1.488q.27.012.6.059.135.023.135.117a.911.911,0,0,1-.076.24,5.1,5.1,0,0,0-.059,1.061v3.574H80.49l1.658-.023a.073.073,0,0,1,.082.082v.375a.073.073,0,0,1-.082.082l-1.658-.023H78.861v1.811h2.625l1.693-.023q.088,0,.088.082v.387q0,.082-.088.082L81.486,21.3H76.078l-1.693.023a.073.073,0,0,1-.082-.082v-.387a.073.073,0,0,1,.082-.082l1.693.023Zm-.387-8.408v-.48a4.255,4.255,0,0,0-.082-.973q.428.023.645.047.123.023.123.1a1.21,1.21,0,0,1-.059.217,1.651,1.651,0,0,0-.076.6v.492h2.906l1.682-.023a.073.073,0,0,1,.082.082v.387a.073.073,0,0,1-.082.082l-1.682-.023H74.4v1.98A27.21,27.21,0,0,1,74.2,18.51a8.45,8.45,0,0,1-1.09,3.105q-.07.117-.105.117t-.123-.094a.977.977,0,0,0-.357-.24,7.346,7.346,0,0,0,1.137-3.105,26.413,26.413,0,0,0,.17-3.469l-.023-2.379a.073.073,0,0,1,.082-.082l1.717.023ZM76.5,15.457a7.155,7.155,0,0,0,1.465,1.775.769.769,0,0,0-.275.229q-.082.111-.123.111t-.129-.1a7.955,7.955,0,0,1-1.131-1.5,6.732,6.732,0,0,1-1.078,1.688q-.105.117-.146.117a.25.25,0,0,1-.117-.064,1.1,1.1,0,0,0-.316-.182,6.06,6.06,0,0,0,1.564-2.83,2.708,2.708,0,0,0,.094-.674,2.537,2.537,0,0,1,.469.135q.158.059.158.129a.179.179,0,0,1-.047.123.906.906,0,0,0-.182.369Q76.646,15.012,76.5,15.457Zm10.869-1.2a2.852,2.852,0,0,1,1.084-1.775,2.722,2.722,0,0,1,1.641-.492,2.573,2.573,0,0,1,1.857.662,2.029,2.029,0,0,1,.627,1.547,2.442,2.442,0,0,1-.445,1.43,8.449,8.449,0,0,1-1.5,1.494,9.36,9.36,0,0,0-2.555,2.953H92.59v.662H87.3v-.592a10.4,10.4,0,0,1,2.795-3.475,7.157,7.157,0,0,0,1.383-1.459,1.907,1.907,0,0,0,.275-1.014,1.43,1.43,0,0,0-.533-1.189,1.759,1.759,0,0,0-1.137-.357q-1.576,0-1.934,1.8ZM6,36.492a.9.9,0,0,1,.7.311.945.945,0,0,1-.07,1.33A.9.9,0,0,1,6,38.379a.957.957,0,0,1-.949-.949.9.9,0,0,1,.316-.7A.921.921,0,0,1,6,36.492Zm12.5.229a7.534,7.534,0,0,1-.709,3.229A5.728,5.728,0,0,1,15.68,42.17a.4.4,0,0,1-.193.07.14.14,0,0,1-.094-.035,1.657,1.657,0,0,0-.562-.311,5.951,5.951,0,0,0,1.506-1.031,4.585,4.585,0,0,0,.832-1.154,6.652,6.652,0,0,0,.627-2.988H15.3q-.8,0-1.717.059-.111,0-.141-.035a.267.267,0,0,1-.041-.123q-.006-.041-.047-.533.943.047,1.945.047H20.42q1.113,0,2.121-.047.135,0,.135.17v.381q0,.117-.146.117-1.09-.035-2.1-.035Zm-3.686-3.281q.879.047,1.811.047h2.4q1.271,0,1.922-.041h.035q.094,0,.094.146v.346q0,.158-.146.158-.645-.023-1.9-.023h-2.4q-1.078,0-1.629.035a.13.13,0,0,1-.041.006q-.094,0-.105-.135ZM25.488,37.1a20.975,20.975,0,0,0,2.473.105h3.814q1.67,0,2.578-.035.17,0,.17.135v.451q0,.146-.17.146-.627-.023-1.582-.023H27.123l-1.371.105a.165.165,0,0,1-.17-.146A2.9,2.9,0,0,1,25.488,37.1Zm16.9,2.309a14.4,14.4,0,0,1,1.307,1.465.188.188,0,0,1,.053.105.165.165,0,0,1-.053.1,1.8,1.8,0,0,1-.328.275.221.221,0,0,1-.088.041q-.035,0-.088-.064a17.337,17.337,0,0,0-3.65-3.551,3.732,3.732,0,0,1,.352-.352.172.172,0,0,1,.094-.047.225.225,0,0,1,.111.047,18.257,18.257,0,0,1,1.869,1.564,21.84,21.84,0,0,0,3.527-3.627h-5.35q-1.383,0-2.437.094a.218.218,0,0,1-.053.006.114.114,0,0,1-.129-.1,5.657,5.657,0,0,1-.07-.668q1.107.082,2.678.082h4.857a2.356,2.356,0,0,0,.8-.076.343.343,0,0,1,.152-.041.208.208,0,0,1,.152.064,3.624,3.624,0,0,1,.4.422.252.252,0,0,1,.047.141.2.2,0,0,1-.111.182,1.773,1.773,0,0,0-.422.363A25.361,25.361,0,0,1,42.387,39.4Zm8.953-3.258q-.047,1.078-.111,1.617h1.646l.967-.023q.1,0,.1.094-.006.041-.035,1.131a15.743,15.743,0,0,1-.193,2.256,1.943,1.943,0,0,1-.41,1,1.041,1.041,0,0,1-.779.287q-.428,0-.779-.035a.54.54,0,0,1-.187-.047.363.363,0,0,1-.035-.182.986.986,0,0,0-.146-.41,5.786,5.786,0,0,0,1.143.135.544.544,0,0,0,.51-.346,2.916,2.916,0,0,0,.182-.7,17.171,17.171,0,0,0,.158-2.678h-2.2A6.639,6.639,0,0,1,49.2,42.322q-.094.1-.129.1t-.135-.111a1.067,1.067,0,0,0-.334-.24,5.894,5.894,0,0,0,1.746-2.531,12.206,12.206,0,0,0,.451-3.393h-.064l-1.365.023a.073.073,0,0,1-.082-.082l.023-1.025V33.879l-.023-1.025a.073.073,0,0,1,.082-.082l1.365.023H52.43l1.383-.023a.073.073,0,0,1,.082.082l-.023,1.025v1.184l.023,1.025a.073.073,0,0,1-.082.082l-1.383-.023Zm-1.5-2.871v2.4h3.5v-2.4Zm6.5,8.666A9.5,9.5,0,0,0,57.457,42a.756.756,0,0,0,.527-.129.69.69,0,0,0,.123-.48v-7.67a8.008,8.008,0,0,0-.082-1.383q.293.018.633.064.146.018.146.094a1.033,1.033,0,0,1-.088.229,4.307,4.307,0,0,0-.059.984v6.17l.023,1.617a.989.989,0,0,1-.322.867,1.048,1.048,0,0,1-.439.164,5.985,5.985,0,0,1-.838.041h-.293q-.146,0-.176-.035a.712.712,0,0,1-.053-.17A1.356,1.356,0,0,0,56.344,41.941Zm-.791-8.736q.287.018.592.059.123.018.123.094a1.177,1.177,0,0,1-.059.17,7.941,7.941,0,0,0-.047,1.236V38l.023,1.523q0,.082-.094.082h-.4a.073.073,0,0,1-.082-.082L55.635,38V34.775A9.725,9.725,0,0,0,55.553,33.205Zm6.164,8.889v.639a.073.073,0,0,1-.082.082h-.363a.073.073,0,0,1-.082-.082l.023-1.74v-.7l-.023-1.031q0-.07.082-.07l.973.012h.768l.973-.012q.082,0,.082.07l-.023.844v.727l.023,1.682a.073.073,0,0,1-.082.082h-.352a.073.073,0,0,1-.082-.082v-.422Zm0-.457h1.834V39.662H61.717Zm4.74-5.578v-1l-1.213.023A.073.073,0,0,1,65.162,35v-.27a.073.073,0,0,1,.082-.082l1.213.023v-.9l-1.512.023q-.088,0-.088-.082v-.281q0-.082.088-.082l1.512.023v-.205a4.449,4.449,0,0,0-.082-1.078,3.93,3.93,0,0,1,.545.059q.135.018.135.094a.352.352,0,0,1-.059.17,2.2,2.2,0,0,0-.07.768v.193h1.729v-.205a4.162,4.162,0,0,0-.088-1.078,4.342,4.342,0,0,1,.568.059q.117.018.117.094a.352.352,0,0,1-.059.17,2.5,2.5,0,0,0-.059.768v.193h.152l1.588-.023a.073.073,0,0,1,.082.082v.281a.073.073,0,0,1-.082.082l-1.588-.023h-.152v.9l1.441-.023a.073.073,0,0,1,.082.082V35a.073.073,0,0,1-.082.082l-1.441-.023v1h.416l1.658-.023a.073.073,0,0,1,.082.082v.293a.073.073,0,0,1-.082.082l-1.658-.023H68v.961h.891l1.488-.029a.073.073,0,0,1,.082.082l-.023,1.383v1.271q.381-.006.691-.018l.211-.006a.073.073,0,0,1,.082.082v.281a.073.073,0,0,1-.082.082l-.117-.006q-.352-.012-.785-.018l.012,1.236a.877.877,0,0,1-.24.721,2.4,2.4,0,0,1-1.283.193.305.305,0,0,1-.176-.029.275.275,0,0,1-.053-.141,1.088,1.088,0,0,0-.193-.369q.439.035.914.035a.6.6,0,0,0,.439-.117.537.537,0,0,0,.088-.352V40.535H65.736v.844l.023,1.342a.073.073,0,0,1-.082.082H65.3q-.07,0-.07-.082l.023-1.307v-.879q-.34.006-.615.018l-.187.006a.073.073,0,0,1-.082-.082V40.2a.073.073,0,0,1,.082-.082l.24.006q.252.012.563.018v-1.33l-.023-1.324q0-.082.07-.082l1.488.029h.744v-.961H66.24l-1.658.023a.073.073,0,0,1-.082-.082v-.293a.073.073,0,0,1,.082-.082l1.658.023Zm1.078,3.082h-1.8v1h1.8Zm.469,0v1h1.945v-1Zm-.469-1.318h-1.8v.949h1.8Zm.469,0v.949h1.945v-.949Zm-1.078-4.055v.9h1.729v-.9Zm0,1.289v1h1.729v-1Zm-4.658,2.537h.686l.914-.023q.082,0,.082.088v.357a.073.073,0,0,1-.082.082l-.914-.023h-.686l-.908.023q-.088,0-.088-.082v-.357a.078.078,0,0,1,.088-.088Zm0-1.617h.686l.914-.023a.073.073,0,0,1,.082.082V36.4a.073.073,0,0,1-.082.082l-.914-.023h-.686l-.908.023q-.088,0-.088-.082v-.363q0-.082.088-.082Zm-.035-3.229h.891l1.008-.023a.073.073,0,0,1,.082.082v.363a.073.073,0,0,1-.082.082l-1.008-.023h-.891l-1.008.023a.073.073,0,0,1-.082-.082v-.363a.073.073,0,0,1,.082-.082Zm2.209,1.664v.375q0,.082-.07.082l-1.189-.023h-1.2l-1.189.023a.073.073,0,0,1-.082-.082v-.375q0-.07.082-.07l1.189.023h1.2l1.189-.023A.062.062,0,0,1,64.441,34.412Zm16.652,2a6.725,6.725,0,0,0,1.775,1.9.882.882,0,0,0-.322.24q-.082.111-.117.111t-.135-.1a8.189,8.189,0,0,1-1.406-1.641,6.885,6.885,0,0,1-1.137,1.752q-.082.1-.117.1a.367.367,0,0,1-.146-.088.952.952,0,0,0-.287-.146,6.408,6.408,0,0,0,1.594-2.818,2.771,2.771,0,0,0,.082-.686,3.44,3.44,0,0,1,.48.146q.146.047.146.129a.212.212,0,0,1-.07.123.8.8,0,0,0-.158.369Q81.158,36.217,81.094,36.41Zm-2.748,5.385V39.984H77.027l-1.67.023q-.094,0-.094-.082v-.375q0-.082.094-.082l1.67.023h1.318V35.93a9.31,9.31,0,0,0-.082-1.488q.27.012.6.059.135.023.135.117a.911.911,0,0,1-.076.24,5.1,5.1,0,0,0-.059,1.061v3.574H80.49l1.658-.023a.073.073,0,0,1,.082.082v.375a.073.073,0,0,1-.082.082l-1.658-.023H78.861v1.811h2.625l1.693-.023q.088,0,.088.082v.387q0,.082-.088.082L81.486,42.3H76.078l-1.693.023a.073.073,0,0,1-.082-.082v-.387a.073.073,0,0,1,.082-.082l1.693.023Zm-.387-8.408v-.48a4.255,4.255,0,0,0-.082-.973q.428.023.645.047.123.023.123.1a1.21,1.21,0,0,1-.059.217,1.651,1.651,0,0,0-.076.6v.492h2.906l1.682-.023a.073.073,0,0,1,.082.082v.387a.073.073,0,0,1-.082.082l-1.682-.023H74.4v1.98A27.21,27.21,0,0,1,74.2,39.51a8.45,8.45,0,0,1-1.09,3.105q-.07.117-.105.117t-.123-.094a.977.977,0,0,0-.357-.24,7.346,7.346,0,0,0,1.137-3.105,26.413,26.413,0,0,0,.17-3.469l-.023-2.379a.073.073,0,0,1,.082-.082l1.717.023ZM76.5,36.457a7.155,7.155,0,0,0,1.465,1.775.769.769,0,0,0-.275.229q-.082.111-.123.111t-.129-.1a7.955,7.955,0,0,1-1.131-1.5,6.732,6.732,0,0,1-1.078,1.688q-.105.117-.146.117a.25.25,0,0,1-.117-.064,1.1,1.1,0,0,0-.316-.182,6.06,6.06,0,0,0,1.564-2.83,2.708,2.708,0,0,0,.094-.674,2.537,2.537,0,0,1,.469.135q.158.059.158.129a.179.179,0,0,1-.047.123.906.906,0,0,0-.182.369Q76.646,36.012,76.5,36.457Zm10.863-1.8a2.543,2.543,0,0,1,2.578-1.67,2.674,2.674,0,0,1,1.881.65,1.89,1.89,0,0,1,.627,1.447,1.914,1.914,0,0,1-.521,1.389,2.3,2.3,0,0,1-1.219.627v.076a2.53,2.53,0,0,1,1.518.855,2.128,2.128,0,0,1,.451,1.365,2.315,2.315,0,0,1-.85,1.9,2.833,2.833,0,0,1-1.852.6,3.291,3.291,0,0,1-1.8-.445,2.77,2.77,0,0,1-1-1.2l.744-.311a2.114,2.114,0,0,0,.879,1.049,2.387,2.387,0,0,0,1.172.258,1.846,1.846,0,0,0,1.424-.562,1.792,1.792,0,0,0,.451-1.26,1.686,1.686,0,0,0-.65-1.441,2.709,2.709,0,0,0-1.658-.445h-.68V36.85h.609a2.419,2.419,0,0,0,1.682-.51,1.547,1.547,0,0,0,.48-1.2,1.361,1.361,0,0,0-.545-1.154,1.834,1.834,0,0,0-1.148-.346,1.748,1.748,0,0,0-1.834,1.318ZM6,57.492a.9.9,0,0,1,.7.311.945.945,0,0,1-.07,1.33A.9.9,0,0,1,6,59.379a.957.957,0,0,1-.949-.949.9.9,0,0,1,.316-.7A.921.921,0,0,1,6,57.492Zm12.5.229a7.534,7.534,0,0,1-.709,3.229A5.728,5.728,0,0,1,15.68,63.17a.4.4,0,0,1-.193.07.14.14,0,0,1-.094-.035,1.657,1.657,0,0,0-.562-.311,5.951,5.951,0,0,0,1.506-1.031,4.585,4.585,0,0,0,.832-1.154,6.652,6.652,0,0,0,.627-2.988H15.3q-.8,0-1.717.059-.111,0-.141-.035a.267.267,0,0,1-.041-.123q-.006-.041-.047-.533.943.047,1.945.047H20.42q1.113,0,2.121-.047.135,0,.135.17v.381q0,.117-.146.117-1.09-.035-2.1-.035Zm-3.686-3.281q.879.047,1.811.047h2.4q1.271,0,1.922-.041h.035q.094,0,.094.146v.346q0,.158-.146.158-.645-.023-1.9-.023h-2.4q-1.078,0-1.629.035a.13.13,0,0,1-.041.006q-.094,0-.105-.135ZM25.488,58.1a20.975,20.975,0,0,0,2.473.105h3.814q1.67,0,2.578-.035.17,0,.17.135v.451q0,.146-.17.146-.627-.023-1.582-.023H27.123l-1.371.105a.165.165,0,0,1-.17-.146A2.9,2.9,0,0,1,25.488,58.1Zm16.9,2.309a14.4,14.4,0,0,1,1.307,1.465.188.188,0,0,1,.053.105.165.165,0,0,1-.053.1,1.8,1.8,0,0,1-.328.275.221.221,0,0,1-.088.041q-.035,0-.088-.064a17.337,17.337,0,0,0-3.65-3.551,3.732,3.732,0,0,1,.352-.352.172.172,0,0,1,.094-.047.225.225,0,0,1,.111.047,18.257,18.257,0,0,1,1.869,1.564,21.84,21.84,0,0,0,3.527-3.627h-5.35q-1.383,0-2.437.094a.218.218,0,0,1-.053.006.114.114,0,0,1-.129-.1,5.657,5.657,0,0,1-.07-.668q1.107.082,2.678.082h4.857a2.356,2.356,0,0,0,.8-.076.343.343,0,0,1,.152-.041.208.208,0,0,1,.152.064,3.624,3.624,0,0,1,.4.422.252.252,0,0,1,.047.141.2.2,0,0,1-.111.182,1.773,1.773,0,0,0-.422.363A25.361,25.361,0,0,1,42.387,60.4Zm8.953-3.258q-.047,1.078-.111,1.617h1.646l.967-.023q.1,0,.1.094-.006.041-.035,1.131a15.743,15.743,0,0,1-.193,2.256,1.943,1.943,0,0,1-.41,1,1.041,1.041,0,0,1-.779.287q-.428,0-.779-.035a.54.54,0,0,1-.187-.047.363.363,0,0,1-.035-.182.986.986,0,0,0-.146-.41,5.786,5.786,0,0,0,1.143.135.544.544,0,0,0,.51-.346,2.916,2.916,0,0,0,.182-.7,17.171,17.171,0,0,0,.158-2.678h-2.2A6.639,6.639,0,0,1,49.2,63.322q-.094.1-.129.1t-.135-.111a1.067,1.067,0,0,0-.334-.24,5.894,5.894,0,0,0,1.746-2.531,12.206,12.206,0,0,0,.451-3.393h-.064l-1.365.023a.073.073,0,0,1-.082-.082l.023-1.025V54.879l-.023-1.025a.073.073,0,0,1,.082-.082l1.365.023H52.43l1.383-.023a.073.073,0,0,1,.082.082l-.023,1.025v1.184l.023,1.025a.073.073,0,0,1-.082.082l-1.383-.023Zm-1.5-2.871v2.4h3.5v-2.4Zm6.5,8.666A9.5,9.5,0,0,0,57.457,63a.756.756,0,0,0,.527-.129.69.69,0,0,0,.123-.48v-7.67a8.008,8.008,0,0,0-.082-1.383q.293.018.633.064.146.018.146.094a1.033,1.033,0,0,1-.088.229,4.307,4.307,0,0,0-.059.984v6.17l.023,1.617a.989.989,0,0,1-.322.867,1.048,1.048,0,0,1-.439.164,5.985,5.985,0,0,1-.838.041h-.293q-.146,0-.176-.035a.712.712,0,0,1-.053-.17A1.356,1.356,0,0,0,56.344,62.941Zm-.791-8.736q.287.018.592.059.123.018.123.094a1.177,1.177,0,0,1-.059.17,7.941,7.941,0,0,0-.047,1.236V59l.023,1.523q0,.082-.094.082h-.4a.073.073,0,0,1-.082-.082L55.635,59V55.775A9.725,9.725,0,0,0,55.553,54.205Zm6.164,8.889v.639a.073.073,0,0,1-.082.082h-.363a.073.073,0,0,1-.082-.082l.023-1.74v-.7l-.023-1.031q0-.07.082-.07l.973.012h.768l.973-.012q.082,0,.082.07l-.023.844v.727l.023,1.682a.073.073,0,0,1-.082.082h-.352a.073.073,0,0,1-.082-.082v-.422Zm0-.457h1.834V60.662H61.717Zm4.74-5.578v-1l-1.213.023A.073.073,0,0,1,65.162,56v-.27a.073.073,0,0,1,.082-.082l1.213.023v-.9l-1.512.023q-.088,0-.088-.082v-.281q0-.082.088-.082l1.512.023v-.205a4.449,4.449,0,0,0-.082-1.078,3.93,3.93,0,0,1,.545.059q.135.018.135.094a.352.352,0,0,1-.059.17,2.2,2.2,0,0,0-.07.768v.193h1.729v-.205a4.162,4.162,0,0,0-.088-1.078,4.342,4.342,0,0,1,.568.059q.117.018.117.094a.352.352,0,0,1-.059.17,2.5,2.5,0,0,0-.059.768v.193h.152l1.588-.023a.073.073,0,0,1,.082.082v.281a.073.073,0,0,1-.082.082l-1.588-.023h-.152v.9l1.441-.023a.073.073,0,0,1,.082.082V56a.073.073,0,0,1-.082.082l-1.441-.023v1h.416l1.658-.023a.073.073,0,0,1,.082.082v.293a.073.073,0,0,1-.082.082l-1.658-.023H68v.961h.891l1.488-.029a.073.073,0,0,1,.082.082l-.023,1.383v1.271q.381-.006.691-.018l.211-.006a.073.073,0,0,1,.082.082v.281a.073.073,0,0,1-.082.082l-.117-.006q-.352-.012-.785-.018l.012,1.236a.877.877,0,0,1-.24.721,2.4,2.4,0,0,1-1.283.193.305.305,0,0,1-.176-.029.275.275,0,0,1-.053-.141,1.088,1.088,0,0,0-.193-.369q.439.035.914.035a.6.6,0,0,0,.439-.117.537.537,0,0,0,.088-.352V61.535H65.736v.844l.023,1.342a.073.073,0,0,1-.082.082H65.3q-.07,0-.07-.082l.023-1.307v-.879q-.34.006-.615.018l-.187.006a.073.073,0,0,1-.082-.082V61.2a.073.073,0,0,1,.082-.082l.24.006q.252.012.563.018v-1.33l-.023-1.324q0-.082.07-.082l1.488.029h.744v-.961H66.24l-1.658.023a.073.073,0,0,1-.082-.082v-.293a.073.073,0,0,1,.082-.082l1.658.023Zm1.078,3.082h-1.8v1h1.8Zm.469,0v1h1.945v-1Zm-.469-1.318h-1.8v.949h1.8Zm.469,0v.949h1.945v-.949Zm-1.078-4.055v.9h1.729v-.9Zm0,1.289v1h1.729v-1Zm-4.658,2.537h.686l.914-.023q.082,0,.082.088v.357a.073.073,0,0,1-.082.082l-.914-.023h-.686l-.908.023q-.088,0-.088-.082v-.357a.078.078,0,0,1,.088-.088Zm0-1.617h.686l.914-.023a.073.073,0,0,1,.082.082V57.4a.073.073,0,0,1-.082.082l-.914-.023h-.686l-.908.023q-.088,0-.088-.082v-.363q0-.082.088-.082Zm-.035-3.229h.891l1.008-.023a.073.073,0,0,1,.082.082v.363a.073.073,0,0,1-.082.082l-1.008-.023h-.891l-1.008.023a.073.073,0,0,1-.082-.082v-.363a.073.073,0,0,1,.082-.082Zm2.209,1.664v.375q0,.082-.07.082l-1.189-.023h-1.2l-1.189.023a.073.073,0,0,1-.082-.082v-.375q0-.07.082-.07l1.189.023h1.2l1.189-.023A.062.062,0,0,1,64.441,55.412Zm16.652,2a6.725,6.725,0,0,0,1.775,1.9.882.882,0,0,0-.322.24q-.082.111-.117.111t-.135-.1a8.189,8.189,0,0,1-1.406-1.641,6.885,6.885,0,0,1-1.137,1.752q-.082.1-.117.1a.367.367,0,0,1-.146-.088.952.952,0,0,0-.287-.146,6.408,6.408,0,0,0,1.594-2.818,2.771,2.771,0,0,0,.082-.686,3.44,3.44,0,0,1,.48.146q.146.047.146.129a.212.212,0,0,1-.07.123.8.8,0,0,0-.158.369Q81.158,57.217,81.094,57.41Zm-2.748,5.385V60.984H77.027l-1.67.023q-.094,0-.094-.082v-.375q0-.082.094-.082l1.67.023h1.318V56.93a9.31,9.31,0,0,0-.082-1.488q.27.012.6.059.135.023.135.117a.911.911,0,0,1-.076.24,5.1,5.1,0,0,0-.059,1.061v3.574H80.49l1.658-.023a.073.073,0,0,1,.082.082v.375a.073.073,0,0,1-.082.082l-1.658-.023H78.861v1.811h2.625l1.693-.023q.088,0,.088.082v.387q0,.082-.088.082L81.486,63.3H76.078l-1.693.023a.073.073,0,0,1-.082-.082v-.387a.073.073,0,0,1,.082-.082l1.693.023Zm-.387-8.408v-.48a4.255,4.255,0,0,0-.082-.973q.428.023.645.047.123.023.123.1a1.21,1.21,0,0,1-.059.217,1.651,1.651,0,0,0-.076.6v.492h2.906l1.682-.023a.073.073,0,0,1,.082.082v.387a.073.073,0,0,1-.082.082l-1.682-.023H74.4v1.98A27.21,27.21,0,0,1,74.2,60.51a8.45,8.45,0,0,1-1.09,3.105q-.07.117-.105.117t-.123-.094a.977.977,0,0,0-.357-.24,7.346,7.346,0,0,0,1.137-3.105,26.413,26.413,0,0,0,.17-3.469l-.023-2.379a.073.073,0,0,1,.082-.082l1.717.023ZM76.5,57.457a7.155,7.155,0,0,0,1.465,1.775.769.769,0,0,0-.275.229q-.082.111-.123.111t-.129-.1a7.955,7.955,0,0,1-1.131-1.5,6.732,6.732,0,0,1-1.078,1.688q-.105.117-.146.117a.25.25,0,0,1-.117-.064,1.1,1.1,0,0,0-.316-.182,6.06,6.06,0,0,0,1.564-2.83,2.708,2.708,0,0,0,.094-.674,2.537,2.537,0,0,1,.469.135q.158.059.158.129a.179.179,0,0,1-.047.123.906.906,0,0,0-.182.369Q76.646,57.012,76.5,57.457Zm14.783-3.434v6.029h1.354v.621H91.283v2.063h-.709V60.674H86.783v-.586l3.422-6.064Zm-.709,6.029V56.461q0-.357.023-1.822h-.129q-.451.955-.855,1.682l-2.074,3.732ZM6,78.492a.9.9,0,0,1,.7.311.945.945,0,0,1-.07,1.33A.9.9,0,0,1,6,80.379a.957.957,0,0,1-.949-.949.9.9,0,0,1,.316-.7A.921.921,0,0,1,6,78.492Zm12.5.229a7.534,7.534,0,0,1-.709,3.229A5.728,5.728,0,0,1,15.68,84.17a.4.4,0,0,1-.193.07.14.14,0,0,1-.094-.035,1.657,1.657,0,0,0-.562-.311,5.951,5.951,0,0,0,1.506-1.031,4.585,4.585,0,0,0,.832-1.154,6.652,6.652,0,0,0,.627-2.988H15.3q-.8,0-1.717.059-.111,0-.141-.035a.267.267,0,0,1-.041-.123q-.006-.041-.047-.533.943.047,1.945.047H20.42q1.113,0,2.121-.047.135,0,.135.17v.381q0,.117-.146.117-1.09-.035-2.1-.035Zm-3.686-3.281q.879.047,1.811.047h2.4q1.271,0,1.922-.041h.035q.094,0,.094.146v.346q0,.158-.146.158-.645-.023-1.9-.023h-2.4q-1.078,0-1.629.035a.13.13,0,0,1-.041.006q-.094,0-.105-.135ZM25.488,79.1a20.975,20.975,0,0,0,2.473.105h3.814q1.67,0,2.578-.035.17,0,.17.135v.451q0,.146-.17.146-.627-.023-1.582-.023H27.123l-1.371.105a.165.165,0,0,1-.17-.146A2.9,2.9,0,0,1,25.488,79.1Zm16.9,2.309a14.4,14.4,0,0,1,1.307,1.465.188.188,0,0,1,.053.105.165.165,0,0,1-.053.1,1.8,1.8,0,0,1-.328.275.221.221,0,0,1-.088.041q-.035,0-.088-.064a17.337,17.337,0,0,0-3.65-3.551,3.732,3.732,0,0,1,.352-.352.172.172,0,0,1,.094-.047.225.225,0,0,1,.111.047,18.257,18.257,0,0,1,1.869,1.564,21.84,21.84,0,0,0,3.527-3.627h-5.35q-1.383,0-2.437.094a.218.218,0,0,1-.053.006.114.114,0,0,1-.129-.1,5.657,5.657,0,0,1-.07-.668q1.107.082,2.678.082h4.857a2.356,2.356,0,0,0,.8-.076.343.343,0,0,1,.152-.041.208.208,0,0,1,.152.064,3.624,3.624,0,0,1,.4.422.252.252,0,0,1,.047.141.2.2,0,0,1-.111.182,1.773,1.773,0,0,0-.422.363A25.361,25.361,0,0,1,42.387,81.4Zm8.953-3.258q-.047,1.078-.111,1.617h1.646l.967-.023q.1,0,.1.094-.006.041-.035,1.131a15.743,15.743,0,0,1-.193,2.256,1.943,1.943,0,0,1-.41,1,1.041,1.041,0,0,1-.779.287q-.428,0-.779-.035a.54.54,0,0,1-.187-.047.363.363,0,0,1-.035-.182.986.986,0,0,0-.146-.41,5.786,5.786,0,0,0,1.143.135.544.544,0,0,0,.51-.346,2.916,2.916,0,0,0,.182-.7,17.171,17.171,0,0,0,.158-2.678h-2.2A6.639,6.639,0,0,1,49.2,84.322q-.094.1-.129.1t-.135-.111a1.067,1.067,0,0,0-.334-.24,5.894,5.894,0,0,0,1.746-2.531,12.206,12.206,0,0,0,.451-3.393h-.064l-1.365.023a.073.073,0,0,1-.082-.082l.023-1.025V75.879l-.023-1.025a.073.073,0,0,1,.082-.082l1.365.023H52.43l1.383-.023a.073.073,0,0,1,.082.082l-.023,1.025v1.184l.023,1.025a.073.073,0,0,1-.082.082l-1.383-.023Zm-1.5-2.871v2.4h3.5v-2.4Zm6.5,8.666A9.5,9.5,0,0,0,57.457,84a.756.756,0,0,0,.527-.129.69.69,0,0,0,.123-.48v-7.67a8.008,8.008,0,0,0-.082-1.383q.293.018.633.064.146.018.146.094a1.033,1.033,0,0,1-.088.229,4.307,4.307,0,0,0-.059.984v6.17l.023,1.617a.989.989,0,0,1-.322.867,1.048,1.048,0,0,1-.439.164,5.985,5.985,0,0,1-.838.041h-.293q-.146,0-.176-.035a.712.712,0,0,1-.053-.17A1.356,1.356,0,0,0,56.344,83.941Zm-.791-8.736q.287.018.592.059.123.018.123.094a1.177,1.177,0,0,1-.059.17,7.941,7.941,0,0,0-.047,1.236V80l.023,1.523q0,.082-.094.082h-.4a.073.073,0,0,1-.082-.082L55.635,80V76.775A9.725,9.725,0,0,0,55.553,75.205Zm6.164,8.889v.639a.073.073,0,0,1-.082.082h-.363a.073.073,0,0,1-.082-.082l.023-1.74v-.7l-.023-1.031q0-.07.082-.07l.973.012h.768l.973-.012q.082,0,.082.07l-.023.844v.727l.023,1.682a.073.073,0,0,1-.082.082h-.352a.073.073,0,0,1-.082-.082v-.422Zm0-.457h1.834V81.662H61.717Zm4.74-5.578v-1l-1.213.023A.073.073,0,0,1,65.162,77v-.27a.073.073,0,0,1,.082-.082l1.213.023v-.9l-1.512.023q-.088,0-.088-.082v-.281q0-.082.088-.082l1.512.023v-.205a4.449,4.449,0,0,0-.082-1.078,3.93,3.93,0,0,1,.545.059q.135.018.135.094a.352.352,0,0,1-.059.17,2.2,2.2,0,0,0-.07.768v.193h1.729v-.205a4.162,4.162,0,0,0-.088-1.078,4.342,4.342,0,0,1,.568.059q.117.018.117.094a.352.352,0,0,1-.059.17,2.5,2.5,0,0,0-.059.768v.193h.152l1.588-.023a.073.073,0,0,1,.082.082v.281a.073.073,0,0,1-.082.082l-1.588-.023h-.152v.9l1.441-.023a.073.073,0,0,1,.082.082V77a.073.073,0,0,1-.082.082l-1.441-.023v1h.416l1.658-.023a.073.073,0,0,1,.082.082v.293a.073.073,0,0,1-.082.082l-1.658-.023H68v.961h.891l1.488-.029a.073.073,0,0,1,.082.082l-.023,1.383v1.271q.381-.006.691-.018l.211-.006a.073.073,0,0,1,.082.082v.281a.073.073,0,0,1-.082.082l-.117-.006q-.352-.012-.785-.018l.012,1.236a.877.877,0,0,1-.24.721,2.4,2.4,0,0,1-1.283.193.305.305,0,0,1-.176-.029.275.275,0,0,1-.053-.141,1.088,1.088,0,0,0-.193-.369q.439.035.914.035a.6.6,0,0,0,.439-.117.537.537,0,0,0,.088-.352V82.535H65.736v.844l.023,1.342a.073.073,0,0,1-.082.082H65.3q-.07,0-.07-.082l.023-1.307v-.879q-.34.006-.615.018l-.187.006a.073.073,0,0,1-.082-.082V82.2a.073.073,0,0,1,.082-.082l.24.006q.252.012.563.018v-1.33l-.023-1.324q0-.082.07-.082l1.488.029h.744v-.961H66.24l-1.658.023a.073.073,0,0,1-.082-.082v-.293a.073.073,0,0,1,.082-.082l1.658.023Zm1.078,3.082h-1.8v1h1.8Zm.469,0v1h1.945v-1Zm-.469-1.318h-1.8v.949h1.8Zm.469,0v.949h1.945v-.949Zm-1.078-4.055v.9h1.729v-.9Zm0,1.289v1h1.729v-1Zm-4.658,2.537h.686l.914-.023q.082,0,.082.088v.357a.073.073,0,0,1-.082.082l-.914-.023h-.686l-.908.023q-.088,0-.088-.082v-.357a.078.078,0,0,1,.088-.088Zm0-1.617h.686l.914-.023a.073.073,0,0,1,.082.082V78.4a.073.073,0,0,1-.082.082l-.914-.023h-.686l-.908.023q-.088,0-.088-.082v-.363q0-.082.088-.082Zm-.035-3.229h.891l1.008-.023a.073.073,0,0,1,.082.082v.363a.073.073,0,0,1-.082.082l-1.008-.023h-.891l-1.008.023a.073.073,0,0,1-.082-.082v-.363a.073.073,0,0,1,.082-.082Zm2.209,1.664v.375q0,.082-.07.082l-1.189-.023h-1.2l-1.189.023a.073.073,0,0,1-.082-.082v-.375q0-.07.082-.07l1.189.023h1.2l1.189-.023A.062.062,0,0,1,64.441,76.412Zm16.652,2a6.725,6.725,0,0,0,1.775,1.9.882.882,0,0,0-.322.24q-.082.111-.117.111t-.135-.1a8.189,8.189,0,0,1-1.406-1.641,6.885,6.885,0,0,1-1.137,1.752q-.082.1-.117.1a.367.367,0,0,1-.146-.088.952.952,0,0,0-.287-.146,6.408,6.408,0,0,0,1.594-2.818,2.771,2.771,0,0,0,.082-.686,3.44,3.44,0,0,1,.48.146q.146.047.146.129a.212.212,0,0,1-.07.123.8.8,0,0,0-.158.369Q81.158,78.217,81.094,78.41Zm-2.748,5.385V81.984H77.027l-1.67.023q-.094,0-.094-.082v-.375q0-.082.094-.082l1.67.023h1.318V77.93a9.31,9.31,0,0,0-.082-1.488q.27.012.6.059.135.023.135.117a.911.911,0,0,1-.076.24,5.1,5.1,0,0,0-.059,1.061v3.574H80.49l1.658-.023a.073.073,0,0,1,.082.082v.375a.073.073,0,0,1-.082.082l-1.658-.023H78.861v1.811h2.625l1.693-.023q.088,0,.088.082v.387q0,.082-.088.082L81.486,84.3H76.078l-1.693.023a.073.073,0,0,1-.082-.082v-.387a.073.073,0,0,1,.082-.082l1.693.023Zm-.387-8.408v-.48a4.255,4.255,0,0,0-.082-.973q.428.023.645.047.123.023.123.1a1.21,1.21,0,0,1-.059.217,1.651,1.651,0,0,0-.076.6v.492h2.906l1.682-.023a.073.073,0,0,1,.082.082v.387a.073.073,0,0,1-.082.082l-1.682-.023H74.4v1.98A27.21,27.21,0,0,1,74.2,81.51a8.45,8.45,0,0,1-1.09,3.105q-.07.117-.105.117t-.123-.094a.977.977,0,0,0-.357-.24,7.346,7.346,0,0,0,1.137-3.105,26.413,26.413,0,0,0,.17-3.469l-.023-2.379a.073.073,0,0,1,.082-.082l1.717.023ZM76.5,78.457a7.155,7.155,0,0,0,1.465,1.775.769.769,0,0,0-.275.229q-.082.111-.123.111t-.129-.1a7.955,7.955,0,0,1-1.131-1.5,6.732,6.732,0,0,1-1.078,1.688q-.105.117-.146.117a.25.25,0,0,1-.117-.064,1.1,1.1,0,0,0-.316-.182,6.06,6.06,0,0,0,1.564-2.83,2.708,2.708,0,0,0,.094-.674,2.537,2.537,0,0,1,.469.135q.158.059.158.129a.179.179,0,0,1-.047.123.906.906,0,0,0-.182.369Q76.646,78.012,76.5,78.457Zm15.686-3.322V75.8H88.441l-.111,2.279q-.006.2-.041.563-.041.428-.041.469a1.9,1.9,0,0,1,.809-.715,2.281,2.281,0,0,1,1-.223,2.339,2.339,0,0,1,1.875.844,2.881,2.881,0,0,1,.645,1.928,2.946,2.946,0,0,1-.9,2.279,2.6,2.6,0,0,1-1.816.674,2.539,2.539,0,0,1-2.566-1.6l.744-.322a1.769,1.769,0,0,0,1.822,1.271,1.693,1.693,0,0,0,1.43-.691,2.558,2.558,0,0,0,.457-1.576,2.309,2.309,0,0,0-.557-1.664,1.674,1.674,0,0,0-1.254-.492,1.766,1.766,0,0,0-1.729,1.213l-.65-.1.229-4.8Z" transform="translate(-5.051 10.066)"/>
</svg>
