<svg xmlns="http://www.w3.org/2000/svg" xmlns:xlink="http://www.w3.org/1999/xlink" width="400" height="401" viewBox="0 0 400 401">
  <defs>
    <clipPath id="clip-path">
      <rect width="400" height="401" fill="none"/>
    </clipPath>
    <clipPath id="clip-path-2">
      <rect id="長方形_342" data-name="長方形 342" width="840" height="655" fill="#fff"/>
    </clipPath>
  </defs>
  <g id="リピートグリッド_2" data-name="リピートグリッド 2" clip-path="url(#clip-path)">
    <g id="グループ_190" data-name="グループ 190" transform="translate(-280 -9018)">
      <rect id="長方形_343" data-name="長方形 343" width="840" height="655" transform="translate(280 9018)" fill="#fff"/>
      <g id="マスクグループ_3" data-name="マスクグループ 3" transform="translate(280 9018)" clip-path="url(#clip-path-2)">
        <path id="前面オブジェクトで型抜き_1" data-name="前面オブジェクトで型抜き 1" d="M586.728,747.079H574.871L690.513,631.436l208-208,59.61-59.61v11.858l-53.3,53.3-208,208-110.1,110.1Zm-26,0H548.87L664.513,631.436l208-208,85.61-85.61v11.858l-66.681,66.68-12.617,12.617-208,208-110.1,110.1Zm-52,0H496.87L612.513,631.436,807.9,436.053,958.123,285.827v11.857l-131.3,131.3-208,208-110.1,110.1Zm-26,0H470.871L580.2,637.745,794.514,423.436,958.123,259.826v11.857l-144.68,144.68L592.825,636.981l-110.1,110.1Zm-26,0H444.871L560.514,631.436l208-208L958.123,233.826v11.858l-183.3,183.3-208,208-110.1,110.1Zm-156,0H288.87L404.513,631.436l208-208L807.9,228.053,958.123,77.827V89.684l-131.3,131.3-208,208L423.442,624.364l-6.309,6.309-6.308,6.308-110.1,110.1Zm-26,0H262.87L378.513,631.436,573.9,436.053,794.514,215.436,958.123,51.827V63.684l-144.68,144.68L592.825,428.981l-208,208-110.1,110.1Zm-26,0H236.871L346.2,637.745,560.514,423.436l208-208L958.123,25.826V37.684l-183.3,183.3L579.443,416.364,358.825,636.981l-110.1,110.1Zm-26,0H210.871L326.514,631.436l208-208L729.9,228.053l12.617-12.617,208-208L943.442.365,722.825,220.982l-208,208-208,208-110.1,110.1H184.871L300.514,631.436,495.9,436.053l12.617-12.617,208-208,208-208L917.442.365,696.825,220.982l-208,208-208,208-110.1,110.1H158.871L274.514,631.436l208-208,208-208,208-208L891.442.365,670.825,220.982l-208,208-208,208-110.1,110.1H132.871L248.514,631.436l208-208,208-208,208-208L865.443.365l-208,208-12.617,12.617-208,208-208,208-110.1,110.1H106.871L222.513,631.436l208-208,208-208,208-208L839.443.365,618.825,220.982,423.442,416.364l-12.617,12.617-208,208-110.1,110.1H80.87L196.513,631.436l208-208,208-208,208-208L813.443.365,592.825,220.982l-208,208L189.442,624.364l-6.308,6.309-6.309,6.308-110.1,110.1H54.87L170.513,631.436l208-208L573.9,228.053,794.514,7.436,787.442.365l-208,208L358.825,428.981l-208,208-110.1,110.1H28.87L144.513,631.436,339.9,436.053,560.514,215.436l208-208L761.442.365,540.825,220.982,345.442,416.364,124.825,636.981l-110.1,110.1H2.871L112.2,637.745,326.514,423.436l208-208,208-208L735.442.365,514.825,220.982l-208,208-208,208L0,735.807V723.949l92.514-92.514,208-208L495.9,228.053l12.617-12.617,208-208L709.442.365,488.825,220.982l-208,208-208,208L0,709.807V697.949l66.513-66.514,208-208,208-208,208-208L683.442.365,462.825,220.982l-208,208-208,208L0,683.807V671.949l40.513-40.513,208-208,208-208,208-208L657.442.365,436.825,220.982l-208,208-208,208L0,657.806V645.949l14.513-14.513,208-208,208-208,208-208L631.443.365l-208,208-12.617,12.617-208,208L0,631.806V619.949L196.513,423.436l208-208,208-208L605.443.365,384.825,220.982,189.442,416.364l-12.617,12.617L0,605.806V593.949L170.513,423.436l208-208,208-208L579.443.365,358.825,220.982l-208,208L0,579.806V567.949L144.513,423.436,339.9,228.053,560.514,7.436,553.442.365l-208,208L124.825,428.981,0,553.806V541.948l105.9-105.9L326.514,215.436l208-208L527.442.365,306.825,220.982,111.443,416.364,0,527.806V515.949l92.514-92.513,208-208,208-208L501.442.365,280.825,220.982l-208,208L0,501.807V489.949l53.9-53.9,12.617-12.617,208-208,208-208L475.442.365,254.825,220.982l-208,208L0,475.807V463.949l40.513-40.514,208-208,208-208L449.442.365,228.825,220.982l-208,208L0,449.807V437.949l14.513-14.513,208-208,208-208L423.442.365,202.825,220.982,0,423.806V411.949L196.513,215.436l208-208L397.443.365l-208,208-12.617,12.617L0,397.806V385.949L170.513,215.436l208-208L371.443.365,150.825,220.982,0,371.806V359.949L144.513,215.436l208-208L345.443.365,124.825,220.982,0,345.806V333.949l105.9-105.9L326.514,7.436,319.442.365l-208,208L0,319.806V307.949l92.514-92.513,208-208L293.442.365,72.825,220.982,0,293.807V281.949l53.9-53.9,12.617-12.617,208-208L267.442.365,46.825,220.982,0,267.807V255.949l40.513-40.513,208-208L241.442.365,20.825,220.982,0,241.807V229.949l14.513-14.513,208-208L215.442.365,0,215.807V203.949L196.513,7.436,189.442.365,0,189.806V177.949L170.513,7.436,163.443.365,0,163.807V151.949L144.513,7.436,137.443.365,0,137.807V125.949L118.513,7.436,111.443.365,0,111.807V99.949L92.514,7.436,85.442.365,0,85.807V73.949L66.514,7.436,59.442.365,0,59.807V47.949L40.514,7.436,33.442.365,0,33.807V21.949L14.514,7.436,7.442.365,0,7.807V0H958.123V11.684l-209.3,209.3-208,208-208,208-110.1,110.1Zm728,0H938.871l19.252-19.252v11.857l-7.394,7.394Zm-37.858,0,45.252-45.252v11.858l-33.395,33.394h0Zm-26,0,71.252-71.252v11.858l-59.394,59.394h0Zm-26,0,97.252-97.252v11.858l-85.395,85.395h0Zm-26,0L950.514,631.436l7.609-7.61v11.858l-1.3,1.3-110.1,110.1h0Zm-26,0L924.513,631.436l33.61-33.61v11.857l-27.3,27.3-110.1,110.1h0Zm-26,0L898.513,631.436l59.61-59.61v11.857l-53.3,53.3-110.1,110.1h0Zm-26,0L872.513,631.436l85.61-85.61v11.858l-66.681,66.68-6.309,6.309-6.308,6.308-110.1,110.1h0Zm-26,0L846.513,631.436l111.61-111.61v11.858l-105.3,105.3-110.1,110.1h0Zm-26,0L814.2,637.745,958.123,493.826v11.857l-131.3,131.3-110.1,110.1h0Zm-26,0L794.514,631.436,958.123,467.826v11.858l-157.3,157.3-110.1,110.1h0Zm-26,0L768.514,631.436,958.123,441.826v11.858l-183.3,183.3-110.1,110.1h0Zm-26,0L742.514,631.436l208-208,7.609-7.61v11.858l-1.3,1.3-208,208-110.1,110.1h0Zm-26,0L716.513,631.436l208-208,33.61-33.61v11.858l-27.3,27.3-208,208-110.1,110.1h0Zm-78,0L638.513,631.436l208-208,111.61-111.61v11.858l-105.3,105.3L657.442,624.364l-6.308,6.309-6.309,6.308-110.1,110.1h0Zm-104,0L534.514,631.436,729.9,436.053l12.617-12.617,208-208,7.609-7.61v11.858l-1.3,1.3-208,208-208,208-110.1,110.1h0Zm-26,0L508.513,631.436l208-208,208-208,33.61-33.61v11.858l-27.3,27.3-208,208-208,208-110.1,110.1h0Zm-26,0L482.513,631.436l208-208,208-208,59.61-59.61v11.858l-53.3,53.3-208,208-208,208-110.1,110.1h0Zm-26,0L456.513,631.436l208-208,208-208,85.61-85.61v11.858l-66.681,66.68-12.617,12.617-208,208-208,208-110.1,110.1h0Zm-26,0L430.513,631.436l208-208,208-208,111.61-111.61v11.858l-105.3,105.3L657.442,416.364l-12.617,12.617-208,208-110.1,110.1h0Z" transform="translate(0 -92.106)" fill="#f5f5f5"/>
      </g>
    </g>
  </g>
</svg>
