<svg xmlns="http://www.w3.org/2000/svg" width="135.765" height="68.944" viewBox="0 0 135.765 68.944">
  <g id="グループ_45" data-name="グループ 45" transform="translate(0.5 0.5)">
    <path id="パス_60" data-name="パス 60" d="M67.882,38.122a58.539,58.539,0,0,1,23.584,5.054,17.1,17.1,0,0,1,10.107,15.161v8.984H34.191V58.337c0-6.738,3.931-12.915,10.107-15.161A58.539,58.539,0,0,1,67.882,38.122ZM22.961,39.806a11.23,11.23,0,1,0-11.23-11.23A11.263,11.263,0,0,0,22.961,39.806Zm6.177,6.177a21.054,21.054,0,0,0-6.177-.562A37.68,37.68,0,0,0,7.238,48.791,11.3,11.3,0,0,0,.5,59.46v8.984H25.768V59.46A26.677,26.677,0,0,1,29.138,45.983ZM112.8,39.806a11.23,11.23,0,1,0-11.23-11.23A11.263,11.263,0,0,0,112.8,39.806ZM135.265,58.9c0-4.492-2.808-8.423-6.738-10.669A37.68,37.68,0,0,0,112.8,44.86a21.054,21.054,0,0,0-6.177.562A26.084,26.084,0,0,1,110,58.337v8.984h25.268ZM67.882.5A16.545,16.545,0,0,1,84.728,17.346a16.846,16.846,0,1,1-33.691,0A16.545,16.545,0,0,1,67.882.5Z" transform="translate(-0.5 -0.5)" fill="#fff" stroke="#333" stroke-miterlimit="10" stroke-width="1"/>
  </g>
</svg>
